<svg xmlns="http://www.w3.org/2000/svg" xmlns:xlink="http://www.w3.org/1999/xlink" width="600" height="400" viewBox="0 0 2400 1600">
<defs>
  <clipPath id="clip550">
    <rect x="0" y="0" width="2400" height="1600"></rect>
  </clipPath>
</defs>
<path clip-path="url(#clip550)" d="M0 1600 L2400 1600 L2400 0 L0 0  Z" fill="#ffffff" fill-rule="evenodd" fill-opacity="1"></path>
<defs>
  <clipPath id="clip551">
    <rect x="480" y="0" width="1681" height="1600"></rect>
  </clipPath>
</defs>
<path clip-path="url(#clip550)" d="M184.677 686.448 L2352.76 686.448 L2352.76 47.2441 L184.677 47.2441  Z" fill="#ffffff" fill-rule="evenodd" fill-opacity="1"></path>
<defs>
  <clipPath id="clip552">
    <rect x="184" y="47" width="2169" height="640"></rect>
  </clipPath>
</defs>
<polyline clip-path="url(#clip552)" style="stroke:#000000; stroke-linecap:round; stroke-linejoin:round; stroke-width:2; stroke-opacity:0.1; fill:none" points="241.939,686.448 241.939,47.2441 "></polyline>
<polyline clip-path="url(#clip552)" style="stroke:#000000; stroke-linecap:round; stroke-linejoin:round; stroke-width:2; stroke-opacity:0.1; fill:none" points="651.83,686.448 651.83,47.2441 "></polyline>
<polyline clip-path="url(#clip552)" style="stroke:#000000; stroke-linecap:round; stroke-linejoin:round; stroke-width:2; stroke-opacity:0.1; fill:none" points="1061.72,686.448 1061.72,47.2441 "></polyline>
<polyline clip-path="url(#clip552)" style="stroke:#000000; stroke-linecap:round; stroke-linejoin:round; stroke-width:2; stroke-opacity:0.1; fill:none" points="1471.61,686.448 1471.61,47.2441 "></polyline>
<polyline clip-path="url(#clip552)" style="stroke:#000000; stroke-linecap:round; stroke-linejoin:round; stroke-width:2; stroke-opacity:0.1; fill:none" points="1881.5,686.448 1881.5,47.2441 "></polyline>
<polyline clip-path="url(#clip552)" style="stroke:#000000; stroke-linecap:round; stroke-linejoin:round; stroke-width:2; stroke-opacity:0.1; fill:none" points="2291.4,686.448 2291.4,47.2441 "></polyline>
<polyline clip-path="url(#clip550)" style="stroke:#000000; stroke-linecap:round; stroke-linejoin:round; stroke-width:4; stroke-opacity:1; fill:none" points="184.677,686.448 2352.76,686.448 "></polyline>
<polyline clip-path="url(#clip550)" style="stroke:#000000; stroke-linecap:round; stroke-linejoin:round; stroke-width:4; stroke-opacity:1; fill:none" points="241.939,686.448 241.939,667.55 "></polyline>
<polyline clip-path="url(#clip550)" style="stroke:#000000; stroke-linecap:round; stroke-linejoin:round; stroke-width:4; stroke-opacity:1; fill:none" points="651.83,686.448 651.83,667.55 "></polyline>
<polyline clip-path="url(#clip550)" style="stroke:#000000; stroke-linecap:round; stroke-linejoin:round; stroke-width:4; stroke-opacity:1; fill:none" points="1061.72,686.448 1061.72,667.55 "></polyline>
<polyline clip-path="url(#clip550)" style="stroke:#000000; stroke-linecap:round; stroke-linejoin:round; stroke-width:4; stroke-opacity:1; fill:none" points="1471.61,686.448 1471.61,667.55 "></polyline>
<polyline clip-path="url(#clip550)" style="stroke:#000000; stroke-linecap:round; stroke-linejoin:round; stroke-width:4; stroke-opacity:1; fill:none" points="1881.5,686.448 1881.5,667.55 "></polyline>
<polyline clip-path="url(#clip550)" style="stroke:#000000; stroke-linecap:round; stroke-linejoin:round; stroke-width:4; stroke-opacity:1; fill:none" points="2291.4,686.448 2291.4,667.55 "></polyline>
<path clip-path="url(#clip550)" d="M241.939 717.367 Q238.328 717.367 236.499 720.931 Q234.693 724.473 234.693 731.603 Q234.693 738.709 236.499 742.274 Q238.328 745.815 241.939 745.815 Q245.573 745.815 247.378 742.274 Q249.207 738.709 249.207 731.603 Q249.207 724.473 247.378 720.931 Q245.573 717.367 241.939 717.367 M241.939 713.663 Q247.749 713.663 250.804 718.269 Q253.883 722.853 253.883 731.603 Q253.883 740.329 250.804 744.936 Q247.749 749.519 241.939 749.519 Q236.128 749.519 233.05 744.936 Q229.994 740.329 229.994 731.603 Q229.994 722.853 233.05 718.269 Q236.128 713.663 241.939 713.663 Z" fill="#000000" fill-rule="nonzero" fill-opacity="1"></path><path clip-path="url(#clip550)" d="M611.437 744.913 L619.075 744.913 L619.075 718.547 L610.765 720.214 L610.765 715.955 L619.029 714.288 L623.705 714.288 L623.705 744.913 L631.344 744.913 L631.344 748.848 L611.437 748.848 L611.437 744.913 Z" fill="#000000" fill-rule="nonzero" fill-opacity="1"></path><path clip-path="url(#clip550)" d="M650.788 717.367 Q647.177 717.367 645.348 720.931 Q643.543 724.473 643.543 731.603 Q643.543 738.709 645.348 742.274 Q647.177 745.815 650.788 745.815 Q654.422 745.815 656.228 742.274 Q658.057 738.709 658.057 731.603 Q658.057 724.473 656.228 720.931 Q654.422 717.367 650.788 717.367 M650.788 713.663 Q656.598 713.663 659.654 718.269 Q662.733 722.853 662.733 731.603 Q662.733 740.329 659.654 744.936 Q656.598 749.519 650.788 749.519 Q644.978 749.519 641.899 744.936 Q638.844 740.329 638.844 731.603 Q638.844 722.853 641.899 718.269 Q644.978 713.663 650.788 713.663 Z" fill="#000000" fill-rule="nonzero" fill-opacity="1"></path><path clip-path="url(#clip550)" d="M680.95 717.367 Q677.339 717.367 675.51 720.931 Q673.705 724.473 673.705 731.603 Q673.705 738.709 675.51 742.274 Q677.339 745.815 680.95 745.815 Q684.584 745.815 686.39 742.274 Q688.219 738.709 688.219 731.603 Q688.219 724.473 686.39 720.931 Q684.584 717.367 680.95 717.367 M680.95 713.663 Q686.76 713.663 689.816 718.269 Q692.895 722.853 692.895 731.603 Q692.895 740.329 689.816 744.936 Q686.76 749.519 680.95 749.519 Q675.14 749.519 672.061 744.936 Q669.006 740.329 669.006 731.603 Q669.006 722.853 672.061 718.269 Q675.14 713.663 680.95 713.663 Z" fill="#000000" fill-rule="nonzero" fill-opacity="1"></path><path clip-path="url(#clip550)" d="M1025.41 744.913 L1041.73 744.913 L1041.73 748.848 L1019.79 748.848 L1019.79 744.913 Q1022.45 742.158 1027.03 737.528 Q1031.64 732.876 1032.82 731.533 Q1035.07 729.01 1035.95 727.274 Q1036.85 725.515 1036.85 723.825 Q1036.85 721.07 1034.9 719.334 Q1032.98 717.598 1029.88 717.598 Q1027.68 717.598 1025.23 718.362 Q1022.8 719.126 1020.02 720.677 L1020.02 715.955 Q1022.84 714.82 1025.3 714.242 Q1027.75 713.663 1029.79 713.663 Q1035.16 713.663 1038.35 716.348 Q1041.55 719.033 1041.55 723.524 Q1041.55 725.654 1040.74 727.575 Q1039.95 729.473 1037.84 732.066 Q1037.27 732.737 1034.16 735.954 Q1031.06 739.149 1025.41 744.913 Z" fill="#000000" fill-rule="nonzero" fill-opacity="1"></path><path clip-path="url(#clip550)" d="M1061.55 717.367 Q1057.94 717.367 1056.11 720.931 Q1054.3 724.473 1054.3 731.603 Q1054.3 738.709 1056.11 742.274 Q1057.94 745.815 1061.55 745.815 Q1065.18 745.815 1066.99 742.274 Q1068.82 738.709 1068.82 731.603 Q1068.82 724.473 1066.99 720.931 Q1065.18 717.367 1061.55 717.367 M1061.55 713.663 Q1067.36 713.663 1070.41 718.269 Q1073.49 722.853 1073.49 731.603 Q1073.49 740.329 1070.41 744.936 Q1067.36 749.519 1061.55 749.519 Q1055.74 749.519 1052.66 744.936 Q1049.6 740.329 1049.6 731.603 Q1049.6 722.853 1052.66 718.269 Q1055.74 713.663 1061.55 713.663 Z" fill="#000000" fill-rule="nonzero" fill-opacity="1"></path><path clip-path="url(#clip550)" d="M1091.71 717.367 Q1088.1 717.367 1086.27 720.931 Q1084.46 724.473 1084.46 731.603 Q1084.46 738.709 1086.27 742.274 Q1088.1 745.815 1091.71 745.815 Q1095.34 745.815 1097.15 742.274 Q1098.98 738.709 1098.98 731.603 Q1098.98 724.473 1097.15 720.931 Q1095.34 717.367 1091.71 717.367 M1091.71 713.663 Q1097.52 713.663 1100.58 718.269 Q1103.65 722.853 1103.65 731.603 Q1103.65 740.329 1100.58 744.936 Q1097.52 749.519 1091.71 749.519 Q1085.9 749.519 1082.82 744.936 Q1079.77 740.329 1079.77 731.603 Q1079.77 722.853 1082.82 718.269 Q1085.9 713.663 1091.71 713.663 Z" fill="#000000" fill-rule="nonzero" fill-opacity="1"></path><path clip-path="url(#clip550)" d="M1445.37 730.214 Q1448.73 730.931 1450.61 733.2 Q1452.5 735.468 1452.5 738.802 Q1452.5 743.917 1448.99 746.718 Q1445.47 749.519 1438.99 749.519 Q1436.81 749.519 1434.49 749.079 Q1432.2 748.663 1429.75 747.806 L1429.75 743.292 Q1431.69 744.427 1434.01 745.005 Q1436.32 745.584 1438.85 745.584 Q1443.24 745.584 1445.54 743.848 Q1447.85 742.112 1447.85 738.802 Q1447.85 735.746 1445.7 734.033 Q1443.57 732.297 1439.75 732.297 L1435.72 732.297 L1435.72 728.454 L1439.93 728.454 Q1443.38 728.454 1445.21 727.089 Q1447.04 725.7 1447.04 723.107 Q1447.04 720.445 1445.14 719.033 Q1443.27 717.598 1439.75 717.598 Q1437.83 717.598 1435.63 718.015 Q1433.43 718.431 1430.79 719.311 L1430.79 715.144 Q1433.45 714.404 1435.77 714.033 Q1438.11 713.663 1440.17 713.663 Q1445.49 713.663 1448.59 716.093 Q1451.69 718.501 1451.69 722.621 Q1451.69 725.492 1450.05 727.482 Q1448.41 729.45 1445.37 730.214 Z" fill="#000000" fill-rule="nonzero" fill-opacity="1"></path><path clip-path="url(#clip550)" d="M1471.37 717.367 Q1467.76 717.367 1465.93 720.931 Q1464.12 724.473 1464.12 731.603 Q1464.12 738.709 1465.93 742.274 Q1467.76 745.815 1471.37 745.815 Q1475 745.815 1476.81 742.274 Q1478.64 738.709 1478.64 731.603 Q1478.64 724.473 1476.81 720.931 Q1475 717.367 1471.37 717.367 M1471.37 713.663 Q1477.18 713.663 1480.24 718.269 Q1483.31 722.853 1483.31 731.603 Q1483.31 740.329 1480.24 744.936 Q1477.18 749.519 1471.37 749.519 Q1465.56 749.519 1462.48 744.936 Q1459.43 740.329 1459.43 731.603 Q1459.43 722.853 1462.48 718.269 Q1465.56 713.663 1471.37 713.663 Z" fill="#000000" fill-rule="nonzero" fill-opacity="1"></path><path clip-path="url(#clip550)" d="M1501.53 717.367 Q1497.92 717.367 1496.09 720.931 Q1494.29 724.473 1494.29 731.603 Q1494.29 738.709 1496.09 742.274 Q1497.92 745.815 1501.53 745.815 Q1505.17 745.815 1506.97 742.274 Q1508.8 738.709 1508.8 731.603 Q1508.8 724.473 1506.97 720.931 Q1505.17 717.367 1501.53 717.367 M1501.53 713.663 Q1507.34 713.663 1510.4 718.269 Q1513.48 722.853 1513.48 731.603 Q1513.48 740.329 1510.4 744.936 Q1507.34 749.519 1501.53 749.519 Q1495.72 749.519 1492.64 744.936 Q1489.59 740.329 1489.59 731.603 Q1489.59 722.853 1492.64 718.269 Q1495.72 713.663 1501.53 713.663 Z" fill="#000000" fill-rule="nonzero" fill-opacity="1"></path><path clip-path="url(#clip550)" d="M1854.59 718.362 L1842.79 736.811 L1854.59 736.811 L1854.59 718.362 M1853.37 714.288 L1859.25 714.288 L1859.25 736.811 L1864.18 736.811 L1864.18 740.7 L1859.25 740.7 L1859.25 748.848 L1854.59 748.848 L1854.59 740.7 L1838.99 740.7 L1838.99 736.186 L1853.37 714.288 Z" fill="#000000" fill-rule="nonzero" fill-opacity="1"></path><path clip-path="url(#clip550)" d="M1881.91 717.367 Q1878.3 717.367 1876.47 720.931 Q1874.66 724.473 1874.66 731.603 Q1874.66 738.709 1876.47 742.274 Q1878.3 745.815 1881.91 745.815 Q1885.54 745.815 1887.35 742.274 Q1889.18 738.709 1889.18 731.603 Q1889.18 724.473 1887.35 720.931 Q1885.54 717.367 1881.91 717.367 M1881.91 713.663 Q1887.72 713.663 1890.77 718.269 Q1893.85 722.853 1893.85 731.603 Q1893.85 740.329 1890.77 744.936 Q1887.72 749.519 1881.91 749.519 Q1876.1 749.519 1873.02 744.936 Q1869.96 740.329 1869.96 731.603 Q1869.96 722.853 1873.02 718.269 Q1876.1 713.663 1881.91 713.663 Z" fill="#000000" fill-rule="nonzero" fill-opacity="1"></path><path clip-path="url(#clip550)" d="M1912.07 717.367 Q1908.46 717.367 1906.63 720.931 Q1904.83 724.473 1904.83 731.603 Q1904.83 738.709 1906.63 742.274 Q1908.46 745.815 1912.07 745.815 Q1915.71 745.815 1917.51 742.274 Q1919.34 738.709 1919.34 731.603 Q1919.34 724.473 1917.51 720.931 Q1915.71 717.367 1912.07 717.367 M1912.07 713.663 Q1917.88 713.663 1920.94 718.269 Q1924.02 722.853 1924.02 731.603 Q1924.02 740.329 1920.94 744.936 Q1917.88 749.519 1912.07 749.519 Q1906.26 749.519 1903.18 744.936 Q1900.13 740.329 1900.13 731.603 Q1900.13 722.853 1903.18 718.269 Q1906.26 713.663 1912.07 713.663 Z" fill="#000000" fill-rule="nonzero" fill-opacity="1"></path><path clip-path="url(#clip550)" d="M2251.01 714.288 L2269.37 714.288 L2269.37 718.223 L2255.3 718.223 L2255.3 726.695 Q2256.31 726.348 2257.33 726.186 Q2258.35 726.001 2259.37 726.001 Q2265.16 726.001 2268.54 729.172 Q2271.92 732.343 2271.92 737.76 Q2271.92 743.339 2268.44 746.44 Q2264.97 749.519 2258.65 749.519 Q2256.48 749.519 2254.21 749.149 Q2251.96 748.778 2249.56 748.038 L2249.56 743.339 Q2251.64 744.473 2253.86 745.028 Q2256.08 745.584 2258.56 745.584 Q2262.56 745.584 2264.9 743.478 Q2267.24 741.371 2267.24 737.76 Q2267.24 734.149 2264.9 732.042 Q2262.56 729.936 2258.56 729.936 Q2256.68 729.936 2254.81 730.353 Q2252.96 730.769 2251.01 731.649 L2251.01 714.288 Z" fill="#000000" fill-rule="nonzero" fill-opacity="1"></path><path clip-path="url(#clip550)" d="M2291.13 717.367 Q2287.52 717.367 2285.69 720.931 Q2283.88 724.473 2283.88 731.603 Q2283.88 738.709 2285.69 742.274 Q2287.52 745.815 2291.13 745.815 Q2294.76 745.815 2296.57 742.274 Q2298.4 738.709 2298.4 731.603 Q2298.4 724.473 2296.57 720.931 Q2294.76 717.367 2291.13 717.367 M2291.13 713.663 Q2296.94 713.663 2299.99 718.269 Q2303.07 722.853 2303.07 731.603 Q2303.07 740.329 2299.99 744.936 Q2296.94 749.519 2291.13 749.519 Q2285.32 749.519 2282.24 744.936 Q2279.18 740.329 2279.18 731.603 Q2279.18 722.853 2282.24 718.269 Q2285.32 713.663 2291.13 713.663 Z" fill="#000000" fill-rule="nonzero" fill-opacity="1"></path><path clip-path="url(#clip550)" d="M2321.29 717.367 Q2317.68 717.367 2315.85 720.931 Q2314.05 724.473 2314.05 731.603 Q2314.05 738.709 2315.85 742.274 Q2317.68 745.815 2321.29 745.815 Q2324.93 745.815 2326.73 742.274 Q2328.56 738.709 2328.56 731.603 Q2328.56 724.473 2326.73 720.931 Q2324.93 717.367 2321.29 717.367 M2321.29 713.663 Q2327.1 713.663 2330.16 718.269 Q2333.24 722.853 2333.24 731.603 Q2333.24 740.329 2330.16 744.936 Q2327.1 749.519 2321.29 749.519 Q2315.48 749.519 2312.4 744.936 Q2309.35 740.329 2309.35 731.603 Q2309.35 722.853 2312.4 718.269 Q2315.48 713.663 2321.29 713.663 Z" fill="#000000" fill-rule="nonzero" fill-opacity="1"></path><polyline clip-path="url(#clip552)" style="stroke:#000000; stroke-linecap:round; stroke-linejoin:round; stroke-width:2; stroke-opacity:0.1; fill:none" points="184.677,620.839 2352.76,620.839 "></polyline>
<polyline clip-path="url(#clip552)" style="stroke:#000000; stroke-linecap:round; stroke-linejoin:round; stroke-width:2; stroke-opacity:0.1; fill:none" points="184.677,487.537 2352.76,487.537 "></polyline>
<polyline clip-path="url(#clip552)" style="stroke:#000000; stroke-linecap:round; stroke-linejoin:round; stroke-width:2; stroke-opacity:0.1; fill:none" points="184.677,354.235 2352.76,354.235 "></polyline>
<polyline clip-path="url(#clip552)" style="stroke:#000000; stroke-linecap:round; stroke-linejoin:round; stroke-width:2; stroke-opacity:0.1; fill:none" points="184.677,220.933 2352.76,220.933 "></polyline>
<polyline clip-path="url(#clip552)" style="stroke:#000000; stroke-linecap:round; stroke-linejoin:round; stroke-width:2; stroke-opacity:0.1; fill:none" points="184.677,87.631 2352.76,87.631 "></polyline>
<polyline clip-path="url(#clip550)" style="stroke:#000000; stroke-linecap:round; stroke-linejoin:round; stroke-width:4; stroke-opacity:1; fill:none" points="184.677,686.448 184.677,47.2441 "></polyline>
<polyline clip-path="url(#clip550)" style="stroke:#000000; stroke-linecap:round; stroke-linejoin:round; stroke-width:4; stroke-opacity:1; fill:none" points="184.677,620.839 203.574,620.839 "></polyline>
<polyline clip-path="url(#clip550)" style="stroke:#000000; stroke-linecap:round; stroke-linejoin:round; stroke-width:4; stroke-opacity:1; fill:none" points="184.677,487.537 203.574,487.537 "></polyline>
<polyline clip-path="url(#clip550)" style="stroke:#000000; stroke-linecap:round; stroke-linejoin:round; stroke-width:4; stroke-opacity:1; fill:none" points="184.677,354.235 203.574,354.235 "></polyline>
<polyline clip-path="url(#clip550)" style="stroke:#000000; stroke-linecap:round; stroke-linejoin:round; stroke-width:4; stroke-opacity:1; fill:none" points="184.677,220.933 203.574,220.933 "></polyline>
<polyline clip-path="url(#clip550)" style="stroke:#000000; stroke-linecap:round; stroke-linejoin:round; stroke-width:4; stroke-opacity:1; fill:none" points="184.677,87.631 203.574,87.631 "></polyline>
<path clip-path="url(#clip550)" d="M52.1495 634.183 L59.7884 634.183 L59.7884 607.818 L51.4782 609.484 L51.4782 605.225 L59.7421 603.559 L64.418 603.559 L64.418 634.183 L72.0568 634.183 L72.0568 638.119 L52.1495 638.119 L52.1495 634.183 Z" fill="#000000" fill-rule="nonzero" fill-opacity="1"></path><path clip-path="url(#clip550)" d="M85.529 634.183 L101.848 634.183 L101.848 638.119 L79.904 638.119 L79.904 634.183 Q82.566 631.429 87.1493 626.799 Q91.7558 622.146 92.9363 620.804 Q95.1817 618.281 96.0613 616.545 Q96.9641 614.785 96.9641 613.096 Q96.9641 610.341 95.0197 608.605 Q93.0984 606.869 89.9965 606.869 Q87.7975 606.869 85.3438 607.633 Q82.9133 608.396 80.1355 609.947 L80.1355 605.225 Q82.9595 604.091 85.4132 603.512 Q87.8669 602.934 89.904 602.934 Q95.2743 602.934 98.4687 605.619 Q101.663 608.304 101.663 612.795 Q101.663 614.924 100.853 616.846 Q100.066 618.744 97.9595 621.336 Q97.3808 622.008 94.2789 625.225 Q91.1771 628.42 85.529 634.183 Z" fill="#000000" fill-rule="nonzero" fill-opacity="1"></path><path clip-path="url(#clip550)" d="M111.663 632.239 L116.547 632.239 L116.547 638.119 L111.663 638.119 L111.663 632.239 Z" fill="#000000" fill-rule="nonzero" fill-opacity="1"></path><path clip-path="url(#clip550)" d="M136.732 606.637 Q133.121 606.637 131.293 610.202 Q129.487 613.744 129.487 620.873 Q129.487 627.98 131.293 631.545 Q133.121 635.086 136.732 635.086 Q140.367 635.086 142.172 631.545 Q144.001 627.98 144.001 620.873 Q144.001 613.744 142.172 610.202 Q140.367 606.637 136.732 606.637 M136.732 602.934 Q142.543 602.934 145.598 607.54 Q148.677 612.123 148.677 620.873 Q148.677 629.6 145.598 634.207 Q142.543 638.79 136.732 638.79 Q130.922 638.79 127.844 634.207 Q124.788 629.6 124.788 620.873 Q124.788 612.123 127.844 607.54 Q130.922 602.934 136.732 602.934 Z" fill="#000000" fill-rule="nonzero" fill-opacity="1"></path><path clip-path="url(#clip550)" d="M53.3764 500.881 L61.0152 500.881 L61.0152 474.516 L52.7051 476.183 L52.7051 471.923 L60.9689 470.257 L65.6448 470.257 L65.6448 500.881 L73.2837 500.881 L73.2837 504.817 L53.3764 504.817 L53.3764 500.881 Z" fill="#000000" fill-rule="nonzero" fill-opacity="1"></path><path clip-path="url(#clip550)" d="M86.7558 500.881 L103.075 500.881 L103.075 504.817 L81.1309 504.817 L81.1309 500.881 Q83.7929 498.127 88.3762 493.497 Q92.9826 488.845 94.1632 487.502 Q96.4085 484.979 97.2882 483.243 Q98.1909 481.483 98.1909 479.794 Q98.1909 477.039 96.2465 475.303 Q94.3252 473.567 91.2234 473.567 Q89.0243 473.567 86.5706 474.331 Q84.1401 475.095 81.3623 476.646 L81.3623 471.923 Q84.1864 470.789 86.6401 470.21 Q89.0938 469.632 91.1308 469.632 Q96.5011 469.632 99.6956 472.317 Q102.89 475.002 102.89 479.493 Q102.89 481.622 102.08 483.544 Q101.293 485.442 99.1863 488.034 Q98.6076 488.706 95.5058 491.923 Q92.4039 495.118 86.7558 500.881 Z" fill="#000000" fill-rule="nonzero" fill-opacity="1"></path><path clip-path="url(#clip550)" d="M112.89 498.937 L117.774 498.937 L117.774 504.817 L112.89 504.817 L112.89 498.937 Z" fill="#000000" fill-rule="nonzero" fill-opacity="1"></path><path clip-path="url(#clip550)" d="M128.769 500.881 L136.408 500.881 L136.408 474.516 L128.098 476.183 L128.098 471.923 L136.362 470.257 L141.038 470.257 L141.038 500.881 L148.677 500.881 L148.677 504.817 L128.769 504.817 L128.769 500.881 Z" fill="#000000" fill-rule="nonzero" fill-opacity="1"></path><path clip-path="url(#clip550)" d="M53.7467 367.58 L61.3856 367.58 L61.3856 341.214 L53.0754 342.881 L53.0754 338.621 L61.3393 336.955 L66.0152 336.955 L66.0152 367.58 L73.654 367.58 L73.654 371.515 L53.7467 371.515 L53.7467 367.58 Z" fill="#000000" fill-rule="nonzero" fill-opacity="1"></path><path clip-path="url(#clip550)" d="M87.1262 367.58 L103.446 367.58 L103.446 371.515 L81.5012 371.515 L81.5012 367.58 Q84.1632 364.825 88.7466 360.195 Q93.353 355.543 94.5336 354.2 Q96.7789 351.677 97.6585 349.941 Q98.5613 348.182 98.5613 346.492 Q98.5613 343.737 96.6169 342.001 Q94.6956 340.265 91.5938 340.265 Q89.3947 340.265 86.941 341.029 Q84.5105 341.793 81.7327 343.344 L81.7327 338.621 Q84.5568 337.487 87.0105 336.908 Q89.4641 336.33 91.5012 336.33 Q96.8715 336.33 100.066 339.015 Q103.26 341.7 103.26 346.191 Q103.26 348.32 102.45 350.242 Q101.663 352.14 99.5567 354.732 Q98.978 355.404 95.8761 358.621 Q92.7743 361.816 87.1262 367.58 Z" fill="#000000" fill-rule="nonzero" fill-opacity="1"></path><path clip-path="url(#clip550)" d="M113.26 365.635 L118.145 365.635 L118.145 371.515 L113.26 371.515 L113.26 365.635 Z" fill="#000000" fill-rule="nonzero" fill-opacity="1"></path><path clip-path="url(#clip550)" d="M132.357 367.58 L148.677 367.58 L148.677 371.515 L126.732 371.515 L126.732 367.58 Q129.394 364.825 133.978 360.195 Q138.584 355.543 139.765 354.2 Q142.01 351.677 142.89 349.941 Q143.793 348.182 143.793 346.492 Q143.793 343.737 141.848 342.001 Q139.927 340.265 136.825 340.265 Q134.626 340.265 132.172 341.029 Q129.742 341.793 126.964 343.344 L126.964 338.621 Q129.788 337.487 132.242 336.908 Q134.695 336.33 136.732 336.33 Q142.103 336.33 145.297 339.015 Q148.492 341.7 148.492 346.191 Q148.492 348.32 147.681 350.242 Q146.894 352.14 144.788 354.732 Q144.209 355.404 141.107 358.621 Q138.006 361.816 132.357 367.58 Z" fill="#000000" fill-rule="nonzero" fill-opacity="1"></path><path clip-path="url(#clip550)" d="M52.7977 234.278 L60.4365 234.278 L60.4365 207.912 L52.1264 209.579 L52.1264 205.32 L60.3902 203.653 L65.0661 203.653 L65.0661 234.278 L72.705 234.278 L72.705 238.213 L52.7977 238.213 L52.7977 234.278 Z" fill="#000000" fill-rule="nonzero" fill-opacity="1"></path><path clip-path="url(#clip550)" d="M86.1771 234.278 L102.496 234.278 L102.496 238.213 L80.5522 238.213 L80.5522 234.278 Q83.2142 231.523 87.7975 226.893 Q92.4039 222.241 93.5845 220.898 Q95.8298 218.375 96.7095 216.639 Q97.6122 214.88 97.6122 213.19 Q97.6122 210.435 95.6678 208.699 Q93.7465 206.963 90.6447 206.963 Q88.4456 206.963 85.9919 207.727 Q83.5614 208.491 80.7836 210.042 L80.7836 205.32 Q83.6077 204.185 86.0614 203.607 Q88.5151 203.028 90.5521 203.028 Q95.9224 203.028 99.1169 205.713 Q102.311 208.398 102.311 212.889 Q102.311 215.019 101.501 216.94 Q100.714 218.838 98.6076 221.431 Q98.0289 222.102 94.9271 225.319 Q91.8252 228.514 86.1771 234.278 Z" fill="#000000" fill-rule="nonzero" fill-opacity="1"></path><path clip-path="url(#clip550)" d="M112.311 232.333 L117.195 232.333 L117.195 238.213 L112.311 238.213 L112.311 232.333 Z" fill="#000000" fill-rule="nonzero" fill-opacity="1"></path><path clip-path="url(#clip550)" d="M141.547 219.579 Q144.904 220.296 146.779 222.565 Q148.677 224.833 148.677 228.167 Q148.677 233.282 145.158 236.083 Q141.64 238.884 135.158 238.884 Q132.982 238.884 130.668 238.444 Q128.376 238.028 125.922 237.171 L125.922 232.657 Q127.867 233.792 130.182 234.37 Q132.496 234.949 135.019 234.949 Q139.418 234.949 141.709 233.213 Q144.024 231.477 144.024 228.167 Q144.024 225.111 141.871 223.398 Q139.742 221.662 135.922 221.662 L131.894 221.662 L131.894 217.819 L136.107 217.819 Q139.556 217.819 141.385 216.454 Q143.214 215.065 143.214 212.472 Q143.214 209.81 141.316 208.398 Q139.441 206.963 135.922 206.963 Q134.001 206.963 131.802 207.38 Q129.603 207.796 126.964 208.676 L126.964 204.509 Q129.626 203.769 131.941 203.398 Q134.279 203.028 136.339 203.028 Q141.663 203.028 144.765 205.458 Q147.867 207.866 147.867 211.986 Q147.867 214.857 146.223 216.847 Q144.58 218.815 141.547 219.579 Z" fill="#000000" fill-rule="nonzero" fill-opacity="1"></path><path clip-path="url(#clip550)" d="M51.6634 100.976 L59.3023 100.976 L59.3023 74.6102 L50.9921 76.2769 L50.9921 72.0176 L59.256 70.351 L63.9319 70.351 L63.9319 100.976 L71.5707 100.976 L71.5707 104.911 L51.6634 104.911 L51.6634 100.976 Z" fill="#000000" fill-rule="nonzero" fill-opacity="1"></path><path clip-path="url(#clip550)" d="M85.0429 100.976 L101.362 100.976 L101.362 104.911 L79.4179 104.911 L79.4179 100.976 Q82.0799 98.2212 86.6632 93.5916 Q91.2697 88.9389 92.4502 87.5963 Q94.6956 85.0731 95.5752 83.337 Q96.478 81.5778 96.478 79.888 Q96.478 77.1334 94.5336 75.3973 Q92.6123 73.6612 89.5104 73.6612 Q87.3114 73.6612 84.8577 74.425 Q82.4271 75.1889 79.6494 76.7398 L79.6494 72.0176 Q82.4734 70.8834 84.9271 70.3047 Q87.3808 69.726 89.4178 69.726 Q94.7882 69.726 97.9826 72.4112 Q101.177 75.0963 101.177 79.5871 Q101.177 81.7167 100.367 83.638 Q99.5798 85.5361 97.4734 88.1287 Q96.8947 88.8 93.7928 92.0175 Q90.691 95.212 85.0429 100.976 Z" fill="#000000" fill-rule="nonzero" fill-opacity="1"></path><path clip-path="url(#clip550)" d="M111.177 99.0314 L116.061 99.0314 L116.061 104.911 L111.177 104.911 L111.177 99.0314 Z" fill="#000000" fill-rule="nonzero" fill-opacity="1"></path><path clip-path="url(#clip550)" d="M139.094 74.425 L127.288 92.874 L139.094 92.874 L139.094 74.425 M137.867 70.351 L143.746 70.351 L143.746 92.874 L148.677 92.874 L148.677 96.7629 L143.746 96.7629 L143.746 104.911 L139.094 104.911 L139.094 96.7629 L123.492 96.7629 L123.492 92.249 L137.867 70.351 Z" fill="#000000" fill-rule="nonzero" fill-opacity="1"></path><polyline clip-path="url(#clip552)" style="stroke:#009af9; stroke-linecap:round; stroke-linejoin:round; stroke-width:4; stroke-opacity:1; fill:none" points="246.038,65.3348 250.136,593.626 254.235,622.628 258.334,628.345 262.433,630.653 266.532,629.674 270.631,628.881 274.73,632.849 278.829,631.653 282.928,633.311 287.027,632.539 291.126,633.176 295.224,633.442 299.323,634.61 303.422,634.891 307.521,634.285 311.62,632.93 315.719,635.72 319.818,634.137 323.917,632.022 328.016,634.73 332.115,636.606 336.214,635.2 340.313,636.789 344.411,637.352 348.51,634.413 352.609,633.401 356.708,635.391 360.807,636.212 364.906,635.908 369.005,635.403 373.104,637.465 377.203,636.295 381.302,636.236 385.401,636.634 389.499,637.449 393.598,636.855 397.697,637.451 401.796,637.862 405.895,638.482 409.994,632.636 414.093,635.923 418.192,631.895 422.291,639.596 426.39,638.574 430.489,638.152 434.588,633.794 438.686,637.109 442.785,637.643 446.884,637.549 450.983,638.916 455.082,633.676 459.181,635.485 463.28,637.273 467.379,640.304 471.478,639.489 475.577,641.144 479.676,637.017 483.774,639.989 487.873,640.708 491.972,639.653 496.071,638.147 500.17,639.96 504.269,637.281 508.368,638.969 512.467,640.602 516.566,637.842 520.665,640.295 524.764,638.888 528.863,640.129 532.961,635.977 537.06,642.462 541.159,639.442 545.258,641.174 549.357,641.909 553.456,637.982 557.555,640.879 561.654,641.23 565.753,640.433 569.852,641.409 573.951,640.921 578.049,641.737 582.148,640.312 586.247,641.334 590.346,641.136 594.445,641.914 598.544,641.985 602.643,640.74 606.742,640.884 610.841,642.027 614.94,639.049 619.039,642.256 623.138,641.042 627.236,641.556 631.335,641.616 635.434,642.371 639.533,641.316 643.632,641.786 647.731,641.331 651.83,639.766 655.929,641.025 660.028,640.089 664.127,643.909 668.226,642.421 672.324,642.94 676.423,642.474 680.522,641.042 684.621,643.458 688.72,640.717 692.819,642.414 696.918,643.149 701.017,642.478 705.116,640.294 709.215,643.381 713.314,644.105 717.413,642.783 721.511,643.278 725.61,644.124 729.709,640.122 733.808,642.441 737.907,644.761 742.006,642.666 746.105,643.673 750.204,643.149 754.303,643.391 758.402,642.889 762.501,645.035 766.599,642.882 770.698,643.876 774.797,645.191 778.896,643.658 782.995,644.321 787.094,641.649 791.193,644.176 795.292,643.429 799.391,644.994 803.49,643.814 807.589,643.81 811.688,644.652 815.786,644.262 819.885,644.793 823.984,645.763 828.083,642.732 832.182,643.842 836.281,644.155 840.38,645.506 844.479,644.599 848.578,639.596 852.677,644.048 856.776,645.379 860.874,644.508 864.973,645.579 869.072,647.131 873.171,644.576 877.27,645.94 881.369,645.202 885.468,646.191 889.567,642.756 893.666,644.626 897.765,644.302 901.864,645.174 905.963,646.692 910.061,646.228 914.16,645.368 918.259,644.526 922.358,644.632 926.457,641.614 930.556,643.331 934.655,647.086 938.754,646.626 942.853,646.687 946.952,644.26 951.051,646.258 955.149,645.329 959.248,646.802 963.347,646.101 967.446,639.601 971.545,645.8 975.644,646.06 979.743,644.227 983.842,646.593 987.941,646.088 992.04,645.125 996.139,646.941 1000.24,647.278 1004.34,646.892 1008.44,646.176 1012.53,640.977 1016.63,647.193 1020.73,647.92 1024.83,647.063 1028.93,646.851 1033.03,645.992 1037.13,646.725 1041.23,647.222 1045.33,648.3 1049.42,647.633 1053.52,645.899 1057.62,648.684 1061.72,646.371 1065.82,644.835 1069.92,649.835 1074.02,647.655 1078.12,647.745 1082.22,647.609 1086.31,646.739 1090.41,647.923 1094.51,648.513 1098.61,648.227 1102.71,647.669 1106.81,648.562 1110.91,648.224 1115.01,644.403 1119.11,650.764 1123.2,647.201 1127.3,649.715 1131.4,649.835 1135.5,649.264 1139.6,648.719 1143.7,649.386 1147.8,646.856 1151.9,647.957 1156,647.844 1160.1,649.476 1164.19,650.603 1168.29,649.837 1172.39,650.68 1176.49,649.665 1180.59,647.892 1184.69,648.208 1188.79,649.963 1192.89,645.581 1196.99,648.091 1201.08,646.545 1205.18,645.496 1209.28,646.024 1213.38,646.249 1217.48,648.311 1221.58,648.865 1225.68,649.358 1229.78,651.018 1233.88,650.277 1237.97,649.037 1242.07,650.28 1246.17,649.023 1250.27,652.324 1254.37,652.93 1258.47,650.879 1262.57,650.338 1266.67,650.793 1270.77,650.955 1274.86,650.854 1278.96,652.305 1283.06,650.814 1287.16,652.747 1291.26,652.126 1295.36,652.105 1299.46,648.426 1303.56,649.935 1307.66,647.013 1311.75,652.339 1315.85,649.353 1319.95,649.994 1324.05,652.494 1328.15,652.821 1332.25,653.473 1336.35,653.204 1340.45,652.648 1344.55,652.491 1348.65,652.966 1352.74,653.829 1356.84,652.105 1360.94,653.093 1365.04,651.479 1369.14,654.322 1373.24,651.926 1377.34,653.778 1381.44,653.008 1385.54,652.794 1389.63,650.554 1393.73,653.505 1397.83,651.307 1401.93,654.228 1406.03,650.893 1410.13,654.275 1414.23,652.268 1418.33,654.195 1422.43,654.966 1426.52,652.081 1430.62,653.874 1434.72,654.329 1438.82,653.332 1442.92,654.536 1447.02,650.557 1451.12,655.761 1455.22,653.286 1459.32,653.225 1463.41,656.042 1467.51,652.629 1471.61,655.62 1475.71,653.04 1479.81,647.313 1483.91,652.414 1488.01,653.553 1492.11,655.92 1496.21,652.657 1500.3,656.157 1504.4,655.102 1508.5,652.513 1512.6,654.434 1516.7,654.878 1520.8,655.074 1524.9,656.192 1529,655.639 1533.1,656.309 1537.2,656.719 1541.29,654.527 1545.39,655.311 1549.49,655.89 1553.59,652.029 1557.69,655.563 1561.79,657.943 1565.89,656.929 1569.99,655.38 1574.09,656.278 1578.18,657.422 1582.28,656.843 1586.38,656.524 1590.48,654.596 1594.58,657.855 1598.68,654.761 1602.78,657.525 1606.88,656.401 1610.98,657.626 1615.07,656.96 1619.17,658.085 1623.27,656.951 1627.37,657.63 1631.47,656.082 1635.57,657.071 1639.67,657.559 1643.77,657.035 1647.87,659.104 1651.96,656.301 1656.06,655.969 1660.16,659.182 1664.26,658.406 1668.36,658.482 1672.46,660.043 1676.56,656.565 1680.66,655.545 1684.76,656.79 1688.85,660.015 1692.95,660.31 1697.05,658.879 1701.15,654.916 1705.25,656.639 1709.35,655.929 1713.45,657.159 1717.55,659.352 1721.65,660.126 1725.75,659.428 1729.84,660.784 1733.94,659.135 1738.04,658.396 1742.14,659.741 1746.24,659.401 1750.34,661.275 1754.44,658.619 1758.54,658.802 1762.64,659.827 1766.73,659.38 1770.83,660.425 1774.93,658.533 1779.03,658.401 1783.13,658.577 1787.23,659.777 1791.33,659.86 1795.43,660.24 1799.53,660.784 1803.62,660.761 1807.72,658.977 1811.82,658.455 1815.92,659.465 1820.02,661.219 1824.12,660.581 1828.22,658.354 1832.32,660.932 1836.42,661.351 1840.51,661.753 1844.61,659.916 1848.71,659.35 1852.81,659.838 1856.91,662.166 1861.01,658.637 1865.11,660.205 1869.21,660.904 1873.31,661.735 1877.4,663.223 1881.5,662.3 1885.6,659.551 1889.7,661.004 1893.8,660.836 1897.9,662.1 1902,662.733 1906.1,663.127 1910.2,659.411 1914.3,662.457 1918.39,662.775 1922.49,662.363 1926.59,661.58 1930.69,662.058 1934.79,662.002 1938.89,661.906 1942.99,662.998 1947.09,662.043 1951.19,663.089 1955.28,661.28 1959.38,661.855 1963.48,659.631 1967.58,661.014 1971.68,662.084 1975.78,663.82 1979.88,662.183 1983.98,663.74 1988.08,663.509 1992.17,662.794 1996.27,662.334 2000.37,664.66 2004.47,663.948 2008.57,661.246 2012.67,658.856 2016.77,662.485 2020.87,662.733 2024.97,662.752 2029.06,663.207 2033.16,664.073 2037.26,664.378 2041.36,661.797 2045.46,663.523 2049.56,664.371 2053.66,659.416 2057.76,664.159 2061.86,662.01 2065.95,663.898 2070.05,663.848 2074.15,663.43 2078.25,662.567 2082.35,661.302 2086.45,663.868 2090.55,664.439 2094.65,664.618 2098.75,665.654 2102.85,661.354 2106.94,664.582 2111.04,664.121 2115.14,663.411 2119.24,665.447 2123.34,662.689 2127.44,662.095 2131.54,664.269 2135.64,664.616 2139.74,663.301 2143.83,663.894 2147.93,663.746 2152.03,665.413 2156.13,662.563 2160.23,663.074 2164.33,666.813 2168.43,663.689 2172.53,665.347 2176.63,664.193 2180.72,663.223 2184.82,665.227 2188.92,663.591 2193.02,664.535 2197.12,663.835 2201.22,665.454 2205.32,665.388 2209.42,664.585 2213.52,665.788 2217.61,664.159 2221.71,663.604 2225.81,664.898 2229.91,665.587 2234.01,665.26 2238.11,665.36 2242.21,661.346 2246.31,664.231 2250.41,666.014 2254.5,665.563 2258.6,665.782 2262.7,665.698 2266.8,665.92 2270.9,666.497 2275,667.166 2279.1,664.732 2283.2,662.792 2287.3,668.357 2291.4,661.264 "></polyline>
<polyline clip-path="url(#clip552)" style="stroke:#e26f46; stroke-linecap:round; stroke-linejoin:round; stroke-width:4; stroke-opacity:1; fill:none" points="246.038,579.323 250.136,640.332 254.235,646.601 258.334,647.061 262.433,642.337 266.532,644.161 270.631,646.7 274.73,645.125 278.829,644.103 282.928,644.788 287.027,646.73 291.126,645.374 295.224,638.616 299.323,645.706 303.422,643.635 307.521,644.611 311.62,640.506 315.719,636.944 319.818,639.894 323.917,642.835 328.016,639.892 332.115,643.279 336.214,643.568 340.313,645.288 344.411,643.506 348.51,646.049 352.609,642.44 356.708,643.777 360.807,635.431 364.906,636.681 369.005,644.025 373.104,642.445 377.203,645.63 381.302,631.292 385.401,640.665 389.499,643.486 393.598,647.28 397.697,641.989 401.796,644.265 405.895,643.854 409.994,644.234 414.093,636.572 418.192,645.957 422.291,646.062 426.39,648.166 430.489,643.542 434.588,638.724 438.686,638.466 442.785,645.858 446.884,645.921 450.983,645.746 455.082,647.077 459.181,644.312 463.28,647.923 467.379,646.171 471.478,646.497 475.577,645.286 479.676,642.06 483.774,646.158 487.873,643.846 491.972,645.396 496.071,641.897 500.17,641.592 504.269,643.974 508.368,646.203 512.467,644.315 516.566,646.608 520.665,642.395 524.764,645.642 528.863,644.975 532.961,645.694 537.06,641.518 541.159,644.387 545.258,645.843 549.357,646.025 553.456,645.693 557.555,639.761 561.654,645.466 565.753,646.799 569.852,646.457 573.951,645.63 578.049,645.418 582.148,645.307 586.247,642.552 590.346,645.289 594.445,644.874 598.544,646.794 602.643,639.113 606.742,646.465 610.841,640.408 614.94,643.828 619.039,645.275 623.138,643.876 627.236,644.591 631.335,642.812 635.434,633.888 639.533,644.15 643.632,644.333 647.731,643.743 651.83,639.225 655.929,640.604 660.028,643.732 664.127,642.394 668.226,642.787 672.324,645.565 676.423,644.792 680.522,645.584 684.621,644.588 688.72,645.341 692.819,646.587 696.918,640.675 701.017,637.012 705.116,641.717 709.215,642.698 713.314,643.96 717.413,643.509 721.511,642.992 725.61,642.919 729.709,643.754 733.808,636.521 737.907,643.812 742.006,641.048 746.105,643.24 750.204,641.999 754.303,642.659 758.402,645.284 762.501,641.101 766.599,639.881 770.698,644.067 774.797,641.096 778.896,644.24 782.995,632.635 787.094,642.37 791.193,642.303 795.292,642.029 799.391,643.953 803.49,640.069 807.589,639.126 811.688,643.917 815.786,643.794 819.885,643.334 823.984,641.476 828.083,644.642 832.182,641.389 836.281,639.878 840.38,639.403 844.479,642.531 848.578,627.612 852.677,634.292 856.776,637.594 860.874,638.395 864.973,642.66 869.072,631.568 873.171,640.612 877.27,643.279 881.369,643.923 885.468,639.46 889.567,640.564 893.666,638.226 897.765,641.13 901.864,641.241 905.963,640.148 910.061,641.521 914.16,643.214 918.259,636.607 922.358,636.483 926.457,644.442 930.556,642.659 934.655,642.525 938.754,642.392 942.853,643.466 946.952,638.109 951.051,638.693 955.149,642.777 959.248,641.282 963.347,638.695 967.446,641.141 971.545,638.88 975.644,637.741 979.743,639.224 983.842,640.196 987.941,636.54 992.04,642.106 996.139,635.881 1000.24,638.55 1004.34,641.075 1008.44,636.741 1012.53,641.354 1016.63,641.952 1020.73,643.487 1024.83,643.198 1028.93,639.014 1033.03,640.912 1037.13,639.737 1041.23,636.254 1045.33,641.831 1049.42,636.104 1053.52,640.281 1057.62,642.521 1061.72,628.222 1065.82,638.032 1069.92,641.649 1074.02,643.245 1078.12,642.261 1082.22,644.159 1086.31,641.411 1090.41,639.23 1094.51,637.178 1098.61,642.586 1102.71,637.59 1106.81,642.357 1110.91,641.083 1115.01,642.356 1119.11,637.732 1123.2,640.532 1127.3,643.931 1131.4,640.459 1135.5,643.173 1139.6,639.13 1143.7,642.742 1147.8,640.969 1151.9,638.974 1156,638.841 1160.1,634.989 1164.19,639.404 1168.29,643.074 1172.39,638.793 1176.49,638.944 1180.59,636.199 1184.69,641.333 1188.79,635.374 1192.89,637.996 1196.99,637.496 1201.08,632.539 1205.18,622.598 1209.28,638.074 1213.38,640.298 1217.48,639.675 1221.58,636.054 1225.68,641.425 1229.78,638.365 1233.88,639.905 1237.97,631.557 1242.07,629.84 1246.17,635.088 1250.27,638.189 1254.37,637.054 1258.47,638.238 1262.57,637.755 1266.67,635.696 1270.77,640.019 1274.86,642.549 1278.96,637.593 1283.06,637.699 1287.16,639.559 1291.26,638.207 1295.36,637.67 1299.46,639.677 1303.56,639.699 1307.66,637.858 1311.75,625.406 1315.85,635.243 1319.95,637.521 1324.05,636.595 1328.15,642.357 1332.25,634.427 1336.35,637.267 1340.45,639.398 1344.55,636.76 1348.65,638.763 1352.74,632.031 1356.84,636.965 1360.94,630.096 1365.04,634.461 1369.14,634.09 1373.24,637.082 1377.34,633.65 1381.44,641.592 1385.54,639.398 1389.63,630.318 1393.73,638.194 1397.83,638.715 1401.93,638.149 1406.03,637.8 1410.13,627.792 1414.23,629.742 1418.33,637.764 1422.43,634.812 1426.52,635.792 1430.62,636.994 1434.72,636.827 1438.82,638.146 1442.92,634.039 1447.02,625.929 1451.12,637.876 1455.22,639.155 1459.32,639.972 1463.41,632.766 1467.51,635.928 1471.61,638.493 1475.71,636.762 1479.81,632.555 1483.91,637.351 1488.01,637.218 1492.11,635.504 1496.21,632.893 1500.3,638.808 1504.4,635.503 1508.5,636.354 1512.6,637.825 1516.7,632.617 1520.8,632.613 1524.9,635.088 1529,636.038 1533.1,634.552 1537.2,630.721 1541.29,635.777 1545.39,639.147 1549.49,625.988 1553.59,636.075 1557.69,634.947 1561.79,638.152 1565.89,637.538 1569.99,635.03 1574.09,635.926 1578.18,635.921 1582.28,637.275 1586.38,634.447 1590.48,634.353 1594.58,636.406 1598.68,636.376 1602.78,635.124 1606.88,632.129 1610.98,635.803 1615.07,635.668 1619.17,634.84 1623.27,631.441 1627.37,635.698 1631.47,634.203 1635.57,637.426 1639.67,636.897 1643.77,629.823 1647.87,637.04 1651.96,631.9 1656.06,636.319 1660.16,636.723 1664.26,636.234 1668.36,637.546 1672.46,634.543 1676.56,622.15 1680.66,626.731 1684.76,635.21 1688.85,633.242 1692.95,631.707 1697.05,633.65 1701.15,629.42 1705.25,634.322 1709.35,635.926 1713.45,636.778 1717.55,635.093 1721.65,628.957 1725.75,636.587 1729.84,636.737 1733.94,633.887 1738.04,632.999 1742.14,632.497 1746.24,632.866 1750.34,625.879 1754.44,627.686 1758.54,635.993 1762.64,633.921 1766.73,626.066 1770.83,628.291 1774.93,635.434 1779.03,634.01 1783.13,629.069 1787.23,635.574 1791.33,630.773 1795.43,632.513 1799.53,628.527 1803.62,634.606 1807.72,635.414 1811.82,630.138 1815.92,635.361 1820.02,626.244 1824.12,628.087 1828.22,631.615 1832.32,630.855 1836.42,626.975 1840.51,632.102 1844.61,624.097 1848.71,634.127 1852.81,633.799 1856.91,625.373 1861.01,629.779 1865.11,629.417 1869.21,624.341 1873.31,633.723 1877.4,627.367 1881.5,626.239 1885.6,627.547 1889.7,634.291 1893.8,632.509 1897.9,633.151 1902,633.995 1906.1,628.991 1910.2,628.527 1914.3,630.746 1918.39,633.844 1922.49,628.326 1926.59,632.547 1930.69,633.441 1934.79,634.85 1938.89,633.278 1942.99,631.512 1947.09,632.474 1951.19,628.811 1955.28,628.289 1959.38,632.281 1963.48,627.621 1967.58,628.797 1971.68,630.261 1975.78,628.612 1979.88,629.863 1983.98,634.54 1988.08,630.62 1992.17,630.073 1996.27,626.61 2000.37,628.713 2004.47,630.175 2008.57,629.723 2012.67,630.627 2016.77,632.13 2020.87,628.028 2024.97,627.322 2029.06,635.247 2033.16,630.269 2037.26,632.513 2041.36,631.173 2045.46,632.612 2049.56,624.263 2053.66,632.833 2057.76,624.212 2061.86,633.615 2065.95,632.097 2070.05,630.695 2074.15,628.09 2078.25,619.224 2082.35,628.396 2086.45,635.946 2090.55,630.646 2094.65,629.006 2098.75,619.024 2102.85,629.355 2106.94,626.754 2111.04,630.662 2115.14,631.114 2119.24,625.457 2123.34,624.444 2127.44,625.902 2131.54,627.131 2135.64,633.462 2139.74,631.14 2143.83,627.421 2147.93,630.993 2152.03,628.244 2156.13,630.854 2160.23,628.92 2164.33,626.6 2168.43,626.942 2172.53,630.106 2176.63,620.43 2180.72,632.01 2184.82,630.615 2188.92,629.831 2193.02,629.076 2197.12,627.541 2201.22,631.835 2205.32,631.869 2209.42,629.919 2213.52,628.54 2217.61,624.547 2221.71,632.89 2225.81,619.143 2229.91,632.796 2234.01,633.783 2238.11,632.294 2242.21,624.959 2246.31,626.699 2250.41,629.459 2254.5,631.362 2258.6,630.808 2262.7,633.607 2266.8,632.529 2270.9,628.155 2275,621.898 2279.1,627.729 2283.2,625.138 2287.3,636.619 2291.4,633.369 "></polyline>
<path clip-path="url(#clip550)" d="M1958.63 224.071 L2280.49 224.071 L2280.49 68.5509 L1958.63 68.5509  Z" fill="#ffffff" fill-rule="evenodd" fill-opacity="1"></path>
<polyline clip-path="url(#clip550)" style="stroke:#000000; stroke-linecap:round; stroke-linejoin:round; stroke-width:4; stroke-opacity:1; fill:none" points="1958.63,224.071 2280.49,224.071 2280.49,68.5509 1958.63,68.5509 1958.63,224.071 "></polyline>
<polyline clip-path="url(#clip550)" style="stroke:#009af9; stroke-linecap:round; stroke-linejoin:round; stroke-width:4; stroke-opacity:1; fill:none" points="1982.72,120.391 2127.26,120.391 "></polyline>
<path clip-path="url(#clip550)" d="M2158.76 104.384 L2158.76 111.745 L2167.53 111.745 L2167.53 115.055 L2158.76 115.055 L2158.76 129.129 Q2158.76 132.301 2159.61 133.203 Q2160.49 134.106 2163.16 134.106 L2167.53 134.106 L2167.53 137.671 L2163.16 137.671 Q2158.23 137.671 2156.35 135.842 Q2154.48 133.99 2154.48 129.129 L2154.48 115.055 L2151.35 115.055 L2151.35 111.745 L2154.48 111.745 L2154.48 104.384 L2158.76 104.384 Z" fill="#000000" fill-rule="nonzero" fill-opacity="1"></path><path clip-path="url(#clip550)" d="M2188.16 115.727 Q2187.44 115.31 2186.58 115.125 Q2185.75 114.916 2184.73 114.916 Q2181.12 114.916 2179.18 117.277 Q2177.25 119.615 2177.25 124.014 L2177.25 137.671 L2172.97 137.671 L2172.97 111.745 L2177.25 111.745 L2177.25 115.773 Q2178.6 113.412 2180.75 112.278 Q2182.9 111.12 2185.98 111.12 Q2186.42 111.12 2186.95 111.19 Q2187.49 111.236 2188.13 111.352 L2188.16 115.727 Z" fill="#000000" fill-rule="nonzero" fill-opacity="1"></path><path clip-path="url(#clip550)" d="M2204.41 124.639 Q2199.24 124.639 2197.25 125.819 Q2195.26 127 2195.26 129.847 Q2195.26 132.115 2196.74 133.458 Q2198.25 134.777 2200.82 134.777 Q2204.36 134.777 2206.49 132.277 Q2208.64 129.754 2208.64 125.588 L2208.64 124.639 L2204.41 124.639 M2212.9 122.879 L2212.9 137.671 L2208.64 137.671 L2208.64 133.736 Q2207.18 136.097 2205.01 137.231 Q2202.83 138.342 2199.68 138.342 Q2195.7 138.342 2193.34 136.12 Q2191 133.875 2191 130.125 Q2191 125.75 2193.92 123.527 Q2196.86 121.305 2202.67 121.305 L2208.64 121.305 L2208.64 120.889 Q2208.64 117.949 2206.7 116.352 Q2204.78 114.731 2201.28 114.731 Q2199.06 114.731 2196.95 115.264 Q2194.85 115.796 2192.9 116.861 L2192.9 112.926 Q2195.24 112.023 2197.44 111.583 Q2199.64 111.12 2201.72 111.12 Q2207.35 111.12 2210.12 114.037 Q2212.9 116.953 2212.9 122.879 Z" fill="#000000" fill-rule="nonzero" fill-opacity="1"></path><path clip-path="url(#clip550)" d="M2221.67 111.745 L2225.93 111.745 L2225.93 137.671 L2221.67 137.671 L2221.67 111.745 M2221.67 101.653 L2225.93 101.653 L2225.93 107.046 L2221.67 107.046 L2221.67 101.653 Z" fill="#000000" fill-rule="nonzero" fill-opacity="1"></path><path clip-path="url(#clip550)" d="M2256.4 122.023 L2256.4 137.671 L2252.14 137.671 L2252.14 122.162 Q2252.14 118.481 2250.7 116.652 Q2249.27 114.824 2246.4 114.824 Q2242.95 114.824 2240.96 117.023 Q2238.97 119.222 2238.97 123.018 L2238.97 137.671 L2234.68 137.671 L2234.68 111.745 L2238.97 111.745 L2238.97 115.773 Q2240.49 113.435 2242.55 112.278 Q2244.64 111.12 2247.35 111.12 Q2251.81 111.12 2254.11 113.898 Q2256.4 116.652 2256.4 122.023 Z" fill="#000000" fill-rule="nonzero" fill-opacity="1"></path><polyline clip-path="url(#clip550)" style="stroke:#e26f46; stroke-linecap:round; stroke-linejoin:round; stroke-width:4; stroke-opacity:1; fill:none" points="1982.72,172.231 2127.26,172.231 "></polyline>
<path clip-path="url(#clip550)" d="M2158.76 156.224 L2158.76 163.585 L2167.53 163.585 L2167.53 166.895 L2158.76 166.895 L2158.76 180.969 Q2158.76 184.141 2159.61 185.043 Q2160.49 185.946 2163.16 185.946 L2167.53 185.946 L2167.53 189.511 L2163.16 189.511 Q2158.23 189.511 2156.35 187.682 Q2154.48 185.83 2154.48 180.969 L2154.48 166.895 L2151.35 166.895 L2151.35 163.585 L2154.48 163.585 L2154.48 156.224 L2158.76 156.224 Z" fill="#000000" fill-rule="nonzero" fill-opacity="1"></path><path clip-path="url(#clip550)" d="M2195.31 175.483 L2195.31 177.567 L2175.73 177.567 Q2176 181.965 2178.36 184.279 Q2180.75 186.571 2184.99 186.571 Q2187.44 186.571 2189.73 185.969 Q2192.05 185.367 2194.31 184.164 L2194.31 188.191 Q2192.02 189.164 2189.61 189.673 Q2187.21 190.182 2184.73 190.182 Q2178.53 190.182 2174.89 186.571 Q2171.28 182.96 2171.28 176.803 Q2171.28 170.437 2174.71 166.71 Q2178.16 162.96 2183.99 162.96 Q2189.22 162.96 2192.25 166.34 Q2195.31 169.696 2195.31 175.483 M2191.05 174.233 Q2191 170.738 2189.08 168.655 Q2187.18 166.571 2184.04 166.571 Q2180.47 166.571 2178.32 168.585 Q2176.19 170.599 2175.86 174.256 L2191.05 174.233 Z" fill="#000000" fill-rule="nonzero" fill-opacity="1"></path><path clip-path="url(#clip550)" d="M2218.83 164.349 L2218.83 168.377 Q2217.02 167.451 2215.08 166.988 Q2213.13 166.525 2211.05 166.525 Q2207.88 166.525 2206.28 167.497 Q2204.71 168.469 2204.71 170.414 Q2204.71 171.895 2205.84 172.752 Q2206.98 173.585 2210.4 174.349 L2211.86 174.673 Q2216.4 175.645 2218.3 177.428 Q2220.22 179.187 2220.22 182.358 Q2220.22 185.969 2217.35 188.076 Q2214.5 190.182 2209.5 190.182 Q2207.42 190.182 2205.15 189.766 Q2202.9 189.372 2200.4 188.562 L2200.4 184.164 Q2202.76 185.391 2205.05 186.016 Q2207.35 186.617 2209.59 186.617 Q2212.6 186.617 2214.22 185.599 Q2215.84 184.557 2215.84 182.682 Q2215.84 180.946 2214.66 180.02 Q2213.5 179.094 2209.55 178.238 L2208.06 177.891 Q2204.11 177.057 2202.35 175.344 Q2200.59 173.608 2200.59 170.599 Q2200.59 166.942 2203.18 164.951 Q2205.77 162.96 2210.54 162.96 Q2212.9 162.96 2214.99 163.307 Q2217.07 163.655 2218.83 164.349 Z" fill="#000000" fill-rule="nonzero" fill-opacity="1"></path><path clip-path="url(#clip550)" d="M2231.21 156.224 L2231.21 163.585 L2239.98 163.585 L2239.98 166.895 L2231.21 166.895 L2231.21 180.969 Q2231.21 184.141 2232.07 185.043 Q2232.95 185.946 2235.61 185.946 L2239.98 185.946 L2239.98 189.511 L2235.61 189.511 Q2230.68 189.511 2228.8 187.682 Q2226.93 185.83 2226.93 180.969 L2226.93 166.895 L2223.8 166.895 L2223.8 163.585 L2226.93 163.585 L2226.93 156.224 L2231.21 156.224 Z" fill="#000000" fill-rule="nonzero" fill-opacity="1"></path><path clip-path="url(#clip550)" d="M184.677 1486.45 L2352.76 1486.45 L2352.76 847.244 L184.677 847.244  Z" fill="#ffffff" fill-rule="evenodd" fill-opacity="1"></path>
<defs>
  <clipPath id="clip553">
    <rect x="184" y="847" width="2169" height="640"></rect>
  </clipPath>
</defs>
<polyline clip-path="url(#clip553)" style="stroke:#000000; stroke-linecap:round; stroke-linejoin:round; stroke-width:2; stroke-opacity:0.1; fill:none" points="241.939,1486.45 241.939,847.244 "></polyline>
<polyline clip-path="url(#clip553)" style="stroke:#000000; stroke-linecap:round; stroke-linejoin:round; stroke-width:2; stroke-opacity:0.1; fill:none" points="651.83,1486.45 651.83,847.244 "></polyline>
<polyline clip-path="url(#clip553)" style="stroke:#000000; stroke-linecap:round; stroke-linejoin:round; stroke-width:2; stroke-opacity:0.1; fill:none" points="1061.72,1486.45 1061.72,847.244 "></polyline>
<polyline clip-path="url(#clip553)" style="stroke:#000000; stroke-linecap:round; stroke-linejoin:round; stroke-width:2; stroke-opacity:0.1; fill:none" points="1471.61,1486.45 1471.61,847.244 "></polyline>
<polyline clip-path="url(#clip553)" style="stroke:#000000; stroke-linecap:round; stroke-linejoin:round; stroke-width:2; stroke-opacity:0.1; fill:none" points="1881.5,1486.45 1881.5,847.244 "></polyline>
<polyline clip-path="url(#clip553)" style="stroke:#000000; stroke-linecap:round; stroke-linejoin:round; stroke-width:2; stroke-opacity:0.1; fill:none" points="2291.4,1486.45 2291.4,847.244 "></polyline>
<polyline clip-path="url(#clip550)" style="stroke:#000000; stroke-linecap:round; stroke-linejoin:round; stroke-width:4; stroke-opacity:1; fill:none" points="184.677,1486.45 2352.76,1486.45 "></polyline>
<polyline clip-path="url(#clip550)" style="stroke:#000000; stroke-linecap:round; stroke-linejoin:round; stroke-width:4; stroke-opacity:1; fill:none" points="241.939,1486.45 241.939,1467.55 "></polyline>
<polyline clip-path="url(#clip550)" style="stroke:#000000; stroke-linecap:round; stroke-linejoin:round; stroke-width:4; stroke-opacity:1; fill:none" points="651.83,1486.45 651.83,1467.55 "></polyline>
<polyline clip-path="url(#clip550)" style="stroke:#000000; stroke-linecap:round; stroke-linejoin:round; stroke-width:4; stroke-opacity:1; fill:none" points="1061.72,1486.45 1061.72,1467.55 "></polyline>
<polyline clip-path="url(#clip550)" style="stroke:#000000; stroke-linecap:round; stroke-linejoin:round; stroke-width:4; stroke-opacity:1; fill:none" points="1471.61,1486.45 1471.61,1467.55 "></polyline>
<polyline clip-path="url(#clip550)" style="stroke:#000000; stroke-linecap:round; stroke-linejoin:round; stroke-width:4; stroke-opacity:1; fill:none" points="1881.5,1486.45 1881.5,1467.55 "></polyline>
<polyline clip-path="url(#clip550)" style="stroke:#000000; stroke-linecap:round; stroke-linejoin:round; stroke-width:4; stroke-opacity:1; fill:none" points="2291.4,1486.45 2291.4,1467.55 "></polyline>
<path clip-path="url(#clip550)" d="M241.939 1517.37 Q238.328 1517.37 236.499 1520.93 Q234.693 1524.47 234.693 1531.6 Q234.693 1538.71 236.499 1542.27 Q238.328 1545.82 241.939 1545.82 Q245.573 1545.82 247.378 1542.27 Q249.207 1538.71 249.207 1531.6 Q249.207 1524.47 247.378 1520.93 Q245.573 1517.37 241.939 1517.37 M241.939 1513.66 Q247.749 1513.66 250.804 1518.27 Q253.883 1522.85 253.883 1531.6 Q253.883 1540.33 250.804 1544.94 Q247.749 1549.52 241.939 1549.52 Q236.128 1549.52 233.05 1544.94 Q229.994 1540.33 229.994 1531.6 Q229.994 1522.85 233.05 1518.27 Q236.128 1513.66 241.939 1513.66 Z" fill="#000000" fill-rule="nonzero" fill-opacity="1"></path><path clip-path="url(#clip550)" d="M611.437 1544.91 L619.075 1544.91 L619.075 1518.55 L610.765 1520.21 L610.765 1515.95 L619.029 1514.29 L623.705 1514.29 L623.705 1544.91 L631.344 1544.91 L631.344 1548.85 L611.437 1548.85 L611.437 1544.91 Z" fill="#000000" fill-rule="nonzero" fill-opacity="1"></path><path clip-path="url(#clip550)" d="M650.788 1517.37 Q647.177 1517.37 645.348 1520.93 Q643.543 1524.47 643.543 1531.6 Q643.543 1538.71 645.348 1542.27 Q647.177 1545.82 650.788 1545.82 Q654.422 1545.82 656.228 1542.27 Q658.057 1538.71 658.057 1531.6 Q658.057 1524.47 656.228 1520.93 Q654.422 1517.37 650.788 1517.37 M650.788 1513.66 Q656.598 1513.66 659.654 1518.27 Q662.733 1522.85 662.733 1531.6 Q662.733 1540.33 659.654 1544.94 Q656.598 1549.52 650.788 1549.52 Q644.978 1549.52 641.899 1544.94 Q638.844 1540.33 638.844 1531.6 Q638.844 1522.85 641.899 1518.27 Q644.978 1513.66 650.788 1513.66 Z" fill="#000000" fill-rule="nonzero" fill-opacity="1"></path><path clip-path="url(#clip550)" d="M680.95 1517.37 Q677.339 1517.37 675.51 1520.93 Q673.705 1524.47 673.705 1531.6 Q673.705 1538.71 675.51 1542.27 Q677.339 1545.82 680.95 1545.82 Q684.584 1545.82 686.39 1542.27 Q688.219 1538.71 688.219 1531.6 Q688.219 1524.47 686.39 1520.93 Q684.584 1517.37 680.95 1517.37 M680.95 1513.66 Q686.76 1513.66 689.816 1518.27 Q692.895 1522.85 692.895 1531.6 Q692.895 1540.33 689.816 1544.94 Q686.76 1549.52 680.95 1549.52 Q675.14 1549.52 672.061 1544.94 Q669.006 1540.33 669.006 1531.6 Q669.006 1522.85 672.061 1518.27 Q675.14 1513.66 680.95 1513.66 Z" fill="#000000" fill-rule="nonzero" fill-opacity="1"></path><path clip-path="url(#clip550)" d="M1025.41 1544.91 L1041.73 1544.91 L1041.73 1548.85 L1019.79 1548.85 L1019.79 1544.91 Q1022.45 1542.16 1027.03 1537.53 Q1031.64 1532.88 1032.82 1531.53 Q1035.07 1529.01 1035.95 1527.27 Q1036.85 1525.51 1036.85 1523.82 Q1036.85 1521.07 1034.9 1519.33 Q1032.98 1517.6 1029.88 1517.6 Q1027.68 1517.6 1025.23 1518.36 Q1022.8 1519.13 1020.02 1520.68 L1020.02 1515.95 Q1022.84 1514.82 1025.3 1514.24 Q1027.75 1513.66 1029.79 1513.66 Q1035.16 1513.66 1038.35 1516.35 Q1041.55 1519.03 1041.55 1523.52 Q1041.55 1525.65 1040.74 1527.57 Q1039.95 1529.47 1037.84 1532.07 Q1037.27 1532.74 1034.16 1535.95 Q1031.06 1539.15 1025.41 1544.91 Z" fill="#000000" fill-rule="nonzero" fill-opacity="1"></path><path clip-path="url(#clip550)" d="M1061.55 1517.37 Q1057.94 1517.37 1056.11 1520.93 Q1054.3 1524.47 1054.3 1531.6 Q1054.3 1538.71 1056.11 1542.27 Q1057.94 1545.82 1061.55 1545.82 Q1065.18 1545.82 1066.99 1542.27 Q1068.82 1538.71 1068.82 1531.6 Q1068.82 1524.47 1066.99 1520.93 Q1065.18 1517.37 1061.55 1517.37 M1061.55 1513.66 Q1067.36 1513.66 1070.41 1518.27 Q1073.49 1522.85 1073.49 1531.6 Q1073.49 1540.33 1070.41 1544.94 Q1067.36 1549.52 1061.55 1549.52 Q1055.74 1549.52 1052.66 1544.94 Q1049.6 1540.33 1049.6 1531.6 Q1049.6 1522.85 1052.66 1518.27 Q1055.74 1513.66 1061.55 1513.66 Z" fill="#000000" fill-rule="nonzero" fill-opacity="1"></path><path clip-path="url(#clip550)" d="M1091.71 1517.37 Q1088.1 1517.37 1086.27 1520.93 Q1084.46 1524.47 1084.46 1531.6 Q1084.46 1538.71 1086.27 1542.27 Q1088.1 1545.82 1091.71 1545.82 Q1095.34 1545.82 1097.15 1542.27 Q1098.98 1538.71 1098.98 1531.6 Q1098.98 1524.47 1097.15 1520.93 Q1095.34 1517.37 1091.71 1517.37 M1091.71 1513.66 Q1097.52 1513.66 1100.58 1518.27 Q1103.65 1522.85 1103.65 1531.6 Q1103.65 1540.33 1100.58 1544.94 Q1097.52 1549.52 1091.71 1549.52 Q1085.9 1549.52 1082.82 1544.94 Q1079.77 1540.33 1079.77 1531.6 Q1079.77 1522.85 1082.82 1518.27 Q1085.9 1513.66 1091.71 1513.66 Z" fill="#000000" fill-rule="nonzero" fill-opacity="1"></path><path clip-path="url(#clip550)" d="M1445.37 1530.21 Q1448.73 1530.93 1450.61 1533.2 Q1452.5 1535.47 1452.5 1538.8 Q1452.5 1543.92 1448.99 1546.72 Q1445.47 1549.52 1438.99 1549.52 Q1436.81 1549.52 1434.49 1549.08 Q1432.2 1548.66 1429.75 1547.81 L1429.75 1543.29 Q1431.69 1544.43 1434.01 1545.01 Q1436.32 1545.58 1438.85 1545.58 Q1443.24 1545.58 1445.54 1543.85 Q1447.85 1542.11 1447.85 1538.8 Q1447.85 1535.75 1445.7 1534.03 Q1443.57 1532.3 1439.75 1532.3 L1435.72 1532.3 L1435.72 1528.45 L1439.93 1528.45 Q1443.38 1528.45 1445.21 1527.09 Q1447.04 1525.7 1447.04 1523.11 Q1447.04 1520.45 1445.14 1519.03 Q1443.27 1517.6 1439.75 1517.6 Q1437.83 1517.6 1435.63 1518.01 Q1433.43 1518.43 1430.79 1519.31 L1430.79 1515.14 Q1433.45 1514.4 1435.77 1514.03 Q1438.11 1513.66 1440.17 1513.66 Q1445.49 1513.66 1448.59 1516.09 Q1451.69 1518.5 1451.69 1522.62 Q1451.69 1525.49 1450.05 1527.48 Q1448.41 1529.45 1445.37 1530.21 Z" fill="#000000" fill-rule="nonzero" fill-opacity="1"></path><path clip-path="url(#clip550)" d="M1471.37 1517.37 Q1467.76 1517.37 1465.93 1520.93 Q1464.12 1524.47 1464.12 1531.6 Q1464.12 1538.71 1465.93 1542.27 Q1467.76 1545.82 1471.37 1545.82 Q1475 1545.82 1476.81 1542.27 Q1478.64 1538.71 1478.64 1531.6 Q1478.64 1524.47 1476.81 1520.93 Q1475 1517.37 1471.37 1517.37 M1471.37 1513.66 Q1477.18 1513.66 1480.24 1518.27 Q1483.31 1522.85 1483.31 1531.6 Q1483.31 1540.33 1480.24 1544.94 Q1477.18 1549.52 1471.37 1549.52 Q1465.56 1549.52 1462.48 1544.94 Q1459.43 1540.33 1459.43 1531.6 Q1459.43 1522.85 1462.48 1518.27 Q1465.56 1513.66 1471.37 1513.66 Z" fill="#000000" fill-rule="nonzero" fill-opacity="1"></path><path clip-path="url(#clip550)" d="M1501.53 1517.37 Q1497.92 1517.37 1496.09 1520.93 Q1494.29 1524.47 1494.29 1531.6 Q1494.29 1538.71 1496.09 1542.27 Q1497.92 1545.82 1501.53 1545.82 Q1505.17 1545.82 1506.97 1542.27 Q1508.8 1538.71 1508.8 1531.6 Q1508.8 1524.47 1506.97 1520.93 Q1505.17 1517.37 1501.53 1517.37 M1501.53 1513.66 Q1507.34 1513.66 1510.4 1518.27 Q1513.48 1522.85 1513.48 1531.6 Q1513.48 1540.33 1510.4 1544.94 Q1507.34 1549.52 1501.53 1549.52 Q1495.72 1549.52 1492.64 1544.94 Q1489.59 1540.33 1489.59 1531.6 Q1489.59 1522.85 1492.64 1518.27 Q1495.72 1513.66 1501.53 1513.66 Z" fill="#000000" fill-rule="nonzero" fill-opacity="1"></path><path clip-path="url(#clip550)" d="M1854.59 1518.36 L1842.79 1536.81 L1854.59 1536.81 L1854.59 1518.36 M1853.37 1514.29 L1859.25 1514.29 L1859.25 1536.81 L1864.18 1536.81 L1864.18 1540.7 L1859.25 1540.7 L1859.25 1548.85 L1854.59 1548.85 L1854.59 1540.7 L1838.99 1540.7 L1838.99 1536.19 L1853.37 1514.29 Z" fill="#000000" fill-rule="nonzero" fill-opacity="1"></path><path clip-path="url(#clip550)" d="M1881.91 1517.37 Q1878.3 1517.37 1876.47 1520.93 Q1874.66 1524.47 1874.66 1531.6 Q1874.66 1538.71 1876.47 1542.27 Q1878.3 1545.82 1881.91 1545.82 Q1885.54 1545.82 1887.35 1542.27 Q1889.18 1538.71 1889.18 1531.6 Q1889.18 1524.47 1887.35 1520.93 Q1885.54 1517.37 1881.91 1517.37 M1881.91 1513.66 Q1887.72 1513.66 1890.77 1518.27 Q1893.85 1522.85 1893.85 1531.6 Q1893.85 1540.33 1890.77 1544.94 Q1887.72 1549.52 1881.91 1549.52 Q1876.1 1549.52 1873.02 1544.94 Q1869.96 1540.33 1869.96 1531.6 Q1869.96 1522.85 1873.02 1518.27 Q1876.1 1513.66 1881.91 1513.66 Z" fill="#000000" fill-rule="nonzero" fill-opacity="1"></path><path clip-path="url(#clip550)" d="M1912.07 1517.37 Q1908.46 1517.37 1906.63 1520.93 Q1904.83 1524.47 1904.83 1531.6 Q1904.83 1538.71 1906.63 1542.27 Q1908.46 1545.82 1912.07 1545.82 Q1915.71 1545.82 1917.51 1542.27 Q1919.34 1538.71 1919.34 1531.6 Q1919.34 1524.47 1917.51 1520.93 Q1915.71 1517.37 1912.07 1517.37 M1912.07 1513.66 Q1917.88 1513.66 1920.94 1518.27 Q1924.02 1522.85 1924.02 1531.6 Q1924.02 1540.33 1920.94 1544.94 Q1917.88 1549.52 1912.07 1549.52 Q1906.26 1549.52 1903.18 1544.94 Q1900.13 1540.33 1900.13 1531.6 Q1900.13 1522.85 1903.18 1518.27 Q1906.26 1513.66 1912.07 1513.66 Z" fill="#000000" fill-rule="nonzero" fill-opacity="1"></path><path clip-path="url(#clip550)" d="M2251.01 1514.29 L2269.37 1514.29 L2269.37 1518.22 L2255.3 1518.22 L2255.3 1526.7 Q2256.31 1526.35 2257.33 1526.19 Q2258.35 1526 2259.37 1526 Q2265.16 1526 2268.54 1529.17 Q2271.92 1532.34 2271.92 1537.76 Q2271.92 1543.34 2268.44 1546.44 Q2264.97 1549.52 2258.65 1549.52 Q2256.48 1549.52 2254.21 1549.15 Q2251.96 1548.78 2249.56 1548.04 L2249.56 1543.34 Q2251.64 1544.47 2253.86 1545.03 Q2256.08 1545.58 2258.56 1545.58 Q2262.56 1545.58 2264.9 1543.48 Q2267.24 1541.37 2267.24 1537.76 Q2267.24 1534.15 2264.9 1532.04 Q2262.56 1529.94 2258.56 1529.94 Q2256.68 1529.94 2254.81 1530.35 Q2252.96 1530.77 2251.01 1531.65 L2251.01 1514.29 Z" fill="#000000" fill-rule="nonzero" fill-opacity="1"></path><path clip-path="url(#clip550)" d="M2291.13 1517.37 Q2287.52 1517.37 2285.69 1520.93 Q2283.88 1524.47 2283.88 1531.6 Q2283.88 1538.71 2285.69 1542.27 Q2287.52 1545.82 2291.13 1545.82 Q2294.76 1545.82 2296.57 1542.27 Q2298.4 1538.71 2298.4 1531.6 Q2298.4 1524.47 2296.57 1520.93 Q2294.76 1517.37 2291.13 1517.37 M2291.13 1513.66 Q2296.94 1513.66 2299.99 1518.27 Q2303.07 1522.85 2303.07 1531.6 Q2303.07 1540.33 2299.99 1544.94 Q2296.94 1549.52 2291.13 1549.52 Q2285.32 1549.52 2282.24 1544.94 Q2279.18 1540.33 2279.18 1531.6 Q2279.18 1522.85 2282.24 1518.27 Q2285.32 1513.66 2291.13 1513.66 Z" fill="#000000" fill-rule="nonzero" fill-opacity="1"></path><path clip-path="url(#clip550)" d="M2321.29 1517.37 Q2317.68 1517.37 2315.85 1520.93 Q2314.05 1524.47 2314.05 1531.6 Q2314.05 1538.71 2315.85 1542.27 Q2317.68 1545.82 2321.29 1545.82 Q2324.93 1545.82 2326.73 1542.27 Q2328.56 1538.71 2328.56 1531.6 Q2328.56 1524.47 2326.73 1520.93 Q2324.93 1517.37 2321.29 1517.37 M2321.29 1513.66 Q2327.1 1513.66 2330.16 1518.27 Q2333.24 1522.85 2333.24 1531.6 Q2333.24 1540.33 2330.16 1544.94 Q2327.1 1549.52 2321.29 1549.52 Q2315.48 1549.52 2312.4 1544.94 Q2309.35 1540.33 2309.35 1531.6 Q2309.35 1522.85 2312.4 1518.27 Q2315.48 1513.66 2321.29 1513.66 Z" fill="#000000" fill-rule="nonzero" fill-opacity="1"></path><polyline clip-path="url(#clip553)" style="stroke:#000000; stroke-linecap:round; stroke-linejoin:round; stroke-width:2; stroke-opacity:0.1; fill:none" points="184.677,1463.95 2352.76,1463.95 "></polyline>
<polyline clip-path="url(#clip553)" style="stroke:#000000; stroke-linecap:round; stroke-linejoin:round; stroke-width:2; stroke-opacity:0.1; fill:none" points="184.677,1366.35 2352.76,1366.35 "></polyline>
<polyline clip-path="url(#clip553)" style="stroke:#000000; stroke-linecap:round; stroke-linejoin:round; stroke-width:2; stroke-opacity:0.1; fill:none" points="184.677,1268.74 2352.76,1268.74 "></polyline>
<polyline clip-path="url(#clip553)" style="stroke:#000000; stroke-linecap:round; stroke-linejoin:round; stroke-width:2; stroke-opacity:0.1; fill:none" points="184.677,1171.14 2352.76,1171.14 "></polyline>
<polyline clip-path="url(#clip553)" style="stroke:#000000; stroke-linecap:round; stroke-linejoin:round; stroke-width:2; stroke-opacity:0.1; fill:none" points="184.677,1073.54 2352.76,1073.54 "></polyline>
<polyline clip-path="url(#clip553)" style="stroke:#000000; stroke-linecap:round; stroke-linejoin:round; stroke-width:2; stroke-opacity:0.1; fill:none" points="184.677,975.937 2352.76,975.937 "></polyline>
<polyline clip-path="url(#clip553)" style="stroke:#000000; stroke-linecap:round; stroke-linejoin:round; stroke-width:2; stroke-opacity:0.1; fill:none" points="184.677,878.334 2352.76,878.334 "></polyline>
<polyline clip-path="url(#clip550)" style="stroke:#000000; stroke-linecap:round; stroke-linejoin:round; stroke-width:4; stroke-opacity:1; fill:none" points="184.677,1486.45 184.677,847.244 "></polyline>
<polyline clip-path="url(#clip550)" style="stroke:#000000; stroke-linecap:round; stroke-linejoin:round; stroke-width:4; stroke-opacity:1; fill:none" points="184.677,1463.95 203.574,1463.95 "></polyline>
<polyline clip-path="url(#clip550)" style="stroke:#000000; stroke-linecap:round; stroke-linejoin:round; stroke-width:4; stroke-opacity:1; fill:none" points="184.677,1366.35 203.574,1366.35 "></polyline>
<polyline clip-path="url(#clip550)" style="stroke:#000000; stroke-linecap:round; stroke-linejoin:round; stroke-width:4; stroke-opacity:1; fill:none" points="184.677,1268.74 203.574,1268.74 "></polyline>
<polyline clip-path="url(#clip550)" style="stroke:#000000; stroke-linecap:round; stroke-linejoin:round; stroke-width:4; stroke-opacity:1; fill:none" points="184.677,1171.14 203.574,1171.14 "></polyline>
<polyline clip-path="url(#clip550)" style="stroke:#000000; stroke-linecap:round; stroke-linejoin:round; stroke-width:4; stroke-opacity:1; fill:none" points="184.677,1073.54 203.574,1073.54 "></polyline>
<polyline clip-path="url(#clip550)" style="stroke:#000000; stroke-linecap:round; stroke-linejoin:round; stroke-width:4; stroke-opacity:1; fill:none" points="184.677,975.937 203.574,975.937 "></polyline>
<polyline clip-path="url(#clip550)" style="stroke:#000000; stroke-linecap:round; stroke-linejoin:round; stroke-width:4; stroke-opacity:1; fill:none" points="184.677,878.334 203.574,878.334 "></polyline>
<path clip-path="url(#clip550)" d="M82.6355 1480.51 L82.6355 1476.25 Q84.3947 1477.09 86.2003 1477.52 Q88.0058 1477.96 89.7419 1477.96 Q94.3715 1477.96 96.8021 1474.86 Q99.2558 1471.74 99.603 1465.4 Q98.2604 1467.39 96.2002 1468.45 Q94.14 1469.52 91.6401 1469.52 Q86.4549 1469.52 83.4225 1466.39 Q80.4133 1463.24 80.4133 1457.8 Q80.4133 1452.48 83.5614 1449.26 Q86.7095 1446.04 91.941 1446.04 Q97.9363 1446.04 101.084 1450.65 Q104.256 1455.23 104.256 1463.98 Q104.256 1472.15 100.367 1477.04 Q96.5011 1481.9 89.9503 1481.9 Q88.191 1481.9 86.3855 1481.55 Q84.5799 1481.21 82.6355 1480.51 M91.941 1465.86 Q95.0891 1465.86 96.9178 1463.71 Q98.7696 1461.55 98.7696 1457.8 Q98.7696 1454.08 96.9178 1451.92 Q95.0891 1449.75 91.941 1449.75 Q88.7928 1449.75 86.941 1451.92 Q85.1123 1454.08 85.1123 1457.8 Q85.1123 1461.55 86.941 1463.71 Q88.7928 1465.86 91.941 1465.86 Z" fill="#000000" fill-rule="nonzero" fill-opacity="1"></path><path clip-path="url(#clip550)" d="M112.658 1475.35 L117.543 1475.35 L117.543 1481.23 L112.658 1481.23 L112.658 1475.35 Z" fill="#000000" fill-rule="nonzero" fill-opacity="1"></path><path clip-path="url(#clip550)" d="M127.774 1446.67 L146.131 1446.67 L146.131 1450.6 L132.057 1450.6 L132.057 1459.08 Q133.075 1458.73 134.094 1458.57 Q135.112 1458.38 136.131 1458.38 Q141.918 1458.38 145.297 1461.55 Q148.677 1464.72 148.677 1470.14 Q148.677 1475.72 145.205 1478.82 Q141.732 1481.9 135.413 1481.9 Q133.237 1481.9 130.969 1481.53 Q128.723 1481.16 126.316 1480.42 L126.316 1475.72 Q128.399 1476.85 130.621 1477.41 Q132.844 1477.96 135.32 1477.96 Q139.325 1477.96 141.663 1475.86 Q144.001 1473.75 144.001 1470.14 Q144.001 1466.53 141.663 1464.42 Q139.325 1462.32 135.32 1462.32 Q133.445 1462.32 131.57 1462.73 Q129.719 1463.15 127.774 1464.03 L127.774 1446.67 Z" fill="#000000" fill-rule="nonzero" fill-opacity="1"></path><path clip-path="url(#clip550)" d="M52.1495 1379.69 L59.7884 1379.69 L59.7884 1353.33 L51.4782 1354.99 L51.4782 1350.73 L59.7421 1349.07 L64.418 1349.07 L64.418 1379.69 L72.0568 1379.69 L72.0568 1383.63 L52.1495 1383.63 L52.1495 1379.69 Z" fill="#000000" fill-rule="nonzero" fill-opacity="1"></path><path clip-path="url(#clip550)" d="M91.5012 1352.14 Q87.8901 1352.14 86.0614 1355.71 Q84.2558 1359.25 84.2558 1366.38 Q84.2558 1373.49 86.0614 1377.05 Q87.8901 1380.59 91.5012 1380.59 Q95.1354 1380.59 96.941 1377.05 Q98.7696 1373.49 98.7696 1366.38 Q98.7696 1359.25 96.941 1355.71 Q95.1354 1352.14 91.5012 1352.14 M91.5012 1348.44 Q97.3113 1348.44 100.367 1353.05 Q103.446 1357.63 103.446 1366.38 Q103.446 1375.11 100.367 1379.71 Q97.3113 1384.3 91.5012 1384.3 Q85.691 1384.3 82.6123 1379.71 Q79.5568 1375.11 79.5568 1366.38 Q79.5568 1357.63 82.6123 1353.05 Q85.691 1348.44 91.5012 1348.44 Z" fill="#000000" fill-rule="nonzero" fill-opacity="1"></path><path clip-path="url(#clip550)" d="M111.663 1377.75 L116.547 1377.75 L116.547 1383.63 L111.663 1383.63 L111.663 1377.75 Z" fill="#000000" fill-rule="nonzero" fill-opacity="1"></path><path clip-path="url(#clip550)" d="M136.732 1352.14 Q133.121 1352.14 131.293 1355.71 Q129.487 1359.25 129.487 1366.38 Q129.487 1373.49 131.293 1377.05 Q133.121 1380.59 136.732 1380.59 Q140.367 1380.59 142.172 1377.05 Q144.001 1373.49 144.001 1366.38 Q144.001 1359.25 142.172 1355.71 Q140.367 1352.14 136.732 1352.14 M136.732 1348.44 Q142.543 1348.44 145.598 1353.05 Q148.677 1357.63 148.677 1366.38 Q148.677 1375.11 145.598 1379.71 Q142.543 1384.3 136.732 1384.3 Q130.922 1384.3 127.844 1379.71 Q124.788 1375.11 124.788 1366.38 Q124.788 1357.63 127.844 1353.05 Q130.922 1348.44 136.732 1348.44 Z" fill="#000000" fill-rule="nonzero" fill-opacity="1"></path><path clip-path="url(#clip550)" d="M53.1449 1282.09 L60.7837 1282.09 L60.7837 1255.72 L52.4736 1257.39 L52.4736 1253.13 L60.7374 1251.46 L65.4133 1251.46 L65.4133 1282.09 L73.0522 1282.09 L73.0522 1286.02 L53.1449 1286.02 L53.1449 1282.09 Z" fill="#000000" fill-rule="nonzero" fill-opacity="1"></path><path clip-path="url(#clip550)" d="M92.4965 1254.54 Q88.8854 1254.54 87.0567 1258.11 Q85.2512 1261.65 85.2512 1268.78 Q85.2512 1275.88 87.0567 1279.45 Q88.8854 1282.99 92.4965 1282.99 Q96.1308 1282.99 97.9363 1279.45 Q99.765 1275.88 99.765 1268.78 Q99.765 1261.65 97.9363 1258.11 Q96.1308 1254.54 92.4965 1254.54 M92.4965 1250.84 Q98.3067 1250.84 101.362 1255.45 Q104.441 1260.03 104.441 1268.78 Q104.441 1277.51 101.362 1282.11 Q98.3067 1286.7 92.4965 1286.7 Q86.6864 1286.7 83.6077 1282.11 Q80.5522 1277.51 80.5522 1268.78 Q80.5522 1260.03 83.6077 1255.45 Q86.6864 1250.84 92.4965 1250.84 Z" fill="#000000" fill-rule="nonzero" fill-opacity="1"></path><path clip-path="url(#clip550)" d="M112.658 1280.14 L117.543 1280.14 L117.543 1286.02 L112.658 1286.02 L112.658 1280.14 Z" fill="#000000" fill-rule="nonzero" fill-opacity="1"></path><path clip-path="url(#clip550)" d="M127.774 1251.46 L146.131 1251.46 L146.131 1255.4 L132.057 1255.4 L132.057 1263.87 Q133.075 1263.52 134.094 1263.36 Q135.112 1263.18 136.131 1263.18 Q141.918 1263.18 145.297 1266.35 Q148.677 1269.52 148.677 1274.94 Q148.677 1280.51 145.205 1283.62 Q141.732 1286.7 135.413 1286.7 Q133.237 1286.7 130.969 1286.32 Q128.723 1285.95 126.316 1285.21 L126.316 1280.51 Q128.399 1281.65 130.621 1282.2 Q132.844 1282.76 135.32 1282.76 Q139.325 1282.76 141.663 1280.65 Q144.001 1278.55 144.001 1274.94 Q144.001 1271.32 141.663 1269.22 Q139.325 1267.11 135.32 1267.11 Q133.445 1267.11 131.57 1267.53 Q129.719 1267.95 127.774 1268.82 L127.774 1251.46 Z" fill="#000000" fill-rule="nonzero" fill-opacity="1"></path><path clip-path="url(#clip550)" d="M52.1495 1184.49 L59.7884 1184.49 L59.7884 1158.12 L51.4782 1159.79 L51.4782 1155.53 L59.7421 1153.86 L64.418 1153.86 L64.418 1184.49 L72.0568 1184.49 L72.0568 1188.42 L52.1495 1188.42 L52.1495 1184.49 Z" fill="#000000" fill-rule="nonzero" fill-opacity="1"></path><path clip-path="url(#clip550)" d="M82.3114 1184.49 L89.9503 1184.49 L89.9503 1158.12 L81.6401 1159.79 L81.6401 1155.53 L89.904 1153.86 L94.5799 1153.86 L94.5799 1184.49 L102.219 1184.49 L102.219 1188.42 L82.3114 1188.42 L82.3114 1184.49 Z" fill="#000000" fill-rule="nonzero" fill-opacity="1"></path><path clip-path="url(#clip550)" d="M111.663 1182.54 L116.547 1182.54 L116.547 1188.42 L111.663 1188.42 L111.663 1182.54 Z" fill="#000000" fill-rule="nonzero" fill-opacity="1"></path><path clip-path="url(#clip550)" d="M136.732 1156.94 Q133.121 1156.94 131.293 1160.5 Q129.487 1164.05 129.487 1171.18 Q129.487 1178.28 131.293 1181.85 Q133.121 1185.39 136.732 1185.39 Q140.367 1185.39 142.172 1181.85 Q144.001 1178.28 144.001 1171.18 Q144.001 1164.05 142.172 1160.5 Q140.367 1156.94 136.732 1156.94 M136.732 1153.24 Q142.543 1153.24 145.598 1157.84 Q148.677 1162.43 148.677 1171.18 Q148.677 1179.9 145.598 1184.51 Q142.543 1189.09 136.732 1189.09 Q130.922 1189.09 127.844 1184.51 Q124.788 1179.9 124.788 1171.18 Q124.788 1162.43 127.844 1157.84 Q130.922 1153.24 136.732 1153.24 Z" fill="#000000" fill-rule="nonzero" fill-opacity="1"></path><path clip-path="url(#clip550)" d="M53.1449 1086.88 L60.7837 1086.88 L60.7837 1060.52 L52.4736 1062.19 L52.4736 1057.93 L60.7374 1056.26 L65.4133 1056.26 L65.4133 1086.88 L73.0522 1086.88 L73.0522 1090.82 L53.1449 1090.82 L53.1449 1086.88 Z" fill="#000000" fill-rule="nonzero" fill-opacity="1"></path><path clip-path="url(#clip550)" d="M83.3068 1086.88 L90.9456 1086.88 L90.9456 1060.52 L82.6355 1062.19 L82.6355 1057.93 L90.8993 1056.26 L95.5752 1056.26 L95.5752 1086.88 L103.214 1086.88 L103.214 1090.82 L83.3068 1090.82 L83.3068 1086.88 Z" fill="#000000" fill-rule="nonzero" fill-opacity="1"></path><path clip-path="url(#clip550)" d="M112.658 1084.94 L117.543 1084.94 L117.543 1090.82 L112.658 1090.82 L112.658 1084.94 Z" fill="#000000" fill-rule="nonzero" fill-opacity="1"></path><path clip-path="url(#clip550)" d="M127.774 1056.26 L146.131 1056.26 L146.131 1060.19 L132.057 1060.19 L132.057 1068.67 Q133.075 1068.32 134.094 1068.16 Q135.112 1067.97 136.131 1067.97 Q141.918 1067.97 145.297 1071.14 Q148.677 1074.31 148.677 1079.73 Q148.677 1085.31 145.205 1088.41 Q141.732 1091.49 135.413 1091.49 Q133.237 1091.49 130.969 1091.12 Q128.723 1090.75 126.316 1090.01 L126.316 1085.31 Q128.399 1086.44 130.621 1087 Q132.844 1087.56 135.32 1087.56 Q139.325 1087.56 141.663 1085.45 Q144.001 1083.34 144.001 1079.73 Q144.001 1076.12 141.663 1074.01 Q139.325 1071.91 135.32 1071.91 Q133.445 1071.91 131.57 1072.32 Q129.719 1072.74 127.774 1073.62 L127.774 1056.26 Z" fill="#000000" fill-rule="nonzero" fill-opacity="1"></path><path clip-path="url(#clip550)" d="M52.1495 989.282 L59.7884 989.282 L59.7884 962.916 L51.4782 964.583 L51.4782 960.323 L59.7421 958.657 L64.418 958.657 L64.418 989.282 L72.0568 989.282 L72.0568 993.217 L52.1495 993.217 L52.1495 989.282 Z" fill="#000000" fill-rule="nonzero" fill-opacity="1"></path><path clip-path="url(#clip550)" d="M85.529 989.282 L101.848 989.282 L101.848 993.217 L79.904 993.217 L79.904 989.282 Q82.566 986.527 87.1493 981.897 Q91.7558 977.245 92.9363 975.902 Q95.1817 973.379 96.0613 971.643 Q96.9641 969.884 96.9641 968.194 Q96.9641 965.439 95.0197 963.703 Q93.0984 961.967 89.9965 961.967 Q87.7975 961.967 85.3438 962.731 Q82.9133 963.495 80.1355 965.046 L80.1355 960.323 Q82.9595 959.189 85.4132 958.61 Q87.8669 958.032 89.904 958.032 Q95.2743 958.032 98.4687 960.717 Q101.663 963.402 101.663 967.893 Q101.663 970.022 100.853 971.944 Q100.066 973.842 97.9595 976.434 Q97.3808 977.106 94.2789 980.323 Q91.1771 983.518 85.529 989.282 Z" fill="#000000" fill-rule="nonzero" fill-opacity="1"></path><path clip-path="url(#clip550)" d="M111.663 987.337 L116.547 987.337 L116.547 993.217 L111.663 993.217 L111.663 987.337 Z" fill="#000000" fill-rule="nonzero" fill-opacity="1"></path><path clip-path="url(#clip550)" d="M136.732 961.735 Q133.121 961.735 131.293 965.3 Q129.487 968.842 129.487 975.972 Q129.487 983.078 131.293 986.643 Q133.121 990.184 136.732 990.184 Q140.367 990.184 142.172 986.643 Q144.001 983.078 144.001 975.972 Q144.001 968.842 142.172 965.3 Q140.367 961.735 136.732 961.735 M136.732 958.032 Q142.543 958.032 145.598 962.638 Q148.677 967.222 148.677 975.972 Q148.677 984.698 145.598 989.305 Q142.543 993.888 136.732 993.888 Q130.922 993.888 127.844 989.305 Q124.788 984.698 124.788 975.972 Q124.788 967.222 127.844 962.638 Q130.922 958.032 136.732 958.032 Z" fill="#000000" fill-rule="nonzero" fill-opacity="1"></path><path clip-path="url(#clip550)" d="M53.1449 891.679 L60.7837 891.679 L60.7837 865.314 L52.4736 866.98 L52.4736 862.721 L60.7374 861.054 L65.4133 861.054 L65.4133 891.679 L73.0522 891.679 L73.0522 895.614 L53.1449 895.614 L53.1449 891.679 Z" fill="#000000" fill-rule="nonzero" fill-opacity="1"></path><path clip-path="url(#clip550)" d="M86.5243 891.679 L102.844 891.679 L102.844 895.614 L80.8994 895.614 L80.8994 891.679 Q83.5614 888.925 88.1447 884.295 Q92.7512 879.642 93.9317 878.3 Q96.1771 875.777 97.0567 874.04 Q97.9595 872.281 97.9595 870.591 Q97.9595 867.837 96.015 866.101 Q94.0937 864.365 90.9919 864.365 Q88.7928 864.365 86.3392 865.128 Q83.9086 865.892 81.1309 867.443 L81.1309 862.721 Q83.9549 861.587 86.4086 861.008 Q88.8623 860.429 90.8993 860.429 Q96.2697 860.429 99.4641 863.115 Q102.659 865.8 102.659 870.291 Q102.659 872.42 101.848 874.341 Q101.061 876.24 98.9548 878.832 Q98.3761 879.503 95.2743 882.721 Q92.1725 885.915 86.5243 891.679 Z" fill="#000000" fill-rule="nonzero" fill-opacity="1"></path><path clip-path="url(#clip550)" d="M112.658 889.735 L117.543 889.735 L117.543 895.614 L112.658 895.614 L112.658 889.735 Z" fill="#000000" fill-rule="nonzero" fill-opacity="1"></path><path clip-path="url(#clip550)" d="M127.774 861.054 L146.131 861.054 L146.131 864.99 L132.057 864.99 L132.057 873.462 Q133.075 873.115 134.094 872.953 Q135.112 872.767 136.131 872.767 Q141.918 872.767 145.297 875.939 Q148.677 879.11 148.677 884.527 Q148.677 890.105 145.205 893.207 Q141.732 896.286 135.413 896.286 Q133.237 896.286 130.969 895.915 Q128.723 895.545 126.316 894.804 L126.316 890.105 Q128.399 891.239 130.621 891.795 Q132.844 892.351 135.32 892.351 Q139.325 892.351 141.663 890.244 Q144.001 888.138 144.001 884.527 Q144.001 880.915 141.663 878.809 Q139.325 876.703 135.32 876.703 Q133.445 876.703 131.57 877.119 Q129.719 877.536 127.774 878.415 L127.774 861.054 Z" fill="#000000" fill-rule="nonzero" fill-opacity="1"></path><polyline clip-path="url(#clip553)" style="stroke:#009af9; stroke-linecap:round; stroke-linejoin:round; stroke-width:4; stroke-opacity:1; fill:none" points="246.038,865.335 250.136,976.611 254.235,977.48 258.334,977.474 262.433,977.452 266.532,978.006 270.631,978.063 274.73,977.973 278.829,978.238 282.928,978.194 287.027,978.15 291.126,978.437 295.224,978.051 299.323,977.959 303.422,978.47 307.521,978.273 311.62,978.571 315.719,978.504 319.818,978.261 323.917,978.688 328.016,978.635 332.115,978.325 336.214,978.505 340.313,978.766 344.411,978.846 348.51,978.817 352.609,978.932 356.708,978.94 360.807,978.776 364.906,978.962 369.005,979.23 373.104,980.131 377.203,1010.81 381.302,1094.43 385.401,1111.98 389.499,1114.84 393.598,1117.36 397.697,1119.84 401.796,1123.34 405.895,1126.95 409.994,1131.3 414.093,1138.06 418.192,1146.14 422.291,1155.77 426.39,1160.82 430.489,1169.64 434.588,1175.88 438.686,1182.17 442.785,1187.49 446.884,1196.69 450.983,1205.61 455.082,1216.85 459.181,1227.09 463.28,1235.76 467.379,1238.08 471.478,1251.5 475.577,1257.11 479.676,1262.1 483.774,1272.21 487.873,1276.39 491.972,1273.1 496.071,1283.96 500.17,1290.46 504.269,1299.69 508.368,1301.67 512.467,1303.16 516.566,1309.19 520.665,1314.61 524.764,1314.27 528.863,1321.22 532.961,1327.86 537.06,1333.1 541.159,1339.4 545.258,1341.28 549.357,1346.22 553.456,1351.24 557.555,1359.24 561.654,1366.49 565.753,1366.02 569.852,1372.55 573.951,1374.06 578.049,1391.94 582.148,1393.86 586.247,1399.97 590.346,1398.97 594.445,1406.75 598.544,1408.3 602.643,1410.57 606.742,1410.9 610.841,1414.26 614.94,1411 619.039,1411.32 623.138,1417.78 627.236,1424.68 631.335,1423.99 635.434,1426.52 639.533,1429.38 643.632,1422.92 647.731,1428.7 651.83,1426.79 655.929,1429.89 660.028,1432.04 664.127,1432.11 668.226,1432.24 672.324,1433.96 676.423,1433.64 680.522,1437.38 684.621,1436.47 688.72,1437.65 692.819,1433.55 696.918,1432.07 701.017,1437.78 705.116,1438 709.215,1433.31 713.314,1438.84 717.413,1434.37 721.511,1433.38 725.61,1433.79 729.709,1435.66 733.808,1437.57 737.907,1440.12 742.006,1440.25 746.105,1437.98 750.204,1444.95 754.303,1444.22 758.402,1444.81 762.501,1444.86 766.599,1439.21 770.698,1445.9 774.797,1439.42 778.896,1443.63 782.995,1437.28 787.094,1450.05 791.193,1451.18 795.292,1450.15 799.391,1446.01 803.49,1447.38 807.589,1450.18 811.688,1442.64 815.786,1452.26 819.885,1453.05 823.984,1447.1 828.083,1448.06 832.182,1447.58 836.281,1441.61 840.38,1440.11 844.479,1451.86 848.578,1448.13 852.677,1452.2 856.776,1452.51 860.874,1453.34 864.973,1448.85 869.072,1454.61 873.171,1450.92 877.27,1455.21 881.369,1455.69 885.468,1452.9 889.567,1445.7 893.666,1451.34 897.765,1456.14 901.864,1456.47 905.963,1456.5 910.061,1454.66 914.16,1457.55 918.259,1457.36 922.358,1456.26 926.457,1454.61 930.556,1454.57 934.655,1458.31 938.754,1457.18 942.853,1454.03 946.952,1448.05 951.051,1455.89 955.149,1451.46 959.248,1457.69 963.347,1460.91 967.446,1456.63 971.545,1459.77 975.644,1458.63 979.743,1446.74 983.842,1461.52 987.941,1455.71 992.04,1462.18 996.139,1462.02 1000.24,1460.22 1004.34,1452.35 1008.44,1456.89 1012.53,1457.98 1016.63,1449.86 1020.73,1458.23 1024.83,1460.96 1028.93,1463.04 1033.03,1454.91 1037.13,1455.59 1041.23,1466.09 1045.33,1464.77 1049.42,1462.08 1053.52,1457.6 1057.62,1464.42 1061.72,1465.59 1065.82,1465.32 1069.92,1456.06 1074.02,1457.62 1078.12,1465.12 1082.22,1467.19 1086.31,1463.29 1090.41,1463.67 1094.51,1462.76 1098.61,1465.55 1102.71,1466.83 1106.81,1457.45 1110.91,1458.83 1115.01,1467.27 1119.11,1468.36 "></polyline>
<polyline clip-path="url(#clip553)" style="stroke:#e26f46; stroke-linecap:round; stroke-linejoin:round; stroke-width:4; stroke-opacity:1; fill:none" points="246.038,970.796 250.136,974.328 254.235,974.297 258.334,973.942 262.433,974.618 266.532,974.947 270.631,975.012 274.73,975.051 278.829,975.273 282.928,974.689 287.027,975.606 291.126,975.463 295.224,975.395 299.323,975.429 303.422,975.399 307.521,975.542 311.62,975.065 315.719,974.349 319.818,975.139 323.917,975.447 328.016,975.726 332.115,975.616 336.214,975.178 340.313,974.949 344.411,975.203 348.51,975.206 352.609,975.676 356.708,975.558 360.807,975.011 364.906,975.621 369.005,975.185 373.104,977.019 377.203,1060.63 381.302,1100.48 385.401,1103.49 389.499,1105.69 393.598,1110.09 397.697,1113.14 401.796,1116.86 405.895,1121.71 409.994,1126.97 414.093,1133.6 418.192,1140.81 422.291,1146.76 426.39,1154.58 430.489,1154.55 434.588,1163.56 438.686,1161.03 442.785,1164.17 446.884,1179.04 450.983,1190.65 455.082,1198.71 459.181,1210.17 463.28,1203.87 467.379,1229 471.478,1242.1 475.577,1225.07 479.676,1240.9 483.774,1254.38 487.873,1260.33 491.972,1248.13 496.071,1274.1 500.17,1281.11 504.269,1279.48 508.368,1256.78 512.467,1292.33 516.566,1294.25 520.665,1300.64 524.764,1295.36 528.863,1310.86 532.961,1317.36 537.06,1316.91 541.159,1316.52 545.258,1332.69 549.357,1321.21 553.456,1340.24 557.555,1344.34 561.654,1352.4 565.753,1335.73 569.852,1353.46 573.951,1358.38 578.049,1363.8 582.148,1358.89 586.247,1366.48 590.346,1384.72 594.445,1380.26 598.544,1346.52 602.643,1399.35 606.742,1388.86 610.841,1399.46 614.94,1360.86 619.039,1390.74 623.138,1398.44 627.236,1408.4 631.335,1410.33 635.434,1407.75 639.533,1409.09 643.632,1406.93 647.731,1385.44 651.83,1388.7 655.929,1419.87 660.028,1411.82 664.127,1419.95 668.226,1412.76 672.324,1414.1 676.423,1419.65 680.522,1422.71 684.621,1399.16 688.72,1405.99 692.819,1419.44 696.918,1409.32 701.017,1390.58 705.116,1402.59 709.215,1419.76 713.314,1395.61 717.413,1419.19 721.511,1425.31 725.61,1428.65 729.709,1423.55 733.808,1417.48 737.907,1420.14 742.006,1428.67 746.105,1429.85 750.204,1421.66 754.303,1421.44 758.402,1428.41 762.501,1407.69 766.599,1426.79 770.698,1408.75 774.797,1397.34 778.896,1400.05 782.995,1434.58 787.094,1423.37 791.193,1428.61 795.292,1400.65 799.391,1430.67 803.49,1434.59 807.589,1433.08 811.688,1423.32 815.786,1440.44 819.885,1421.21 823.984,1434.98 828.083,1430.58 832.182,1380.18 836.281,1435.14 840.38,1429.9 844.479,1419.73 848.578,1431.92 852.677,1429.24 856.776,1438.74 860.874,1436.86 864.973,1423.93 869.072,1430.03 873.171,1420.57 877.27,1431.92 881.369,1434.3 885.468,1413.47 889.567,1426.07 893.666,1433.79 897.765,1416.43 901.864,1442.59 905.963,1441.89 910.061,1439.85 914.16,1431.54 918.259,1436.88 922.358,1430.48 926.457,1439.29 930.556,1436.2 934.655,1438.36 938.754,1444.03 942.853,1392.34 946.952,1436.54 951.051,1425.42 955.149,1437.78 959.248,1445.57 963.347,1448.68 967.446,1431.96 971.545,1430.94 975.644,1398.64 979.743,1444.69 983.842,1440.07 987.941,1445.44 992.04,1443.88 996.139,1442.69 1000.24,1447.07 1004.34,1415.32 1008.44,1428.91 1012.53,1448.83 1016.63,1422.91 1020.73,1446.8 1024.83,1446.45 1028.93,1452.73 1033.03,1441.08 1037.13,1448.41 1041.23,1416.51 1045.33,1434.94 1049.42,1449.2 1053.52,1445.8 1057.62,1452.69 1061.72,1446.38 1065.82,1429.97 1069.92,1436.82 1074.02,1439.09 1078.12,1453.28 1082.22,1452.42 1086.31,1451.68 1090.41,1436.75 1094.51,1454.39 1098.61,1437.03 1102.71,1453.8 1106.81,1437.76 1110.91,1450.66 1115.01,1453.81 1119.11,1415.35 "></polyline>
<path clip-path="url(#clip550)" d="M256.946 1024.07 L578.8 1024.07 L578.8 868.551 L256.946 868.551  Z" fill="#ffffff" fill-rule="evenodd" fill-opacity="1"></path>
<polyline clip-path="url(#clip550)" style="stroke:#000000; stroke-linecap:round; stroke-linejoin:round; stroke-width:4; stroke-opacity:1; fill:none" points="256.946,1024.07 578.8,1024.07 578.8,868.551 256.946,868.551 256.946,1024.07 "></polyline>
<polyline clip-path="url(#clip550)" style="stroke:#009af9; stroke-linecap:round; stroke-linejoin:round; stroke-width:4; stroke-opacity:1; fill:none" points="281.036,920.391 425.574,920.391 "></polyline>
<path clip-path="url(#clip550)" d="M457.072 904.384 L457.072 911.745 L465.845 911.745 L465.845 915.055 L457.072 915.055 L457.072 929.129 Q457.072 932.301 457.928 933.203 Q458.808 934.106 461.47 934.106 L465.845 934.106 L465.845 937.671 L461.47 937.671 Q456.539 937.671 454.664 935.842 Q452.789 933.99 452.789 929.129 L452.789 915.055 L449.664 915.055 L449.664 911.745 L452.789 911.745 L452.789 904.384 L457.072 904.384 Z" fill="#000000" fill-rule="nonzero" fill-opacity="1"></path><path clip-path="url(#clip550)" d="M486.47 915.727 Q485.752 915.31 484.896 915.125 Q484.062 914.916 483.044 914.916 Q479.433 914.916 477.488 917.277 Q475.567 919.615 475.567 924.014 L475.567 937.671 L471.284 937.671 L471.284 911.745 L475.567 911.745 L475.567 915.773 Q476.909 913.412 479.062 912.278 Q481.215 911.12 484.294 911.12 Q484.733 911.12 485.266 911.19 Q485.798 911.236 486.446 911.352 L486.47 915.727 Z" fill="#000000" fill-rule="nonzero" fill-opacity="1"></path><path clip-path="url(#clip550)" d="M502.72 924.639 Q497.557 924.639 495.567 925.819 Q493.576 927 493.576 929.847 Q493.576 932.115 495.058 933.458 Q496.562 934.777 499.132 934.777 Q502.673 934.777 504.803 932.277 Q506.956 929.754 506.956 925.588 L506.956 924.639 L502.72 924.639 M511.215 922.879 L511.215 937.671 L506.956 937.671 L506.956 933.736 Q505.497 936.097 503.321 937.231 Q501.145 938.342 497.997 938.342 Q494.016 938.342 491.655 936.12 Q489.317 933.875 489.317 930.125 Q489.317 925.75 492.233 923.527 Q495.173 921.305 500.983 921.305 L506.956 921.305 L506.956 920.889 Q506.956 917.949 505.011 916.352 Q503.09 914.731 499.595 914.731 Q497.372 914.731 495.266 915.264 Q493.159 915.796 491.215 916.861 L491.215 912.926 Q493.553 912.023 495.752 911.583 Q497.951 911.12 500.034 911.12 Q505.659 911.12 508.437 914.037 Q511.215 916.953 511.215 922.879 Z" fill="#000000" fill-rule="nonzero" fill-opacity="1"></path><path clip-path="url(#clip550)" d="M519.988 911.745 L524.247 911.745 L524.247 937.671 L519.988 937.671 L519.988 911.745 M519.988 901.653 L524.247 901.653 L524.247 907.046 L519.988 907.046 L519.988 901.653 Z" fill="#000000" fill-rule="nonzero" fill-opacity="1"></path><path clip-path="url(#clip550)" d="M554.71 922.023 L554.71 937.671 L550.451 937.671 L550.451 922.162 Q550.451 918.481 549.016 916.652 Q547.58 914.824 544.71 914.824 Q541.261 914.824 539.27 917.023 Q537.28 919.222 537.28 923.018 L537.28 937.671 L532.997 937.671 L532.997 911.745 L537.28 911.745 L537.28 915.773 Q538.807 913.435 540.867 912.278 Q542.951 911.12 545.659 911.12 Q550.127 911.12 552.418 913.898 Q554.71 916.652 554.71 922.023 Z" fill="#000000" fill-rule="nonzero" fill-opacity="1"></path><polyline clip-path="url(#clip550)" style="stroke:#e26f46; stroke-linecap:round; stroke-linejoin:round; stroke-width:4; stroke-opacity:1; fill:none" points="281.036,972.231 425.574,972.231 "></polyline>
<path clip-path="url(#clip550)" d="M457.072 956.224 L457.072 963.585 L465.845 963.585 L465.845 966.895 L457.072 966.895 L457.072 980.969 Q457.072 984.141 457.928 985.043 Q458.808 985.946 461.47 985.946 L465.845 985.946 L465.845 989.511 L461.47 989.511 Q456.539 989.511 454.664 987.682 Q452.789 985.83 452.789 980.969 L452.789 966.895 L449.664 966.895 L449.664 963.585 L452.789 963.585 L452.789 956.224 L457.072 956.224 Z" fill="#000000" fill-rule="nonzero" fill-opacity="1"></path><path clip-path="url(#clip550)" d="M493.622 975.483 L493.622 977.567 L474.039 977.567 Q474.317 981.965 476.678 984.279 Q479.062 986.571 483.298 986.571 Q485.752 986.571 488.044 985.969 Q490.358 985.367 492.627 984.164 L492.627 988.191 Q490.335 989.164 487.928 989.673 Q485.521 990.182 483.044 990.182 Q476.84 990.182 473.206 986.571 Q469.595 982.96 469.595 976.803 Q469.595 970.437 473.021 966.71 Q476.47 962.96 482.303 962.96 Q487.534 962.96 490.567 966.34 Q493.622 969.696 493.622 975.483 M489.363 974.233 Q489.317 970.738 487.396 968.655 Q485.497 966.571 482.349 966.571 Q478.784 966.571 476.632 968.585 Q474.502 970.599 474.178 974.256 L489.363 974.233 Z" fill="#000000" fill-rule="nonzero" fill-opacity="1"></path><path clip-path="url(#clip550)" d="M517.141 964.349 L517.141 968.377 Q515.335 967.451 513.391 966.988 Q511.446 966.525 509.363 966.525 Q506.192 966.525 504.594 967.497 Q503.02 968.469 503.02 970.414 Q503.02 971.895 504.155 972.752 Q505.289 973.585 508.715 974.349 L510.173 974.673 Q514.71 975.645 516.608 977.428 Q518.53 979.187 518.53 982.358 Q518.53 985.969 515.659 988.076 Q512.812 990.182 507.812 990.182 Q505.729 990.182 503.46 989.766 Q501.215 989.372 498.715 988.562 L498.715 984.164 Q501.076 985.391 503.368 986.016 Q505.659 986.617 507.905 986.617 Q510.914 986.617 512.534 985.599 Q514.155 984.557 514.155 982.682 Q514.155 980.946 512.974 980.02 Q511.817 979.094 507.858 978.238 L506.377 977.891 Q502.419 977.057 500.659 975.344 Q498.9 973.608 498.9 970.599 Q498.9 966.942 501.493 964.951 Q504.085 962.96 508.854 962.96 Q511.215 962.96 513.298 963.307 Q515.381 963.655 517.141 964.349 Z" fill="#000000" fill-rule="nonzero" fill-opacity="1"></path><path clip-path="url(#clip550)" d="M529.525 956.224 L529.525 963.585 L538.298 963.585 L538.298 966.895 L529.525 966.895 L529.525 980.969 Q529.525 984.141 530.381 985.043 Q531.261 985.946 533.923 985.946 L538.298 985.946 L538.298 989.511 L533.923 989.511 Q528.993 989.511 527.118 987.682 Q525.243 985.83 525.243 980.969 L525.243 966.895 L522.118 966.895 L522.118 963.585 L525.243 963.585 L525.243 956.224 L529.525 956.224 Z" fill="#000000" fill-rule="nonzero" fill-opacity="1"></path></svg>