<svg xmlns="http://www.w3.org/2000/svg" xmlns:xlink="http://www.w3.org/1999/xlink" width="600" height="400" viewBox="0 0 2400 1600">
<defs>
  <clipPath id="clip510">
    <rect x="0" y="0" width="2400" height="1600"></rect>
  </clipPath>
</defs>
<path clip-path="url(#clip510)" d="M0 1600 L2400 1600 L2400 0 L0 0  Z" fill="#ffffff" fill-rule="evenodd" fill-opacity="1"></path>
<defs>
  <clipPath id="clip511">
    <rect x="480" y="0" width="1681" height="1600"></rect>
  </clipPath>
</defs>
<path clip-path="url(#clip510)" d="M214.353 686.448 L2352.76 686.448 L2352.76 47.2441 L214.353 47.2441  Z" fill="#ffffff" fill-rule="evenodd" fill-opacity="1"></path>
<defs>
  <clipPath id="clip512">
    <rect x="214" y="47" width="2139" height="640"></rect>
  </clipPath>
</defs>
<polyline clip-path="url(#clip512)" style="stroke:#000000; stroke-linecap:round; stroke-linejoin:round; stroke-width:2; stroke-opacity:0.1; fill:none" points="270.831,686.448 270.831,47.2441 "></polyline>
<polyline clip-path="url(#clip512)" style="stroke:#000000; stroke-linecap:round; stroke-linejoin:round; stroke-width:2; stroke-opacity:0.1; fill:none" points="675.111,686.448 675.111,47.2441 "></polyline>
<polyline clip-path="url(#clip512)" style="stroke:#000000; stroke-linecap:round; stroke-linejoin:round; stroke-width:2; stroke-opacity:0.1; fill:none" points="1079.39,686.448 1079.39,47.2441 "></polyline>
<polyline clip-path="url(#clip512)" style="stroke:#000000; stroke-linecap:round; stroke-linejoin:round; stroke-width:2; stroke-opacity:0.1; fill:none" points="1483.67,686.448 1483.67,47.2441 "></polyline>
<polyline clip-path="url(#clip512)" style="stroke:#000000; stroke-linecap:round; stroke-linejoin:round; stroke-width:2; stroke-opacity:0.1; fill:none" points="1887.95,686.448 1887.95,47.2441 "></polyline>
<polyline clip-path="url(#clip512)" style="stroke:#000000; stroke-linecap:round; stroke-linejoin:round; stroke-width:2; stroke-opacity:0.1; fill:none" points="2292.24,686.448 2292.24,47.2441 "></polyline>
<polyline clip-path="url(#clip510)" style="stroke:#000000; stroke-linecap:round; stroke-linejoin:round; stroke-width:4; stroke-opacity:1; fill:none" points="214.353,686.448 2352.76,686.448 "></polyline>
<polyline clip-path="url(#clip510)" style="stroke:#000000; stroke-linecap:round; stroke-linejoin:round; stroke-width:4; stroke-opacity:1; fill:none" points="270.831,686.448 270.831,667.55 "></polyline>
<polyline clip-path="url(#clip510)" style="stroke:#000000; stroke-linecap:round; stroke-linejoin:round; stroke-width:4; stroke-opacity:1; fill:none" points="675.111,686.448 675.111,667.55 "></polyline>
<polyline clip-path="url(#clip510)" style="stroke:#000000; stroke-linecap:round; stroke-linejoin:round; stroke-width:4; stroke-opacity:1; fill:none" points="1079.39,686.448 1079.39,667.55 "></polyline>
<polyline clip-path="url(#clip510)" style="stroke:#000000; stroke-linecap:round; stroke-linejoin:round; stroke-width:4; stroke-opacity:1; fill:none" points="1483.67,686.448 1483.67,667.55 "></polyline>
<polyline clip-path="url(#clip510)" style="stroke:#000000; stroke-linecap:round; stroke-linejoin:round; stroke-width:4; stroke-opacity:1; fill:none" points="1887.95,686.448 1887.95,667.55 "></polyline>
<polyline clip-path="url(#clip510)" style="stroke:#000000; stroke-linecap:round; stroke-linejoin:round; stroke-width:4; stroke-opacity:1; fill:none" points="2292.24,686.448 2292.24,667.55 "></polyline>
<path clip-path="url(#clip510)" d="M270.831 717.367 Q267.22 717.367 265.391 720.931 Q263.585 724.473 263.585 731.603 Q263.585 738.709 265.391 742.274 Q267.22 745.815 270.831 745.815 Q274.465 745.815 276.27 742.274 Q278.099 738.709 278.099 731.603 Q278.099 724.473 276.27 720.931 Q274.465 717.367 270.831 717.367 M270.831 713.663 Q276.641 713.663 279.696 718.269 Q282.775 722.853 282.775 731.603 Q282.775 740.329 279.696 744.936 Q276.641 749.519 270.831 749.519 Q265.02 749.519 261.942 744.936 Q258.886 740.329 258.886 731.603 Q258.886 722.853 261.942 718.269 Q265.02 713.663 270.831 713.663 Z" fill="#000000" fill-rule="nonzero" fill-opacity="1"></path><path clip-path="url(#clip510)" d="M634.718 744.913 L642.357 744.913 L642.357 718.547 L634.047 720.214 L634.047 715.955 L642.311 714.288 L646.987 714.288 L646.987 744.913 L654.625 744.913 L654.625 748.848 L634.718 748.848 L634.718 744.913 Z" fill="#000000" fill-rule="nonzero" fill-opacity="1"></path><path clip-path="url(#clip510)" d="M674.07 717.367 Q670.459 717.367 668.63 720.931 Q666.824 724.473 666.824 731.603 Q666.824 738.709 668.63 742.274 Q670.459 745.815 674.07 745.815 Q677.704 745.815 679.51 742.274 Q681.338 738.709 681.338 731.603 Q681.338 724.473 679.51 720.931 Q677.704 717.367 674.07 717.367 M674.07 713.663 Q679.88 713.663 682.936 718.269 Q686.014 722.853 686.014 731.603 Q686.014 740.329 682.936 744.936 Q679.88 749.519 674.07 749.519 Q668.26 749.519 665.181 744.936 Q662.125 740.329 662.125 731.603 Q662.125 722.853 665.181 718.269 Q668.26 713.663 674.07 713.663 Z" fill="#000000" fill-rule="nonzero" fill-opacity="1"></path><path clip-path="url(#clip510)" d="M704.232 717.367 Q700.621 717.367 698.792 720.931 Q696.986 724.473 696.986 731.603 Q696.986 738.709 698.792 742.274 Q700.621 745.815 704.232 745.815 Q707.866 745.815 709.671 742.274 Q711.5 738.709 711.5 731.603 Q711.5 724.473 709.671 720.931 Q707.866 717.367 704.232 717.367 M704.232 713.663 Q710.042 713.663 713.097 718.269 Q716.176 722.853 716.176 731.603 Q716.176 740.329 713.097 744.936 Q710.042 749.519 704.232 749.519 Q698.422 749.519 695.343 744.936 Q692.287 740.329 692.287 731.603 Q692.287 722.853 695.343 718.269 Q698.422 713.663 704.232 713.663 Z" fill="#000000" fill-rule="nonzero" fill-opacity="1"></path><path clip-path="url(#clip510)" d="M1043.08 744.913 L1059.4 744.913 L1059.4 748.848 L1037.46 748.848 L1037.46 744.913 Q1040.12 742.158 1044.71 737.528 Q1049.31 732.876 1050.49 731.533 Q1052.74 729.01 1053.62 727.274 Q1054.52 725.515 1054.52 723.825 Q1054.52 721.07 1052.58 719.334 Q1050.65 717.598 1047.55 717.598 Q1045.35 717.598 1042.9 718.362 Q1040.47 719.126 1037.69 720.677 L1037.69 715.955 Q1040.52 714.82 1042.97 714.242 Q1045.42 713.663 1047.46 713.663 Q1052.83 713.663 1056.02 716.348 Q1059.22 719.033 1059.22 723.524 Q1059.22 725.654 1058.41 727.575 Q1057.62 729.473 1055.52 732.066 Q1054.94 732.737 1051.83 735.954 Q1048.73 739.149 1043.08 744.913 Z" fill="#000000" fill-rule="nonzero" fill-opacity="1"></path><path clip-path="url(#clip510)" d="M1079.22 717.367 Q1075.61 717.367 1073.78 720.931 Q1071.97 724.473 1071.97 731.603 Q1071.97 738.709 1073.78 742.274 Q1075.61 745.815 1079.22 745.815 Q1082.85 745.815 1084.66 742.274 Q1086.49 738.709 1086.49 731.603 Q1086.49 724.473 1084.66 720.931 Q1082.85 717.367 1079.22 717.367 M1079.22 713.663 Q1085.03 713.663 1088.08 718.269 Q1091.16 722.853 1091.16 731.603 Q1091.16 740.329 1088.08 744.936 Q1085.03 749.519 1079.22 749.519 Q1073.41 749.519 1070.33 744.936 Q1067.27 740.329 1067.27 731.603 Q1067.27 722.853 1070.33 718.269 Q1073.41 713.663 1079.22 713.663 Z" fill="#000000" fill-rule="nonzero" fill-opacity="1"></path><path clip-path="url(#clip510)" d="M1109.38 717.367 Q1105.77 717.367 1103.94 720.931 Q1102.14 724.473 1102.14 731.603 Q1102.14 738.709 1103.94 742.274 Q1105.77 745.815 1109.38 745.815 Q1113.01 745.815 1114.82 742.274 Q1116.65 738.709 1116.65 731.603 Q1116.65 724.473 1114.82 720.931 Q1113.01 717.367 1109.38 717.367 M1109.38 713.663 Q1115.19 713.663 1118.25 718.269 Q1121.33 722.853 1121.33 731.603 Q1121.33 740.329 1118.25 744.936 Q1115.19 749.519 1109.38 749.519 Q1103.57 749.519 1100.49 744.936 Q1097.44 740.329 1097.44 731.603 Q1097.44 722.853 1100.49 718.269 Q1103.57 713.663 1109.38 713.663 Z" fill="#000000" fill-rule="nonzero" fill-opacity="1"></path><path clip-path="url(#clip510)" d="M1457.43 730.214 Q1460.79 730.931 1462.67 733.2 Q1464.56 735.468 1464.56 738.802 Q1464.56 743.917 1461.05 746.718 Q1457.53 749.519 1451.05 749.519 Q1448.87 749.519 1446.56 749.079 Q1444.26 748.663 1441.81 747.806 L1441.81 743.292 Q1443.75 744.427 1446.07 745.005 Q1448.38 745.584 1450.91 745.584 Q1455.31 745.584 1457.6 743.848 Q1459.91 742.112 1459.91 738.802 Q1459.91 735.746 1457.76 734.033 Q1455.63 732.297 1451.81 732.297 L1447.78 732.297 L1447.78 728.454 L1452 728.454 Q1455.44 728.454 1457.27 727.089 Q1459.1 725.7 1459.1 723.107 Q1459.1 720.445 1457.2 719.033 Q1455.33 717.598 1451.81 717.598 Q1449.89 717.598 1447.69 718.015 Q1445.49 718.431 1442.85 719.311 L1442.85 715.144 Q1445.51 714.404 1447.83 714.033 Q1450.17 713.663 1452.23 713.663 Q1457.55 713.663 1460.65 716.093 Q1463.75 718.501 1463.75 722.621 Q1463.75 725.492 1462.11 727.482 Q1460.47 729.45 1457.43 730.214 Z" fill="#000000" fill-rule="nonzero" fill-opacity="1"></path><path clip-path="url(#clip510)" d="M1483.43 717.367 Q1479.82 717.367 1477.99 720.931 Q1476.18 724.473 1476.18 731.603 Q1476.18 738.709 1477.99 742.274 Q1479.82 745.815 1483.43 745.815 Q1487.06 745.815 1488.87 742.274 Q1490.7 738.709 1490.7 731.603 Q1490.7 724.473 1488.87 720.931 Q1487.06 717.367 1483.43 717.367 M1483.43 713.663 Q1489.24 713.663 1492.3 718.269 Q1495.37 722.853 1495.37 731.603 Q1495.37 740.329 1492.3 744.936 Q1489.24 749.519 1483.43 749.519 Q1477.62 749.519 1474.54 744.936 Q1471.49 740.329 1471.49 731.603 Q1471.49 722.853 1474.54 718.269 Q1477.62 713.663 1483.43 713.663 Z" fill="#000000" fill-rule="nonzero" fill-opacity="1"></path><path clip-path="url(#clip510)" d="M1513.59 717.367 Q1509.98 717.367 1508.15 720.931 Q1506.35 724.473 1506.35 731.603 Q1506.35 738.709 1508.15 742.274 Q1509.98 745.815 1513.59 745.815 Q1517.23 745.815 1519.03 742.274 Q1520.86 738.709 1520.86 731.603 Q1520.86 724.473 1519.03 720.931 Q1517.23 717.367 1513.59 717.367 M1513.59 713.663 Q1519.4 713.663 1522.46 718.269 Q1525.54 722.853 1525.54 731.603 Q1525.54 740.329 1522.46 744.936 Q1519.4 749.519 1513.59 749.519 Q1507.78 749.519 1504.7 744.936 Q1501.65 740.329 1501.65 731.603 Q1501.65 722.853 1504.7 718.269 Q1507.78 713.663 1513.59 713.663 Z" fill="#000000" fill-rule="nonzero" fill-opacity="1"></path><path clip-path="url(#clip510)" d="M1861.04 718.362 L1849.24 736.811 L1861.04 736.811 L1861.04 718.362 M1859.82 714.288 L1865.7 714.288 L1865.7 736.811 L1870.63 736.811 L1870.63 740.7 L1865.7 740.7 L1865.7 748.848 L1861.04 748.848 L1861.04 740.7 L1845.44 740.7 L1845.44 736.186 L1859.82 714.288 Z" fill="#000000" fill-rule="nonzero" fill-opacity="1"></path><path clip-path="url(#clip510)" d="M1888.36 717.367 Q1884.75 717.367 1882.92 720.931 Q1881.11 724.473 1881.11 731.603 Q1881.11 738.709 1882.92 742.274 Q1884.75 745.815 1888.36 745.815 Q1891.99 745.815 1893.8 742.274 Q1895.63 738.709 1895.63 731.603 Q1895.63 724.473 1893.8 720.931 Q1891.99 717.367 1888.36 717.367 M1888.36 713.663 Q1894.17 713.663 1897.22 718.269 Q1900.3 722.853 1900.3 731.603 Q1900.3 740.329 1897.22 744.936 Q1894.17 749.519 1888.36 749.519 Q1882.55 749.519 1879.47 744.936 Q1876.41 740.329 1876.41 731.603 Q1876.41 722.853 1879.47 718.269 Q1882.55 713.663 1888.36 713.663 Z" fill="#000000" fill-rule="nonzero" fill-opacity="1"></path><path clip-path="url(#clip510)" d="M1918.52 717.367 Q1914.91 717.367 1913.08 720.931 Q1911.28 724.473 1911.28 731.603 Q1911.28 738.709 1913.08 742.274 Q1914.91 745.815 1918.52 745.815 Q1922.16 745.815 1923.96 742.274 Q1925.79 738.709 1925.79 731.603 Q1925.79 724.473 1923.96 720.931 Q1922.16 717.367 1918.52 717.367 M1918.52 713.663 Q1924.33 713.663 1927.39 718.269 Q1930.47 722.853 1930.47 731.603 Q1930.47 740.329 1927.39 744.936 Q1924.33 749.519 1918.52 749.519 Q1912.71 749.519 1909.63 744.936 Q1906.58 740.329 1906.58 731.603 Q1906.58 722.853 1909.63 718.269 Q1912.71 713.663 1918.52 713.663 Z" fill="#000000" fill-rule="nonzero" fill-opacity="1"></path><path clip-path="url(#clip510)" d="M2251.85 714.288 L2270.21 714.288 L2270.21 718.223 L2256.14 718.223 L2256.14 726.695 Q2257.15 726.348 2258.17 726.186 Q2259.19 726.001 2260.21 726.001 Q2266 726.001 2269.38 729.172 Q2272.76 732.343 2272.76 737.76 Q2272.76 743.339 2269.28 746.44 Q2265.81 749.519 2259.49 749.519 Q2257.32 749.519 2255.05 749.149 Q2252.8 748.778 2250.4 748.038 L2250.4 743.339 Q2252.48 744.473 2254.7 745.028 Q2256.92 745.584 2259.4 745.584 Q2263.4 745.584 2265.74 743.478 Q2268.08 741.371 2268.08 737.76 Q2268.08 734.149 2265.74 732.042 Q2263.4 729.936 2259.4 729.936 Q2257.52 729.936 2255.65 730.353 Q2253.8 730.769 2251.85 731.649 L2251.85 714.288 Z" fill="#000000" fill-rule="nonzero" fill-opacity="1"></path><path clip-path="url(#clip510)" d="M2291.97 717.367 Q2288.36 717.367 2286.53 720.931 Q2284.72 724.473 2284.72 731.603 Q2284.72 738.709 2286.53 742.274 Q2288.36 745.815 2291.97 745.815 Q2295.6 745.815 2297.41 742.274 Q2299.24 738.709 2299.24 731.603 Q2299.24 724.473 2297.41 720.931 Q2295.6 717.367 2291.97 717.367 M2291.97 713.663 Q2297.78 713.663 2300.83 718.269 Q2303.91 722.853 2303.91 731.603 Q2303.91 740.329 2300.83 744.936 Q2297.78 749.519 2291.97 749.519 Q2286.16 749.519 2283.08 744.936 Q2280.02 740.329 2280.02 731.603 Q2280.02 722.853 2283.08 718.269 Q2286.16 713.663 2291.97 713.663 Z" fill="#000000" fill-rule="nonzero" fill-opacity="1"></path><path clip-path="url(#clip510)" d="M2322.13 717.367 Q2318.52 717.367 2316.69 720.931 Q2314.89 724.473 2314.89 731.603 Q2314.89 738.709 2316.69 742.274 Q2318.52 745.815 2322.13 745.815 Q2325.76 745.815 2327.57 742.274 Q2329.4 738.709 2329.4 731.603 Q2329.4 724.473 2327.57 720.931 Q2325.76 717.367 2322.13 717.367 M2322.13 713.663 Q2327.94 713.663 2331 718.269 Q2334.08 722.853 2334.08 731.603 Q2334.08 740.329 2331 744.936 Q2327.94 749.519 2322.13 749.519 Q2316.32 749.519 2313.24 744.936 Q2310.19 740.329 2310.19 731.603 Q2310.19 722.853 2313.24 718.269 Q2316.32 713.663 2322.13 713.663 Z" fill="#000000" fill-rule="nonzero" fill-opacity="1"></path><polyline clip-path="url(#clip512)" style="stroke:#000000; stroke-linecap:round; stroke-linejoin:round; stroke-width:2; stroke-opacity:0.1; fill:none" points="214.353,585.666 2352.76,585.666 "></polyline>
<polyline clip-path="url(#clip512)" style="stroke:#000000; stroke-linecap:round; stroke-linejoin:round; stroke-width:2; stroke-opacity:0.1; fill:none" points="214.353,449.955 2352.76,449.955 "></polyline>
<polyline clip-path="url(#clip512)" style="stroke:#000000; stroke-linecap:round; stroke-linejoin:round; stroke-width:2; stroke-opacity:0.1; fill:none" points="214.353,314.244 2352.76,314.244 "></polyline>
<polyline clip-path="url(#clip512)" style="stroke:#000000; stroke-linecap:round; stroke-linejoin:round; stroke-width:2; stroke-opacity:0.1; fill:none" points="214.353,178.533 2352.76,178.533 "></polyline>
<polyline clip-path="url(#clip510)" style="stroke:#000000; stroke-linecap:round; stroke-linejoin:round; stroke-width:4; stroke-opacity:1; fill:none" points="214.353,686.448 214.353,47.2441 "></polyline>
<polyline clip-path="url(#clip510)" style="stroke:#000000; stroke-linecap:round; stroke-linejoin:round; stroke-width:4; stroke-opacity:1; fill:none" points="214.353,585.666 233.25,585.666 "></polyline>
<polyline clip-path="url(#clip510)" style="stroke:#000000; stroke-linecap:round; stroke-linejoin:round; stroke-width:4; stroke-opacity:1; fill:none" points="214.353,449.955 233.25,449.955 "></polyline>
<polyline clip-path="url(#clip510)" style="stroke:#000000; stroke-linecap:round; stroke-linejoin:round; stroke-width:4; stroke-opacity:1; fill:none" points="214.353,314.244 233.25,314.244 "></polyline>
<polyline clip-path="url(#clip510)" style="stroke:#000000; stroke-linecap:round; stroke-linejoin:round; stroke-width:4; stroke-opacity:1; fill:none" points="214.353,178.533 233.25,178.533 "></polyline>
<path clip-path="url(#clip510)" d="M51.6634 599.01 L59.3023 599.01 L59.3023 572.645 L50.9921 574.312 L50.9921 570.052 L59.256 568.386 L63.9319 568.386 L63.9319 599.01 L71.5707 599.01 L71.5707 602.946 L51.6634 602.946 L51.6634 599.01 Z" fill="#000000" fill-rule="nonzero" fill-opacity="1"></path><path clip-path="url(#clip510)" d="M85.0429 599.01 L101.362 599.01 L101.362 602.946 L79.4179 602.946 L79.4179 599.01 Q82.0799 596.256 86.6632 591.626 Q91.2697 586.974 92.4502 585.631 Q94.6956 583.108 95.5752 581.372 Q96.478 579.612 96.478 577.923 Q96.478 575.168 94.5336 573.432 Q92.6123 571.696 89.5104 571.696 Q87.3114 571.696 84.8577 572.46 Q82.4271 573.224 79.6494 574.775 L79.6494 570.052 Q82.4734 568.918 84.9271 568.339 Q87.3808 567.761 89.4178 567.761 Q94.7882 567.761 97.9826 570.446 Q101.177 573.131 101.177 577.622 Q101.177 579.751 100.367 581.673 Q99.5798 583.571 97.4734 586.163 Q96.8947 586.835 93.7928 590.052 Q90.691 593.247 85.0429 599.01 Z" fill="#000000" fill-rule="nonzero" fill-opacity="1"></path><path clip-path="url(#clip510)" d="M111.177 597.066 L116.061 597.066 L116.061 602.946 L111.177 602.946 L111.177 597.066 Z" fill="#000000" fill-rule="nonzero" fill-opacity="1"></path><path clip-path="url(#clip510)" d="M136.246 571.464 Q132.635 571.464 130.807 575.029 Q129.001 578.571 129.001 585.7 Q129.001 592.807 130.807 596.372 Q132.635 599.913 136.246 599.913 Q139.881 599.913 141.686 596.372 Q143.515 592.807 143.515 585.7 Q143.515 578.571 141.686 575.029 Q139.881 571.464 136.246 571.464 M136.246 567.761 Q142.056 567.761 145.112 572.367 Q148.191 576.95 148.191 585.7 Q148.191 594.427 145.112 599.034 Q142.056 603.617 136.246 603.617 Q130.436 603.617 127.357 599.034 Q124.302 594.427 124.302 585.7 Q124.302 576.95 127.357 572.367 Q130.436 567.761 136.246 567.761 Z" fill="#000000" fill-rule="nonzero" fill-opacity="1"></path><path clip-path="url(#clip510)" d="M166.408 571.464 Q162.797 571.464 160.968 575.029 Q159.163 578.571 159.163 585.7 Q159.163 592.807 160.968 596.372 Q162.797 599.913 166.408 599.913 Q170.042 599.913 171.848 596.372 Q173.677 592.807 173.677 585.7 Q173.677 578.571 171.848 575.029 Q170.042 571.464 166.408 571.464 M166.408 567.761 Q172.218 567.761 175.274 572.367 Q178.353 576.95 178.353 585.7 Q178.353 594.427 175.274 599.034 Q172.218 603.617 166.408 603.617 Q160.598 603.617 157.519 599.034 Q154.464 594.427 154.464 585.7 Q154.464 576.95 157.519 572.367 Q160.598 567.761 166.408 567.761 Z" fill="#000000" fill-rule="nonzero" fill-opacity="1"></path><path clip-path="url(#clip510)" d="M52.6588 463.3 L60.2976 463.3 L60.2976 436.934 L51.9875 438.601 L51.9875 434.341 L60.2513 432.675 L64.9272 432.675 L64.9272 463.3 L72.5661 463.3 L72.5661 467.235 L52.6588 467.235 L52.6588 463.3 Z" fill="#000000" fill-rule="nonzero" fill-opacity="1"></path><path clip-path="url(#clip510)" d="M86.0382 463.3 L102.358 463.3 L102.358 467.235 L80.4133 467.235 L80.4133 463.3 Q83.0753 460.545 87.6586 455.915 Q92.2651 451.263 93.4456 449.92 Q95.691 447.397 96.5706 445.661 Q97.4734 443.902 97.4734 442.212 Q97.4734 439.457 95.5289 437.721 Q93.6076 435.985 90.5058 435.985 Q88.3067 435.985 85.8531 436.749 Q83.4225 437.513 80.6447 439.064 L80.6447 434.341 Q83.4688 433.207 85.9225 432.629 Q88.3762 432.05 90.4132 432.05 Q95.7836 432.05 98.978 434.735 Q102.172 437.42 102.172 441.911 Q102.172 444.04 101.362 445.962 Q100.575 447.86 98.4687 450.452 Q97.89 451.124 94.7882 454.341 Q91.6864 457.536 86.0382 463.3 Z" fill="#000000" fill-rule="nonzero" fill-opacity="1"></path><path clip-path="url(#clip510)" d="M112.172 461.355 L117.057 461.355 L117.057 467.235 L112.172 467.235 L112.172 461.355 Z" fill="#000000" fill-rule="nonzero" fill-opacity="1"></path><path clip-path="url(#clip510)" d="M137.242 435.753 Q133.631 435.753 131.802 439.318 Q129.996 442.86 129.996 449.99 Q129.996 457.096 131.802 460.661 Q133.631 464.202 137.242 464.202 Q140.876 464.202 142.681 460.661 Q144.51 457.096 144.51 449.99 Q144.51 442.86 142.681 439.318 Q140.876 435.753 137.242 435.753 M137.242 432.05 Q143.052 432.05 146.107 436.656 Q149.186 441.24 149.186 449.99 Q149.186 458.716 146.107 463.323 Q143.052 467.906 137.242 467.906 Q131.432 467.906 128.353 463.323 Q125.297 458.716 125.297 449.99 Q125.297 441.24 128.353 436.656 Q131.432 432.05 137.242 432.05 Z" fill="#000000" fill-rule="nonzero" fill-opacity="1"></path><path clip-path="url(#clip510)" d="M157.45 432.675 L175.806 432.675 L175.806 436.61 L161.732 436.61 L161.732 445.082 Q162.751 444.735 163.769 444.573 Q164.788 444.388 165.806 444.388 Q171.593 444.388 174.973 447.559 Q178.353 450.73 178.353 456.147 Q178.353 461.726 174.88 464.827 Q171.408 467.906 165.089 467.906 Q162.913 467.906 160.644 467.536 Q158.399 467.165 155.992 466.425 L155.992 461.726 Q158.075 462.86 160.297 463.415 Q162.519 463.971 164.996 463.971 Q169.001 463.971 171.339 461.864 Q173.677 459.758 173.677 456.147 Q173.677 452.536 171.339 450.429 Q169.001 448.323 164.996 448.323 Q163.121 448.323 161.246 448.74 Q159.394 449.156 157.45 450.036 L157.45 432.675 Z" fill="#000000" fill-rule="nonzero" fill-opacity="1"></path><path clip-path="url(#clip510)" d="M51.6634 327.589 L59.3023 327.589 L59.3023 301.223 L50.9921 302.89 L50.9921 298.631 L59.256 296.964 L63.9319 296.964 L63.9319 327.589 L71.5707 327.589 L71.5707 331.524 L51.6634 331.524 L51.6634 327.589 Z" fill="#000000" fill-rule="nonzero" fill-opacity="1"></path><path clip-path="url(#clip510)" d="M85.0429 327.589 L101.362 327.589 L101.362 331.524 L79.4179 331.524 L79.4179 327.589 Q82.0799 324.834 86.6632 320.205 Q91.2697 315.552 92.4502 314.209 Q94.6956 311.686 95.5752 309.95 Q96.478 308.191 96.478 306.501 Q96.478 303.746 94.5336 302.01 Q92.6123 300.274 89.5104 300.274 Q87.3114 300.274 84.8577 301.038 Q82.4271 301.802 79.6494 303.353 L79.6494 298.631 Q82.4734 297.496 84.9271 296.918 Q87.3808 296.339 89.4178 296.339 Q94.7882 296.339 97.9826 299.024 Q101.177 301.709 101.177 306.2 Q101.177 308.33 100.367 310.251 Q99.5798 312.149 97.4734 314.742 Q96.8947 315.413 93.7928 318.63 Q90.691 321.825 85.0429 327.589 Z" fill="#000000" fill-rule="nonzero" fill-opacity="1"></path><path clip-path="url(#clip510)" d="M111.177 325.644 L116.061 325.644 L116.061 331.524 L111.177 331.524 L111.177 325.644 Z" fill="#000000" fill-rule="nonzero" fill-opacity="1"></path><path clip-path="url(#clip510)" d="M127.057 327.589 L134.695 327.589 L134.695 301.223 L126.385 302.89 L126.385 298.631 L134.649 296.964 L139.325 296.964 L139.325 327.589 L146.964 327.589 L146.964 331.524 L127.057 331.524 L127.057 327.589 Z" fill="#000000" fill-rule="nonzero" fill-opacity="1"></path><path clip-path="url(#clip510)" d="M166.408 300.043 Q162.797 300.043 160.968 303.607 Q159.163 307.149 159.163 314.279 Q159.163 321.385 160.968 324.95 Q162.797 328.492 166.408 328.492 Q170.042 328.492 171.848 324.95 Q173.677 321.385 173.677 314.279 Q173.677 307.149 171.848 303.607 Q170.042 300.043 166.408 300.043 M166.408 296.339 Q172.218 296.339 175.274 300.945 Q178.353 305.529 178.353 314.279 Q178.353 323.005 175.274 327.612 Q172.218 332.195 166.408 332.195 Q160.598 332.195 157.519 327.612 Q154.464 323.005 154.464 314.279 Q154.464 305.529 157.519 300.945 Q160.598 296.339 166.408 296.339 Z" fill="#000000" fill-rule="nonzero" fill-opacity="1"></path><path clip-path="url(#clip510)" d="M52.6588 191.878 L60.2976 191.878 L60.2976 165.512 L51.9875 167.179 L51.9875 162.92 L60.2513 161.253 L64.9272 161.253 L64.9272 191.878 L72.5661 191.878 L72.5661 195.813 L52.6588 195.813 L52.6588 191.878 Z" fill="#000000" fill-rule="nonzero" fill-opacity="1"></path><path clip-path="url(#clip510)" d="M86.0382 191.878 L102.358 191.878 L102.358 195.813 L80.4133 195.813 L80.4133 191.878 Q83.0753 189.123 87.6586 184.494 Q92.2651 179.841 93.4456 178.498 Q95.691 175.975 96.5706 174.239 Q97.4734 172.48 97.4734 170.79 Q97.4734 168.035 95.5289 166.299 Q93.6076 164.563 90.5058 164.563 Q88.3067 164.563 85.8531 165.327 Q83.4225 166.091 80.6447 167.642 L80.6447 162.92 Q83.4688 161.786 85.9225 161.207 Q88.3762 160.628 90.4132 160.628 Q95.7836 160.628 98.978 163.313 Q102.172 165.998 102.172 170.489 Q102.172 172.619 101.362 174.54 Q100.575 176.438 98.4687 179.031 Q97.89 179.702 94.7882 182.92 Q91.6864 186.114 86.0382 191.878 Z" fill="#000000" fill-rule="nonzero" fill-opacity="1"></path><path clip-path="url(#clip510)" d="M112.172 189.933 L117.057 189.933 L117.057 195.813 L112.172 195.813 L112.172 189.933 Z" fill="#000000" fill-rule="nonzero" fill-opacity="1"></path><path clip-path="url(#clip510)" d="M128.052 191.878 L135.691 191.878 L135.691 165.512 L127.381 167.179 L127.381 162.92 L135.644 161.253 L140.32 161.253 L140.32 191.878 L147.959 191.878 L147.959 195.813 L128.052 195.813 L128.052 191.878 Z" fill="#000000" fill-rule="nonzero" fill-opacity="1"></path><path clip-path="url(#clip510)" d="M157.45 161.253 L175.806 161.253 L175.806 165.188 L161.732 165.188 L161.732 173.66 Q162.751 173.313 163.769 173.151 Q164.788 172.966 165.806 172.966 Q171.593 172.966 174.973 176.137 Q178.353 179.309 178.353 184.725 Q178.353 190.304 174.88 193.406 Q171.408 196.484 165.089 196.484 Q162.913 196.484 160.644 196.114 Q158.399 195.744 155.992 195.003 L155.992 190.304 Q158.075 191.438 160.297 191.994 Q162.519 192.549 164.996 192.549 Q169.001 192.549 171.339 190.443 Q173.677 188.336 173.677 184.725 Q173.677 181.114 171.339 179.008 Q169.001 176.901 164.996 176.901 Q163.121 176.901 161.246 177.318 Q159.394 177.734 157.45 178.614 L157.45 161.253 Z" fill="#000000" fill-rule="nonzero" fill-opacity="1"></path><polyline clip-path="url(#clip512)" style="stroke:#009af9; stroke-linecap:round; stroke-linejoin:round; stroke-width:4; stroke-opacity:1; fill:none" points="274.873,65.3348 278.916,556.758 282.959,570.549 287.002,570.256 291.045,571.113 295.087,573.464 299.13,572.18 303.173,572.904 307.216,575.439 311.259,569.614 315.301,567.709 319.344,569.56 323.387,572.299 327.43,574.61 331.473,573.777 335.516,577.333 339.558,573.603 343.601,577.54 347.644,576.192 351.687,576.213 355.73,580.046 359.772,577.76 363.815,577.416 367.858,578.131 371.901,579.497 375.944,581.537 379.986,574.046 384.029,580.336 388.072,580.212 392.115,580.45 396.158,573.751 400.2,582.132 404.243,575.858 408.286,577.271 412.329,580.318 416.372,584.089 420.415,574.196 424.457,582.474 428.5,585.813 432.543,578.167 436.586,584.483 440.629,580.639 444.671,586.372 448.714,588.536 452.757,589.158 456.8,588.57 460.843,586.66 464.885,586.911 468.928,576.308 472.971,590.636 477.014,586.768 481.057,589.222 485.099,589.062 489.142,587.817 493.185,580.318 497.228,591.153 501.271,587.796 505.314,590.475 509.356,586.041 513.399,591.808 517.442,584.863 521.485,592.284 525.528,592.455 529.57,590.413 533.613,591.642 537.656,588.857 541.699,591.402 545.742,586.007 549.784,589.691 553.827,596.009 557.87,588.57 561.913,591.026 565.956,596.511 569.998,591.521 574.041,593.998 578.084,593.498 582.127,596.077 586.17,587.985 590.213,596.91 594.255,594.016 598.298,595.269 602.341,594.259 606.384,594.2 610.427,595.37 614.469,591.148 618.512,591.125 622.555,594.516 626.598,599.519 630.641,595.603 634.683,596.84 638.726,596.646 642.769,597.565 646.812,596.938 650.855,595.077 654.897,597.741 658.94,593.26 662.983,598.603 667.026,596.827 671.069,595.194 675.111,596.923 679.154,601.805 683.197,596.783 687.24,599.744 691.283,590.954 695.326,594.604 699.368,592.882 703.411,596.265 707.454,600.803 711.497,600.096 715.54,600.086 719.582,598.6 723.625,589.996 727.668,600.12 731.711,599.077 735.754,601.626 739.796,599.825 743.839,601.74 747.882,599.887 751.925,599.874 755.968,600.296 760.01,602.304 764.053,599.845 768.096,593.944 772.139,598.756 776.182,602.669 780.225,599.545 784.267,599.315 788.31,601.124 792.353,604.745 796.396,601.867 800.439,603.754 804.481,597.479 808.524,598.222 812.567,600.392 816.61,603.329 820.653,601.145 824.695,599.713 828.738,598.039 832.781,592.913 836.824,599.237 840.867,600.93 844.909,600.252 848.952,602.643 852.995,604.142 857.038,602.786 861.081,597.707 865.124,599.413 869.166,599.17 873.209,601.906 877.252,605.059 881.295,605.392 885.338,603.707 889.38,602.53 893.423,595.89 897.466,606.907 901.509,602.579 905.552,603.705 909.594,609.122 913.637,601.867 917.68,606.627 921.723,600.003 925.766,603.086 929.808,606.213 933.851,605.493 937.894,606.534 941.937,609.115 945.98,605.457 950.022,601.95 954.065,605.633 958.108,606.767 962.151,605.856 966.194,602.737 970.237,606.146 974.279,600.029 978.322,603.984 982.365,608.004 986.408,604.567 990.451,608.833 994.493,605.926 998.536,608.147 1002.58,601.406 1006.62,604.199 1010.66,605.286 1014.71,607.401 1018.75,607.065 1022.79,607.981 1026.84,606.578 1030.88,603.425 1034.92,608.273 1038.96,608.147 1043.01,609.309 1047.05,610.072 1051.09,602.623 1055.14,607.044 1059.18,604.228 1063.22,608.957 1067.26,604.422 1071.31,610.409 1075.35,608.861 1079.39,609.195 1083.44,611.659 1087.48,605.517 1091.52,605.68 1095.56,610.375 1099.61,605.012 1103.65,609.423 1107.69,607.43 1111.73,609.915 1115.78,612.343 1119.82,610.864 1123.86,606.736 1127.91,612.029 1131.95,611.752 1135.99,608.4 1140.03,609.534 1144.08,610.497 1148.12,613.528 1152.16,609.355 1156.21,609.037 1160.25,609.736 1164.29,611.333 1168.33,610.217 1172.38,610.427 1176.42,610.634 1180.46,611.009 1184.51,609.446 1188.55,612.464 1192.59,610.282 1196.63,612.309 1200.68,605.594 1204.72,611.129 1208.76,612.198 1212.81,613.557 1216.85,614.118 1220.89,611.504 1224.93,611.853 1228.98,611.817 1233.02,614.724 1237.06,613.303 1241.1,611.978 1245.15,613.295 1249.19,609.443 1253.23,609.927 1257.28,610.142 1261.32,612.464 1265.36,610.238 1269.4,615.203 1273.45,614.374 1277.49,614.481 1281.53,608.496 1285.58,614.755 1289.62,614.424 1293.66,614.012 1297.7,614.074 1301.75,614.563 1305.79,614.835 1309.83,613.815 1313.88,614.83 1317.92,616.049 1321.96,611.726 1326,613.95 1330.05,618.016 1334.09,612.146 1338.13,615.361 1342.17,614.771 1346.22,616.712 1350.26,614.69 1354.3,619.202 1358.35,616.096 1362.39,614.848 1366.43,617.18 1370.47,617.281 1374.52,613.751 1378.56,618.878 1382.6,618.85 1386.65,617.592 1390.69,617.543 1394.73,619.929 1398.77,617.054 1402.82,613.365 1406.86,618.674 1410.9,621.024 1414.95,619.953 1418.99,617.714 1423.03,617.385 1427.07,617.551 1431.12,618.889 1435.16,617.338 1439.2,617.175 1443.25,621.353 1447.29,620.255 1451.33,617.276 1455.37,614.569 1459.42,620.791 1463.46,620.243 1467.5,619.813 1471.54,621.519 1475.59,623.763 1479.63,617.382 1483.67,616.01 1487.72,624.244 1491.76,622.893 1495.8,625.106 1499.84,622.443 1503.89,623.168 1507.93,617.727 1511.97,623.791 1516.02,618.545 1520.06,618.104 1524.1,621.369 1528.14,622.852 1532.19,624.029 1536.23,616.621 1540.27,622.236 1544.32,622.59 1548.36,621.239 1552.4,624.718 1556.44,623.258 1560.49,618.974 1564.53,620.701 1568.57,623.569 1572.62,626.16 1576.66,622.619 1580.7,624.853 1584.74,626.869 1588.79,627.527 1592.83,627.721 1596.87,625.432 1600.91,628.174 1604.96,628.717 1609,628.523 1613.04,628.676 1617.09,623.354 1621.13,624.941 1625.17,628.634 1629.21,628.373 1633.26,625.88 1637.3,626.698 1641.34,628.269 1645.39,620.957 1649.43,628.039 1653.47,630.806 1657.51,630.951 1661.56,631.135 1665.6,624.47 1669.64,625.083 1673.69,626.421 1677.73,632.116 1681.77,633.581 1685.81,628.306 1689.86,630.7 1693.9,630.985 1697.94,628.171 1701.98,630.568 1706.03,632.256 1710.07,629.82 1714.11,632.968 1718.16,631.818 1722.2,629.67 1726.24,636.094 1730.28,635.766 1734.33,632.093 1738.37,632.711 1742.41,634.904 1746.46,635.489 1750.5,630.679 1754.54,631.135 1758.58,633.716 1762.63,632.455 1766.67,631.722 1770.71,635.489 1774.76,632.315 1778.8,631.184 1782.84,633.78 1786.88,638.22 1790.93,634.544 1794.97,633.77 1799.01,638.541 1803.06,636.542 1807.1,631.042 1811.14,637.66 1815.18,636.85 1819.23,637.723 1823.27,629.931 1827.31,638.453 1831.35,638.685 1835.4,634.414 1839.44,639.454 1843.48,640.891 1847.53,637.974 1851.57,639.374 1855.61,642.115 1859.65,637.523 1863.7,632.271 1867.74,639.887 1871.78,638.587 1875.83,639.635 1879.87,637.723 1883.91,640.044 1887.95,637.816 1892,643.717 1896.04,639.729 1900.08,642.374 1904.13,640.66 1908.17,638.758 1912.21,642.195 1916.25,645.356 1920.3,641.626 1924.34,642.628 1928.38,642.229 1932.43,640.49 1936.47,643.363 1940.51,644.191 1944.55,634.598 1948.6,642.47 1952.64,648.664 1956.68,641.665 1960.72,644.644 1964.77,641.036 1968.81,643.032 1972.85,646.756 1976.9,645.17 1980.94,645.069 1984.98,649.376 1989.02,647.994 1993.07,643.953 1997.11,645.654 2001.15,649.267 2005.2,647.442 2009.24,639.77 2013.28,646.971 2017.32,645.579 2021.37,647.088 2025.41,647.233 2029.45,648.61 2033.5,648.933 2037.54,649.873 2041.58,647.864 2045.62,647.53 2049.67,649.803 2053.71,650.171 2057.75,644.774 2061.79,648.286 2065.84,649.454 2069.88,648.817 2073.92,643.583 2077.97,650.831 2082.01,652.366 2086.05,648.969 2090.09,652.241 2094.14,655.304 2098.18,649.857 2102.22,654.066 2106.27,653.347 2110.31,650.354 2114.35,653.401 2118.39,651.447 2122.44,650.134 2126.48,652.327 2130.52,655.966 2134.57,654.294 2138.61,659.486 2142.65,653.404 2146.69,650.401 2150.74,654.1 2154.78,658.371 2158.82,656.207 2162.87,659.16 2166.91,656.999 2170.95,659.367 2174.99,658.109 2179.04,652.534 2183.08,657.1 2187.12,656.062 2191.16,659.494 2195.21,660.794 2199.25,659.474 2203.29,658.216 2207.34,661.449 2211.38,658.063 2215.42,658.288 2219.46,662.184 2223.51,661.622 2227.55,663.587 2231.59,661.179 2235.64,660.268 2239.68,663.455 2243.72,661.128 2247.76,665.637 2251.81,661.469 2255.85,664.824 2259.89,663.211 2263.94,659.911 2267.98,667.431 2272.02,665.098 2276.06,664.265 2280.11,668.357 2284.15,666.848 2288.19,668.269 2292.24,666.24 "></polyline>
<polyline clip-path="url(#clip512)" style="stroke:#e26f46; stroke-linecap:round; stroke-linejoin:round; stroke-width:4; stroke-opacity:1; fill:none" points="274.873,521.697 278.916,569.863 282.959,569.294 287.002,573.293 291.045,577.37 295.087,574.999 299.13,574.38 303.173,582.184 307.216,548.138 311.259,582.153 315.301,560.097 319.344,574.061 323.387,578.27 327.43,565.589 331.473,566.348 335.516,573.808 339.558,575.62 343.601,579.068 347.644,575.954 351.687,572.842 355.73,576.267 359.772,556.266 363.815,569.464 367.858,581.071 371.901,577.934 375.944,581.25 379.986,581.402 384.029,576.904 388.072,563.262 392.115,561.339 396.158,580.339 400.2,582.598 404.243,572.886 408.286,575.716 412.329,581.677 416.372,574.936 420.415,578.428 424.457,574.512 428.5,572.221 432.543,577.911 436.586,579.029 440.629,581.421 444.671,584.84 448.714,584.654 452.757,577.916 456.8,581.356 460.843,587.273 464.885,580.957 468.928,578.648 472.971,575.529 477.014,575.876 481.057,578.195 485.099,582.088 489.142,578.33 493.185,573.79 497.228,581.83 501.271,570.606 505.314,576.562 509.356,577.836 513.399,576.293 517.442,585.422 521.485,580.046 525.528,568.967 529.57,579.676 533.613,580.01 537.656,581.102 541.699,563.405 545.742,555.003 549.784,583.758 553.827,564.947 557.87,573.533 561.913,582.49 565.956,570.319 569.998,573.515 574.041,574.753 578.084,575.024 582.127,545.689 586.17,560.544 590.213,567.792 594.255,563.539 598.298,575.428 602.341,576.43 606.384,566.803 610.427,567.896 614.469,570.308 618.512,568.74 622.555,572.894 626.598,568.134 630.641,569.938 634.683,571.401 638.726,568.564 642.769,562.32 646.812,572.695 650.855,572.731 654.897,568.931 658.94,561.841 662.983,571.279 667.026,564.652 671.069,562.654 675.111,565.294 679.154,572.684 683.197,570.008 687.24,569.048 691.283,554.508 695.326,570.986 699.368,568.007 703.411,553.732 707.454,570.891 711.497,569.542 715.54,561.598 719.582,562.129 723.625,566.428 727.668,570.277 731.711,561.274 735.754,560.832 739.796,563.389 743.839,567.471 747.882,561.422 751.925,559.271 755.968,562.47 760.01,561.427 764.053,562.853 768.096,563.011 772.139,564.13 776.182,555.699 780.225,564.603 784.267,566.322 788.31,564.262 792.353,558.023 796.396,552.538 800.439,561.308 804.481,552.039 808.524,562.095 812.567,560.666 816.61,558.026 820.653,564.582 824.695,558.857 828.738,550.356 832.781,544.53 836.824,548.637 840.867,556.869 844.909,562.302 848.952,557.666 852.995,560.992 857.038,559.848 861.081,553.97 865.124,552.078 869.166,556.525 873.209,549.285 877.252,556.783 881.295,557.182 885.338,556.664 889.38,556.657 893.423,556.191 897.466,553.514 901.509,561.896 905.552,544.271 909.594,547.54 913.637,558.173 917.68,557.783 921.723,556.791 925.766,556.685 929.808,556.548 933.851,555.87 937.894,550.47 941.937,552.295 945.98,551.317 950.022,554.839 954.065,560.322 958.108,556.255 962.151,545.979 966.194,541.964 970.237,549.088 974.279,544.198 978.322,556.139 982.365,549.391 986.408,559.24 990.451,546.74 994.493,556.043 998.536,549.771 1002.58,533.003 1006.62,550.519 1010.66,533.575 1014.71,556.827 1018.75,551.987 1022.79,546.331 1026.84,550.017 1030.88,545.415 1034.92,547.731 1038.96,548.091 1043.01,555.422 1047.05,539.239 1051.09,554.739 1055.14,554.881 1059.18,554.617 1063.22,551.544 1067.26,542.948 1071.31,544.366 1075.35,547.571 1079.39,542.899 1083.44,540.574 1087.48,549.406 1091.52,553.651 1095.56,549.831 1099.61,545.368 1103.65,554.166 1107.69,543.569 1111.73,550.587 1115.78,545.568 1119.82,536.35 1123.86,543.316 1127.91,545.417 1131.95,546.644 1135.99,547.18 1140.03,543.877 1144.08,547.47 1148.12,544.799 1152.16,549.463 1156.21,548.552 1160.25,544.739 1164.29,548.402 1168.33,541.077 1172.38,548.873 1176.42,542.285 1180.46,545.366 1184.51,540.763 1188.55,546.59 1192.59,544.465 1196.63,544.429 1200.68,535.651 1204.72,544.874 1208.76,525.628 1212.81,548.87 1216.85,534.308 1220.89,546.914 1224.93,543.002 1228.98,546.331 1233.02,539.428 1237.06,546.323 1241.1,542.71 1245.15,534.038 1249.19,542.71 1253.23,539.35 1257.28,546.753 1261.32,538.944 1265.36,544.843 1269.4,533.28 1273.45,539.529 1277.49,543.16 1281.53,540.911 1285.58,530.407 1289.62,542.052 1293.66,542.182 1297.7,544.014 1301.75,540.145 1305.79,540.621 1309.83,542.376 1313.88,542.932 1317.92,531.673 1321.96,536.094 1326,536.218 1330.05,534.626 1334.09,540.191 1338.13,538.128 1342.17,544.962 1346.22,540.049 1350.26,542.821 1354.3,534.693 1358.35,537.758 1362.39,533.591 1366.43,537.422 1370.47,534.724 1374.52,535.967 1378.56,531.44 1382.6,535.237 1386.65,534.789 1390.69,540.823 1394.73,537.548 1398.77,509.826 1402.82,541.051 1406.86,539.428 1410.9,540.3 1414.95,524.673 1418.99,531.491 1423.03,537.468 1427.07,535.004 1431.12,533.27 1435.16,535.915 1439.2,535.566 1443.25,528.232 1447.29,538.348 1451.33,533.117 1455.37,538.177 1459.42,536.661 1463.46,520.169 1467.5,536.112 1471.54,535.711 1475.59,536.042 1479.63,528.051 1483.67,539.609 1487.72,528.339 1491.76,536.094 1495.8,536.259 1499.84,535.555 1503.89,516.134 1507.93,535.654 1511.97,535.705 1516.02,532.436 1520.06,525.307 1524.1,532.861 1528.14,537.585 1532.19,520.93 1536.23,524.684 1540.27,532.439 1544.32,529.138 1548.36,531.359 1552.4,534.041 1556.44,526.633 1560.49,519.887 1564.53,508.645 1568.57,535.573 1572.62,535.98 1576.66,531.944 1580.7,531.289 1584.74,529.881 1588.79,529.475 1592.83,534.258 1596.87,527.541 1600.91,527.241 1604.96,529.71 1609,526.876 1613.04,527.114 1617.09,513.349 1621.13,518.971 1625.17,532.806 1629.21,529.514 1633.26,526.123 1637.3,518.567 1641.34,517.159 1645.39,522.957 1649.43,530.658 1653.47,529.669 1657.51,532.959 1661.56,510.908 1665.6,524.65 1669.64,528.077 1673.69,529.245 1677.73,526.907 1681.77,514.581 1685.81,523.2 1689.86,520.219 1693.9,526.151 1697.94,528.789 1701.98,527.746 1706.03,517.503 1710.07,522.359 1714.11,518.344 1718.16,515.466 1722.2,529.154 1726.24,516.608 1730.28,528.447 1734.33,525.188 1738.37,525.52 1742.41,521.316 1746.46,524.792 1750.5,520.638 1754.54,519.644 1758.58,516.856 1762.63,523.664 1766.67,523.291 1770.71,522.556 1774.76,524.081 1778.8,519.592 1782.84,523.27 1786.88,527.956 1790.93,517.348 1794.97,525.455 1799.01,521.458 1803.06,515.155 1807.1,522.188 1811.14,524.342 1815.18,521.313 1819.23,516.644 1823.27,513.947 1827.31,521.458 1831.35,520.444 1835.4,520.159 1839.44,523.439 1843.48,521.181 1847.53,513.193 1851.57,515.549 1855.61,489.03 1859.65,508.617 1863.7,514.475 1867.74,517.343 1871.78,525.455 1875.83,520.716 1879.87,525.408 1883.91,506.349 1887.95,515.202 1892,520.123 1896.04,517.009 1900.08,518.634 1904.13,515.086 1908.17,517.969 1912.21,509.727 1916.25,510.129 1920.3,513.061 1924.34,521.65 1928.38,511.697 1932.43,513.188 1936.47,519.595 1940.51,520.853 1944.55,509.911 1948.6,517.752 1952.64,510.791 1956.68,514.969 1960.72,515.875 1964.77,505.876 1968.81,510.24 1972.85,510.833 1976.9,517.904 1980.94,512.531 1984.98,514.136 1989.02,516.558 1993.07,499.089 1997.11,513.719 2001.15,507.406 2005.2,505.324 2009.24,512.859 2013.28,514.234 2017.32,517.174 2021.37,508.511 2025.41,507.255 2029.45,512.435 2033.5,515.026 2037.54,506.852 2041.58,509.401 2045.62,507.217 2049.67,511.762 2053.71,507.382 2057.75,513.742 2061.79,500.608 2065.84,508.956 2069.88,515.495 2073.92,514.974 2077.97,510.564 2082.01,501.147 2086.05,510.023 2090.09,513.297 2094.14,508.348 2098.18,500.634 2102.22,509.588 2106.27,511.247 2110.31,502.759 2114.35,510.96 2118.39,497.437 2122.44,491.362 2126.48,517.115 2130.52,510.89 2134.57,509.031 2138.61,498.136 2142.65,507.123 2146.69,505.94 2150.74,512.427 2154.78,510.822 2158.82,515.655 2162.87,494.083 2166.91,487.179 2170.95,507.09 2174.99,508.4 2179.04,511.803 2183.08,505.337 2187.12,503.021 2191.16,502.324 2195.21,501.579 2199.25,503.29 2203.29,511.884 2207.34,504.998 2211.38,500.331 2215.42,490.345 2219.46,501.372 2223.51,506.324 2227.55,501.035 2231.59,509.821 2235.64,504.949 2239.68,500.929 2243.72,508.278 2247.76,504.447 2251.81,495.504 2255.85,498.975 2259.89,497.554 2263.94,501.361 2267.98,502.821 2272.02,479.53 2276.06,505.335 2280.11,496.296 2284.15,502.99 2288.19,498.594 2292.24,503.409 "></polyline>
<path clip-path="url(#clip510)" d="M1962.59 224.071 L2281.48 224.071 L2281.48 68.5509 L1962.59 68.5509  Z" fill="#ffffff" fill-rule="evenodd" fill-opacity="1"></path>
<polyline clip-path="url(#clip510)" style="stroke:#000000; stroke-linecap:round; stroke-linejoin:round; stroke-width:4; stroke-opacity:1; fill:none" points="1962.59,224.071 2281.48,224.071 2281.48,68.5509 1962.59,68.5509 1962.59,224.071 "></polyline>
<polyline clip-path="url(#clip510)" style="stroke:#009af9; stroke-linecap:round; stroke-linejoin:round; stroke-width:4; stroke-opacity:1; fill:none" points="1986.35,120.391 2128.91,120.391 "></polyline>
<path clip-path="url(#clip510)" d="M2160.08 104.384 L2160.08 111.745 L2168.85 111.745 L2168.85 115.055 L2160.08 115.055 L2160.08 129.129 Q2160.08 132.301 2160.93 133.203 Q2161.81 134.106 2164.48 134.106 L2168.85 134.106 L2168.85 137.671 L2164.48 137.671 Q2159.54 137.671 2157.67 135.842 Q2155.8 133.99 2155.8 129.129 L2155.8 115.055 L2152.67 115.055 L2152.67 111.745 L2155.8 111.745 L2155.8 104.384 L2160.08 104.384 Z" fill="#000000" fill-rule="nonzero" fill-opacity="1"></path><path clip-path="url(#clip510)" d="M2189.48 115.727 Q2188.76 115.31 2187.9 115.125 Q2187.07 114.916 2186.05 114.916 Q2182.44 114.916 2180.49 117.277 Q2178.57 119.615 2178.57 124.014 L2178.57 137.671 L2174.29 137.671 L2174.29 111.745 L2178.57 111.745 L2178.57 115.773 Q2179.92 113.412 2182.07 112.278 Q2184.22 111.12 2187.3 111.12 Q2187.74 111.12 2188.27 111.19 Q2188.8 111.236 2189.45 111.352 L2189.48 115.727 Z" fill="#000000" fill-rule="nonzero" fill-opacity="1"></path><path clip-path="url(#clip510)" d="M2205.73 124.639 Q2200.56 124.639 2198.57 125.819 Q2196.58 127 2196.58 129.847 Q2196.58 132.115 2198.06 133.458 Q2199.57 134.777 2202.14 134.777 Q2205.68 134.777 2207.81 132.277 Q2209.96 129.754 2209.96 125.588 L2209.96 124.639 L2205.73 124.639 M2214.22 122.879 L2214.22 137.671 L2209.96 137.671 L2209.96 133.736 Q2208.5 136.097 2206.33 137.231 Q2204.15 138.342 2201 138.342 Q2197.02 138.342 2194.66 136.12 Q2192.32 133.875 2192.32 130.125 Q2192.32 125.75 2195.24 123.527 Q2198.18 121.305 2203.99 121.305 L2209.96 121.305 L2209.96 120.889 Q2209.96 117.949 2208.02 116.352 Q2206.1 114.731 2202.6 114.731 Q2200.38 114.731 2198.27 115.264 Q2196.17 115.796 2194.22 116.861 L2194.22 112.926 Q2196.56 112.023 2198.76 111.583 Q2200.96 111.12 2203.04 111.12 Q2208.67 111.12 2211.44 114.037 Q2214.22 116.953 2214.22 122.879 Z" fill="#000000" fill-rule="nonzero" fill-opacity="1"></path><path clip-path="url(#clip510)" d="M2222.99 111.745 L2227.25 111.745 L2227.25 137.671 L2222.99 137.671 L2222.99 111.745 M2222.99 101.653 L2227.25 101.653 L2227.25 107.046 L2222.99 107.046 L2222.99 101.653 Z" fill="#000000" fill-rule="nonzero" fill-opacity="1"></path><path clip-path="url(#clip510)" d="M2257.72 122.023 L2257.72 137.671 L2253.46 137.671 L2253.46 122.162 Q2253.46 118.481 2252.02 116.652 Q2250.59 114.824 2247.72 114.824 Q2244.27 114.824 2242.28 117.023 Q2240.29 119.222 2240.29 123.018 L2240.29 137.671 L2236 137.671 L2236 111.745 L2240.29 111.745 L2240.29 115.773 Q2241.81 113.435 2243.87 112.278 Q2245.96 111.12 2248.66 111.12 Q2253.13 111.12 2255.42 113.898 Q2257.72 116.652 2257.72 122.023 Z" fill="#000000" fill-rule="nonzero" fill-opacity="1"></path><polyline clip-path="url(#clip510)" style="stroke:#e26f46; stroke-linecap:round; stroke-linejoin:round; stroke-width:4; stroke-opacity:1; fill:none" points="1986.35,172.231 2128.91,172.231 "></polyline>
<path clip-path="url(#clip510)" d="M2160.08 156.224 L2160.08 163.585 L2168.85 163.585 L2168.85 166.895 L2160.08 166.895 L2160.08 180.969 Q2160.08 184.141 2160.93 185.043 Q2161.81 185.946 2164.48 185.946 L2168.85 185.946 L2168.85 189.511 L2164.48 189.511 Q2159.54 189.511 2157.67 187.682 Q2155.8 185.83 2155.8 180.969 L2155.8 166.895 L2152.67 166.895 L2152.67 163.585 L2155.8 163.585 L2155.8 156.224 L2160.08 156.224 Z" fill="#000000" fill-rule="nonzero" fill-opacity="1"></path><path clip-path="url(#clip510)" d="M2196.63 175.483 L2196.63 177.567 L2177.04 177.567 Q2177.32 181.965 2179.68 184.279 Q2182.07 186.571 2186.3 186.571 Q2188.76 186.571 2191.05 185.969 Q2193.36 185.367 2195.63 184.164 L2195.63 188.191 Q2193.34 189.164 2190.93 189.673 Q2188.53 190.182 2186.05 190.182 Q2179.85 190.182 2176.21 186.571 Q2172.6 182.96 2172.6 176.803 Q2172.6 170.437 2176.03 166.71 Q2179.48 162.96 2185.31 162.96 Q2190.54 162.96 2193.57 166.34 Q2196.63 169.696 2196.63 175.483 M2192.37 174.233 Q2192.32 170.738 2190.4 168.655 Q2188.5 166.571 2185.36 166.571 Q2181.79 166.571 2179.64 168.585 Q2177.51 170.599 2177.18 174.256 L2192.37 174.233 Z" fill="#000000" fill-rule="nonzero" fill-opacity="1"></path><path clip-path="url(#clip510)" d="M2220.15 164.349 L2220.15 168.377 Q2218.34 167.451 2216.4 166.988 Q2214.45 166.525 2212.37 166.525 Q2209.2 166.525 2207.6 167.497 Q2206.03 168.469 2206.03 170.414 Q2206.03 171.895 2207.16 172.752 Q2208.29 173.585 2211.72 174.349 L2213.18 174.673 Q2217.72 175.645 2219.61 177.428 Q2221.54 179.187 2221.54 182.358 Q2221.54 185.969 2218.67 188.076 Q2215.82 190.182 2210.82 190.182 Q2208.73 190.182 2206.47 189.766 Q2204.22 189.372 2201.72 188.562 L2201.72 184.164 Q2204.08 185.391 2206.37 186.016 Q2208.67 186.617 2210.91 186.617 Q2213.92 186.617 2215.54 185.599 Q2217.16 184.557 2217.16 182.682 Q2217.16 180.946 2215.98 180.02 Q2214.82 179.094 2210.86 178.238 L2209.38 177.891 Q2205.42 177.057 2203.67 175.344 Q2201.91 173.608 2201.91 170.599 Q2201.91 166.942 2204.5 164.951 Q2207.09 162.96 2211.86 162.96 Q2214.22 162.96 2216.3 163.307 Q2218.39 163.655 2220.15 164.349 Z" fill="#000000" fill-rule="nonzero" fill-opacity="1"></path><path clip-path="url(#clip510)" d="M2232.53 156.224 L2232.53 163.585 L2241.3 163.585 L2241.3 166.895 L2232.53 166.895 L2232.53 180.969 Q2232.53 184.141 2233.39 185.043 Q2234.27 185.946 2236.93 185.946 L2241.3 185.946 L2241.3 189.511 L2236.93 189.511 Q2232 189.511 2230.12 187.682 Q2228.25 185.83 2228.25 180.969 L2228.25 166.895 L2225.12 166.895 L2225.12 163.585 L2228.25 163.585 L2228.25 156.224 L2232.53 156.224 Z" fill="#000000" fill-rule="nonzero" fill-opacity="1"></path><path clip-path="url(#clip510)" d="M214.353 1486.45 L2352.76 1486.45 L2352.76 847.244 L214.353 847.244  Z" fill="#ffffff" fill-rule="evenodd" fill-opacity="1"></path>
<defs>
  <clipPath id="clip513">
    <rect x="214" y="847" width="2139" height="640"></rect>
  </clipPath>
</defs>
<polyline clip-path="url(#clip513)" style="stroke:#000000; stroke-linecap:round; stroke-linejoin:round; stroke-width:2; stroke-opacity:0.1; fill:none" points="266.706,1486.45 266.706,847.244 "></polyline>
<polyline clip-path="url(#clip513)" style="stroke:#000000; stroke-linecap:round; stroke-linejoin:round; stroke-width:2; stroke-opacity:0.1; fill:none" points="675.079,1486.45 675.079,847.244 "></polyline>
<polyline clip-path="url(#clip513)" style="stroke:#000000; stroke-linecap:round; stroke-linejoin:round; stroke-width:2; stroke-opacity:0.1; fill:none" points="1083.45,1486.45 1083.45,847.244 "></polyline>
<polyline clip-path="url(#clip513)" style="stroke:#000000; stroke-linecap:round; stroke-linejoin:round; stroke-width:2; stroke-opacity:0.1; fill:none" points="1491.82,1486.45 1491.82,847.244 "></polyline>
<polyline clip-path="url(#clip513)" style="stroke:#000000; stroke-linecap:round; stroke-linejoin:round; stroke-width:2; stroke-opacity:0.1; fill:none" points="1900.2,1486.45 1900.2,847.244 "></polyline>
<polyline clip-path="url(#clip513)" style="stroke:#000000; stroke-linecap:round; stroke-linejoin:round; stroke-width:2; stroke-opacity:0.1; fill:none" points="2308.57,1486.45 2308.57,847.244 "></polyline>
<polyline clip-path="url(#clip510)" style="stroke:#000000; stroke-linecap:round; stroke-linejoin:round; stroke-width:4; stroke-opacity:1; fill:none" points="214.353,1486.45 2352.76,1486.45 "></polyline>
<polyline clip-path="url(#clip510)" style="stroke:#000000; stroke-linecap:round; stroke-linejoin:round; stroke-width:4; stroke-opacity:1; fill:none" points="266.706,1486.45 266.706,1467.55 "></polyline>
<polyline clip-path="url(#clip510)" style="stroke:#000000; stroke-linecap:round; stroke-linejoin:round; stroke-width:4; stroke-opacity:1; fill:none" points="675.079,1486.45 675.079,1467.55 "></polyline>
<polyline clip-path="url(#clip510)" style="stroke:#000000; stroke-linecap:round; stroke-linejoin:round; stroke-width:4; stroke-opacity:1; fill:none" points="1083.45,1486.45 1083.45,1467.55 "></polyline>
<polyline clip-path="url(#clip510)" style="stroke:#000000; stroke-linecap:round; stroke-linejoin:round; stroke-width:4; stroke-opacity:1; fill:none" points="1491.82,1486.45 1491.82,1467.55 "></polyline>
<polyline clip-path="url(#clip510)" style="stroke:#000000; stroke-linecap:round; stroke-linejoin:round; stroke-width:4; stroke-opacity:1; fill:none" points="1900.2,1486.45 1900.2,1467.55 "></polyline>
<polyline clip-path="url(#clip510)" style="stroke:#000000; stroke-linecap:round; stroke-linejoin:round; stroke-width:4; stroke-opacity:1; fill:none" points="2308.57,1486.45 2308.57,1467.55 "></polyline>
<path clip-path="url(#clip510)" d="M266.706 1517.37 Q263.095 1517.37 261.266 1520.93 Q259.461 1524.47 259.461 1531.6 Q259.461 1538.71 261.266 1542.27 Q263.095 1545.82 266.706 1545.82 Q270.34 1545.82 272.146 1542.27 Q273.974 1538.71 273.974 1531.6 Q273.974 1524.47 272.146 1520.93 Q270.34 1517.37 266.706 1517.37 M266.706 1513.66 Q272.516 1513.66 275.572 1518.27 Q278.65 1522.85 278.65 1531.6 Q278.65 1540.33 275.572 1544.94 Q272.516 1549.52 266.706 1549.52 Q260.896 1549.52 257.817 1544.94 Q254.762 1540.33 254.762 1531.6 Q254.762 1522.85 257.817 1518.27 Q260.896 1513.66 266.706 1513.66 Z" fill="#000000" fill-rule="nonzero" fill-opacity="1"></path><path clip-path="url(#clip510)" d="M649.778 1514.29 L668.134 1514.29 L668.134 1518.22 L654.06 1518.22 L654.06 1526.7 Q655.079 1526.35 656.097 1526.19 Q657.116 1526 658.134 1526 Q663.921 1526 667.301 1529.17 Q670.681 1532.34 670.681 1537.76 Q670.681 1543.34 667.208 1546.44 Q663.736 1549.52 657.417 1549.52 Q655.241 1549.52 652.972 1549.15 Q650.727 1548.78 648.32 1548.04 L648.32 1543.34 Q650.403 1544.47 652.625 1545.03 Q654.847 1545.58 657.324 1545.58 Q661.329 1545.58 663.667 1543.48 Q666.005 1541.37 666.005 1537.76 Q666.005 1534.15 663.667 1532.04 Q661.329 1529.94 657.324 1529.94 Q655.449 1529.94 653.574 1530.35 Q651.722 1530.77 649.778 1531.65 L649.778 1514.29 Z" fill="#000000" fill-rule="nonzero" fill-opacity="1"></path><path clip-path="url(#clip510)" d="M689.893 1517.37 Q686.282 1517.37 684.454 1520.93 Q682.648 1524.47 682.648 1531.6 Q682.648 1538.71 684.454 1542.27 Q686.282 1545.82 689.893 1545.82 Q693.528 1545.82 695.333 1542.27 Q697.162 1538.71 697.162 1531.6 Q697.162 1524.47 695.333 1520.93 Q693.528 1517.37 689.893 1517.37 M689.893 1513.66 Q695.704 1513.66 698.759 1518.27 Q701.838 1522.85 701.838 1531.6 Q701.838 1540.33 698.759 1544.94 Q695.704 1549.52 689.893 1549.52 Q684.083 1549.52 681.005 1544.94 Q677.949 1540.33 677.949 1531.6 Q677.949 1522.85 681.005 1518.27 Q684.083 1513.66 689.893 1513.66 Z" fill="#000000" fill-rule="nonzero" fill-opacity="1"></path><path clip-path="url(#clip510)" d="M1043.06 1544.91 L1050.7 1544.91 L1050.7 1518.55 L1042.39 1520.21 L1042.39 1515.95 L1050.65 1514.29 L1055.33 1514.29 L1055.33 1544.91 L1062.97 1544.91 L1062.97 1548.85 L1043.06 1548.85 L1043.06 1544.91 Z" fill="#000000" fill-rule="nonzero" fill-opacity="1"></path><path clip-path="url(#clip510)" d="M1082.41 1517.37 Q1078.8 1517.37 1076.97 1520.93 Q1075.16 1524.47 1075.16 1531.6 Q1075.16 1538.71 1076.97 1542.27 Q1078.8 1545.82 1082.41 1545.82 Q1086.04 1545.82 1087.85 1542.27 Q1089.68 1538.71 1089.68 1531.6 Q1089.68 1524.47 1087.85 1520.93 Q1086.04 1517.37 1082.41 1517.37 M1082.41 1513.66 Q1088.22 1513.66 1091.28 1518.27 Q1094.35 1522.85 1094.35 1531.6 Q1094.35 1540.33 1091.28 1544.94 Q1088.22 1549.52 1082.41 1549.52 Q1076.6 1549.52 1073.52 1544.94 Q1070.47 1540.33 1070.47 1531.6 Q1070.47 1522.85 1073.52 1518.27 Q1076.6 1513.66 1082.41 1513.66 Z" fill="#000000" fill-rule="nonzero" fill-opacity="1"></path><path clip-path="url(#clip510)" d="M1112.57 1517.37 Q1108.96 1517.37 1107.13 1520.93 Q1105.33 1524.47 1105.33 1531.6 Q1105.33 1538.71 1107.13 1542.27 Q1108.96 1545.82 1112.57 1545.82 Q1116.21 1545.82 1118.01 1542.27 Q1119.84 1538.71 1119.84 1531.6 Q1119.84 1524.47 1118.01 1520.93 Q1116.21 1517.37 1112.57 1517.37 M1112.57 1513.66 Q1118.38 1513.66 1121.44 1518.27 Q1124.52 1522.85 1124.52 1531.6 Q1124.52 1540.33 1121.44 1544.94 Q1118.38 1549.52 1112.57 1549.52 Q1106.76 1549.52 1103.68 1544.94 Q1100.63 1540.33 1100.63 1531.6 Q1100.63 1522.85 1103.68 1518.27 Q1106.76 1513.66 1112.57 1513.66 Z" fill="#000000" fill-rule="nonzero" fill-opacity="1"></path><path clip-path="url(#clip510)" d="M1451.43 1544.91 L1459.07 1544.91 L1459.07 1518.55 L1450.76 1520.21 L1450.76 1515.95 L1459.02 1514.29 L1463.7 1514.29 L1463.7 1544.91 L1471.34 1544.91 L1471.34 1548.85 L1451.43 1548.85 L1451.43 1544.91 Z" fill="#000000" fill-rule="nonzero" fill-opacity="1"></path><path clip-path="url(#clip510)" d="M1480.83 1514.29 L1499.19 1514.29 L1499.19 1518.22 L1485.11 1518.22 L1485.11 1526.7 Q1486.13 1526.35 1487.15 1526.19 Q1488.17 1526 1489.19 1526 Q1494.97 1526 1498.35 1529.17 Q1501.73 1532.34 1501.73 1537.76 Q1501.73 1543.34 1498.26 1546.44 Q1494.79 1549.52 1488.47 1549.52 Q1486.29 1549.52 1484.02 1549.15 Q1481.78 1548.78 1479.37 1548.04 L1479.37 1543.34 Q1481.45 1544.47 1483.68 1545.03 Q1485.9 1545.58 1488.38 1545.58 Q1492.38 1545.58 1494.72 1543.48 Q1497.06 1541.37 1497.06 1537.76 Q1497.06 1534.15 1494.72 1532.04 Q1492.38 1529.94 1488.38 1529.94 Q1486.5 1529.94 1484.63 1530.35 Q1482.77 1530.77 1480.83 1531.65 L1480.83 1514.29 Z" fill="#000000" fill-rule="nonzero" fill-opacity="1"></path><path clip-path="url(#clip510)" d="M1520.94 1517.37 Q1517.33 1517.37 1515.5 1520.93 Q1513.7 1524.47 1513.7 1531.6 Q1513.7 1538.71 1515.5 1542.27 Q1517.33 1545.82 1520.94 1545.82 Q1524.58 1545.82 1526.38 1542.27 Q1528.21 1538.71 1528.21 1531.6 Q1528.21 1524.47 1526.38 1520.93 Q1524.58 1517.37 1520.94 1517.37 M1520.94 1513.66 Q1526.75 1513.66 1529.81 1518.27 Q1532.89 1522.85 1532.89 1531.6 Q1532.89 1540.33 1529.81 1544.94 Q1526.75 1549.52 1520.94 1549.52 Q1515.13 1549.52 1512.06 1544.94 Q1509 1540.33 1509 1531.6 Q1509 1522.85 1512.06 1518.27 Q1515.13 1513.66 1520.94 1513.66 Z" fill="#000000" fill-rule="nonzero" fill-opacity="1"></path><path clip-path="url(#clip510)" d="M1863.89 1544.91 L1880.21 1544.91 L1880.21 1548.85 L1858.26 1548.85 L1858.26 1544.91 Q1860.93 1542.16 1865.51 1537.53 Q1870.12 1532.88 1871.3 1531.53 Q1873.54 1529.01 1874.42 1527.27 Q1875.32 1525.51 1875.32 1523.82 Q1875.32 1521.07 1873.38 1519.33 Q1871.46 1517.6 1868.36 1517.6 Q1866.16 1517.6 1863.7 1518.36 Q1861.27 1519.13 1858.5 1520.68 L1858.5 1515.95 Q1861.32 1514.82 1863.77 1514.24 Q1866.23 1513.66 1868.26 1513.66 Q1873.63 1513.66 1876.83 1516.35 Q1880.02 1519.03 1880.02 1523.52 Q1880.02 1525.65 1879.21 1527.57 Q1878.43 1529.47 1876.32 1532.07 Q1875.74 1532.74 1872.64 1535.95 Q1869.54 1539.15 1863.89 1544.91 Z" fill="#000000" fill-rule="nonzero" fill-opacity="1"></path><path clip-path="url(#clip510)" d="M1900.02 1517.37 Q1896.41 1517.37 1894.58 1520.93 Q1892.78 1524.47 1892.78 1531.6 Q1892.78 1538.71 1894.58 1542.27 Q1896.41 1545.82 1900.02 1545.82 Q1903.66 1545.82 1905.46 1542.27 Q1907.29 1538.71 1907.29 1531.6 Q1907.29 1524.47 1905.46 1520.93 Q1903.66 1517.37 1900.02 1517.37 M1900.02 1513.66 Q1905.83 1513.66 1908.89 1518.27 Q1911.97 1522.85 1911.97 1531.6 Q1911.97 1540.33 1908.89 1544.94 Q1905.83 1549.52 1900.02 1549.52 Q1894.21 1549.52 1891.13 1544.94 Q1888.08 1540.33 1888.08 1531.6 Q1888.08 1522.85 1891.13 1518.27 Q1894.21 1513.66 1900.02 1513.66 Z" fill="#000000" fill-rule="nonzero" fill-opacity="1"></path><path clip-path="url(#clip510)" d="M1930.19 1517.37 Q1926.57 1517.37 1924.75 1520.93 Q1922.94 1524.47 1922.94 1531.6 Q1922.94 1538.71 1924.75 1542.27 Q1926.57 1545.82 1930.19 1545.82 Q1933.82 1545.82 1935.63 1542.27 Q1937.45 1538.71 1937.45 1531.6 Q1937.45 1524.47 1935.63 1520.93 Q1933.82 1517.37 1930.19 1517.37 M1930.19 1513.66 Q1936 1513.66 1939.05 1518.27 Q1942.13 1522.85 1942.13 1531.6 Q1942.13 1540.33 1939.05 1544.94 Q1936 1549.52 1930.19 1549.52 Q1924.38 1549.52 1921.3 1544.94 Q1918.24 1540.33 1918.24 1531.6 Q1918.24 1522.85 1921.3 1518.27 Q1924.38 1513.66 1930.19 1513.66 Z" fill="#000000" fill-rule="nonzero" fill-opacity="1"></path><path clip-path="url(#clip510)" d="M2272.26 1544.91 L2288.58 1544.91 L2288.58 1548.85 L2266.64 1548.85 L2266.64 1544.91 Q2269.3 1542.16 2273.88 1537.53 Q2278.49 1532.88 2279.67 1531.53 Q2281.92 1529.01 2282.79 1527.27 Q2283.7 1525.51 2283.7 1523.82 Q2283.7 1521.07 2281.75 1519.33 Q2279.83 1517.6 2276.73 1517.6 Q2274.53 1517.6 2272.08 1518.36 Q2269.65 1519.13 2266.87 1520.68 L2266.87 1515.95 Q2269.69 1514.82 2272.15 1514.24 Q2274.6 1513.66 2276.64 1513.66 Q2282.01 1513.66 2285.2 1516.35 Q2288.4 1519.03 2288.4 1523.52 Q2288.4 1525.65 2287.59 1527.57 Q2286.8 1529.47 2284.69 1532.07 Q2284.11 1532.74 2281.01 1535.95 Q2277.91 1539.15 2272.26 1544.91 Z" fill="#000000" fill-rule="nonzero" fill-opacity="1"></path><path clip-path="url(#clip510)" d="M2298.44 1514.29 L2316.8 1514.29 L2316.8 1518.22 L2302.73 1518.22 L2302.73 1526.7 Q2303.74 1526.35 2304.76 1526.19 Q2305.78 1526 2306.8 1526 Q2312.59 1526 2315.97 1529.17 Q2319.35 1532.34 2319.35 1537.76 Q2319.35 1543.34 2315.87 1546.44 Q2312.4 1549.52 2306.08 1549.52 Q2303.91 1549.52 2301.64 1549.15 Q2299.39 1548.78 2296.98 1548.04 L2296.98 1543.34 Q2299.07 1544.47 2301.29 1545.03 Q2303.51 1545.58 2305.99 1545.58 Q2309.99 1545.58 2312.33 1543.48 Q2314.67 1541.37 2314.67 1537.76 Q2314.67 1534.15 2312.33 1532.04 Q2309.99 1529.94 2305.99 1529.94 Q2304.11 1529.94 2302.24 1530.35 Q2300.39 1530.77 2298.44 1531.65 L2298.44 1514.29 Z" fill="#000000" fill-rule="nonzero" fill-opacity="1"></path><path clip-path="url(#clip510)" d="M2338.56 1517.37 Q2334.95 1517.37 2333.12 1520.93 Q2331.31 1524.47 2331.31 1531.6 Q2331.31 1538.71 2333.12 1542.27 Q2334.95 1545.82 2338.56 1545.82 Q2342.19 1545.82 2344 1542.27 Q2345.83 1538.71 2345.83 1531.6 Q2345.83 1524.47 2344 1520.93 Q2342.19 1517.37 2338.56 1517.37 M2338.56 1513.66 Q2344.37 1513.66 2347.42 1518.27 Q2350.5 1522.85 2350.5 1531.6 Q2350.5 1540.33 2347.42 1544.94 Q2344.37 1549.52 2338.56 1549.52 Q2332.75 1549.52 2329.67 1544.94 Q2326.61 1540.33 2326.61 1531.6 Q2326.61 1522.85 2329.67 1518.27 Q2332.75 1513.66 2338.56 1513.66 Z" fill="#000000" fill-rule="nonzero" fill-opacity="1"></path><polyline clip-path="url(#clip513)" style="stroke:#000000; stroke-linecap:round; stroke-linejoin:round; stroke-width:2; stroke-opacity:0.1; fill:none" points="214.353,1451.59 2352.76,1451.59 "></polyline>
<polyline clip-path="url(#clip513)" style="stroke:#000000; stroke-linecap:round; stroke-linejoin:round; stroke-width:2; stroke-opacity:0.1; fill:none" points="214.353,1349.44 2352.76,1349.44 "></polyline>
<polyline clip-path="url(#clip513)" style="stroke:#000000; stroke-linecap:round; stroke-linejoin:round; stroke-width:2; stroke-opacity:0.1; fill:none" points="214.353,1247.29 2352.76,1247.29 "></polyline>
<polyline clip-path="url(#clip513)" style="stroke:#000000; stroke-linecap:round; stroke-linejoin:round; stroke-width:2; stroke-opacity:0.1; fill:none" points="214.353,1145.14 2352.76,1145.14 "></polyline>
<polyline clip-path="url(#clip513)" style="stroke:#000000; stroke-linecap:round; stroke-linejoin:round; stroke-width:2; stroke-opacity:0.1; fill:none" points="214.353,1042.99 2352.76,1042.99 "></polyline>
<polyline clip-path="url(#clip513)" style="stroke:#000000; stroke-linecap:round; stroke-linejoin:round; stroke-width:2; stroke-opacity:0.1; fill:none" points="214.353,940.837 2352.76,940.837 "></polyline>
<polyline clip-path="url(#clip510)" style="stroke:#000000; stroke-linecap:round; stroke-linejoin:round; stroke-width:4; stroke-opacity:1; fill:none" points="214.353,1486.45 214.353,847.244 "></polyline>
<polyline clip-path="url(#clip510)" style="stroke:#000000; stroke-linecap:round; stroke-linejoin:round; stroke-width:4; stroke-opacity:1; fill:none" points="214.353,1451.59 233.25,1451.59 "></polyline>
<polyline clip-path="url(#clip510)" style="stroke:#000000; stroke-linecap:round; stroke-linejoin:round; stroke-width:4; stroke-opacity:1; fill:none" points="214.353,1349.44 233.25,1349.44 "></polyline>
<polyline clip-path="url(#clip510)" style="stroke:#000000; stroke-linecap:round; stroke-linejoin:round; stroke-width:4; stroke-opacity:1; fill:none" points="214.353,1247.29 233.25,1247.29 "></polyline>
<polyline clip-path="url(#clip510)" style="stroke:#000000; stroke-linecap:round; stroke-linejoin:round; stroke-width:4; stroke-opacity:1; fill:none" points="214.353,1145.14 233.25,1145.14 "></polyline>
<polyline clip-path="url(#clip510)" style="stroke:#000000; stroke-linecap:round; stroke-linejoin:round; stroke-width:4; stroke-opacity:1; fill:none" points="214.353,1042.99 233.25,1042.99 "></polyline>
<polyline clip-path="url(#clip510)" style="stroke:#000000; stroke-linecap:round; stroke-linejoin:round; stroke-width:4; stroke-opacity:1; fill:none" points="214.353,940.837 233.25,940.837 "></polyline>
<path clip-path="url(#clip510)" d="M81.8253 1464.93 L89.4641 1464.93 L89.4641 1438.57 L81.154 1440.23 L81.154 1435.97 L89.4178 1434.31 L94.0937 1434.31 L94.0937 1464.93 L101.733 1464.93 L101.733 1468.87 L81.8253 1468.87 L81.8253 1464.93 Z" fill="#000000" fill-rule="nonzero" fill-opacity="1"></path><path clip-path="url(#clip510)" d="M115.205 1464.93 L131.524 1464.93 L131.524 1468.87 L109.58 1468.87 L109.58 1464.93 Q112.242 1462.18 116.825 1457.55 Q121.432 1452.89 122.612 1451.55 Q124.857 1449.03 125.737 1447.29 Q126.64 1445.53 126.64 1443.84 Q126.64 1441.09 124.695 1439.35 Q122.774 1437.62 119.672 1437.62 Q117.473 1437.62 115.02 1438.38 Q112.589 1439.14 109.811 1440.7 L109.811 1435.97 Q112.635 1434.84 115.089 1434.26 Q117.543 1433.68 119.58 1433.68 Q124.95 1433.68 128.144 1436.37 Q131.339 1439.05 131.339 1443.54 Q131.339 1445.67 130.529 1447.59 Q129.742 1449.49 127.635 1452.08 Q127.057 1452.76 123.955 1455.97 Q120.853 1459.17 115.205 1464.93 Z" fill="#000000" fill-rule="nonzero" fill-opacity="1"></path><path clip-path="url(#clip510)" d="M141.339 1462.99 L146.223 1462.99 L146.223 1468.87 L141.339 1468.87 L141.339 1462.99 Z" fill="#000000" fill-rule="nonzero" fill-opacity="1"></path><path clip-path="url(#clip510)" d="M166.408 1437.39 Q162.797 1437.39 160.968 1440.95 Q159.163 1444.49 159.163 1451.62 Q159.163 1458.73 160.968 1462.29 Q162.797 1465.83 166.408 1465.83 Q170.042 1465.83 171.848 1462.29 Q173.677 1458.73 173.677 1451.62 Q173.677 1444.49 171.848 1440.95 Q170.042 1437.39 166.408 1437.39 M166.408 1433.68 Q172.218 1433.68 175.274 1438.29 Q178.353 1442.87 178.353 1451.62 Q178.353 1460.35 175.274 1464.95 Q172.218 1469.54 166.408 1469.54 Q160.598 1469.54 157.519 1464.95 Q154.464 1460.35 154.464 1451.62 Q154.464 1442.87 157.519 1438.29 Q160.598 1433.68 166.408 1433.68 Z" fill="#000000" fill-rule="nonzero" fill-opacity="1"></path><path clip-path="url(#clip510)" d="M83.0521 1362.78 L90.691 1362.78 L90.691 1336.42 L82.3808 1338.08 L82.3808 1333.82 L90.6447 1332.16 L95.3206 1332.16 L95.3206 1362.78 L102.959 1362.78 L102.959 1366.72 L83.0521 1366.72 L83.0521 1362.78 Z" fill="#000000" fill-rule="nonzero" fill-opacity="1"></path><path clip-path="url(#clip510)" d="M116.432 1362.78 L132.751 1362.78 L132.751 1366.72 L110.807 1366.72 L110.807 1362.78 Q113.469 1360.03 118.052 1355.4 Q122.658 1350.74 123.839 1349.4 Q126.084 1346.88 126.964 1345.14 Q127.867 1343.38 127.867 1341.69 Q127.867 1338.94 125.922 1337.2 Q124.001 1335.47 120.899 1335.47 Q118.7 1335.47 116.246 1336.23 Q113.816 1336.99 111.038 1338.55 L111.038 1333.82 Q113.862 1332.69 116.316 1332.11 Q118.77 1331.53 120.807 1331.53 Q126.177 1331.53 129.371 1334.22 Q132.566 1336.9 132.566 1341.39 Q132.566 1343.52 131.756 1345.44 Q130.969 1347.34 128.862 1349.93 Q128.283 1350.61 125.182 1353.82 Q122.08 1357.02 116.432 1362.78 Z" fill="#000000" fill-rule="nonzero" fill-opacity="1"></path><path clip-path="url(#clip510)" d="M142.566 1360.84 L147.45 1360.84 L147.45 1366.72 L142.566 1366.72 L142.566 1360.84 Z" fill="#000000" fill-rule="nonzero" fill-opacity="1"></path><path clip-path="url(#clip510)" d="M158.445 1362.78 L166.084 1362.78 L166.084 1336.42 L157.774 1338.08 L157.774 1333.82 L166.038 1332.16 L170.714 1332.16 L170.714 1362.78 L178.353 1362.78 L178.353 1366.72 L158.445 1366.72 L158.445 1362.78 Z" fill="#000000" fill-rule="nonzero" fill-opacity="1"></path><path clip-path="url(#clip510)" d="M83.4225 1260.63 L91.0614 1260.63 L91.0614 1234.27 L82.7512 1235.93 L82.7512 1231.67 L91.0151 1230.01 L95.691 1230.01 L95.691 1260.63 L103.33 1260.63 L103.33 1264.57 L83.4225 1264.57 L83.4225 1260.63 Z" fill="#000000" fill-rule="nonzero" fill-opacity="1"></path><path clip-path="url(#clip510)" d="M116.802 1260.63 L133.121 1260.63 L133.121 1264.57 L111.177 1264.57 L111.177 1260.63 Q113.839 1257.88 118.422 1253.25 Q123.029 1248.59 124.209 1247.25 Q126.455 1244.73 127.334 1242.99 Q128.237 1241.23 128.237 1239.54 Q128.237 1236.79 126.293 1235.05 Q124.371 1233.32 121.27 1233.32 Q119.07 1233.32 116.617 1234.08 Q114.186 1234.84 111.408 1236.4 L111.408 1231.67 Q114.233 1230.54 116.686 1229.96 Q119.14 1229.38 121.177 1229.38 Q126.547 1229.38 129.742 1232.07 Q132.936 1234.75 132.936 1239.24 Q132.936 1241.37 132.126 1243.29 Q131.339 1245.19 129.232 1247.78 Q128.654 1248.46 125.552 1251.67 Q122.45 1254.87 116.802 1260.63 Z" fill="#000000" fill-rule="nonzero" fill-opacity="1"></path><path clip-path="url(#clip510)" d="M142.936 1258.69 L147.82 1258.69 L147.82 1264.57 L142.936 1264.57 L142.936 1258.69 Z" fill="#000000" fill-rule="nonzero" fill-opacity="1"></path><path clip-path="url(#clip510)" d="M162.033 1260.63 L178.353 1260.63 L178.353 1264.57 L156.408 1264.57 L156.408 1260.63 Q159.07 1257.88 163.654 1253.25 Q168.26 1248.59 169.441 1247.25 Q171.686 1244.73 172.566 1242.99 Q173.468 1241.23 173.468 1239.54 Q173.468 1236.79 171.524 1235.05 Q169.603 1233.32 166.501 1233.32 Q164.302 1233.32 161.848 1234.08 Q159.417 1234.84 156.64 1236.4 L156.64 1231.67 Q159.464 1230.54 161.917 1229.96 Q164.371 1229.38 166.408 1229.38 Q171.779 1229.38 174.973 1232.07 Q178.167 1234.75 178.167 1239.24 Q178.167 1241.37 177.357 1243.29 Q176.57 1245.19 174.464 1247.78 Q173.885 1248.46 170.783 1251.67 Q167.681 1254.87 162.033 1260.63 Z" fill="#000000" fill-rule="nonzero" fill-opacity="1"></path><path clip-path="url(#clip510)" d="M82.4734 1158.48 L90.1123 1158.48 L90.1123 1132.12 L81.8021 1133.78 L81.8021 1129.52 L90.066 1127.86 L94.7419 1127.86 L94.7419 1158.48 L102.381 1158.48 L102.381 1162.42 L82.4734 1162.42 L82.4734 1158.48 Z" fill="#000000" fill-rule="nonzero" fill-opacity="1"></path><path clip-path="url(#clip510)" d="M115.853 1158.48 L132.172 1158.48 L132.172 1162.42 L110.228 1162.42 L110.228 1158.48 Q112.89 1155.73 117.473 1151.1 Q122.08 1146.44 123.26 1145.1 Q125.506 1142.58 126.385 1140.84 Q127.288 1139.08 127.288 1137.39 Q127.288 1134.64 125.344 1132.9 Q123.422 1131.17 120.32 1131.17 Q118.121 1131.17 115.668 1131.93 Q113.237 1132.69 110.459 1134.25 L110.459 1129.52 Q113.283 1128.39 115.737 1127.81 Q118.191 1127.23 120.228 1127.23 Q125.598 1127.23 128.793 1129.92 Q131.987 1132.6 131.987 1137.09 Q131.987 1139.22 131.177 1141.14 Q130.39 1143.04 128.283 1145.63 Q127.705 1146.31 124.603 1149.52 Q121.501 1152.72 115.853 1158.48 Z" fill="#000000" fill-rule="nonzero" fill-opacity="1"></path><path clip-path="url(#clip510)" d="M141.987 1156.54 L146.871 1156.54 L146.871 1162.42 L141.987 1162.42 L141.987 1156.54 Z" fill="#000000" fill-rule="nonzero" fill-opacity="1"></path><path clip-path="url(#clip510)" d="M171.223 1143.78 Q174.579 1144.5 176.454 1146.77 Q178.353 1149.04 178.353 1152.37 Q178.353 1157.49 174.834 1160.29 Q171.316 1163.09 164.834 1163.09 Q162.658 1163.09 160.343 1162.65 Q158.052 1162.23 155.598 1161.37 L155.598 1156.86 Q157.542 1158 159.857 1158.57 Q162.172 1159.15 164.695 1159.15 Q169.093 1159.15 171.385 1157.42 Q173.7 1155.68 173.7 1152.37 Q173.7 1149.31 171.547 1147.6 Q169.417 1145.87 165.598 1145.87 L161.57 1145.87 L161.57 1142.02 L165.783 1142.02 Q169.232 1142.02 171.061 1140.66 Q172.89 1139.27 172.89 1136.68 Q172.89 1134.01 170.991 1132.6 Q169.116 1131.17 165.598 1131.17 Q163.677 1131.17 161.478 1131.58 Q159.279 1132 156.64 1132.88 L156.64 1128.71 Q159.302 1127.97 161.617 1127.6 Q163.954 1127.23 166.015 1127.23 Q171.339 1127.23 174.441 1129.66 Q177.542 1132.07 177.542 1136.19 Q177.542 1139.06 175.899 1141.05 Q174.255 1143.02 171.223 1143.78 Z" fill="#000000" fill-rule="nonzero" fill-opacity="1"></path><path clip-path="url(#clip510)" d="M81.3392 1056.33 L88.978 1056.33 L88.978 1029.97 L80.6679 1031.63 L80.6679 1027.37 L88.9317 1025.71 L93.6076 1025.71 L93.6076 1056.33 L101.246 1056.33 L101.246 1060.27 L81.3392 1060.27 L81.3392 1056.33 Z" fill="#000000" fill-rule="nonzero" fill-opacity="1"></path><path clip-path="url(#clip510)" d="M114.719 1056.33 L131.038 1056.33 L131.038 1060.27 L109.094 1060.27 L109.094 1056.33 Q111.756 1053.58 116.339 1048.95 Q120.945 1044.29 122.126 1042.95 Q124.371 1040.43 125.251 1038.69 Q126.154 1036.93 126.154 1035.24 Q126.154 1032.49 124.209 1030.75 Q122.288 1029.02 119.186 1029.02 Q116.987 1029.02 114.533 1029.78 Q112.103 1030.54 109.325 1032.1 L109.325 1027.37 Q112.149 1026.24 114.603 1025.66 Q117.057 1025.08 119.094 1025.08 Q124.464 1025.08 127.658 1027.77 Q130.853 1030.45 130.853 1034.94 Q130.853 1037.07 130.043 1038.99 Q129.256 1040.89 127.149 1043.48 Q126.57 1044.16 123.469 1047.37 Q120.367 1050.57 114.719 1056.33 Z" fill="#000000" fill-rule="nonzero" fill-opacity="1"></path><path clip-path="url(#clip510)" d="M140.853 1054.39 L145.737 1054.39 L145.737 1060.27 L140.853 1060.27 L140.853 1054.39 Z" fill="#000000" fill-rule="nonzero" fill-opacity="1"></path><path clip-path="url(#clip510)" d="M168.769 1029.78 L156.964 1048.23 L168.769 1048.23 L168.769 1029.78 M167.542 1025.71 L173.422 1025.71 L173.422 1048.23 L178.353 1048.23 L178.353 1052.12 L173.422 1052.12 L173.422 1060.27 L168.769 1060.27 L168.769 1052.12 L153.168 1052.12 L153.168 1047.6 L167.542 1025.71 Z" fill="#000000" fill-rule="nonzero" fill-opacity="1"></path><path clip-path="url(#clip510)" d="M82.8207 954.181 L90.4595 954.181 L90.4595 927.816 L82.1494 929.482 L82.1494 925.223 L90.4132 923.557 L95.0891 923.557 L95.0891 954.181 L102.728 954.181 L102.728 958.117 L82.8207 958.117 L82.8207 954.181 Z" fill="#000000" fill-rule="nonzero" fill-opacity="1"></path><path clip-path="url(#clip510)" d="M116.2 954.181 L132.519 954.181 L132.519 958.117 L110.575 958.117 L110.575 954.181 Q113.237 951.427 117.82 946.797 Q122.427 942.144 123.607 940.802 Q125.853 938.279 126.732 936.543 Q127.635 934.783 127.635 933.094 Q127.635 930.339 125.691 928.603 Q123.77 926.867 120.668 926.867 Q118.469 926.867 116.015 927.631 Q113.584 928.394 110.807 929.945 L110.807 925.223 Q113.631 924.089 116.084 923.51 Q118.538 922.932 120.575 922.932 Q125.945 922.932 129.14 925.617 Q132.334 928.302 132.334 932.793 Q132.334 934.922 131.524 936.844 Q130.737 938.742 128.631 941.334 Q128.052 942.006 124.95 945.223 Q121.848 948.418 116.2 954.181 Z" fill="#000000" fill-rule="nonzero" fill-opacity="1"></path><path clip-path="url(#clip510)" d="M142.334 952.237 L147.218 952.237 L147.218 958.117 L142.334 958.117 L142.334 952.237 Z" fill="#000000" fill-rule="nonzero" fill-opacity="1"></path><path clip-path="url(#clip510)" d="M157.45 923.557 L175.806 923.557 L175.806 927.492 L161.732 927.492 L161.732 935.964 Q162.751 935.617 163.769 935.455 Q164.788 935.269 165.806 935.269 Q171.593 935.269 174.973 938.441 Q178.353 941.612 178.353 947.029 Q178.353 952.607 174.88 955.709 Q171.408 958.788 165.089 958.788 Q162.913 958.788 160.644 958.417 Q158.399 958.047 155.992 957.306 L155.992 952.607 Q158.075 953.742 160.297 954.297 Q162.519 954.853 164.996 954.853 Q169.001 954.853 171.339 952.746 Q173.677 950.64 173.677 947.029 Q173.677 943.418 171.339 941.311 Q169.001 939.205 164.996 939.205 Q163.121 939.205 161.246 939.621 Q159.394 940.038 157.45 940.918 L157.45 923.557 Z" fill="#000000" fill-rule="nonzero" fill-opacity="1"></path><polyline clip-path="url(#clip513)" style="stroke:#009af9; stroke-linecap:round; stroke-linejoin:round; stroke-width:4; stroke-opacity:1; fill:none" points="274.873,865.335 283.041,1440.82 291.208,1445.47 299.376,1445.92 307.543,1446.27 315.711,1445.45 323.878,1446.65 332.046,1447.89 340.213,1449.47 348.381,1448.98 356.548,1450 364.715,1449.81 372.883,1449.29 381.05,1449.04 389.218,1449.73 397.385,1448.37 405.553,1450.12 413.72,1449.92 421.888,1450.56 430.055,1450.4 438.223,1452.38 446.39,1449.84 454.557,1451.49 462.725,1450.62 470.892,1450.05 479.06,1451.02 487.227,1451.43 495.395,1451.73 503.562,1451.74 511.73,1450.36 519.897,1452.25 528.065,1449.35 536.232,1450.91 544.399,1450.77 552.567,1452.38 560.734,1452.33 568.902,1446.92 577.069,1451.87 585.237,1451.75 593.404,1445.26 601.572,1451.87 609.739,1451.87 617.907,1453.51 626.074,1452.99 634.241,1449.5 642.409,1452.6 650.576,1452.63 658.744,1451.94 666.911,1454.08 675.079,1453.56 683.246,1453.1 691.414,1453.81 699.581,1454.01 707.749,1452.84 715.916,1452.69 724.083,1451.68 732.251,1453.37 740.418,1453.56 748.586,1454.47 756.753,1453.67 764.921,1452.97 773.088,1452.86 781.256,1454.63 789.423,1453.03 797.591,1454.42 805.758,1452.58 813.926,1452.44 822.093,1453.47 830.26,1455.1 838.428,1455.32 846.595,1454.47 854.763,1455.08 862.93,1455.31 871.098,1454.56 879.265,1454.91 887.433,1454.5 895.6,1452.26 903.768,1455.63 911.935,1454.83 920.102,1452.11 928.27,1452.06 936.437,1453.15 944.605,1454.03 952.772,1454.2 960.94,1454.48 969.107,1454.43 977.275,1453.41 985.442,1456.65 993.61,1454.91 1001.78,1456.27 1009.94,1455.23 1018.11,1455.18 1026.28,1453.11 1034.45,1454.59 1042.61,1456.34 1050.78,1456.13 1058.95,1455.11 1067.12,1454.88 1075.28,1454.38 1083.45,1455.59 1091.62,1454.5 1099.79,1455.77 1107.95,1455.65 1116.12,1456.6 1124.29,1457.12 1132.46,1456.41 1140.62,1457.1 1148.79,1456.29 1156.96,1455.53 1165.13,1455.52 1173.29,1456.18 1181.46,1454.78 1189.63,1457.13 1197.8,1455.35 1205.96,1456.32 1214.13,1457.18 1222.3,1457.06 1230.47,1457.85 1238.63,1455.67 1246.8,1456.36 1254.97,1456.87 1263.14,1456.64 1271.3,1452.83 1279.47,1456.87 1287.64,1457.86 1295.81,1457.77 1303.97,1456.74 1312.14,1456.01 1320.31,1457.82 1328.48,1457.12 1336.64,1458.09 1344.81,1456.62 1352.98,1456.38 1361.15,1457.24 1369.31,1457.14 1377.48,1456.57 1385.65,1457.36 1393.81,1457.42 1401.98,1457.41 1410.15,1458.66 1418.32,1455.67 1426.48,1456.03 1434.65,1457.36 1442.82,1454.01 1450.99,1457.84 1459.15,1457.52 1467.32,1453.35 1475.49,1458.5 1483.66,1458.65 1491.82,1458.9 1499.99,1458.75 1508.16,1458.59 1516.33,1457.83 1524.49,1456.97 1532.66,1458.01 1540.83,1459.02 1549,1458.49 1557.16,1456.88 1565.33,1458.71 1573.5,1459.81 1581.67,1459.41 1589.83,1460.16 1598,1460.13 1606.17,1459.41 1614.34,1461.22 1622.5,1458.89 1630.67,1461.03 1638.84,1459.76 1647.01,1458.18 1655.17,1460.39 1663.34,1458.73 1671.51,1459.78 1679.68,1461.08 1687.84,1460.81 1696.01,1460.4 1704.18,1459.44 1712.35,1459.9 1720.51,1461.78 1728.68,1461.2 1736.85,1459.18 1745.02,1462.87 1753.18,1461.63 1761.35,1461.13 1769.52,1463.34 1777.69,1462.26 1785.85,1462.3 1794.02,1460.19 1802.19,1462.26 1810.36,1462.32 1818.52,1462.93 1826.69,1461.22 1834.86,1463.03 1843.02,1464.1 1851.19,1462.02 1859.36,1461.59 1867.53,1461.81 1875.69,1463.52 1883.86,1462.72 1892.03,1463.19 1900.2,1464.22 1908.36,1462.33 1916.53,1464.01 1924.7,1463.68 1932.87,1460.71 1941.03,1463.46 1949.2,1463.96 1957.37,1462.02 1965.54,1463.45 1973.7,1463.97 1981.87,1464.6 1990.04,1463.06 1998.21,1464.56 2006.37,1465.65 2014.54,1465.19 2022.71,1463.5 2030.88,1465.39 2039.04,1463.98 2047.21,1462.06 2055.38,1463.56 2063.55,1465.32 2071.71,1465.72 2079.88,1465.16 2088.05,1464.41 2096.22,1465.65 2104.38,1466.95 2112.55,1460.95 2120.72,1465.65 2128.89,1464.78 2137.05,1464.27 2145.22,1465.78 2153.39,1466.34 2161.56,1464.94 2169.72,1463.45 2177.89,1465.75 2186.06,1467.18 2194.23,1464.81 2202.39,1467.27 2210.56,1466.64 2218.73,1467.02 2226.9,1465.9 2235.06,1465.83 2243.23,1466.14 2251.4,1468.36 2259.57,1465.76 2267.73,1466.11 2275.9,1467.07 2284.07,1467.51 2292.24,1467.18 "></polyline>
<polyline clip-path="url(#clip513)" style="stroke:#e26f46; stroke-linecap:round; stroke-linejoin:round; stroke-width:4; stroke-opacity:1; fill:none" points="274.873,1426.32 283.041,1444.4 291.208,1443.63 299.376,1443.92 307.543,1444.77 315.711,1447.58 323.878,1443.18 332.046,1448.2 340.213,1446.66 348.381,1445.79 356.548,1446.84 364.715,1444.63 372.883,1447.2 381.05,1447.04 389.218,1444.68 397.385,1443.47 405.553,1447.05 413.72,1445.32 421.888,1448.25 430.055,1449.03 438.223,1445.82 446.39,1439.3 454.557,1443.23 462.725,1447.23 470.892,1446.51 479.06,1442.71 487.227,1444.49 495.395,1447.16 503.562,1447.01 511.73,1441.21 519.897,1441.97 528.065,1444.13 536.232,1441.36 544.399,1443.75 552.567,1447.89 560.734,1440.75 568.902,1441.27 577.069,1442.94 585.237,1444.91 593.404,1444.48 601.572,1444.9 609.739,1440.62 617.907,1445.56 626.074,1445.77 634.241,1445.8 642.409,1446.08 650.576,1446.13 658.744,1442.88 666.911,1444.77 675.079,1447.07 683.246,1437.5 691.414,1445.3 699.581,1446.3 707.749,1444.8 715.916,1442.45 724.083,1440.33 732.251,1446.47 740.418,1447.85 748.586,1444.51 756.753,1446.84 764.921,1444.62 773.088,1445.84 781.256,1421.77 789.423,1448.45 797.591,1446.74 805.758,1440.76 813.926,1437.3 822.093,1448.8 830.26,1445.28 838.428,1449.74 846.595,1448.74 854.763,1444.85 862.93,1447.85 871.098,1447.87 879.265,1448.36 887.433,1448.12 895.6,1447.49 903.768,1445.32 911.935,1445.04 920.102,1438.55 928.27,1430.11 936.437,1445.79 944.605,1442.57 952.772,1436.08 960.94,1442.66 969.107,1446.66 977.275,1445.03 985.442,1446.24 993.61,1447.69 1001.78,1442.9 1009.94,1443.51 1018.11,1444.15 1026.28,1431.54 1034.45,1448.16 1042.61,1449.87 1050.78,1447.03 1058.95,1447.97 1067.12,1446.81 1075.28,1447.26 1083.45,1444.48 1091.62,1445.36 1099.79,1440.5 1107.95,1446.88 1116.12,1448.37 1124.29,1446.43 1132.46,1450.65 1140.62,1442.37 1148.79,1451.14 1156.96,1449.26 1165.13,1448.04 1173.29,1449.11 1181.46,1449.71 1189.63,1450.1 1197.8,1448.41 1205.96,1449.7 1214.13,1449.09 1222.3,1448.34 1230.47,1444.8 1238.63,1446.05 1246.8,1445.63 1254.97,1447.72 1263.14,1447.61 1271.3,1441.85 1279.47,1447.68 1287.64,1449.97 1295.81,1449.66 1303.97,1450.56 1312.14,1445.11 1320.31,1452.55 1328.48,1449.02 1336.64,1449.22 1344.81,1447.52 1352.98,1451.8 1361.15,1450.59 1369.31,1449.16 1377.48,1442.07 1385.65,1447.12 1393.81,1451.25 1401.98,1449.46 1410.15,1450.52 1418.32,1437.24 1426.48,1448.17 1434.65,1439.87 1442.82,1450.38 1450.99,1446.96 1459.15,1451.69 1467.32,1450.97 1475.49,1447.31 1483.66,1453.56 1491.82,1448.58 1499.99,1450.15 1508.16,1454.21 1516.33,1452.58 1524.49,1448.43 1532.66,1449.55 1540.83,1450.59 1549,1446.15 1557.16,1452.18 1565.33,1451.12 1573.5,1451.62 1581.67,1453.26 1589.83,1452.49 1598,1449.35 1606.17,1454.57 1614.34,1445.15 1622.5,1453.56 1630.67,1451.2 1638.84,1450.71 1647.01,1453.71 1655.17,1452.89 1663.34,1452.22 1671.51,1453.13 1679.68,1452.27 1687.84,1454.03 1696.01,1452.36 1704.18,1438.54 1712.35,1453.76 1720.51,1453.69 1728.68,1453.55 1736.85,1450.14 1745.02,1455.3 1753.18,1452.57 1761.35,1452.37 1769.52,1454.61 1777.69,1453.77 1785.85,1451.9 1794.02,1454.31 1802.19,1454.18 1810.36,1454.49 1818.52,1447.49 1826.69,1453.52 1834.86,1453.22 1843.02,1451.83 1851.19,1454.49 1859.36,1450.38 1867.53,1452.96 1875.69,1448.39 1883.86,1455.01 1892.03,1454.15 1900.2,1451.03 1908.36,1453.53 1916.53,1451.51 1924.7,1452.35 1932.87,1452.88 1941.03,1453.83 1949.2,1455.99 1957.37,1453.66 1965.54,1453.16 1973.7,1453.18 1981.87,1451.08 1990.04,1452.78 1998.21,1452.7 2006.37,1454.32 2014.54,1449.94 2022.71,1455.38 2030.88,1454.18 2039.04,1444.53 2047.21,1450.98 2055.38,1452.43 2063.55,1454.46 2071.71,1450.96 2079.88,1455.46 2088.05,1453.67 2096.22,1455.57 2104.38,1453.86 2112.55,1448.23 2120.72,1453.29 2128.89,1453.53 2137.05,1454.57 2145.22,1452.29 2153.39,1454.06 2161.56,1453.95 2169.72,1455.31 2177.89,1448.32 2186.06,1454.16 2194.23,1454.22 2202.39,1452.02 2210.56,1453.62 2218.73,1454.09 2226.9,1454.01 2235.06,1454.88 2243.23,1454.02 2251.4,1443.2 2259.57,1455.35 2267.73,1451.91 2275.9,1455.28 2284.07,1452.85 2292.24,1451.15 "></polyline>
<path clip-path="url(#clip510)" d="M1962.59 1024.07 L2281.48 1024.07 L2281.48 868.551 L1962.59 868.551  Z" fill="#ffffff" fill-rule="evenodd" fill-opacity="1"></path>
<polyline clip-path="url(#clip510)" style="stroke:#000000; stroke-linecap:round; stroke-linejoin:round; stroke-width:4; stroke-opacity:1; fill:none" points="1962.59,1024.07 2281.48,1024.07 2281.48,868.551 1962.59,868.551 1962.59,1024.07 "></polyline>
<polyline clip-path="url(#clip510)" style="stroke:#009af9; stroke-linecap:round; stroke-linejoin:round; stroke-width:4; stroke-opacity:1; fill:none" points="1986.35,920.391 2128.91,920.391 "></polyline>
<path clip-path="url(#clip510)" d="M2160.08 904.384 L2160.08 911.745 L2168.85 911.745 L2168.85 915.055 L2160.08 915.055 L2160.08 929.129 Q2160.08 932.301 2160.93 933.203 Q2161.81 934.106 2164.48 934.106 L2168.85 934.106 L2168.85 937.671 L2164.48 937.671 Q2159.54 937.671 2157.67 935.842 Q2155.8 933.99 2155.8 929.129 L2155.8 915.055 L2152.67 915.055 L2152.67 911.745 L2155.8 911.745 L2155.8 904.384 L2160.08 904.384 Z" fill="#000000" fill-rule="nonzero" fill-opacity="1"></path><path clip-path="url(#clip510)" d="M2189.48 915.727 Q2188.76 915.31 2187.9 915.125 Q2187.07 914.916 2186.05 914.916 Q2182.44 914.916 2180.49 917.277 Q2178.57 919.615 2178.57 924.014 L2178.57 937.671 L2174.29 937.671 L2174.29 911.745 L2178.57 911.745 L2178.57 915.773 Q2179.92 913.412 2182.07 912.278 Q2184.22 911.12 2187.3 911.12 Q2187.74 911.12 2188.27 911.19 Q2188.8 911.236 2189.45 911.352 L2189.48 915.727 Z" fill="#000000" fill-rule="nonzero" fill-opacity="1"></path><path clip-path="url(#clip510)" d="M2205.73 924.639 Q2200.56 924.639 2198.57 925.819 Q2196.58 927 2196.58 929.847 Q2196.58 932.115 2198.06 933.458 Q2199.57 934.777 2202.14 934.777 Q2205.68 934.777 2207.81 932.277 Q2209.96 929.754 2209.96 925.588 L2209.96 924.639 L2205.73 924.639 M2214.22 922.879 L2214.22 937.671 L2209.96 937.671 L2209.96 933.736 Q2208.5 936.097 2206.33 937.231 Q2204.15 938.342 2201 938.342 Q2197.02 938.342 2194.66 936.12 Q2192.32 933.875 2192.32 930.125 Q2192.32 925.75 2195.24 923.527 Q2198.18 921.305 2203.99 921.305 L2209.96 921.305 L2209.96 920.889 Q2209.96 917.949 2208.02 916.352 Q2206.1 914.731 2202.6 914.731 Q2200.38 914.731 2198.27 915.264 Q2196.17 915.796 2194.22 916.861 L2194.22 912.926 Q2196.56 912.023 2198.76 911.583 Q2200.96 911.12 2203.04 911.12 Q2208.67 911.12 2211.44 914.037 Q2214.22 916.953 2214.22 922.879 Z" fill="#000000" fill-rule="nonzero" fill-opacity="1"></path><path clip-path="url(#clip510)" d="M2222.99 911.745 L2227.25 911.745 L2227.25 937.671 L2222.99 937.671 L2222.99 911.745 M2222.99 901.653 L2227.25 901.653 L2227.25 907.046 L2222.99 907.046 L2222.99 901.653 Z" fill="#000000" fill-rule="nonzero" fill-opacity="1"></path><path clip-path="url(#clip510)" d="M2257.72 922.023 L2257.72 937.671 L2253.46 937.671 L2253.46 922.162 Q2253.46 918.481 2252.02 916.652 Q2250.59 914.824 2247.72 914.824 Q2244.27 914.824 2242.28 917.023 Q2240.29 919.222 2240.29 923.018 L2240.29 937.671 L2236 937.671 L2236 911.745 L2240.29 911.745 L2240.29 915.773 Q2241.81 913.435 2243.87 912.278 Q2245.96 911.12 2248.66 911.12 Q2253.13 911.12 2255.42 913.898 Q2257.72 916.652 2257.72 922.023 Z" fill="#000000" fill-rule="nonzero" fill-opacity="1"></path><polyline clip-path="url(#clip510)" style="stroke:#e26f46; stroke-linecap:round; stroke-linejoin:round; stroke-width:4; stroke-opacity:1; fill:none" points="1986.35,972.231 2128.91,972.231 "></polyline>
<path clip-path="url(#clip510)" d="M2160.08 956.224 L2160.08 963.585 L2168.85 963.585 L2168.85 966.895 L2160.08 966.895 L2160.08 980.969 Q2160.08 984.141 2160.93 985.043 Q2161.81 985.946 2164.48 985.946 L2168.85 985.946 L2168.85 989.511 L2164.48 989.511 Q2159.54 989.511 2157.67 987.682 Q2155.8 985.83 2155.8 980.969 L2155.8 966.895 L2152.67 966.895 L2152.67 963.585 L2155.8 963.585 L2155.8 956.224 L2160.08 956.224 Z" fill="#000000" fill-rule="nonzero" fill-opacity="1"></path><path clip-path="url(#clip510)" d="M2196.63 975.483 L2196.63 977.567 L2177.04 977.567 Q2177.32 981.965 2179.68 984.279 Q2182.07 986.571 2186.3 986.571 Q2188.76 986.571 2191.05 985.969 Q2193.36 985.367 2195.63 984.164 L2195.63 988.191 Q2193.34 989.164 2190.93 989.673 Q2188.53 990.182 2186.05 990.182 Q2179.85 990.182 2176.21 986.571 Q2172.6 982.96 2172.6 976.803 Q2172.6 970.437 2176.03 966.71 Q2179.48 962.96 2185.31 962.96 Q2190.54 962.96 2193.57 966.34 Q2196.63 969.696 2196.63 975.483 M2192.37 974.233 Q2192.32 970.738 2190.4 968.655 Q2188.5 966.571 2185.36 966.571 Q2181.79 966.571 2179.64 968.585 Q2177.51 970.599 2177.18 974.256 L2192.37 974.233 Z" fill="#000000" fill-rule="nonzero" fill-opacity="1"></path><path clip-path="url(#clip510)" d="M2220.15 964.349 L2220.15 968.377 Q2218.34 967.451 2216.4 966.988 Q2214.45 966.525 2212.37 966.525 Q2209.2 966.525 2207.6 967.497 Q2206.03 968.469 2206.03 970.414 Q2206.03 971.895 2207.16 972.752 Q2208.29 973.585 2211.72 974.349 L2213.18 974.673 Q2217.72 975.645 2219.61 977.428 Q2221.54 979.187 2221.54 982.358 Q2221.54 985.969 2218.67 988.076 Q2215.82 990.182 2210.82 990.182 Q2208.73 990.182 2206.47 989.766 Q2204.22 989.372 2201.72 988.562 L2201.72 984.164 Q2204.08 985.391 2206.37 986.016 Q2208.67 986.617 2210.91 986.617 Q2213.92 986.617 2215.54 985.599 Q2217.16 984.557 2217.16 982.682 Q2217.16 980.946 2215.98 980.02 Q2214.82 979.094 2210.86 978.238 L2209.38 977.891 Q2205.42 977.057 2203.67 975.344 Q2201.91 973.608 2201.91 970.599 Q2201.91 966.942 2204.5 964.951 Q2207.09 962.96 2211.86 962.96 Q2214.22 962.96 2216.3 963.307 Q2218.39 963.655 2220.15 964.349 Z" fill="#000000" fill-rule="nonzero" fill-opacity="1"></path><path clip-path="url(#clip510)" d="M2232.53 956.224 L2232.53 963.585 L2241.3 963.585 L2241.3 966.895 L2232.53 966.895 L2232.53 980.969 Q2232.53 984.141 2233.39 985.043 Q2234.27 985.946 2236.93 985.946 L2241.3 985.946 L2241.3 989.511 L2236.93 989.511 Q2232 989.511 2230.12 987.682 Q2228.25 985.83 2228.25 980.969 L2228.25 966.895 L2225.12 966.895 L2225.12 963.585 L2228.25 963.585 L2228.25 956.224 L2232.53 956.224 Z" fill="#000000" fill-rule="nonzero" fill-opacity="1"></path></svg>