<svg xmlns="http://www.w3.org/2000/svg" xmlns:xlink="http://www.w3.org/1999/xlink" width="600" height="400" viewBox="0 0 2400 1600">
<defs>
  <clipPath id="clip650">
    <rect x="0" y="0" width="2400" height="1600"></rect>
  </clipPath>
</defs>
<path clip-path="url(#clip650)" d="M0 1600 L2400 1600 L2400 0 L0 0  Z" fill="#ffffff" fill-rule="evenodd" fill-opacity="1"></path>
<defs>
  <clipPath id="clip651">
    <rect x="480" y="0" width="1681" height="1600"></rect>
  </clipPath>
</defs>
<path clip-path="url(#clip650)" d="M184.191 686.448 L2352.76 686.448 L2352.76 47.2441 L184.191 47.2441  Z" fill="#ffffff" fill-rule="evenodd" fill-opacity="1"></path>
<defs>
  <clipPath id="clip652">
    <rect x="184" y="47" width="2170" height="640"></rect>
  </clipPath>
</defs>
<polyline clip-path="url(#clip652)" style="stroke:#000000; stroke-linecap:round; stroke-linejoin:round; stroke-width:2; stroke-opacity:0.1; fill:none" points="241.465,686.448 241.465,47.2441 "></polyline>
<polyline clip-path="url(#clip652)" style="stroke:#000000; stroke-linecap:round; stroke-linejoin:round; stroke-width:2; stroke-opacity:0.1; fill:none" points="651.449,686.448 651.449,47.2441 "></polyline>
<polyline clip-path="url(#clip652)" style="stroke:#000000; stroke-linecap:round; stroke-linejoin:round; stroke-width:2; stroke-opacity:0.1; fill:none" points="1061.43,686.448 1061.43,47.2441 "></polyline>
<polyline clip-path="url(#clip652)" style="stroke:#000000; stroke-linecap:round; stroke-linejoin:round; stroke-width:2; stroke-opacity:0.1; fill:none" points="1471.41,686.448 1471.41,47.2441 "></polyline>
<polyline clip-path="url(#clip652)" style="stroke:#000000; stroke-linecap:round; stroke-linejoin:round; stroke-width:2; stroke-opacity:0.1; fill:none" points="1881.4,686.448 1881.4,47.2441 "></polyline>
<polyline clip-path="url(#clip652)" style="stroke:#000000; stroke-linecap:round; stroke-linejoin:round; stroke-width:2; stroke-opacity:0.1; fill:none" points="2291.38,686.448 2291.38,47.2441 "></polyline>
<polyline clip-path="url(#clip650)" style="stroke:#000000; stroke-linecap:round; stroke-linejoin:round; stroke-width:4; stroke-opacity:1; fill:none" points="184.191,686.448 2352.76,686.448 "></polyline>
<polyline clip-path="url(#clip650)" style="stroke:#000000; stroke-linecap:round; stroke-linejoin:round; stroke-width:4; stroke-opacity:1; fill:none" points="241.465,686.448 241.465,667.55 "></polyline>
<polyline clip-path="url(#clip650)" style="stroke:#000000; stroke-linecap:round; stroke-linejoin:round; stroke-width:4; stroke-opacity:1; fill:none" points="651.449,686.448 651.449,667.55 "></polyline>
<polyline clip-path="url(#clip650)" style="stroke:#000000; stroke-linecap:round; stroke-linejoin:round; stroke-width:4; stroke-opacity:1; fill:none" points="1061.43,686.448 1061.43,667.55 "></polyline>
<polyline clip-path="url(#clip650)" style="stroke:#000000; stroke-linecap:round; stroke-linejoin:round; stroke-width:4; stroke-opacity:1; fill:none" points="1471.41,686.448 1471.41,667.55 "></polyline>
<polyline clip-path="url(#clip650)" style="stroke:#000000; stroke-linecap:round; stroke-linejoin:round; stroke-width:4; stroke-opacity:1; fill:none" points="1881.4,686.448 1881.4,667.55 "></polyline>
<polyline clip-path="url(#clip650)" style="stroke:#000000; stroke-linecap:round; stroke-linejoin:round; stroke-width:4; stroke-opacity:1; fill:none" points="2291.38,686.448 2291.38,667.55 "></polyline>
<path clip-path="url(#clip650)" d="M241.465 717.367 Q237.854 717.367 236.026 720.931 Q234.22 724.473 234.22 731.603 Q234.22 738.709 236.026 742.274 Q237.854 745.815 241.465 745.815 Q245.1 745.815 246.905 742.274 Q248.734 738.709 248.734 731.603 Q248.734 724.473 246.905 720.931 Q245.1 717.367 241.465 717.367 M241.465 713.663 Q247.275 713.663 250.331 718.269 Q253.41 722.853 253.41 731.603 Q253.41 740.329 250.331 744.936 Q247.275 749.519 241.465 749.519 Q235.655 749.519 232.576 744.936 Q229.521 740.329 229.521 731.603 Q229.521 722.853 232.576 718.269 Q235.655 713.663 241.465 713.663 Z" fill="#000000" fill-rule="nonzero" fill-opacity="1"></path><path clip-path="url(#clip650)" d="M611.055 744.913 L618.694 744.913 L618.694 718.547 L610.384 720.214 L610.384 715.955 L618.648 714.288 L623.324 714.288 L623.324 744.913 L630.963 744.913 L630.963 748.848 L611.055 748.848 L611.055 744.913 Z" fill="#000000" fill-rule="nonzero" fill-opacity="1"></path><path clip-path="url(#clip650)" d="M650.407 717.367 Q646.796 717.367 644.967 720.931 Q643.162 724.473 643.162 731.603 Q643.162 738.709 644.967 742.274 Q646.796 745.815 650.407 745.815 Q654.041 745.815 655.847 742.274 Q657.675 738.709 657.675 731.603 Q657.675 724.473 655.847 720.931 Q654.041 717.367 650.407 717.367 M650.407 713.663 Q656.217 713.663 659.273 718.269 Q662.351 722.853 662.351 731.603 Q662.351 740.329 659.273 744.936 Q656.217 749.519 650.407 749.519 Q644.597 749.519 641.518 744.936 Q638.463 740.329 638.463 731.603 Q638.463 722.853 641.518 718.269 Q644.597 713.663 650.407 713.663 Z" fill="#000000" fill-rule="nonzero" fill-opacity="1"></path><path clip-path="url(#clip650)" d="M680.569 717.367 Q676.958 717.367 675.129 720.931 Q673.323 724.473 673.323 731.603 Q673.323 738.709 675.129 742.274 Q676.958 745.815 680.569 745.815 Q684.203 745.815 686.009 742.274 Q687.837 738.709 687.837 731.603 Q687.837 724.473 686.009 720.931 Q684.203 717.367 680.569 717.367 M680.569 713.663 Q686.379 713.663 689.434 718.269 Q692.513 722.853 692.513 731.603 Q692.513 740.329 689.434 744.936 Q686.379 749.519 680.569 749.519 Q674.759 749.519 671.68 744.936 Q668.624 740.329 668.624 731.603 Q668.624 722.853 671.68 718.269 Q674.759 713.663 680.569 713.663 Z" fill="#000000" fill-rule="nonzero" fill-opacity="1"></path><path clip-path="url(#clip650)" d="M1025.12 744.913 L1041.44 744.913 L1041.44 748.848 L1019.5 748.848 L1019.5 744.913 Q1022.16 742.158 1026.74 737.528 Q1031.35 732.876 1032.53 731.533 Q1034.78 729.01 1035.66 727.274 Q1036.56 725.515 1036.56 723.825 Q1036.56 721.07 1034.61 719.334 Q1032.69 717.598 1029.59 717.598 Q1027.39 717.598 1024.94 718.362 Q1022.51 719.126 1019.73 720.677 L1019.73 715.955 Q1022.55 714.82 1025.01 714.242 Q1027.46 713.663 1029.5 713.663 Q1034.87 713.663 1038.06 716.348 Q1041.26 719.033 1041.26 723.524 Q1041.26 725.654 1040.45 727.575 Q1039.66 729.473 1037.55 732.066 Q1036.98 732.737 1033.87 735.954 Q1030.77 739.149 1025.12 744.913 Z" fill="#000000" fill-rule="nonzero" fill-opacity="1"></path><path clip-path="url(#clip650)" d="M1061.26 717.367 Q1057.65 717.367 1055.82 720.931 Q1054.01 724.473 1054.01 731.603 Q1054.01 738.709 1055.82 742.274 Q1057.65 745.815 1061.26 745.815 Q1064.89 745.815 1066.7 742.274 Q1068.53 738.709 1068.53 731.603 Q1068.53 724.473 1066.7 720.931 Q1064.89 717.367 1061.26 717.367 M1061.26 713.663 Q1067.07 713.663 1070.12 718.269 Q1073.2 722.853 1073.2 731.603 Q1073.2 740.329 1070.12 744.936 Q1067.07 749.519 1061.26 749.519 Q1055.45 749.519 1052.37 744.936 Q1049.31 740.329 1049.31 731.603 Q1049.31 722.853 1052.37 718.269 Q1055.45 713.663 1061.26 713.663 Z" fill="#000000" fill-rule="nonzero" fill-opacity="1"></path><path clip-path="url(#clip650)" d="M1091.42 717.367 Q1087.81 717.367 1085.98 720.931 Q1084.17 724.473 1084.17 731.603 Q1084.17 738.709 1085.98 742.274 Q1087.81 745.815 1091.42 745.815 Q1095.05 745.815 1096.86 742.274 Q1098.69 738.709 1098.69 731.603 Q1098.69 724.473 1096.86 720.931 Q1095.05 717.367 1091.42 717.367 M1091.42 713.663 Q1097.23 713.663 1100.29 718.269 Q1103.36 722.853 1103.36 731.603 Q1103.36 740.329 1100.29 744.936 Q1097.23 749.519 1091.42 749.519 Q1085.61 749.519 1082.53 744.936 Q1079.48 740.329 1079.48 731.603 Q1079.48 722.853 1082.53 718.269 Q1085.61 713.663 1091.42 713.663 Z" fill="#000000" fill-rule="nonzero" fill-opacity="1"></path><path clip-path="url(#clip650)" d="M1445.18 730.214 Q1448.53 730.931 1450.41 733.2 Q1452.31 735.468 1452.31 738.802 Q1452.31 743.917 1448.79 746.718 Q1445.27 749.519 1438.79 749.519 Q1436.61 749.519 1434.3 749.079 Q1432.01 748.663 1429.55 747.806 L1429.55 743.292 Q1431.5 744.427 1433.81 745.005 Q1436.13 745.584 1438.65 745.584 Q1443.05 745.584 1445.34 743.848 Q1447.65 742.112 1447.65 738.802 Q1447.65 735.746 1445.5 734.033 Q1443.37 732.297 1439.55 732.297 L1435.52 732.297 L1435.52 728.454 L1439.74 728.454 Q1443.19 728.454 1445.01 727.089 Q1446.84 725.7 1446.84 723.107 Q1446.84 720.445 1444.95 719.033 Q1443.07 717.598 1439.55 717.598 Q1437.63 717.598 1435.43 718.015 Q1433.23 718.431 1430.59 719.311 L1430.59 715.144 Q1433.26 714.404 1435.57 714.033 Q1437.91 713.663 1439.97 713.663 Q1445.29 713.663 1448.39 716.093 Q1451.5 718.501 1451.5 722.621 Q1451.5 725.492 1449.85 727.482 Q1448.21 729.45 1445.18 730.214 Z" fill="#000000" fill-rule="nonzero" fill-opacity="1"></path><path clip-path="url(#clip650)" d="M1471.17 717.367 Q1467.56 717.367 1465.73 720.931 Q1463.93 724.473 1463.93 731.603 Q1463.93 738.709 1465.73 742.274 Q1467.56 745.815 1471.17 745.815 Q1474.81 745.815 1476.61 742.274 Q1478.44 738.709 1478.44 731.603 Q1478.44 724.473 1476.61 720.931 Q1474.81 717.367 1471.17 717.367 M1471.17 713.663 Q1476.98 713.663 1480.04 718.269 Q1483.12 722.853 1483.12 731.603 Q1483.12 740.329 1480.04 744.936 Q1476.98 749.519 1471.17 749.519 Q1465.36 749.519 1462.28 744.936 Q1459.23 740.329 1459.23 731.603 Q1459.23 722.853 1462.28 718.269 Q1465.36 713.663 1471.17 713.663 Z" fill="#000000" fill-rule="nonzero" fill-opacity="1"></path><path clip-path="url(#clip650)" d="M1501.33 717.367 Q1497.72 717.367 1495.89 720.931 Q1494.09 724.473 1494.09 731.603 Q1494.09 738.709 1495.89 742.274 Q1497.72 745.815 1501.33 745.815 Q1504.97 745.815 1506.77 742.274 Q1508.6 738.709 1508.6 731.603 Q1508.6 724.473 1506.77 720.931 Q1504.97 717.367 1501.33 717.367 M1501.33 713.663 Q1507.14 713.663 1510.2 718.269 Q1513.28 722.853 1513.28 731.603 Q1513.28 740.329 1510.2 744.936 Q1507.14 749.519 1501.33 749.519 Q1495.52 749.519 1492.44 744.936 Q1489.39 740.329 1489.39 731.603 Q1489.39 722.853 1492.44 718.269 Q1495.52 713.663 1501.33 713.663 Z" fill="#000000" fill-rule="nonzero" fill-opacity="1"></path><path clip-path="url(#clip650)" d="M1854.49 718.362 L1842.68 736.811 L1854.49 736.811 L1854.49 718.362 M1853.26 714.288 L1859.14 714.288 L1859.14 736.811 L1864.07 736.811 L1864.07 740.7 L1859.14 740.7 L1859.14 748.848 L1854.49 748.848 L1854.49 740.7 L1838.89 740.7 L1838.89 736.186 L1853.26 714.288 Z" fill="#000000" fill-rule="nonzero" fill-opacity="1"></path><path clip-path="url(#clip650)" d="M1881.8 717.367 Q1878.19 717.367 1876.36 720.931 Q1874.56 724.473 1874.56 731.603 Q1874.56 738.709 1876.36 742.274 Q1878.19 745.815 1881.8 745.815 Q1885.44 745.815 1887.24 742.274 Q1889.07 738.709 1889.07 731.603 Q1889.07 724.473 1887.24 720.931 Q1885.44 717.367 1881.8 717.367 M1881.8 713.663 Q1887.61 713.663 1890.67 718.269 Q1893.75 722.853 1893.75 731.603 Q1893.75 740.329 1890.67 744.936 Q1887.61 749.519 1881.8 749.519 Q1875.99 749.519 1872.91 744.936 Q1869.86 740.329 1869.86 731.603 Q1869.86 722.853 1872.91 718.269 Q1875.99 713.663 1881.8 713.663 Z" fill="#000000" fill-rule="nonzero" fill-opacity="1"></path><path clip-path="url(#clip650)" d="M1911.97 717.367 Q1908.35 717.367 1906.53 720.931 Q1904.72 724.473 1904.72 731.603 Q1904.72 738.709 1906.53 742.274 Q1908.35 745.815 1911.97 745.815 Q1915.6 745.815 1917.4 742.274 Q1919.23 738.709 1919.23 731.603 Q1919.23 724.473 1917.4 720.931 Q1915.6 717.367 1911.97 717.367 M1911.97 713.663 Q1917.78 713.663 1920.83 718.269 Q1923.91 722.853 1923.91 731.603 Q1923.91 740.329 1920.83 744.936 Q1917.78 749.519 1911.97 749.519 Q1906.16 749.519 1903.08 744.936 Q1900.02 740.329 1900.02 731.603 Q1900.02 722.853 1903.08 718.269 Q1906.16 713.663 1911.97 713.663 Z" fill="#000000" fill-rule="nonzero" fill-opacity="1"></path><path clip-path="url(#clip650)" d="M2251 714.288 L2269.36 714.288 L2269.36 718.223 L2255.28 718.223 L2255.28 726.695 Q2256.3 726.348 2257.32 726.186 Q2258.34 726.001 2259.36 726.001 Q2265.14 726.001 2268.52 729.172 Q2271.9 732.343 2271.9 737.76 Q2271.9 743.339 2268.43 746.44 Q2264.96 749.519 2258.64 749.519 Q2256.46 749.519 2254.19 749.149 Q2251.95 748.778 2249.54 748.038 L2249.54 743.339 Q2251.62 744.473 2253.85 745.028 Q2256.07 745.584 2258.55 745.584 Q2262.55 745.584 2264.89 743.478 Q2267.23 741.371 2267.23 737.76 Q2267.23 734.149 2264.89 732.042 Q2262.55 729.936 2258.55 729.936 Q2256.67 729.936 2254.8 730.353 Q2252.94 730.769 2251 731.649 L2251 714.288 Z" fill="#000000" fill-rule="nonzero" fill-opacity="1"></path><path clip-path="url(#clip650)" d="M2291.12 717.367 Q2287.5 717.367 2285.68 720.931 Q2283.87 724.473 2283.87 731.603 Q2283.87 738.709 2285.68 742.274 Q2287.5 745.815 2291.12 745.815 Q2294.75 745.815 2296.56 742.274 Q2298.38 738.709 2298.38 731.603 Q2298.38 724.473 2296.56 720.931 Q2294.75 717.367 2291.12 717.367 M2291.12 713.663 Q2296.93 713.663 2299.98 718.269 Q2303.06 722.853 2303.06 731.603 Q2303.06 740.329 2299.98 744.936 Q2296.93 749.519 2291.12 749.519 Q2285.31 749.519 2282.23 744.936 Q2279.17 740.329 2279.17 731.603 Q2279.17 722.853 2282.23 718.269 Q2285.31 713.663 2291.12 713.663 Z" fill="#000000" fill-rule="nonzero" fill-opacity="1"></path><path clip-path="url(#clip650)" d="M2321.28 717.367 Q2317.67 717.367 2315.84 720.931 Q2314.03 724.473 2314.03 731.603 Q2314.03 738.709 2315.84 742.274 Q2317.67 745.815 2321.28 745.815 Q2324.91 745.815 2326.72 742.274 Q2328.55 738.709 2328.55 731.603 Q2328.55 724.473 2326.72 720.931 Q2324.91 717.367 2321.28 717.367 M2321.28 713.663 Q2327.09 713.663 2330.14 718.269 Q2333.22 722.853 2333.22 731.603 Q2333.22 740.329 2330.14 744.936 Q2327.09 749.519 2321.28 749.519 Q2315.47 749.519 2312.39 744.936 Q2309.33 740.329 2309.33 731.603 Q2309.33 722.853 2312.39 718.269 Q2315.47 713.663 2321.28 713.663 Z" fill="#000000" fill-rule="nonzero" fill-opacity="1"></path><polyline clip-path="url(#clip652)" style="stroke:#000000; stroke-linecap:round; stroke-linejoin:round; stroke-width:2; stroke-opacity:0.1; fill:none" points="184.191,541.987 2352.76,541.987 "></polyline>
<polyline clip-path="url(#clip652)" style="stroke:#000000; stroke-linecap:round; stroke-linejoin:round; stroke-width:2; stroke-opacity:0.1; fill:none" points="184.191,393.258 2352.76,393.258 "></polyline>
<polyline clip-path="url(#clip652)" style="stroke:#000000; stroke-linecap:round; stroke-linejoin:round; stroke-width:2; stroke-opacity:0.1; fill:none" points="184.191,244.529 2352.76,244.529 "></polyline>
<polyline clip-path="url(#clip652)" style="stroke:#000000; stroke-linecap:round; stroke-linejoin:round; stroke-width:2; stroke-opacity:0.1; fill:none" points="184.191,95.8009 2352.76,95.8009 "></polyline>
<polyline clip-path="url(#clip650)" style="stroke:#000000; stroke-linecap:round; stroke-linejoin:round; stroke-width:4; stroke-opacity:1; fill:none" points="184.191,686.448 184.191,47.2441 "></polyline>
<polyline clip-path="url(#clip650)" style="stroke:#000000; stroke-linecap:round; stroke-linejoin:round; stroke-width:4; stroke-opacity:1; fill:none" points="184.191,541.987 203.088,541.987 "></polyline>
<polyline clip-path="url(#clip650)" style="stroke:#000000; stroke-linecap:round; stroke-linejoin:round; stroke-width:4; stroke-opacity:1; fill:none" points="184.191,393.258 203.088,393.258 "></polyline>
<polyline clip-path="url(#clip650)" style="stroke:#000000; stroke-linecap:round; stroke-linejoin:round; stroke-width:4; stroke-opacity:1; fill:none" points="184.191,244.529 203.088,244.529 "></polyline>
<polyline clip-path="url(#clip650)" style="stroke:#000000; stroke-linecap:round; stroke-linejoin:round; stroke-width:4; stroke-opacity:1; fill:none" points="184.191,95.8009 203.088,95.8009 "></polyline>
<path clip-path="url(#clip650)" d="M51.6634 555.331 L59.3023 555.331 L59.3023 528.966 L50.9921 530.633 L50.9921 526.373 L59.256 524.707 L63.9319 524.707 L63.9319 555.331 L71.5707 555.331 L71.5707 559.267 L51.6634 559.267 L51.6634 555.331 Z" fill="#000000" fill-rule="nonzero" fill-opacity="1"></path><path clip-path="url(#clip650)" d="M91.0151 527.785 Q87.404 527.785 85.5753 531.35 Q83.7697 534.892 83.7697 542.021 Q83.7697 549.128 85.5753 552.693 Q87.404 556.234 91.0151 556.234 Q94.6493 556.234 96.4548 552.693 Q98.2835 549.128 98.2835 542.021 Q98.2835 534.892 96.4548 531.35 Q94.6493 527.785 91.0151 527.785 M91.0151 524.082 Q96.8252 524.082 99.8808 528.688 Q102.959 533.271 102.959 542.021 Q102.959 550.748 99.8808 555.355 Q96.8252 559.938 91.0151 559.938 Q85.2049 559.938 82.1262 555.355 Q79.0707 550.748 79.0707 542.021 Q79.0707 533.271 82.1262 528.688 Q85.2049 524.082 91.0151 524.082 Z" fill="#000000" fill-rule="nonzero" fill-opacity="1"></path><path clip-path="url(#clip650)" d="M111.177 553.387 L116.061 553.387 L116.061 559.267 L111.177 559.267 L111.177 553.387 Z" fill="#000000" fill-rule="nonzero" fill-opacity="1"></path><path clip-path="url(#clip650)" d="M136.246 527.785 Q132.635 527.785 130.807 531.35 Q129.001 534.892 129.001 542.021 Q129.001 549.128 130.807 552.693 Q132.635 556.234 136.246 556.234 Q139.881 556.234 141.686 552.693 Q143.515 549.128 143.515 542.021 Q143.515 534.892 141.686 531.35 Q139.881 527.785 136.246 527.785 M136.246 524.082 Q142.056 524.082 145.112 528.688 Q148.191 533.271 148.191 542.021 Q148.191 550.748 145.112 555.355 Q142.056 559.938 136.246 559.938 Q130.436 559.938 127.357 555.355 Q124.302 550.748 124.302 542.021 Q124.302 533.271 127.357 528.688 Q130.436 524.082 136.246 524.082 Z" fill="#000000" fill-rule="nonzero" fill-opacity="1"></path><path clip-path="url(#clip650)" d="M52.6588 406.603 L60.2976 406.603 L60.2976 380.237 L51.9875 381.904 L51.9875 377.645 L60.2513 375.978 L64.9272 375.978 L64.9272 406.603 L72.5661 406.603 L72.5661 410.538 L52.6588 410.538 L52.6588 406.603 Z" fill="#000000" fill-rule="nonzero" fill-opacity="1"></path><path clip-path="url(#clip650)" d="M92.0104 379.057 Q88.3993 379.057 86.5706 382.622 Q84.7651 386.163 84.7651 393.293 Q84.7651 400.399 86.5706 403.964 Q88.3993 407.506 92.0104 407.506 Q95.6447 407.506 97.4502 403.964 Q99.2789 400.399 99.2789 393.293 Q99.2789 386.163 97.4502 382.622 Q95.6447 379.057 92.0104 379.057 M92.0104 375.353 Q97.8206 375.353 100.876 379.96 Q103.955 384.543 103.955 393.293 Q103.955 402.02 100.876 406.626 Q97.8206 411.209 92.0104 411.209 Q86.2003 411.209 83.1216 406.626 Q80.066 402.02 80.066 393.293 Q80.066 384.543 83.1216 379.96 Q86.2003 375.353 92.0104 375.353 Z" fill="#000000" fill-rule="nonzero" fill-opacity="1"></path><path clip-path="url(#clip650)" d="M112.172 404.658 L117.057 404.658 L117.057 410.538 L112.172 410.538 L112.172 404.658 Z" fill="#000000" fill-rule="nonzero" fill-opacity="1"></path><path clip-path="url(#clip650)" d="M127.288 375.978 L145.644 375.978 L145.644 379.913 L131.57 379.913 L131.57 388.385 Q132.589 388.038 133.607 387.876 Q134.626 387.691 135.644 387.691 Q141.431 387.691 144.811 390.862 Q148.191 394.033 148.191 399.45 Q148.191 405.029 144.718 408.131 Q141.246 411.209 134.927 411.209 Q132.751 411.209 130.482 410.839 Q128.237 410.469 125.83 409.728 L125.83 405.029 Q127.913 406.163 130.135 406.719 Q132.357 407.274 134.834 407.274 Q138.839 407.274 141.177 405.168 Q143.515 403.061 143.515 399.45 Q143.515 395.839 141.177 393.733 Q138.839 391.626 134.834 391.626 Q132.959 391.626 131.084 392.043 Q129.232 392.459 127.288 393.339 L127.288 375.978 Z" fill="#000000" fill-rule="nonzero" fill-opacity="1"></path><path clip-path="url(#clip650)" d="M51.6634 257.874 L59.3023 257.874 L59.3023 231.509 L50.9921 233.175 L50.9921 228.916 L59.256 227.249 L63.9319 227.249 L63.9319 257.874 L71.5707 257.874 L71.5707 261.809 L51.6634 261.809 L51.6634 257.874 Z" fill="#000000" fill-rule="nonzero" fill-opacity="1"></path><path clip-path="url(#clip650)" d="M81.8253 257.874 L89.4641 257.874 L89.4641 231.509 L81.154 233.175 L81.154 228.916 L89.4178 227.249 L94.0937 227.249 L94.0937 257.874 L101.733 257.874 L101.733 261.809 L81.8253 261.809 L81.8253 257.874 Z" fill="#000000" fill-rule="nonzero" fill-opacity="1"></path><path clip-path="url(#clip650)" d="M111.177 255.93 L116.061 255.93 L116.061 261.809 L111.177 261.809 L111.177 255.93 Z" fill="#000000" fill-rule="nonzero" fill-opacity="1"></path><path clip-path="url(#clip650)" d="M136.246 230.328 Q132.635 230.328 130.807 233.893 Q129.001 237.435 129.001 244.564 Q129.001 251.671 130.807 255.235 Q132.635 258.777 136.246 258.777 Q139.881 258.777 141.686 255.235 Q143.515 251.671 143.515 244.564 Q143.515 237.435 141.686 233.893 Q139.881 230.328 136.246 230.328 M136.246 226.624 Q142.056 226.624 145.112 231.231 Q148.191 235.814 148.191 244.564 Q148.191 253.291 145.112 257.897 Q142.056 262.481 136.246 262.481 Q130.436 262.481 127.357 257.897 Q124.302 253.291 124.302 244.564 Q124.302 235.814 127.357 231.231 Q130.436 226.624 136.246 226.624 Z" fill="#000000" fill-rule="nonzero" fill-opacity="1"></path><path clip-path="url(#clip650)" d="M52.6588 109.146 L60.2976 109.146 L60.2976 82.7801 L51.9875 84.4468 L51.9875 80.1875 L60.2513 78.5209 L64.9272 78.5209 L64.9272 109.146 L72.5661 109.146 L72.5661 113.081 L52.6588 113.081 L52.6588 109.146 Z" fill="#000000" fill-rule="nonzero" fill-opacity="1"></path><path clip-path="url(#clip650)" d="M82.8207 109.146 L90.4595 109.146 L90.4595 82.7801 L82.1494 84.4468 L82.1494 80.1875 L90.4132 78.5209 L95.0891 78.5209 L95.0891 109.146 L102.728 109.146 L102.728 113.081 L82.8207 113.081 L82.8207 109.146 Z" fill="#000000" fill-rule="nonzero" fill-opacity="1"></path><path clip-path="url(#clip650)" d="M112.172 107.201 L117.057 107.201 L117.057 113.081 L112.172 113.081 L112.172 107.201 Z" fill="#000000" fill-rule="nonzero" fill-opacity="1"></path><path clip-path="url(#clip650)" d="M127.288 78.5209 L145.644 78.5209 L145.644 82.456 L131.57 82.456 L131.57 90.9282 Q132.589 90.581 133.607 90.4189 Q134.626 90.2338 135.644 90.2338 Q141.431 90.2338 144.811 93.405 Q148.191 96.5763 148.191 101.993 Q148.191 107.572 144.718 110.673 Q141.246 113.752 134.927 113.752 Q132.751 113.752 130.482 113.382 Q128.237 113.011 125.83 112.271 L125.83 107.572 Q127.913 108.706 130.135 109.261 Q132.357 109.817 134.834 109.817 Q138.839 109.817 141.177 107.711 Q143.515 105.604 143.515 101.993 Q143.515 98.3819 141.177 96.2754 Q138.839 94.1689 134.834 94.1689 Q132.959 94.1689 131.084 94.5856 Q129.232 95.0022 127.288 95.8819 L127.288 78.5209 Z" fill="#000000" fill-rule="nonzero" fill-opacity="1"></path><polyline clip-path="url(#clip652)" style="stroke:#009af9; stroke-linecap:round; stroke-linejoin:round; stroke-width:4; stroke-opacity:1; fill:none" points="245.565,65.3348 249.665,151.901 253.765,208.757 257.865,261.548 261.964,313.725 266.064,363.733 270.164,412.926 274.264,456.339 278.364,496.275 282.464,529.328 286.563,550.774 290.663,567.836 294.763,575.367 298.863,577.498 302.963,578.955 307.063,578.378 311.162,579.057 315.262,578.862 319.362,580.713 323.462,580.776 327.562,581.193 331.662,581.465 335.761,581.935 339.861,582.205 343.961,582.532 348.061,582.719 352.161,583.002 356.261,583.286 360.36,583.811 364.46,583.744 368.56,584.413 372.66,584.585 376.76,585.239 380.86,585.836 384.959,586.024 389.059,586.66 393.159,586.946 397.259,587.523 401.359,587.993 405.459,588.706 409.558,588.965 413.658,589.751 417.758,590.178 421.858,590.809 425.958,590.836 430.058,591.905 434.157,592.708 438.257,593.014 442.357,594.006 446.457,594.768 450.557,595.273 454.657,596.106 458.756,596.206 462.856,597.284 466.956,596.936 471.056,598.11 475.156,598.832 479.256,599.682 483.355,600.265 487.455,600.883 491.555,601.355 495.655,602.009 499.755,601.867 503.855,601.902 507.954,603.13 512.054,604.01 516.154,604.418 520.254,604.542 524.354,605.854 528.454,606.039 532.553,606.706 536.653,607.004 540.753,607.401 544.853,608.19 548.953,608.013 553.053,607.483 557.152,608.809 561.252,609.922 565.352,610.384 569.452,611.021 573.552,610.851 577.652,611.904 581.751,612.066 585.851,612.853 589.951,613.2 594.051,613.647 598.151,613.972 602.251,614.205 606.35,613.903 610.45,615.08 614.55,614.511 618.65,615.214 622.75,615.251 626.85,616.083 630.949,616.952 635.049,617.587 639.149,617.27 643.249,618.015 647.349,617.803 651.449,618.519 655.548,618.888 659.648,618.559 663.748,619.263 667.848,619.283 671.948,620.09 676.048,620.16 680.147,620.554 684.247,620.251 688.347,619.965 692.447,621.611 696.547,621.562 700.647,621.725 704.746,621.793 708.846,622.236 712.946,622.675 717.046,621.901 721.146,622.785 725.246,623.106 729.345,622.568 733.445,623.862 737.545,623.16 741.645,624.041 745.745,623.949 749.845,624.428 753.944,622.952 758.044,624.525 762.144,624.36 766.244,625.129 770.344,625.07 774.444,625.594 778.543,625.397 782.643,625.856 786.743,625.674 790.843,626.212 794.943,625.708 799.043,625.864 803.142,625.943 807.242,626.837 811.342,626.716 815.442,626.567 819.542,626.036 823.642,627.278 827.741,627.228 831.841,627.91 835.941,627.594 840.041,627.819 844.141,628.039 848.24,625.484 852.34,625.976 856.44,627.24 860.54,626.801 864.64,628.952 868.74,628.629 872.839,629.134 876.939,629.45 881.039,629.199 885.139,629.117 889.239,629.554 893.339,629.486 897.438,629.71 901.538,629.825 905.638,630.165 909.738,630.322 913.838,630.477 917.938,631.051 922.037,630.672 926.137,630.786 930.237,631.178 934.337,631.323 938.437,631.749 942.537,631.614 946.636,630.873 950.736,632.168 954.836,631.873 958.936,631.616 963.036,632.647 967.136,632.016 971.235,632.526 975.335,632.779 979.435,633.241 983.535,633.163 987.635,633.675 991.735,633.591 995.834,633.615 999.934,633.911 1004.03,633.854 1008.13,634.536 1012.23,634.083 1016.33,634.393 1020.43,634.58 1024.53,634.629 1028.63,634.08 1032.73,631.252 1036.83,632.921 1040.93,634.573 1045.03,634.069 1049.13,635.067 1053.23,634.709 1057.33,635.996 1061.43,635.625 1065.53,636.856 1069.63,636.339 1073.73,636.421 1077.83,637.221 1081.93,636.413 1086.03,637.609 1090.13,636.476 1094.23,637.974 1098.33,636.971 1102.43,637.867 1106.53,637.466 1110.63,638.382 1114.73,638.679 1118.83,638.672 1122.93,638.691 1127.03,638.947 1131.13,638.847 1135.23,639.751 1139.33,639.212 1143.43,639.555 1147.53,639.892 1151.63,639.982 1155.73,640.538 1159.83,640.291 1163.93,641.21 1168.03,640.067 1172.13,641.036 1176.23,641.456 1180.33,640.903 1184.43,640.826 1188.53,641.667 1192.63,642.104 1196.73,641.671 1200.83,641.747 1204.93,642.591 1209.03,642.614 1213.13,642.021 1217.23,643.274 1221.33,642.867 1225.43,642.608 1229.52,642.803 1233.62,643.346 1237.72,643.986 1241.82,644.22 1245.92,644.638 1250.02,644.563 1254.12,644.019 1258.22,645.111 1262.32,645.165 1266.42,645.322 1270.52,645.661 1274.62,645.173 1278.72,645.934 1282.82,645.878 1286.92,646.574 1291.02,646.679 1295.12,646.294 1299.22,647.045 1303.32,646.979 1307.42,646.45 1311.52,647.413 1315.62,647.245 1319.72,647.968 1323.82,647.808 1327.92,647.649 1332.02,647.672 1336.12,648.422 1340.22,647.814 1344.32,648.68 1348.42,647.809 1352.52,649.206 1356.62,648.7 1360.72,646.886 1364.82,649.489 1368.92,648.808 1373.02,649.201 1377.12,649.918 1381.22,649.164 1385.32,649.998 1389.42,649.782 1393.52,650.267 1397.62,650.126 1401.72,650.253 1405.82,650.215 1409.92,649.276 1414.02,650.788 1418.12,650.201 1422.22,650.655 1426.32,650.931 1430.42,651.008 1434.52,651.131 1438.62,651.796 1442.72,651.806 1446.82,652.244 1450.92,651.739 1455.02,652.069 1459.12,652.657 1463.22,652.316 1467.32,652.905 1471.41,652.982 1475.51,653.095 1479.61,652.57 1483.71,653.125 1487.81,653.229 1491.91,652.492 1496.01,652.537 1500.11,653.637 1504.21,653.181 1508.31,653.346 1512.41,652.923 1516.51,652.559 1520.61,654.38 1524.71,653.055 1528.81,653.954 1532.91,652.958 1537.01,652.809 1541.11,654.655 1545.21,653.758 1549.31,654.382 1553.41,655.134 1557.51,653.949 1561.61,655.225 1565.71,653.823 1569.81,654.199 1573.91,655.638 1578.01,655.43 1582.11,655.266 1586.21,655.062 1590.31,654.855 1594.41,655.227 1598.51,655.953 1602.61,656.137 1606.71,655.687 1610.81,656.094 1614.91,655.435 1619.01,655.965 1623.11,656.453 1627.21,656.392 1631.31,655.921 1635.41,656.298 1639.51,656.079 1643.61,656.876 1647.71,656.724 1651.81,656.964 1655.91,657.307 1660.01,657.02 1664.11,657.518 1668.21,655.875 1672.31,656.307 1676.41,657.115 1680.51,657.069 1684.61,656.566 1688.71,657.774 1692.81,657.724 1696.91,657.825 1701.01,657.187 1705.11,656.607 1709.21,657.23 1713.31,658.177 1717.4,656.978 1721.5,656.532 1725.6,659.053 1729.7,657.934 1733.8,657.262 1737.9,659.362 1742,657.413 1746.1,655.712 1750.2,659.825 1754.3,656.47 1758.4,659.091 1762.5,657.378 1766.6,658.771 1770.7,659.619 1774.8,659.792 1778.9,659.337 1783,659.249 1787.1,658.852 1791.2,657.864 1795.3,660.488 1799.4,658.876 1803.5,659.01 1807.6,658.178 1811.7,659.922 1815.8,658.611 1819.9,659.364 1824,659.961 1828.1,659.94 1832.2,658.244 1836.3,660.104 1840.4,660.264 1844.5,660.372 1848.6,660.853 1852.7,661.192 1856.8,660.516 1860.9,660.477 1865,661.061 1869.1,660.519 1873.2,659.982 1877.3,661.342 1881.4,661.333 1885.5,661.376 1889.6,661.406 1893.7,661.858 1897.8,661.5 1901.9,662.251 1906,661.888 1910.1,662.182 1914.2,662.648 1918.3,661.182 1922.4,662.175 1926.5,662.052 1930.6,662.835 1934.7,661.667 1938.8,662.509 1942.9,662.511 1947,662.501 1951.1,663.382 1955.2,663.208 1959.3,662.586 1963.39,663.033 1967.49,662.981 1971.59,663.015 1975.69,663.391 1979.79,660.816 1983.89,662.669 1987.99,662.487 1992.09,663.16 1996.19,664.132 2000.29,664.04 2004.39,662.533 2008.49,663.792 2012.59,662.588 2016.69,662.828 2020.79,663.727 2024.89,663.798 2028.99,664.12 2033.09,664.619 2037.19,664.321 2041.29,662.972 2045.39,664.128 2049.49,663.668 2053.59,664.664 2057.69,664.115 2061.79,664.948 2065.89,664.498 2069.99,664.225 2074.09,664.185 2078.19,664.635 2082.29,662.161 2086.39,666.694 2090.49,663.427 2094.59,662.88 2098.69,664.787 2102.79,664.167 2106.89,665.391 2110.99,665.741 2115.09,664.792 2119.19,665.817 2123.29,665.746 2127.39,665.293 2131.49,665.411 2135.59,665.538 2139.69,665.996 2143.79,665.753 2147.89,666.113 2151.99,665.881 2156.09,666.333 2160.19,666.067 2164.29,666.857 2168.39,664.984 2172.49,666.193 2176.59,665.815 2180.69,666.061 2184.79,665.933 2188.89,665.635 2192.99,666.452 2197.09,666.396 2201.19,666.795 2205.28,666.631 2209.38,666.639 2213.48,666.908 2217.58,666.954 2221.68,663.321 2225.78,663.02 2229.88,667.638 2233.98,665.888 2238.08,668.041 2242.18,666.805 2246.28,667.114 2250.38,667.186 2254.48,667.339 2258.58,667.731 2262.68,667.641 2266.78,667.999 2270.88,666.762 2274.98,667.805 2279.08,668.341 2283.18,667.817 2287.28,664.275 2291.38,668.357 "></polyline>
<polyline clip-path="url(#clip652)" style="stroke:#e26f46; stroke-linecap:round; stroke-linejoin:round; stroke-width:4; stroke-opacity:1; fill:none" points="245.565,163.907 249.665,221.359 253.765,269.112 257.865,319.438 261.964,372.116 266.064,423.833 270.164,470.848 274.264,512.346 278.364,545.484 282.464,570.218 286.563,585.077 290.663,591.528 294.763,592.358 298.863,589.998 302.963,587.241 307.063,585.422 311.162,584.937 315.262,585.214 319.362,586.142 323.462,586.532 327.562,587.569 331.662,588.118 335.761,589.763 339.861,590.517 343.961,590.659 348.061,590.602 352.161,590.815 356.261,591.451 360.36,591.571 364.46,592.139 368.56,593.336 372.66,593.237 376.76,594.151 380.86,594.134 384.959,593.839 389.059,594.788 393.159,596.169 397.259,597.048 401.359,598.19 405.459,598.826 409.558,599.435 413.658,598.909 417.758,599.493 421.858,601.195 425.958,601.696 430.058,602.481 434.157,602.66 438.257,603.705 442.357,604.926 446.457,605.933 450.557,606.556 454.657,607.526 458.756,607.88 462.856,608.671 466.956,609.4 471.056,609.686 475.156,611.24 479.256,612.101 483.355,612.507 487.455,612.983 491.555,613.712 495.655,614.162 499.755,614.962 503.855,613.771 507.954,616.827 512.054,618.457 516.154,618.003 520.254,617.686 524.354,618.787 528.454,618.939 532.553,619.586 536.653,620.831 540.753,620.916 544.853,621.636 548.953,621.719 553.053,622.839 557.152,621.728 561.252,622.861 565.352,623.484 569.452,623.924 573.552,623.357 577.652,625.179 581.751,626.435 585.851,626.338 589.951,626.151 594.051,626.241 598.151,626.263 602.251,625.266 606.35,624.284 610.45,627.637 614.55,628.652 618.65,626.846 622.75,629.341 626.85,629.16 630.949,629.107 635.049,626.616 639.149,628.629 643.249,629.542 647.349,629.999 651.449,629.938 655.548,629.588 659.648,629.077 663.748,630.161 667.848,630.604 671.948,631.408 676.048,631.725 680.147,630.966 684.247,630.018 688.347,630.814 692.447,632.783 696.547,633.076 700.647,631.639 704.746,630.135 708.846,630.987 712.946,632.601 717.046,632.521 721.146,631.035 725.246,632.46 729.345,632.154 733.445,630.79 737.545,631.91 741.645,633.037 745.745,633.284 749.845,633.009 753.944,631.563 758.044,632.289 762.144,631.047 766.244,632.462 770.344,632.585 774.444,632.909 778.543,632.085 782.643,632.879 786.743,633.027 790.843,632.841 794.943,633.255 799.043,633.049 803.142,632.868 807.242,632.728 811.342,632.461 815.442,631.164 819.542,632.526 823.642,632.315 827.741,631.389 831.841,633.534 835.941,633.727 840.041,632.679 844.141,633.37 848.24,632.86 852.34,628.074 856.44,632.25 860.54,632.319 864.64,632.056 868.74,633.295 872.839,633.292 876.939,633.496 881.039,633.912 885.139,630.787 889.239,632.825 893.339,633.544 897.438,632.314 901.538,633.54 905.638,631.908 909.738,632.173 913.838,634.148 917.938,632.079 922.037,632.859 926.137,632.547 930.237,632.966 934.337,633.792 938.437,632.877 942.537,632.833 946.636,631.176 950.736,632.962 954.836,633.088 958.936,632.913 963.036,633.729 967.136,632.53 971.235,631.033 975.335,633.406 979.435,633.26 983.535,633.128 987.635,633.554 991.735,633.03 995.834,632.128 999.934,631.369 1004.03,632.356 1008.13,633.769 1012.23,634.341 1016.33,631.932 1020.43,631.727 1024.53,632.953 1028.63,632.857 1032.73,632.595 1036.83,632.132 1040.93,629.988 1045.03,631.182 1049.13,634.986 1053.23,632.678 1057.33,632.175 1061.43,631.995 1065.53,631.043 1069.63,633.84 1073.73,633.383 1077.83,632.667 1081.93,632.395 1086.03,630.066 1090.13,632.337 1094.23,633.923 1098.33,634.893 1102.43,631.039 1106.53,630.69 1110.63,631.389 1114.73,633.967 1118.83,634.823 1122.93,632.742 1127.03,630.95 1131.13,631.917 1135.23,633.116 1139.33,634.535 1143.43,632.612 1147.53,632.224 1151.63,630.984 1155.73,632.419 1159.83,632.257 1163.93,634.756 1168.03,634.168 1172.13,631.185 1176.23,633.19 1180.33,632.639 1184.43,631.541 1188.53,634.034 1192.63,633.425 1196.73,631.233 1200.83,633.365 1204.93,631.97 1209.03,632.493 1213.13,634.44 1217.23,630.02 1221.33,631.767 1225.43,634.413 1229.52,631.739 1233.62,633.849 1237.72,633.378 1241.82,631.697 1245.92,631.064 1250.02,634.192 1254.12,633.592 1258.22,632.209 1262.32,633.181 1266.42,633.5 1270.52,631.44 1274.62,630.422 1278.72,632.068 1282.82,635.006 1286.92,634.378 1291.02,633.225 1295.12,631.964 1299.22,629.91 1303.32,631.918 1307.42,633.778 1311.52,631.042 1315.62,630.649 1319.72,632.35 1323.82,632.597 1327.92,632.338 1332.02,632.111 1336.12,631.234 1340.22,632.347 1344.32,632.897 1348.42,630.837 1352.52,631.485 1356.62,631.8 1360.72,630.908 1364.82,632.038 1368.92,630.47 1373.02,629.711 1377.12,633.281 1381.22,632.696 1385.32,632.033 1389.42,628.292 1393.52,630.469 1397.62,631.262 1401.72,630.771 1405.82,633.178 1409.92,628.727 1414.02,629.76 1418.12,632.24 1422.22,630.119 1426.32,632.306 1430.42,629.572 1434.52,626.884 1438.62,631.469 1442.72,632.827 1446.82,630.072 1450.92,630.121 1455.02,628.718 1459.12,630.81 1463.22,630.233 1467.32,629.73 1471.41,630.334 1475.51,630.281 1479.61,627.764 1483.71,629.19 1487.81,629.787 1491.91,631.494 1496.01,626.842 1500.11,630.316 1504.21,631.707 1508.31,627.449 1512.41,628.68 1516.51,627.764 1520.61,630.529 1524.71,629.843 1528.81,626.301 1532.91,630.026 1537.01,626.888 1541.11,630.9 1545.21,628.967 1549.31,628.468 1553.41,629.188 1557.51,628.672 1561.61,625.859 1565.71,629.903 1569.81,630.459 1573.91,629.201 1578.01,627.37 1582.11,629.587 1586.21,625.724 1590.31,629.315 1594.41,628.872 1598.51,630.209 1602.61,626.337 1606.71,626.99 1610.81,630.399 1614.91,628.881 1619.01,626.532 1623.11,628.255 1627.21,628.488 1631.31,628.233 1635.41,630.223 1639.51,625.369 1643.61,628.631 1647.71,628.832 1651.81,625.665 1655.91,627.45 1660.01,628.449 1664.11,628.396 1668.21,626.244 1672.31,625.43 1676.41,630.17 1680.51,626.961 1684.61,629.184 1688.71,627.779 1692.81,625.723 1696.91,627.037 1701.01,627.457 1705.11,628.357 1709.21,625.578 1713.31,627.581 1717.4,627.949 1721.5,624.405 1725.6,628.004 1729.7,627.002 1733.8,623.754 1737.9,627.688 1742,627.606 1746.1,626.114 1750.2,629.354 1754.3,627.256 1758.4,619.888 1762.5,628.858 1766.6,627.791 1770.7,627.874 1774.8,627.524 1778.9,624.785 1783,627.397 1787.1,625.904 1791.2,627.727 1795.3,624.596 1799.4,625.16 1803.5,628.477 1807.6,623.873 1811.7,625.374 1815.8,628.552 1819.9,621.923 1824,626.634 1828.1,627.027 1832.2,624.358 1836.3,626.529 1840.4,625.489 1844.5,627.688 1848.6,625.694 1852.7,625.563 1856.8,625.43 1860.9,625.811 1865,627.497 1869.1,625.117 1873.2,625.599 1877.3,625.34 1881.4,626.151 1885.5,625.254 1889.6,624.951 1893.7,626.187 1897.8,625.012 1901.9,626.198 1906,626.132 1910.1,623.001 1914.2,625.884 1918.3,626.334 1922.4,625.827 1926.5,624.127 1930.6,625.145 1934.7,624.769 1938.8,622.21 1942.9,626.956 1947,626.219 1951.1,623.006 1955.2,624.624 1959.3,623.564 1963.39,621.926 1967.49,625.596 1971.59,625.243 1975.69,623.414 1979.79,622.142 1983.89,622.799 1987.99,622.796 1992.09,625.664 1996.19,626.006 2000.29,623.969 2004.39,623.845 2008.49,618.59 2012.59,622.627 2016.69,623.685 2020.79,626.844 2024.89,624.081 2028.99,622.836 2033.09,623.048 2037.19,622.578 2041.29,625.349 2045.39,620.496 2049.49,623.652 2053.59,622.64 2057.69,620.919 2061.79,624.168 2065.89,623.921 2069.99,622.896 2074.09,617.874 2078.19,623.422 2082.29,625.558 2086.39,618.982 2090.49,621.537 2094.59,621.651 2098.69,618.558 2102.79,625.366 2106.89,623.058 2110.99,621.574 2115.09,622.567 2119.19,619.449 2123.29,623.849 2127.39,622.483 2131.49,623.077 2135.59,619.718 2139.69,620.578 2143.79,624.986 2147.89,621.93 2151.99,619.37 2156.09,621.404 2160.19,619.462 2164.29,623.755 2168.39,623.247 2172.49,617.667 2176.59,622.879 2180.69,621.39 2184.79,622.097 2188.89,622.137 2192.99,617.982 2197.09,622.904 2201.19,620.438 2205.28,622.168 2209.38,620.934 2213.48,620.215 2217.58,620.58 2221.68,623.494 2225.78,621.003 2229.88,615.61 2233.98,622.121 2238.08,621.743 2242.18,618.277 2246.28,620.063 2250.38,623.103 2254.48,619.88 2258.58,621.845 2262.68,623.038 2266.78,619.511 2270.88,619.853 2274.98,619.657 2279.08,620.799 2283.18,622.743 2287.28,622.689 2291.38,613.927 "></polyline>
<path clip-path="url(#clip650)" d="M1958.57 224.071 L2280.47 224.071 L2280.47 68.5509 L1958.57 68.5509  Z" fill="#ffffff" fill-rule="evenodd" fill-opacity="1"></path>
<polyline clip-path="url(#clip650)" style="stroke:#000000; stroke-linecap:round; stroke-linejoin:round; stroke-width:4; stroke-opacity:1; fill:none" points="1958.57,224.071 2280.47,224.071 2280.47,68.5509 1958.57,68.5509 1958.57,224.071 "></polyline>
<polyline clip-path="url(#clip650)" style="stroke:#009af9; stroke-linecap:round; stroke-linejoin:round; stroke-width:4; stroke-opacity:1; fill:none" points="1982.66,120.391 2127.23,120.391 "></polyline>
<path clip-path="url(#clip650)" d="M2158.74 104.384 L2158.74 111.745 L2167.51 111.745 L2167.51 115.055 L2158.74 115.055 L2158.74 129.129 Q2158.74 132.301 2159.59 133.203 Q2160.47 134.106 2163.13 134.106 L2167.51 134.106 L2167.51 137.671 L2163.13 137.671 Q2158.2 137.671 2156.33 135.842 Q2154.45 133.99 2154.45 129.129 L2154.45 115.055 L2151.33 115.055 L2151.33 111.745 L2154.45 111.745 L2154.45 104.384 L2158.74 104.384 Z" fill="#000000" fill-rule="nonzero" fill-opacity="1"></path><path clip-path="url(#clip650)" d="M2188.13 115.727 Q2187.42 115.31 2186.56 115.125 Q2185.73 114.916 2184.71 114.916 Q2181.1 114.916 2179.15 117.277 Q2177.23 119.615 2177.23 124.014 L2177.23 137.671 L2172.95 137.671 L2172.95 111.745 L2177.23 111.745 L2177.23 115.773 Q2178.57 113.412 2180.73 112.278 Q2182.88 111.12 2185.96 111.12 Q2186.4 111.12 2186.93 111.19 Q2187.46 111.236 2188.11 111.352 L2188.13 115.727 Z" fill="#000000" fill-rule="nonzero" fill-opacity="1"></path><path clip-path="url(#clip650)" d="M2204.38 124.639 Q2199.22 124.639 2197.23 125.819 Q2195.24 127 2195.24 129.847 Q2195.24 132.115 2196.72 133.458 Q2198.23 134.777 2200.8 134.777 Q2204.34 134.777 2206.47 132.277 Q2208.62 129.754 2208.62 125.588 L2208.62 124.639 L2204.38 124.639 M2212.88 122.879 L2212.88 137.671 L2208.62 137.671 L2208.62 133.736 Q2207.16 136.097 2204.99 137.231 Q2202.81 138.342 2199.66 138.342 Q2195.68 138.342 2193.32 136.12 Q2190.98 133.875 2190.98 130.125 Q2190.98 125.75 2193.9 123.527 Q2196.84 121.305 2202.65 121.305 L2208.62 121.305 L2208.62 120.889 Q2208.62 117.949 2206.68 116.352 Q2204.76 114.731 2201.26 114.731 Q2199.04 114.731 2196.93 115.264 Q2194.82 115.796 2192.88 116.861 L2192.88 112.926 Q2195.22 112.023 2197.42 111.583 Q2199.62 111.12 2201.7 111.12 Q2207.32 111.12 2210.1 114.037 Q2212.88 116.953 2212.88 122.879 Z" fill="#000000" fill-rule="nonzero" fill-opacity="1"></path><path clip-path="url(#clip650)" d="M2221.65 111.745 L2225.91 111.745 L2225.91 137.671 L2221.65 137.671 L2221.65 111.745 M2221.65 101.653 L2225.91 101.653 L2225.91 107.046 L2221.65 107.046 L2221.65 101.653 Z" fill="#000000" fill-rule="nonzero" fill-opacity="1"></path><path clip-path="url(#clip650)" d="M2256.38 122.023 L2256.38 137.671 L2252.12 137.671 L2252.12 122.162 Q2252.12 118.481 2250.68 116.652 Q2249.25 114.824 2246.38 114.824 Q2242.93 114.824 2240.94 117.023 Q2238.94 119.222 2238.94 123.018 L2238.94 137.671 L2234.66 137.671 L2234.66 111.745 L2238.94 111.745 L2238.94 115.773 Q2240.47 113.435 2242.53 112.278 Q2244.62 111.12 2247.32 111.12 Q2251.79 111.12 2254.08 113.898 Q2256.38 116.652 2256.38 122.023 Z" fill="#000000" fill-rule="nonzero" fill-opacity="1"></path><polyline clip-path="url(#clip650)" style="stroke:#e26f46; stroke-linecap:round; stroke-linejoin:round; stroke-width:4; stroke-opacity:1; fill:none" points="1982.66,172.231 2127.23,172.231 "></polyline>
<path clip-path="url(#clip650)" d="M2158.74 156.224 L2158.74 163.585 L2167.51 163.585 L2167.51 166.895 L2158.74 166.895 L2158.74 180.969 Q2158.74 184.141 2159.59 185.043 Q2160.47 185.946 2163.13 185.946 L2167.51 185.946 L2167.51 189.511 L2163.13 189.511 Q2158.2 189.511 2156.33 187.682 Q2154.45 185.83 2154.45 180.969 L2154.45 166.895 L2151.33 166.895 L2151.33 163.585 L2154.45 163.585 L2154.45 156.224 L2158.74 156.224 Z" fill="#000000" fill-rule="nonzero" fill-opacity="1"></path><path clip-path="url(#clip650)" d="M2195.29 175.483 L2195.29 177.567 L2175.7 177.567 Q2175.98 181.965 2178.34 184.279 Q2180.73 186.571 2184.96 186.571 Q2187.42 186.571 2189.71 185.969 Q2192.02 185.367 2194.29 184.164 L2194.29 188.191 Q2192 189.164 2189.59 189.673 Q2187.19 190.182 2184.71 190.182 Q2178.51 190.182 2174.87 186.571 Q2171.26 182.96 2171.26 176.803 Q2171.26 170.437 2174.69 166.71 Q2178.13 162.96 2183.97 162.96 Q2189.2 162.96 2192.23 166.34 Q2195.29 169.696 2195.29 175.483 M2191.03 174.233 Q2190.98 170.738 2189.06 168.655 Q2187.16 166.571 2184.01 166.571 Q2180.45 166.571 2178.3 168.585 Q2176.17 170.599 2175.84 174.256 L2191.03 174.233 Z" fill="#000000" fill-rule="nonzero" fill-opacity="1"></path><path clip-path="url(#clip650)" d="M2218.81 164.349 L2218.81 168.377 Q2217 167.451 2215.06 166.988 Q2213.11 166.525 2211.03 166.525 Q2207.86 166.525 2206.26 167.497 Q2204.69 168.469 2204.69 170.414 Q2204.69 171.895 2205.82 172.752 Q2206.95 173.585 2210.38 174.349 L2211.84 174.673 Q2216.38 175.645 2218.27 177.428 Q2220.19 179.187 2220.19 182.358 Q2220.19 185.969 2217.32 188.076 Q2214.48 190.182 2209.48 190.182 Q2207.39 190.182 2205.13 189.766 Q2202.88 189.372 2200.38 188.562 L2200.38 184.164 Q2202.74 185.391 2205.03 186.016 Q2207.32 186.617 2209.57 186.617 Q2212.58 186.617 2214.2 185.599 Q2215.82 184.557 2215.82 182.682 Q2215.82 180.946 2214.64 180.02 Q2213.48 179.094 2209.52 178.238 L2208.04 177.891 Q2204.08 177.057 2202.32 175.344 Q2200.57 173.608 2200.57 170.599 Q2200.57 166.942 2203.16 164.951 Q2205.75 162.96 2210.52 162.96 Q2212.88 162.96 2214.96 163.307 Q2217.05 163.655 2218.81 164.349 Z" fill="#000000" fill-rule="nonzero" fill-opacity="1"></path><path clip-path="url(#clip650)" d="M2231.19 156.224 L2231.19 163.585 L2239.96 163.585 L2239.96 166.895 L2231.19 166.895 L2231.19 180.969 Q2231.19 184.141 2232.05 185.043 Q2232.93 185.946 2235.59 185.946 L2239.96 185.946 L2239.96 189.511 L2235.59 189.511 Q2230.66 189.511 2228.78 187.682 Q2226.91 185.83 2226.91 180.969 L2226.91 166.895 L2223.78 166.895 L2223.78 163.585 L2226.91 163.585 L2226.91 156.224 L2231.19 156.224 Z" fill="#000000" fill-rule="nonzero" fill-opacity="1"></path><path clip-path="url(#clip650)" d="M184.191 1486.45 L2352.76 1486.45 L2352.76 847.244 L184.191 847.244  Z" fill="#ffffff" fill-rule="evenodd" fill-opacity="1"></path>
<defs>
  <clipPath id="clip653">
    <rect x="184" y="847" width="2170" height="640"></rect>
  </clipPath>
</defs>
<polyline clip-path="url(#clip653)" style="stroke:#000000; stroke-linecap:round; stroke-linejoin:round; stroke-width:2; stroke-opacity:0.1; fill:none" points="241.465,1486.45 241.465,847.244 "></polyline>
<polyline clip-path="url(#clip653)" style="stroke:#000000; stroke-linecap:round; stroke-linejoin:round; stroke-width:2; stroke-opacity:0.1; fill:none" points="651.449,1486.45 651.449,847.244 "></polyline>
<polyline clip-path="url(#clip653)" style="stroke:#000000; stroke-linecap:round; stroke-linejoin:round; stroke-width:2; stroke-opacity:0.1; fill:none" points="1061.43,1486.45 1061.43,847.244 "></polyline>
<polyline clip-path="url(#clip653)" style="stroke:#000000; stroke-linecap:round; stroke-linejoin:round; stroke-width:2; stroke-opacity:0.1; fill:none" points="1471.41,1486.45 1471.41,847.244 "></polyline>
<polyline clip-path="url(#clip653)" style="stroke:#000000; stroke-linecap:round; stroke-linejoin:round; stroke-width:2; stroke-opacity:0.1; fill:none" points="1881.4,1486.45 1881.4,847.244 "></polyline>
<polyline clip-path="url(#clip653)" style="stroke:#000000; stroke-linecap:round; stroke-linejoin:round; stroke-width:2; stroke-opacity:0.1; fill:none" points="2291.38,1486.45 2291.38,847.244 "></polyline>
<polyline clip-path="url(#clip650)" style="stroke:#000000; stroke-linecap:round; stroke-linejoin:round; stroke-width:4; stroke-opacity:1; fill:none" points="184.191,1486.45 2352.76,1486.45 "></polyline>
<polyline clip-path="url(#clip650)" style="stroke:#000000; stroke-linecap:round; stroke-linejoin:round; stroke-width:4; stroke-opacity:1; fill:none" points="241.465,1486.45 241.465,1467.55 "></polyline>
<polyline clip-path="url(#clip650)" style="stroke:#000000; stroke-linecap:round; stroke-linejoin:round; stroke-width:4; stroke-opacity:1; fill:none" points="651.449,1486.45 651.449,1467.55 "></polyline>
<polyline clip-path="url(#clip650)" style="stroke:#000000; stroke-linecap:round; stroke-linejoin:round; stroke-width:4; stroke-opacity:1; fill:none" points="1061.43,1486.45 1061.43,1467.55 "></polyline>
<polyline clip-path="url(#clip650)" style="stroke:#000000; stroke-linecap:round; stroke-linejoin:round; stroke-width:4; stroke-opacity:1; fill:none" points="1471.41,1486.45 1471.41,1467.55 "></polyline>
<polyline clip-path="url(#clip650)" style="stroke:#000000; stroke-linecap:round; stroke-linejoin:round; stroke-width:4; stroke-opacity:1; fill:none" points="1881.4,1486.45 1881.4,1467.55 "></polyline>
<polyline clip-path="url(#clip650)" style="stroke:#000000; stroke-linecap:round; stroke-linejoin:round; stroke-width:4; stroke-opacity:1; fill:none" points="2291.38,1486.45 2291.38,1467.55 "></polyline>
<path clip-path="url(#clip650)" d="M241.465 1517.37 Q237.854 1517.37 236.026 1520.93 Q234.22 1524.47 234.22 1531.6 Q234.22 1538.71 236.026 1542.27 Q237.854 1545.82 241.465 1545.82 Q245.1 1545.82 246.905 1542.27 Q248.734 1538.71 248.734 1531.6 Q248.734 1524.47 246.905 1520.93 Q245.1 1517.37 241.465 1517.37 M241.465 1513.66 Q247.275 1513.66 250.331 1518.27 Q253.41 1522.85 253.41 1531.6 Q253.41 1540.33 250.331 1544.94 Q247.275 1549.52 241.465 1549.52 Q235.655 1549.52 232.576 1544.94 Q229.521 1540.33 229.521 1531.6 Q229.521 1522.85 232.576 1518.27 Q235.655 1513.66 241.465 1513.66 Z" fill="#000000" fill-rule="nonzero" fill-opacity="1"></path><path clip-path="url(#clip650)" d="M611.055 1544.91 L618.694 1544.91 L618.694 1518.55 L610.384 1520.21 L610.384 1515.95 L618.648 1514.29 L623.324 1514.29 L623.324 1544.91 L630.963 1544.91 L630.963 1548.85 L611.055 1548.85 L611.055 1544.91 Z" fill="#000000" fill-rule="nonzero" fill-opacity="1"></path><path clip-path="url(#clip650)" d="M650.407 1517.37 Q646.796 1517.37 644.967 1520.93 Q643.162 1524.47 643.162 1531.6 Q643.162 1538.71 644.967 1542.27 Q646.796 1545.82 650.407 1545.82 Q654.041 1545.82 655.847 1542.27 Q657.675 1538.71 657.675 1531.6 Q657.675 1524.47 655.847 1520.93 Q654.041 1517.37 650.407 1517.37 M650.407 1513.66 Q656.217 1513.66 659.273 1518.27 Q662.351 1522.85 662.351 1531.6 Q662.351 1540.33 659.273 1544.94 Q656.217 1549.52 650.407 1549.52 Q644.597 1549.52 641.518 1544.94 Q638.463 1540.33 638.463 1531.6 Q638.463 1522.85 641.518 1518.27 Q644.597 1513.66 650.407 1513.66 Z" fill="#000000" fill-rule="nonzero" fill-opacity="1"></path><path clip-path="url(#clip650)" d="M680.569 1517.37 Q676.958 1517.37 675.129 1520.93 Q673.323 1524.47 673.323 1531.6 Q673.323 1538.71 675.129 1542.27 Q676.958 1545.82 680.569 1545.82 Q684.203 1545.82 686.009 1542.27 Q687.837 1538.71 687.837 1531.6 Q687.837 1524.47 686.009 1520.93 Q684.203 1517.37 680.569 1517.37 M680.569 1513.66 Q686.379 1513.66 689.434 1518.27 Q692.513 1522.85 692.513 1531.6 Q692.513 1540.33 689.434 1544.94 Q686.379 1549.52 680.569 1549.52 Q674.759 1549.52 671.68 1544.94 Q668.624 1540.33 668.624 1531.6 Q668.624 1522.85 671.68 1518.27 Q674.759 1513.66 680.569 1513.66 Z" fill="#000000" fill-rule="nonzero" fill-opacity="1"></path><path clip-path="url(#clip650)" d="M1025.12 1544.91 L1041.44 1544.91 L1041.44 1548.85 L1019.5 1548.85 L1019.5 1544.91 Q1022.16 1542.16 1026.74 1537.53 Q1031.35 1532.88 1032.53 1531.53 Q1034.78 1529.01 1035.66 1527.27 Q1036.56 1525.51 1036.56 1523.82 Q1036.56 1521.07 1034.61 1519.33 Q1032.69 1517.6 1029.59 1517.6 Q1027.39 1517.6 1024.94 1518.36 Q1022.51 1519.13 1019.73 1520.68 L1019.73 1515.95 Q1022.55 1514.82 1025.01 1514.24 Q1027.46 1513.66 1029.5 1513.66 Q1034.87 1513.66 1038.06 1516.35 Q1041.26 1519.03 1041.26 1523.52 Q1041.26 1525.65 1040.45 1527.57 Q1039.66 1529.47 1037.55 1532.07 Q1036.98 1532.74 1033.87 1535.95 Q1030.77 1539.15 1025.12 1544.91 Z" fill="#000000" fill-rule="nonzero" fill-opacity="1"></path><path clip-path="url(#clip650)" d="M1061.26 1517.37 Q1057.65 1517.37 1055.82 1520.93 Q1054.01 1524.47 1054.01 1531.6 Q1054.01 1538.71 1055.82 1542.27 Q1057.65 1545.82 1061.26 1545.82 Q1064.89 1545.82 1066.7 1542.27 Q1068.53 1538.71 1068.53 1531.6 Q1068.53 1524.47 1066.7 1520.93 Q1064.89 1517.37 1061.26 1517.37 M1061.26 1513.66 Q1067.07 1513.66 1070.12 1518.27 Q1073.2 1522.85 1073.2 1531.6 Q1073.2 1540.33 1070.12 1544.94 Q1067.07 1549.52 1061.26 1549.52 Q1055.45 1549.52 1052.37 1544.94 Q1049.31 1540.33 1049.31 1531.6 Q1049.31 1522.85 1052.37 1518.27 Q1055.45 1513.66 1061.26 1513.66 Z" fill="#000000" fill-rule="nonzero" fill-opacity="1"></path><path clip-path="url(#clip650)" d="M1091.42 1517.37 Q1087.81 1517.37 1085.98 1520.93 Q1084.17 1524.47 1084.17 1531.6 Q1084.17 1538.71 1085.98 1542.27 Q1087.81 1545.82 1091.42 1545.82 Q1095.05 1545.82 1096.86 1542.27 Q1098.69 1538.71 1098.69 1531.6 Q1098.69 1524.47 1096.86 1520.93 Q1095.05 1517.37 1091.42 1517.37 M1091.42 1513.66 Q1097.23 1513.66 1100.29 1518.27 Q1103.36 1522.85 1103.36 1531.6 Q1103.36 1540.33 1100.29 1544.94 Q1097.23 1549.52 1091.42 1549.52 Q1085.61 1549.52 1082.53 1544.94 Q1079.48 1540.33 1079.48 1531.6 Q1079.48 1522.85 1082.53 1518.27 Q1085.61 1513.66 1091.42 1513.66 Z" fill="#000000" fill-rule="nonzero" fill-opacity="1"></path><path clip-path="url(#clip650)" d="M1445.18 1530.21 Q1448.53 1530.93 1450.41 1533.2 Q1452.31 1535.47 1452.31 1538.8 Q1452.31 1543.92 1448.79 1546.72 Q1445.27 1549.52 1438.79 1549.52 Q1436.61 1549.52 1434.3 1549.08 Q1432.01 1548.66 1429.55 1547.81 L1429.55 1543.29 Q1431.5 1544.43 1433.81 1545.01 Q1436.13 1545.58 1438.65 1545.58 Q1443.05 1545.58 1445.34 1543.85 Q1447.65 1542.11 1447.65 1538.8 Q1447.65 1535.75 1445.5 1534.03 Q1443.37 1532.3 1439.55 1532.3 L1435.52 1532.3 L1435.52 1528.45 L1439.74 1528.45 Q1443.19 1528.45 1445.01 1527.09 Q1446.84 1525.7 1446.84 1523.11 Q1446.84 1520.45 1444.95 1519.03 Q1443.07 1517.6 1439.55 1517.6 Q1437.63 1517.6 1435.43 1518.01 Q1433.23 1518.43 1430.59 1519.31 L1430.59 1515.14 Q1433.26 1514.4 1435.57 1514.03 Q1437.91 1513.66 1439.97 1513.66 Q1445.29 1513.66 1448.39 1516.09 Q1451.5 1518.5 1451.5 1522.62 Q1451.5 1525.49 1449.85 1527.48 Q1448.21 1529.45 1445.18 1530.21 Z" fill="#000000" fill-rule="nonzero" fill-opacity="1"></path><path clip-path="url(#clip650)" d="M1471.17 1517.37 Q1467.56 1517.37 1465.73 1520.93 Q1463.93 1524.47 1463.93 1531.6 Q1463.93 1538.71 1465.73 1542.27 Q1467.56 1545.82 1471.17 1545.82 Q1474.81 1545.82 1476.61 1542.27 Q1478.44 1538.71 1478.44 1531.6 Q1478.44 1524.47 1476.61 1520.93 Q1474.81 1517.37 1471.17 1517.37 M1471.17 1513.66 Q1476.98 1513.66 1480.04 1518.27 Q1483.12 1522.85 1483.12 1531.6 Q1483.12 1540.33 1480.04 1544.94 Q1476.98 1549.52 1471.17 1549.52 Q1465.36 1549.52 1462.28 1544.94 Q1459.23 1540.33 1459.23 1531.6 Q1459.23 1522.85 1462.28 1518.27 Q1465.36 1513.66 1471.17 1513.66 Z" fill="#000000" fill-rule="nonzero" fill-opacity="1"></path><path clip-path="url(#clip650)" d="M1501.33 1517.37 Q1497.72 1517.37 1495.89 1520.93 Q1494.09 1524.47 1494.09 1531.6 Q1494.09 1538.71 1495.89 1542.27 Q1497.72 1545.82 1501.33 1545.82 Q1504.97 1545.82 1506.77 1542.27 Q1508.6 1538.71 1508.6 1531.6 Q1508.6 1524.47 1506.77 1520.93 Q1504.97 1517.37 1501.33 1517.37 M1501.33 1513.66 Q1507.14 1513.66 1510.2 1518.27 Q1513.28 1522.85 1513.28 1531.6 Q1513.28 1540.33 1510.2 1544.94 Q1507.14 1549.52 1501.33 1549.52 Q1495.52 1549.52 1492.44 1544.94 Q1489.39 1540.33 1489.39 1531.6 Q1489.39 1522.85 1492.44 1518.27 Q1495.52 1513.66 1501.33 1513.66 Z" fill="#000000" fill-rule="nonzero" fill-opacity="1"></path><path clip-path="url(#clip650)" d="M1854.49 1518.36 L1842.68 1536.81 L1854.49 1536.81 L1854.49 1518.36 M1853.26 1514.29 L1859.14 1514.29 L1859.14 1536.81 L1864.07 1536.81 L1864.07 1540.7 L1859.14 1540.7 L1859.14 1548.85 L1854.49 1548.85 L1854.49 1540.7 L1838.89 1540.7 L1838.89 1536.19 L1853.26 1514.29 Z" fill="#000000" fill-rule="nonzero" fill-opacity="1"></path><path clip-path="url(#clip650)" d="M1881.8 1517.37 Q1878.19 1517.37 1876.36 1520.93 Q1874.56 1524.47 1874.56 1531.6 Q1874.56 1538.71 1876.36 1542.27 Q1878.19 1545.82 1881.8 1545.82 Q1885.44 1545.82 1887.24 1542.27 Q1889.07 1538.71 1889.07 1531.6 Q1889.07 1524.47 1887.24 1520.93 Q1885.44 1517.37 1881.8 1517.37 M1881.8 1513.66 Q1887.61 1513.66 1890.67 1518.27 Q1893.75 1522.85 1893.75 1531.6 Q1893.75 1540.33 1890.67 1544.94 Q1887.61 1549.52 1881.8 1549.52 Q1875.99 1549.52 1872.91 1544.94 Q1869.86 1540.33 1869.86 1531.6 Q1869.86 1522.85 1872.91 1518.27 Q1875.99 1513.66 1881.8 1513.66 Z" fill="#000000" fill-rule="nonzero" fill-opacity="1"></path><path clip-path="url(#clip650)" d="M1911.97 1517.37 Q1908.35 1517.37 1906.53 1520.93 Q1904.72 1524.47 1904.72 1531.6 Q1904.72 1538.71 1906.53 1542.27 Q1908.35 1545.82 1911.97 1545.82 Q1915.6 1545.82 1917.4 1542.27 Q1919.23 1538.71 1919.23 1531.6 Q1919.23 1524.47 1917.4 1520.93 Q1915.6 1517.37 1911.97 1517.37 M1911.97 1513.66 Q1917.78 1513.66 1920.83 1518.27 Q1923.91 1522.85 1923.91 1531.6 Q1923.91 1540.33 1920.83 1544.94 Q1917.78 1549.52 1911.97 1549.52 Q1906.16 1549.52 1903.08 1544.94 Q1900.02 1540.33 1900.02 1531.6 Q1900.02 1522.85 1903.08 1518.27 Q1906.16 1513.66 1911.97 1513.66 Z" fill="#000000" fill-rule="nonzero" fill-opacity="1"></path><path clip-path="url(#clip650)" d="M2251 1514.29 L2269.36 1514.29 L2269.36 1518.22 L2255.28 1518.22 L2255.28 1526.7 Q2256.3 1526.35 2257.32 1526.19 Q2258.34 1526 2259.36 1526 Q2265.14 1526 2268.52 1529.17 Q2271.9 1532.34 2271.9 1537.76 Q2271.9 1543.34 2268.43 1546.44 Q2264.96 1549.52 2258.64 1549.52 Q2256.46 1549.52 2254.19 1549.15 Q2251.95 1548.78 2249.54 1548.04 L2249.54 1543.34 Q2251.62 1544.47 2253.85 1545.03 Q2256.07 1545.58 2258.55 1545.58 Q2262.55 1545.58 2264.89 1543.48 Q2267.23 1541.37 2267.23 1537.76 Q2267.23 1534.15 2264.89 1532.04 Q2262.55 1529.94 2258.55 1529.94 Q2256.67 1529.94 2254.8 1530.35 Q2252.94 1530.77 2251 1531.65 L2251 1514.29 Z" fill="#000000" fill-rule="nonzero" fill-opacity="1"></path><path clip-path="url(#clip650)" d="M2291.12 1517.37 Q2287.5 1517.37 2285.68 1520.93 Q2283.87 1524.47 2283.87 1531.6 Q2283.87 1538.71 2285.68 1542.27 Q2287.5 1545.82 2291.12 1545.82 Q2294.75 1545.82 2296.56 1542.27 Q2298.38 1538.71 2298.38 1531.6 Q2298.38 1524.47 2296.56 1520.93 Q2294.75 1517.37 2291.12 1517.37 M2291.12 1513.66 Q2296.93 1513.66 2299.98 1518.27 Q2303.06 1522.85 2303.06 1531.6 Q2303.06 1540.33 2299.98 1544.94 Q2296.93 1549.52 2291.12 1549.52 Q2285.31 1549.52 2282.23 1544.94 Q2279.17 1540.33 2279.17 1531.6 Q2279.17 1522.85 2282.23 1518.27 Q2285.31 1513.66 2291.12 1513.66 Z" fill="#000000" fill-rule="nonzero" fill-opacity="1"></path><path clip-path="url(#clip650)" d="M2321.28 1517.37 Q2317.67 1517.37 2315.84 1520.93 Q2314.03 1524.47 2314.03 1531.6 Q2314.03 1538.71 2315.84 1542.27 Q2317.67 1545.82 2321.28 1545.82 Q2324.91 1545.82 2326.72 1542.27 Q2328.55 1538.71 2328.55 1531.6 Q2328.55 1524.47 2326.72 1520.93 Q2324.91 1517.37 2321.28 1517.37 M2321.28 1513.66 Q2327.09 1513.66 2330.14 1518.27 Q2333.22 1522.85 2333.22 1531.6 Q2333.22 1540.33 2330.14 1544.94 Q2327.09 1549.52 2321.28 1549.52 Q2315.47 1549.52 2312.39 1544.94 Q2309.33 1540.33 2309.33 1531.6 Q2309.33 1522.85 2312.39 1518.27 Q2315.47 1513.66 2321.28 1513.66 Z" fill="#000000" fill-rule="nonzero" fill-opacity="1"></path><polyline clip-path="url(#clip653)" style="stroke:#000000; stroke-linecap:round; stroke-linejoin:round; stroke-width:2; stroke-opacity:0.1; fill:none" points="184.191,1465.26 2352.76,1465.26 "></polyline>
<polyline clip-path="url(#clip653)" style="stroke:#000000; stroke-linecap:round; stroke-linejoin:round; stroke-width:2; stroke-opacity:0.1; fill:none" points="184.191,1287.2 2352.76,1287.2 "></polyline>
<polyline clip-path="url(#clip653)" style="stroke:#000000; stroke-linecap:round; stroke-linejoin:round; stroke-width:2; stroke-opacity:0.1; fill:none" points="184.191,1109.14 2352.76,1109.14 "></polyline>
<polyline clip-path="url(#clip653)" style="stroke:#000000; stroke-linecap:round; stroke-linejoin:round; stroke-width:2; stroke-opacity:0.1; fill:none" points="184.191,931.081 2352.76,931.081 "></polyline>
<polyline clip-path="url(#clip650)" style="stroke:#000000; stroke-linecap:round; stroke-linejoin:round; stroke-width:4; stroke-opacity:1; fill:none" points="184.191,1486.45 184.191,847.244 "></polyline>
<polyline clip-path="url(#clip650)" style="stroke:#000000; stroke-linecap:round; stroke-linejoin:round; stroke-width:4; stroke-opacity:1; fill:none" points="184.191,1465.26 203.088,1465.26 "></polyline>
<polyline clip-path="url(#clip650)" style="stroke:#000000; stroke-linecap:round; stroke-linejoin:round; stroke-width:4; stroke-opacity:1; fill:none" points="184.191,1287.2 203.088,1287.2 "></polyline>
<polyline clip-path="url(#clip650)" style="stroke:#000000; stroke-linecap:round; stroke-linejoin:round; stroke-width:4; stroke-opacity:1; fill:none" points="184.191,1109.14 203.088,1109.14 "></polyline>
<polyline clip-path="url(#clip650)" style="stroke:#000000; stroke-linecap:round; stroke-linejoin:round; stroke-width:4; stroke-opacity:1; fill:none" points="184.191,931.081 203.088,931.081 "></polyline>
<path clip-path="url(#clip650)" d="M80.8299 1447.98 L103.052 1447.98 L103.052 1449.97 L90.5058 1482.54 L85.6216 1482.54 L97.4271 1451.91 L80.8299 1451.91 L80.8299 1447.98 Z" fill="#000000" fill-rule="nonzero" fill-opacity="1"></path><path clip-path="url(#clip650)" d="M112.172 1476.66 L117.057 1476.66 L117.057 1482.54 L112.172 1482.54 L112.172 1476.66 Z" fill="#000000" fill-rule="nonzero" fill-opacity="1"></path><path clip-path="url(#clip650)" d="M127.288 1447.98 L145.644 1447.98 L145.644 1451.91 L131.57 1451.91 L131.57 1460.38 Q132.589 1460.04 133.607 1459.87 Q134.626 1459.69 135.644 1459.69 Q141.431 1459.69 144.811 1462.86 Q148.191 1466.03 148.191 1471.45 Q148.191 1477.03 144.718 1480.13 Q141.246 1483.21 134.927 1483.21 Q132.751 1483.21 130.482 1482.84 Q128.237 1482.47 125.83 1481.73 L125.83 1477.03 Q127.913 1478.16 130.135 1478.72 Q132.357 1479.27 134.834 1479.27 Q138.839 1479.27 141.177 1477.17 Q143.515 1475.06 143.515 1471.45 Q143.515 1467.84 141.177 1465.73 Q138.839 1463.62 134.834 1463.62 Q132.959 1463.62 131.084 1464.04 Q129.232 1464.46 127.288 1465.34 L127.288 1447.98 Z" fill="#000000" fill-rule="nonzero" fill-opacity="1"></path><path clip-path="url(#clip650)" d="M51.6634 1300.54 L59.3023 1300.54 L59.3023 1274.18 L50.9921 1275.84 L50.9921 1271.58 L59.256 1269.92 L63.9319 1269.92 L63.9319 1300.54 L71.5707 1300.54 L71.5707 1304.48 L51.6634 1304.48 L51.6634 1300.54 Z" fill="#000000" fill-rule="nonzero" fill-opacity="1"></path><path clip-path="url(#clip650)" d="M91.0151 1273 Q87.404 1273 85.5753 1276.56 Q83.7697 1280.1 83.7697 1287.23 Q83.7697 1294.34 85.5753 1297.9 Q87.404 1301.45 91.0151 1301.45 Q94.6493 1301.45 96.4548 1297.9 Q98.2835 1294.34 98.2835 1287.23 Q98.2835 1280.1 96.4548 1276.56 Q94.6493 1273 91.0151 1273 M91.0151 1269.29 Q96.8252 1269.29 99.8808 1273.9 Q102.959 1278.48 102.959 1287.23 Q102.959 1295.96 99.8808 1300.57 Q96.8252 1305.15 91.0151 1305.15 Q85.2049 1305.15 82.1262 1300.57 Q79.0707 1295.96 79.0707 1287.23 Q79.0707 1278.48 82.1262 1273.9 Q85.2049 1269.29 91.0151 1269.29 Z" fill="#000000" fill-rule="nonzero" fill-opacity="1"></path><path clip-path="url(#clip650)" d="M111.177 1298.6 L116.061 1298.6 L116.061 1304.48 L111.177 1304.48 L111.177 1298.6 Z" fill="#000000" fill-rule="nonzero" fill-opacity="1"></path><path clip-path="url(#clip650)" d="M136.246 1273 Q132.635 1273 130.807 1276.56 Q129.001 1280.1 129.001 1287.23 Q129.001 1294.34 130.807 1297.9 Q132.635 1301.45 136.246 1301.45 Q139.881 1301.45 141.686 1297.9 Q143.515 1294.34 143.515 1287.23 Q143.515 1280.1 141.686 1276.56 Q139.881 1273 136.246 1273 M136.246 1269.29 Q142.056 1269.29 145.112 1273.9 Q148.191 1278.48 148.191 1287.23 Q148.191 1295.96 145.112 1300.57 Q142.056 1305.15 136.246 1305.15 Q130.436 1305.15 127.357 1300.57 Q124.302 1295.96 124.302 1287.23 Q124.302 1278.48 127.357 1273.9 Q130.436 1269.29 136.246 1269.29 Z" fill="#000000" fill-rule="nonzero" fill-opacity="1"></path><path clip-path="url(#clip650)" d="M52.6588 1122.48 L60.2976 1122.48 L60.2976 1096.12 L51.9875 1097.79 L51.9875 1093.53 L60.2513 1091.86 L64.9272 1091.86 L64.9272 1122.48 L72.5661 1122.48 L72.5661 1126.42 L52.6588 1126.42 L52.6588 1122.48 Z" fill="#000000" fill-rule="nonzero" fill-opacity="1"></path><path clip-path="url(#clip650)" d="M86.0382 1122.48 L102.358 1122.48 L102.358 1126.42 L80.4133 1126.42 L80.4133 1122.48 Q83.0753 1119.73 87.6586 1115.1 Q92.2651 1110.45 93.4456 1109.1 Q95.691 1106.58 96.5706 1104.85 Q97.4734 1103.09 97.4734 1101.4 Q97.4734 1098.64 95.5289 1096.91 Q93.6076 1095.17 90.5058 1095.17 Q88.3067 1095.17 85.8531 1095.93 Q83.4225 1096.7 80.6447 1098.25 L80.6447 1093.53 Q83.4688 1092.39 85.9225 1091.81 Q88.3762 1091.23 90.4132 1091.23 Q95.7836 1091.23 98.978 1093.92 Q102.172 1096.6 102.172 1101.1 Q102.172 1103.22 101.362 1105.15 Q100.575 1107.04 98.4687 1109.64 Q97.89 1110.31 94.7882 1113.53 Q91.6864 1116.72 86.0382 1122.48 Z" fill="#000000" fill-rule="nonzero" fill-opacity="1"></path><path clip-path="url(#clip650)" d="M112.172 1120.54 L117.057 1120.54 L117.057 1126.42 L112.172 1126.42 L112.172 1120.54 Z" fill="#000000" fill-rule="nonzero" fill-opacity="1"></path><path clip-path="url(#clip650)" d="M127.288 1091.86 L145.644 1091.86 L145.644 1095.79 L131.57 1095.79 L131.57 1104.27 Q132.589 1103.92 133.607 1103.76 Q134.626 1103.57 135.644 1103.57 Q141.431 1103.57 144.811 1106.74 Q148.191 1109.91 148.191 1115.33 Q148.191 1120.91 144.718 1124.01 Q141.246 1127.09 134.927 1127.09 Q132.751 1127.09 130.482 1126.72 Q128.237 1126.35 125.83 1125.61 L125.83 1120.91 Q127.913 1122.04 130.135 1122.6 Q132.357 1123.16 134.834 1123.16 Q138.839 1123.16 141.177 1121.05 Q143.515 1118.94 143.515 1115.33 Q143.515 1111.72 141.177 1109.61 Q138.839 1107.51 134.834 1107.51 Q132.959 1107.51 131.084 1107.92 Q129.232 1108.34 127.288 1109.22 L127.288 1091.86 Z" fill="#000000" fill-rule="nonzero" fill-opacity="1"></path><path clip-path="url(#clip650)" d="M51.6634 944.426 L59.3023 944.426 L59.3023 918.06 L50.9921 919.727 L50.9921 915.467 L59.256 913.801 L63.9319 913.801 L63.9319 944.426 L71.5707 944.426 L71.5707 948.361 L51.6634 948.361 L51.6634 944.426 Z" fill="#000000" fill-rule="nonzero" fill-opacity="1"></path><path clip-path="url(#clip650)" d="M81.0614 913.801 L99.4178 913.801 L99.4178 917.736 L85.3438 917.736 L85.3438 926.208 Q86.3623 925.861 87.3808 925.699 Q88.3993 925.514 89.4178 925.514 Q95.2049 925.514 98.5845 928.685 Q101.964 931.856 101.964 937.273 Q101.964 942.852 98.4919 945.953 Q95.0197 949.032 88.7003 949.032 Q86.5243 949.032 84.2558 948.662 Q82.0105 948.291 79.6031 947.551 L79.6031 942.852 Q81.6864 943.986 83.9086 944.541 Q86.1308 945.097 88.6077 945.097 Q92.6123 945.097 94.9502 942.99 Q97.2882 940.884 97.2882 937.273 Q97.2882 933.662 94.9502 931.555 Q92.6123 929.449 88.6077 929.449 Q86.7327 929.449 84.8577 929.865 Q83.0058 930.282 81.0614 931.162 L81.0614 913.801 Z" fill="#000000" fill-rule="nonzero" fill-opacity="1"></path><path clip-path="url(#clip650)" d="M111.177 942.481 L116.061 942.481 L116.061 948.361 L111.177 948.361 L111.177 942.481 Z" fill="#000000" fill-rule="nonzero" fill-opacity="1"></path><path clip-path="url(#clip650)" d="M136.246 916.879 Q132.635 916.879 130.807 920.444 Q129.001 923.986 129.001 931.115 Q129.001 938.222 130.807 941.787 Q132.635 945.328 136.246 945.328 Q139.881 945.328 141.686 941.787 Q143.515 938.222 143.515 931.115 Q143.515 923.986 141.686 920.444 Q139.881 916.879 136.246 916.879 M136.246 913.176 Q142.056 913.176 145.112 917.782 Q148.191 922.366 148.191 931.115 Q148.191 939.842 145.112 944.449 Q142.056 949.032 136.246 949.032 Q130.436 949.032 127.357 944.449 Q124.302 939.842 124.302 931.115 Q124.302 922.366 127.357 917.782 Q130.436 913.176 136.246 913.176 Z" fill="#000000" fill-rule="nonzero" fill-opacity="1"></path><polyline clip-path="url(#clip653)" style="stroke:#009af9; stroke-linecap:round; stroke-linejoin:round; stroke-width:4; stroke-opacity:1; fill:none" points="245.565,865.335 249.665,981.611 253.765,1060.82 257.865,1103.75 261.964,1128.16 266.064,1155.29 270.164,1184.42 274.264,1210.69 278.364,1235.91 282.464,1258.19 286.563,1275.37 290.663,1286.72 294.763,1292.31 298.863,1294.68 302.963,1295.43 307.063,1295.84 311.162,1296.29 315.262,1296.79 319.362,1297.11 323.462,1297.35 327.562,1297.5 331.662,1297.74 335.761,1297.83 339.861,1297.97 343.961,1298.07 348.061,1298.31 352.161,1298.36 356.261,1298.55 360.36,1298.64 364.46,1298.73 368.56,1298.87 372.66,1298.97 376.76,1299.13 380.86,1299.21 384.959,1299.37 389.059,1299.43 393.159,1299.63 397.259,1299.83 401.359,1299.96 405.459,1300.14 409.558,1300.3 413.658,1300.39 417.758,1300.59 421.858,1300.79 425.958,1300.82 430.058,1301.11 434.157,1301.39 438.257,1301.34 442.357,1301.57 446.457,1301.84 450.557,1302.02 454.657,1302.1 458.756,1302.41 462.856,1302.65 466.956,1302.79 471.056,1302.99 475.156,1303.23 479.256,1303.3 483.355,1303.58 487.455,1303.7 491.555,1303.85 495.655,1303.97 499.755,1304.08 503.855,1304.33 507.954,1304.46 512.054,1304.6 516.154,1304.74 520.254,1304.84 524.354,1304.87 528.454,1305.05 532.553,1305.27 536.653,1305.28 540.753,1305.41 544.853,1305.64 548.953,1305.66 553.053,1305.73 557.152,1305.87 561.252,1305.99 565.352,1305.97 569.452,1306.23 573.552,1306.08 577.652,1306.14 581.751,1306.44 585.851,1306.58 589.951,1306.66 594.051,1306.78 598.151,1306.75 602.251,1307 606.35,1307.02 610.45,1307.09 614.55,1307.22 618.65,1307.31 622.75,1307.51 626.85,1307.51 630.949,1307.57 635.049,1307.52 639.149,1307.77 643.249,1307.95 647.349,1308.18 651.449,1308.34 655.548,1308.46 659.648,1308.33 663.748,1308.76 667.848,1309.05 671.948,1309.37 676.048,1309.62 680.147,1310.09 684.247,1310.23 688.347,1310.08 692.447,1311.51 696.547,1312.01 700.647,1312.57 704.746,1314.01 708.846,1315.4 712.946,1317.02 717.046,1318.81 721.146,1319.3 725.246,1321.05 729.345,1323.08 733.445,1326.02 737.545,1327.18 741.645,1325.23 745.745,1329.28 749.845,1329.26 753.944,1328.3 758.044,1326.83 762.144,1330.99 766.244,1330.61 770.344,1330.5 774.444,1327.9 778.543,1329.84 782.643,1329.22 786.743,1332.65 790.843,1333.28 794.943,1335.65 799.043,1336.62 803.142,1337.24 807.242,1336.98 811.342,1338.55 815.442,1339.28 819.542,1339.84 823.642,1335.29 827.741,1335.58 831.841,1329.89 835.941,1336.79 840.041,1336.69 844.141,1340.38 848.24,1341.55 852.34,1341.33 856.44,1342.49 860.54,1343.09 864.64,1345.1 868.74,1344.85 872.839,1345.03 876.939,1346.88 881.039,1344.05 885.139,1342.86 889.239,1346.16 893.339,1346.09 897.438,1345.24 901.538,1348.51 905.638,1349.91 909.738,1349.48 913.838,1349.92 917.938,1350.99 922.037,1351.17 926.137,1350.58 930.237,1349.44 934.337,1350.87 938.437,1352.78 942.537,1353.27 946.636,1353.48 950.736,1353.31 954.836,1354.84 958.936,1355.18 963.036,1356.6 967.136,1357.4 971.235,1357.22 975.335,1358.01 979.435,1357.71 983.535,1353.95 987.635,1350.7 991.735,1355.7 995.834,1356.97 999.934,1359.13 1004.03,1359.95 1008.13,1359.97 1012.23,1360.5 1016.33,1360.12 1020.43,1360.25 1024.53,1361.34 1028.63,1361.57 1032.73,1359.04 1036.83,1360.18 1040.93,1361.4 1045.03,1362.59 1049.13,1362.57 1053.23,1362.64 1057.33,1362.91 1061.43,1363.01 1065.53,1363.17 1069.63,1362.89 1073.73,1363.92 1077.83,1364.05 1081.93,1364.35 1086.03,1364.09 1090.13,1363.77 1094.23,1364 1098.33,1362.89 1102.43,1362.97 1106.53,1364.88 1110.63,1364.35 1114.73,1363.85 1118.83,1362.8 1122.93,1362.95 1127.03,1366.03 1131.13,1366.59 1135.23,1365.65 1139.33,1366.56 1143.43,1367.26 1147.53,1367.49 1151.63,1366.09 1155.73,1367.67 1159.83,1368.39 1163.93,1368.64 1168.03,1369.05 1172.13,1369.26 1176.23,1369.67 1180.33,1370.03 1184.43,1370.01 1188.53,1370.45 1192.63,1371.04 1196.73,1370.81 1200.83,1371.34 1204.93,1372.01 1209.03,1372.7 1213.13,1372.9 1217.23,1371.74 1221.33,1370.44 1225.43,1371.66 1229.52,1374.43 1233.62,1375.64 1237.72,1376.03 1241.82,1376.66 1245.92,1377.06 1250.02,1377.69 1254.12,1378.23 1258.22,1378.46 1262.32,1379.37 1266.42,1379.88 1270.52,1379.89 1274.62,1380.72 1278.72,1380.9 1282.82,1381.41 1286.92,1381.86 1291.02,1382.24 1295.12,1382.37 1299.22,1382.1 1303.32,1382.83 1307.42,1383.19 1311.52,1383.6 1315.62,1383.49 1319.72,1383.52 1323.82,1383.55 1327.92,1384.14 1332.02,1383.46 1336.12,1383.93 1340.22,1385.27 1344.32,1384.65 1348.42,1384.97 1352.52,1382.21 1356.62,1381.94 1360.72,1385.23 1364.82,1383.11 1368.92,1382.75 1373.02,1386.26 1377.12,1387.18 1381.22,1387.42 1385.32,1387.18 1389.42,1387.98 1393.52,1388.01 1397.62,1386.95 1401.72,1386.22 1405.82,1388.87 1409.92,1389.41 1414.02,1388.8 1418.12,1389.78 1422.22,1390.27 1426.32,1390.45 1430.42,1390.77 1434.52,1390.56 1438.62,1390.68 1442.72,1390.85 1446.82,1389.81 1450.92,1389.83 1455.02,1391.08 1459.12,1390.68 1463.22,1391.43 1467.32,1392.17 1471.41,1391.99 1475.51,1393.3 1479.61,1393.84 1483.71,1393.82 1487.81,1393.05 1491.91,1394.6 1496.01,1394.42 1500.11,1394.88 1504.21,1394.74 1508.31,1394.92 1512.41,1395.82 1516.51,1395.47 1520.61,1395.53 1524.71,1396.12 1528.81,1394.25 1532.91,1395.97 1537.01,1395.98 1541.11,1396.63 1545.21,1396.6 1549.31,1397.22 1553.41,1397.5 1557.51,1397.14 1561.61,1396.72 1565.71,1392.54 1569.81,1394.53 1573.91,1397.21 1578.01,1396.41 1582.11,1397.81 1586.21,1398.43 1590.31,1397.28 1594.41,1398.26 1598.51,1399.05 1602.61,1398.53 1606.71,1398.79 1610.81,1399.42 1614.91,1400.28 1619.01,1399.12 1623.11,1398.79 1627.21,1397.63 1631.31,1399.44 1635.41,1400.21 1639.51,1397.98 1643.61,1400.01 1647.71,1396.19 1651.81,1394.72 1655.91,1400.41 1660.01,1401.45 1664.11,1401.7 1668.21,1401.34 1672.31,1401.38 1676.41,1401.44 1680.51,1401.33 1684.61,1401.59 1688.71,1403.02 1692.81,1402.56 1696.91,1401.81 1701.01,1401.4 1705.11,1402.18 1709.21,1402.38 1713.31,1403.42 1717.4,1403.76 1721.5,1403.55 1725.6,1403.58 1729.7,1402.87 1733.8,1402.17 1737.9,1402.03 1742,1403.19 1746.1,1404.64 1750.2,1404.74 1754.3,1402.55 1758.4,1404.17 1762.5,1405.1 1766.6,1405.37 1770.7,1405.52 1774.8,1405.08 1778.9,1404.23 1783,1403.32 1787.1,1404.05 1791.2,1404.6 1795.3,1404.37 1799.4,1405.62 1803.5,1402.43 1807.6,1403.09 1811.7,1404.9 1815.8,1405.56 1819.9,1405.95 1824,1406.88 1828.1,1406.58 1832.2,1407.29 1836.3,1406.35 1840.4,1406.24 1844.5,1407.29 1848.6,1407.27 1852.7,1405.3 1856.8,1404.4 1860.9,1404.96 1865,1408.16 1869.1,1407.58 1873.2,1407.97 1877.3,1408.32 1881.4,1408.47 1885.5,1408.47 1889.6,1408.46 1893.7,1408.07 1897.8,1406.34 1901.9,1405.21 1906,1401.35 1910.1,1405.37 1914.2,1408.06 1918.3,1408.59 1922.4,1407.16 1926.5,1407.61 1930.6,1407.68 1934.7,1409.07 1938.8,1409.56 1942.9,1410.17 1947,1408.94 1951.1,1408.68 1955.2,1408.71 1959.3,1409.42 1963.39,1408.58 1967.49,1408.61 1971.59,1408.07 1975.69,1408.41 1979.79,1408.76 1983.89,1409.04 1987.99,1408.83 1992.09,1410.57 1996.19,1410.59 2000.29,1408.71 2004.39,1410.71 2008.49,1410.93 2012.59,1410.3 2016.69,1410.82 2020.79,1411.03 2024.89,1410.45 2028.99,1410.43 2033.09,1410.13 2037.19,1409.11 2041.29,1409.27 2045.39,1409.25 2049.49,1408.11 2053.59,1410.84 2057.69,1411.58 2061.79,1411.9 2065.89,1411.22 2069.99,1411.19 2074.09,1412.45 2078.19,1410.48 2082.29,1412.56 2086.39,1412.05 2090.49,1410.29 2094.59,1412.2 2098.69,1412.12 2102.79,1412.51 2106.89,1404.11 2110.99,1402.9 2115.09,1409.93 2119.19,1408.57 2123.29,1411.67 2127.39,1412.79 2131.49,1412.62 2135.59,1410.91 2139.69,1413.44 2143.79,1412.45 2147.89,1410.82 2151.99,1414.03 2156.09,1412.11 2160.19,1412.85 2164.29,1413.46 2168.39,1412.45 2172.49,1411.83 2176.59,1412.86 2180.69,1412.35 2184.79,1413.07 2188.89,1413.95 2192.99,1411.2 2197.09,1414.07 2201.19,1413.42 2205.28,1413.99 2209.38,1415.13 2213.48,1415.6 2217.58,1415.36 2221.68,1415.62 2225.78,1414.96 2229.88,1413.75 2233.98,1412.19 2238.08,1413.59 2242.18,1413.2 2246.28,1414.4 2250.38,1416.36 2254.48,1415.61 2258.58,1415.26 2262.68,1416.34 2266.78,1415.37 2270.88,1415.96 2274.98,1416.43 2279.08,1415.9 2283.18,1415.82 2287.28,1415.12 2291.38,1416.49 "></polyline>
<polyline clip-path="url(#clip653)" style="stroke:#e26f46; stroke-linecap:round; stroke-linejoin:round; stroke-width:4; stroke-opacity:1; fill:none" points="245.565,926.36 249.665,1024.12 253.765,1083.46 257.865,1114.79 261.964,1144.45 266.064,1177.98 270.164,1209.06 274.264,1239.85 278.364,1269.3 282.464,1294.67 286.563,1313.87 290.663,1326.41 294.763,1332.91 298.863,1336.28 302.963,1337.57 307.063,1337.98 311.162,1337.76 315.262,1337.63 319.362,1337.6 323.462,1337.61 327.562,1337.78 331.662,1338.12 335.761,1338.45 339.861,1338.8 343.961,1338.96 348.061,1339.06 352.161,1339.18 356.261,1339.3 360.36,1339.58 364.46,1339.73 368.56,1339.95 372.66,1340.21 376.76,1340.28 380.86,1340.12 384.959,1340.39 389.059,1340.49 393.159,1341.17 397.259,1341.27 401.359,1341.54 405.459,1341.7 409.558,1341.67 413.658,1342.07 417.758,1342.4 421.858,1342.44 425.958,1342.77 430.058,1342.87 434.157,1343.49 438.257,1343.64 442.357,1343.48 446.457,1344.29 450.557,1344.63 454.657,1344.48 458.756,1345.13 462.856,1345.2 466.956,1345.62 471.056,1345.72 475.156,1345.76 479.256,1346.2 483.355,1346.51 487.455,1346.97 491.555,1347.09 495.655,1347.36 499.755,1347.79 503.855,1348.01 507.954,1348.24 512.054,1348.55 516.154,1348.75 520.254,1348.96 524.354,1349.02 528.454,1349.39 532.553,1349.51 536.653,1349.99 540.753,1350.13 544.853,1350.42 548.953,1350.56 553.053,1350.87 557.152,1351.02 561.252,1351.08 565.352,1351.59 569.452,1351.44 573.552,1351.48 577.652,1351.86 581.751,1351.94 585.851,1352.51 589.951,1352.3 594.051,1352.66 598.151,1352.84 602.251,1352.76 606.35,1353.2 610.45,1353.52 614.55,1353.42 618.65,1353.67 622.75,1353.44 626.85,1353.87 630.949,1354.35 635.049,1354.46 639.149,1354.33 643.249,1354.65 647.349,1354.97 651.449,1355.29 655.548,1355.78 659.648,1355.3 663.748,1355.81 667.848,1355.85 671.948,1356.36 676.048,1356.97 680.147,1357.21 684.247,1356.97 688.347,1358.44 692.447,1358.36 696.547,1358.36 700.647,1360.44 704.746,1361.67 708.846,1363.09 712.946,1364.51 717.046,1362.66 721.146,1368.82 725.246,1367.18 729.345,1369.92 733.445,1371.09 737.545,1369.11 741.645,1372.78 745.745,1372.13 749.845,1369 753.944,1369.77 758.044,1374.97 762.144,1370.17 766.244,1371.79 770.344,1361.29 774.444,1369.08 778.543,1368.28 782.643,1376.74 786.743,1375.2 790.843,1378.19 794.943,1378.97 799.043,1380.04 803.142,1378.83 807.242,1379.84 811.342,1382.24 815.442,1382.78 819.542,1379.69 823.642,1369.57 827.741,1367.7 831.841,1375.6 835.941,1384.4 840.041,1388.76 844.141,1386.22 848.24,1387.47 852.34,1389.33 856.44,1392.15 860.54,1392.9 864.64,1391.89 868.74,1392.5 872.839,1396.74 876.939,1396.68 881.039,1395.74 885.139,1398.66 889.239,1397.97 893.339,1390.35 897.438,1401.14 901.538,1401.95 905.638,1402.9 909.738,1401.81 913.838,1403.65 917.938,1404 922.037,1403.8 926.137,1403.32 930.237,1399.86 934.337,1405.84 938.437,1403.08 942.537,1402.69 946.636,1397.86 950.736,1405.1 954.836,1401.97 958.936,1406.04 963.036,1407.35 967.136,1408.27 971.235,1408.2 975.335,1407.11 979.435,1397.52 983.535,1391.32 987.635,1405.81 991.735,1405.1 995.834,1409.65 999.934,1410.02 1004.03,1409.58 1008.13,1410.62 1012.23,1410.48 1016.33,1411.1 1020.43,1410.75 1024.53,1410.97 1028.63,1410.79 1032.73,1409.64 1036.83,1411.59 1040.93,1412.18 1045.03,1411.78 1049.13,1409.84 1053.23,1412.75 1057.33,1413.01 1061.43,1413.16 1065.53,1411.75 1069.63,1411.51 1073.73,1412.58 1077.83,1414.15 1081.93,1412.74 1086.03,1405.33 1090.13,1414.31 1094.23,1414.36 1098.33,1415.19 1102.43,1412.46 1106.53,1413.37 1110.63,1412.53 1114.73,1411.67 1118.83,1415.54 1122.93,1414.06 1127.03,1416.49 1131.13,1416.37 1135.23,1416.95 1139.33,1416.29 1143.43,1417.72 1147.53,1416.86 1151.63,1418.35 1155.73,1418.98 1159.83,1419.18 1163.93,1418.61 1168.03,1419.83 1172.13,1420.41 1176.23,1420.71 1180.33,1421.25 1184.43,1416.64 1188.53,1422.39 1192.63,1422.67 1196.73,1422.55 1200.83,1423.11 1204.93,1424.44 1209.03,1422.69 1213.13,1421.84 1217.23,1420.75 1221.33,1418.91 1225.43,1427.48 1229.52,1426.99 1233.62,1427.24 1237.72,1427.97 1241.82,1429.99 1245.92,1430.63 1250.02,1429.27 1254.12,1431.15 1258.22,1431.19 1262.32,1433.19 1266.42,1433.17 1270.52,1433.15 1274.62,1434.39 1278.72,1434.22 1282.82,1435.69 1286.92,1434.99 1291.02,1436.24 1295.12,1436.77 1299.22,1435.25 1303.32,1436.05 1307.42,1437.78 1311.52,1435.42 1315.62,1436.27 1319.72,1436.55 1323.82,1438.06 1327.92,1433.68 1332.02,1438.84 1336.12,1438.94 1340.22,1439.82 1344.32,1439.15 1348.42,1431.65 1352.52,1435.46 1356.62,1438.4 1360.72,1436.57 1364.82,1437.76 1368.92,1440.01 1373.02,1440.41 1377.12,1441.64 1381.22,1441.66 1385.32,1440.6 1389.42,1442.14 1393.52,1438.87 1397.62,1441.15 1401.72,1442.85 1405.82,1442.67 1409.92,1440.8 1414.02,1442.4 1418.12,1443.26 1422.22,1443.39 1426.32,1443.81 1430.42,1443.37 1434.52,1443.28 1438.62,1443.44 1442.72,1439.43 1446.82,1441.07 1450.92,1445.07 1455.02,1442.05 1459.12,1443.54 1463.22,1444.47 1467.32,1444.63 1471.41,1444.34 1475.51,1444.96 1479.61,1446.54 1483.71,1445.95 1487.81,1445.02 1491.91,1446.09 1496.01,1446.24 1500.11,1444.11 1504.21,1445.86 1508.31,1447.7 1512.41,1445.27 1516.51,1448.48 1520.61,1446.72 1524.71,1449.24 1528.81,1449.49 1532.91,1445.21 1537.01,1448.18 1541.11,1448.67 1545.21,1449.53 1549.31,1450.42 1553.41,1450.64 1557.51,1448.45 1561.61,1445.89 1565.71,1450.72 1569.81,1450.89 1573.91,1450.89 1578.01,1452.2 1582.11,1449.44 1586.21,1446.42 1590.31,1451.13 1594.41,1450.56 1598.51,1450.55 1602.61,1453.18 1606.71,1452.07 1610.81,1453.08 1614.91,1449.73 1619.01,1447.04 1623.11,1449.91 1627.21,1449.86 1631.31,1452.84 1635.41,1452.75 1639.51,1453.99 1643.61,1444.02 1647.71,1438.62 1651.81,1454.25 1655.91,1455.56 1660.01,1454.47 1664.11,1454.09 1668.21,1455.76 1672.31,1454.14 1676.41,1456.28 1680.51,1457.81 1684.61,1455.12 1688.71,1453.52 1692.81,1455.41 1696.91,1457.46 1701.01,1453.23 1705.11,1453.35 1709.21,1457.32 1713.31,1457.43 1717.4,1452.43 1721.5,1457.39 1725.6,1456.07 1729.7,1457.68 1733.8,1456.62 1737.9,1458.76 1742,1458.5 1746.1,1458.92 1750.2,1457.14 1754.3,1456.63 1758.4,1456.69 1762.5,1459.75 1766.6,1456.32 1770.7,1457.86 1774.8,1456.53 1778.9,1452.33 1783,1449.23 1787.1,1455.41 1791.2,1457.11 1795.3,1459.88 1799.4,1458.21 1803.5,1456.67 1807.6,1453.02 1811.7,1457.5 1815.8,1457.3 1819.9,1459.89 1824,1457.64 1828.1,1460 1832.2,1457.77 1836.3,1457.7 1840.4,1458.11 1844.5,1459.99 1848.6,1461.06 1852.7,1458.56 1856.8,1458.71 1860.9,1460.39 1865,1457.93 1869.1,1458.89 1873.2,1461.15 1877.3,1460.21 1881.4,1458.82 1885.5,1461.46 1889.6,1459.16 1893.7,1457.12 1897.8,1452.12 1901.9,1441.33 1906,1451.08 1910.1,1460.91 1914.2,1459.79 1918.3,1456.88 1922.4,1453.99 1926.5,1454.84 1930.6,1459.85 1934.7,1462.61 1938.8,1461.03 1942.9,1462.94 1947,1455.79 1951.1,1458 1955.2,1459.11 1959.3,1457.94 1963.39,1462.18 1967.49,1460.98 1971.59,1461.69 1975.69,1459.7 1979.79,1459.21 1983.89,1457.2 1987.99,1460.21 1992.09,1462.95 1996.19,1461.06 2000.29,1463.42 2004.39,1460.22 2008.49,1463.9 2012.59,1457.95 2016.69,1460.33 2020.79,1455.12 2024.89,1464.93 2028.99,1461.41 2033.09,1460.31 2037.19,1462.08 2041.29,1463.67 2045.39,1458.81 2049.49,1458.71 2053.59,1460.08 2057.69,1462.86 2061.79,1462.98 2065.89,1462.73 2069.99,1463.32 2074.09,1464.19 2078.19,1463.01 2082.29,1463.71 2086.39,1462.63 2090.49,1460.7 2094.59,1460.51 2098.69,1463.59 2102.79,1460.61 2106.89,1455.06 2110.99,1457.1 2115.09,1457.86 2119.19,1461.32 2123.29,1464.56 2127.39,1463.69 2131.49,1460.27 2135.59,1463.63 2139.69,1461.98 2143.79,1453.91 2147.89,1463.6 2151.99,1465.44 2156.09,1462.12 2160.19,1462.24 2164.29,1460.98 2168.39,1462.59 2172.49,1463.58 2176.59,1462.74 2180.69,1466.36 2184.79,1460.17 2188.89,1457.33 2192.99,1461.37 2197.09,1464.32 2201.19,1462.94 2205.28,1466.05 2209.38,1465.2 2213.48,1462.53 2217.58,1465.39 2221.68,1462.3 2225.78,1462.04 2229.88,1463.26 2233.98,1459.21 2238.08,1459.75 2242.18,1463.37 2246.28,1464.02 2250.38,1463.74 2254.48,1466.11 2258.58,1465.46 2262.68,1460.39 2266.78,1465.28 2270.88,1464 2274.98,1464.09 2279.08,1466.77 2283.18,1459.47 2287.28,1464.33 2291.38,1468.36 "></polyline>
<path clip-path="url(#clip650)" d="M1958.57 1024.07 L2280.47 1024.07 L2280.47 868.551 L1958.57 868.551  Z" fill="#ffffff" fill-rule="evenodd" fill-opacity="1"></path>
<polyline clip-path="url(#clip650)" style="stroke:#000000; stroke-linecap:round; stroke-linejoin:round; stroke-width:4; stroke-opacity:1; fill:none" points="1958.57,1024.07 2280.47,1024.07 2280.47,868.551 1958.57,868.551 1958.57,1024.07 "></polyline>
<polyline clip-path="url(#clip650)" style="stroke:#009af9; stroke-linecap:round; stroke-linejoin:round; stroke-width:4; stroke-opacity:1; fill:none" points="1982.66,920.391 2127.23,920.391 "></polyline>
<path clip-path="url(#clip650)" d="M2158.74 904.384 L2158.74 911.745 L2167.51 911.745 L2167.51 915.055 L2158.74 915.055 L2158.74 929.129 Q2158.74 932.301 2159.59 933.203 Q2160.47 934.106 2163.13 934.106 L2167.51 934.106 L2167.51 937.671 L2163.13 937.671 Q2158.2 937.671 2156.33 935.842 Q2154.45 933.99 2154.45 929.129 L2154.45 915.055 L2151.33 915.055 L2151.33 911.745 L2154.45 911.745 L2154.45 904.384 L2158.74 904.384 Z" fill="#000000" fill-rule="nonzero" fill-opacity="1"></path><path clip-path="url(#clip650)" d="M2188.13 915.727 Q2187.42 915.31 2186.56 915.125 Q2185.73 914.916 2184.71 914.916 Q2181.1 914.916 2179.15 917.277 Q2177.23 919.615 2177.23 924.014 L2177.23 937.671 L2172.95 937.671 L2172.95 911.745 L2177.23 911.745 L2177.23 915.773 Q2178.57 913.412 2180.73 912.278 Q2182.88 911.12 2185.96 911.12 Q2186.4 911.12 2186.93 911.19 Q2187.46 911.236 2188.11 911.352 L2188.13 915.727 Z" fill="#000000" fill-rule="nonzero" fill-opacity="1"></path><path clip-path="url(#clip650)" d="M2204.38 924.639 Q2199.22 924.639 2197.23 925.819 Q2195.24 927 2195.24 929.847 Q2195.24 932.115 2196.72 933.458 Q2198.23 934.777 2200.8 934.777 Q2204.34 934.777 2206.47 932.277 Q2208.62 929.754 2208.62 925.588 L2208.62 924.639 L2204.38 924.639 M2212.88 922.879 L2212.88 937.671 L2208.62 937.671 L2208.62 933.736 Q2207.16 936.097 2204.99 937.231 Q2202.81 938.342 2199.66 938.342 Q2195.68 938.342 2193.32 936.12 Q2190.98 933.875 2190.98 930.125 Q2190.98 925.75 2193.9 923.527 Q2196.84 921.305 2202.65 921.305 L2208.62 921.305 L2208.62 920.889 Q2208.62 917.949 2206.68 916.352 Q2204.76 914.731 2201.26 914.731 Q2199.04 914.731 2196.93 915.264 Q2194.82 915.796 2192.88 916.861 L2192.88 912.926 Q2195.22 912.023 2197.42 911.583 Q2199.62 911.12 2201.7 911.12 Q2207.32 911.12 2210.1 914.037 Q2212.88 916.953 2212.88 922.879 Z" fill="#000000" fill-rule="nonzero" fill-opacity="1"></path><path clip-path="url(#clip650)" d="M2221.65 911.745 L2225.91 911.745 L2225.91 937.671 L2221.65 937.671 L2221.65 911.745 M2221.65 901.653 L2225.91 901.653 L2225.91 907.046 L2221.65 907.046 L2221.65 901.653 Z" fill="#000000" fill-rule="nonzero" fill-opacity="1"></path><path clip-path="url(#clip650)" d="M2256.38 922.023 L2256.38 937.671 L2252.12 937.671 L2252.12 922.162 Q2252.12 918.481 2250.68 916.652 Q2249.25 914.824 2246.38 914.824 Q2242.93 914.824 2240.94 917.023 Q2238.94 919.222 2238.94 923.018 L2238.94 937.671 L2234.66 937.671 L2234.66 911.745 L2238.94 911.745 L2238.94 915.773 Q2240.47 913.435 2242.53 912.278 Q2244.62 911.12 2247.32 911.12 Q2251.79 911.12 2254.08 913.898 Q2256.38 916.652 2256.38 922.023 Z" fill="#000000" fill-rule="nonzero" fill-opacity="1"></path><polyline clip-path="url(#clip650)" style="stroke:#e26f46; stroke-linecap:round; stroke-linejoin:round; stroke-width:4; stroke-opacity:1; fill:none" points="1982.66,972.231 2127.23,972.231 "></polyline>
<path clip-path="url(#clip650)" d="M2158.74 956.224 L2158.74 963.585 L2167.51 963.585 L2167.51 966.895 L2158.74 966.895 L2158.74 980.969 Q2158.74 984.141 2159.59 985.043 Q2160.47 985.946 2163.13 985.946 L2167.51 985.946 L2167.51 989.511 L2163.13 989.511 Q2158.2 989.511 2156.33 987.682 Q2154.45 985.83 2154.45 980.969 L2154.45 966.895 L2151.33 966.895 L2151.33 963.585 L2154.45 963.585 L2154.45 956.224 L2158.74 956.224 Z" fill="#000000" fill-rule="nonzero" fill-opacity="1"></path><path clip-path="url(#clip650)" d="M2195.29 975.483 L2195.29 977.567 L2175.7 977.567 Q2175.98 981.965 2178.34 984.279 Q2180.73 986.571 2184.96 986.571 Q2187.42 986.571 2189.71 985.969 Q2192.02 985.367 2194.29 984.164 L2194.29 988.191 Q2192 989.164 2189.59 989.673 Q2187.19 990.182 2184.71 990.182 Q2178.51 990.182 2174.87 986.571 Q2171.26 982.96 2171.26 976.803 Q2171.26 970.437 2174.69 966.71 Q2178.13 962.96 2183.97 962.96 Q2189.2 962.96 2192.23 966.34 Q2195.29 969.696 2195.29 975.483 M2191.03 974.233 Q2190.98 970.738 2189.06 968.655 Q2187.16 966.571 2184.01 966.571 Q2180.45 966.571 2178.3 968.585 Q2176.17 970.599 2175.84 974.256 L2191.03 974.233 Z" fill="#000000" fill-rule="nonzero" fill-opacity="1"></path><path clip-path="url(#clip650)" d="M2218.81 964.349 L2218.81 968.377 Q2217 967.451 2215.06 966.988 Q2213.11 966.525 2211.03 966.525 Q2207.86 966.525 2206.26 967.497 Q2204.69 968.469 2204.69 970.414 Q2204.69 971.895 2205.82 972.752 Q2206.95 973.585 2210.38 974.349 L2211.84 974.673 Q2216.38 975.645 2218.27 977.428 Q2220.19 979.187 2220.19 982.358 Q2220.19 985.969 2217.32 988.076 Q2214.48 990.182 2209.48 990.182 Q2207.39 990.182 2205.13 989.766 Q2202.88 989.372 2200.38 988.562 L2200.38 984.164 Q2202.74 985.391 2205.03 986.016 Q2207.32 986.617 2209.57 986.617 Q2212.58 986.617 2214.2 985.599 Q2215.82 984.557 2215.82 982.682 Q2215.82 980.946 2214.64 980.02 Q2213.48 979.094 2209.52 978.238 L2208.04 977.891 Q2204.08 977.057 2202.32 975.344 Q2200.57 973.608 2200.57 970.599 Q2200.57 966.942 2203.16 964.951 Q2205.75 962.96 2210.52 962.96 Q2212.88 962.96 2214.96 963.307 Q2217.05 963.655 2218.81 964.349 Z" fill="#000000" fill-rule="nonzero" fill-opacity="1"></path><path clip-path="url(#clip650)" d="M2231.19 956.224 L2231.19 963.585 L2239.96 963.585 L2239.96 966.895 L2231.19 966.895 L2231.19 980.969 Q2231.19 984.141 2232.05 985.043 Q2232.93 985.946 2235.59 985.946 L2239.96 985.946 L2239.96 989.511 L2235.59 989.511 Q2230.66 989.511 2228.78 987.682 Q2226.91 985.83 2226.91 980.969 L2226.91 966.895 L2223.78 966.895 L2223.78 963.585 L2226.91 963.585 L2226.91 956.224 L2231.19 956.224 Z" fill="#000000" fill-rule="nonzero" fill-opacity="1"></path></svg>