<svg xmlns="http://www.w3.org/2000/svg" xmlns:xlink="http://www.w3.org/1999/xlink" width="600" height="400" viewBox="0 0 2400 1600">
<defs>
  <clipPath id="clip430">
    <rect x="0" y="0" width="2400" height="1600"></rect>
  </clipPath>
</defs>
<path clip-path="url(#clip430)" d="M0 1600 L2400 1600 L2400 0 L0 0  Z" fill="#ffffff" fill-rule="evenodd" fill-opacity="1"></path>
<defs>
  <clipPath id="clip431">
    <rect x="480" y="0" width="1681" height="1600"></rect>
  </clipPath>
</defs>
<path clip-path="url(#clip430)" d="M214.353 1486.45 L2352.76 1486.45 L2352.76 47.2441 L214.353 47.2441  Z" fill="#ffffff" fill-rule="evenodd" fill-opacity="1"></path>
<defs>
  <clipPath id="clip432">
    <rect x="214" y="47" width="2139" height="1440"></rect>
  </clipPath>
</defs>
<polyline clip-path="url(#clip432)" style="stroke:#000000; stroke-linecap:round; stroke-linejoin:round; stroke-width:2; stroke-opacity:0.1; fill:none" points="270.831,1486.45 270.831,47.2441 "></polyline>
<polyline clip-path="url(#clip432)" style="stroke:#000000; stroke-linecap:round; stroke-linejoin:round; stroke-width:2; stroke-opacity:0.1; fill:none" points="675.111,1486.45 675.111,47.2441 "></polyline>
<polyline clip-path="url(#clip432)" style="stroke:#000000; stroke-linecap:round; stroke-linejoin:round; stroke-width:2; stroke-opacity:0.1; fill:none" points="1079.39,1486.45 1079.39,47.2441 "></polyline>
<polyline clip-path="url(#clip432)" style="stroke:#000000; stroke-linecap:round; stroke-linejoin:round; stroke-width:2; stroke-opacity:0.1; fill:none" points="1483.67,1486.45 1483.67,47.2441 "></polyline>
<polyline clip-path="url(#clip432)" style="stroke:#000000; stroke-linecap:round; stroke-linejoin:round; stroke-width:2; stroke-opacity:0.1; fill:none" points="1887.95,1486.45 1887.95,47.2441 "></polyline>
<polyline clip-path="url(#clip432)" style="stroke:#000000; stroke-linecap:round; stroke-linejoin:round; stroke-width:2; stroke-opacity:0.1; fill:none" points="2292.24,1486.45 2292.24,47.2441 "></polyline>
<polyline clip-path="url(#clip430)" style="stroke:#000000; stroke-linecap:round; stroke-linejoin:round; stroke-width:4; stroke-opacity:1; fill:none" points="214.353,1486.45 2352.76,1486.45 "></polyline>
<polyline clip-path="url(#clip430)" style="stroke:#000000; stroke-linecap:round; stroke-linejoin:round; stroke-width:4; stroke-opacity:1; fill:none" points="270.831,1486.45 270.831,1467.55 "></polyline>
<polyline clip-path="url(#clip430)" style="stroke:#000000; stroke-linecap:round; stroke-linejoin:round; stroke-width:4; stroke-opacity:1; fill:none" points="675.111,1486.45 675.111,1467.55 "></polyline>
<polyline clip-path="url(#clip430)" style="stroke:#000000; stroke-linecap:round; stroke-linejoin:round; stroke-width:4; stroke-opacity:1; fill:none" points="1079.39,1486.45 1079.39,1467.55 "></polyline>
<polyline clip-path="url(#clip430)" style="stroke:#000000; stroke-linecap:round; stroke-linejoin:round; stroke-width:4; stroke-opacity:1; fill:none" points="1483.67,1486.45 1483.67,1467.55 "></polyline>
<polyline clip-path="url(#clip430)" style="stroke:#000000; stroke-linecap:round; stroke-linejoin:round; stroke-width:4; stroke-opacity:1; fill:none" points="1887.95,1486.45 1887.95,1467.55 "></polyline>
<polyline clip-path="url(#clip430)" style="stroke:#000000; stroke-linecap:round; stroke-linejoin:round; stroke-width:4; stroke-opacity:1; fill:none" points="2292.24,1486.45 2292.24,1467.55 "></polyline>
<path clip-path="url(#clip430)" d="M270.831 1517.37 Q267.22 1517.37 265.391 1520.93 Q263.585 1524.47 263.585 1531.6 Q263.585 1538.71 265.391 1542.27 Q267.22 1545.82 270.831 1545.82 Q274.465 1545.82 276.27 1542.27 Q278.099 1538.71 278.099 1531.6 Q278.099 1524.47 276.27 1520.93 Q274.465 1517.37 270.831 1517.37 M270.831 1513.66 Q276.641 1513.66 279.696 1518.27 Q282.775 1522.85 282.775 1531.6 Q282.775 1540.33 279.696 1544.94 Q276.641 1549.52 270.831 1549.52 Q265.02 1549.52 261.942 1544.94 Q258.886 1540.33 258.886 1531.6 Q258.886 1522.85 261.942 1518.27 Q265.02 1513.66 270.831 1513.66 Z" fill="#000000" fill-rule="nonzero" fill-opacity="1"></path><path clip-path="url(#clip430)" d="M634.718 1544.91 L642.357 1544.91 L642.357 1518.55 L634.047 1520.21 L634.047 1515.95 L642.311 1514.29 L646.987 1514.29 L646.987 1544.91 L654.625 1544.91 L654.625 1548.85 L634.718 1548.85 L634.718 1544.91 Z" fill="#000000" fill-rule="nonzero" fill-opacity="1"></path><path clip-path="url(#clip430)" d="M674.07 1517.37 Q670.459 1517.37 668.63 1520.93 Q666.824 1524.47 666.824 1531.6 Q666.824 1538.71 668.63 1542.27 Q670.459 1545.82 674.07 1545.82 Q677.704 1545.82 679.51 1542.27 Q681.338 1538.71 681.338 1531.6 Q681.338 1524.47 679.51 1520.93 Q677.704 1517.37 674.07 1517.37 M674.07 1513.66 Q679.88 1513.66 682.936 1518.27 Q686.014 1522.85 686.014 1531.6 Q686.014 1540.33 682.936 1544.94 Q679.88 1549.52 674.07 1549.52 Q668.26 1549.52 665.181 1544.94 Q662.125 1540.33 662.125 1531.6 Q662.125 1522.85 665.181 1518.27 Q668.26 1513.66 674.07 1513.66 Z" fill="#000000" fill-rule="nonzero" fill-opacity="1"></path><path clip-path="url(#clip430)" d="M704.232 1517.37 Q700.621 1517.37 698.792 1520.93 Q696.986 1524.47 696.986 1531.6 Q696.986 1538.71 698.792 1542.27 Q700.621 1545.82 704.232 1545.82 Q707.866 1545.82 709.671 1542.27 Q711.5 1538.71 711.5 1531.6 Q711.5 1524.47 709.671 1520.93 Q707.866 1517.37 704.232 1517.37 M704.232 1513.66 Q710.042 1513.66 713.097 1518.27 Q716.176 1522.85 716.176 1531.6 Q716.176 1540.33 713.097 1544.94 Q710.042 1549.52 704.232 1549.52 Q698.422 1549.52 695.343 1544.94 Q692.287 1540.33 692.287 1531.6 Q692.287 1522.85 695.343 1518.27 Q698.422 1513.66 704.232 1513.66 Z" fill="#000000" fill-rule="nonzero" fill-opacity="1"></path><path clip-path="url(#clip430)" d="M1043.08 1544.91 L1059.4 1544.91 L1059.4 1548.85 L1037.46 1548.85 L1037.46 1544.91 Q1040.12 1542.16 1044.71 1537.53 Q1049.31 1532.88 1050.49 1531.53 Q1052.74 1529.01 1053.62 1527.27 Q1054.52 1525.51 1054.52 1523.82 Q1054.52 1521.07 1052.58 1519.33 Q1050.65 1517.6 1047.55 1517.6 Q1045.35 1517.6 1042.9 1518.36 Q1040.47 1519.13 1037.69 1520.68 L1037.69 1515.95 Q1040.52 1514.82 1042.97 1514.24 Q1045.42 1513.66 1047.46 1513.66 Q1052.83 1513.66 1056.02 1516.35 Q1059.22 1519.03 1059.22 1523.52 Q1059.22 1525.65 1058.41 1527.57 Q1057.62 1529.47 1055.52 1532.07 Q1054.94 1532.74 1051.83 1535.95 Q1048.73 1539.15 1043.08 1544.91 Z" fill="#000000" fill-rule="nonzero" fill-opacity="1"></path><path clip-path="url(#clip430)" d="M1079.22 1517.37 Q1075.61 1517.37 1073.78 1520.93 Q1071.97 1524.47 1071.97 1531.6 Q1071.97 1538.71 1073.78 1542.27 Q1075.61 1545.82 1079.22 1545.82 Q1082.85 1545.82 1084.66 1542.27 Q1086.49 1538.71 1086.49 1531.6 Q1086.49 1524.47 1084.66 1520.93 Q1082.85 1517.37 1079.22 1517.37 M1079.22 1513.66 Q1085.03 1513.66 1088.08 1518.27 Q1091.16 1522.85 1091.16 1531.6 Q1091.16 1540.33 1088.08 1544.94 Q1085.03 1549.52 1079.22 1549.52 Q1073.41 1549.52 1070.33 1544.94 Q1067.27 1540.33 1067.27 1531.6 Q1067.27 1522.85 1070.33 1518.27 Q1073.41 1513.66 1079.22 1513.66 Z" fill="#000000" fill-rule="nonzero" fill-opacity="1"></path><path clip-path="url(#clip430)" d="M1109.38 1517.37 Q1105.77 1517.37 1103.94 1520.93 Q1102.14 1524.47 1102.14 1531.6 Q1102.14 1538.71 1103.94 1542.27 Q1105.77 1545.82 1109.38 1545.82 Q1113.01 1545.82 1114.82 1542.27 Q1116.65 1538.71 1116.65 1531.6 Q1116.65 1524.47 1114.82 1520.93 Q1113.01 1517.37 1109.38 1517.37 M1109.38 1513.66 Q1115.19 1513.66 1118.25 1518.27 Q1121.33 1522.85 1121.33 1531.6 Q1121.33 1540.33 1118.25 1544.94 Q1115.19 1549.52 1109.38 1549.52 Q1103.57 1549.52 1100.49 1544.94 Q1097.44 1540.33 1097.44 1531.6 Q1097.44 1522.85 1100.49 1518.27 Q1103.57 1513.66 1109.38 1513.66 Z" fill="#000000" fill-rule="nonzero" fill-opacity="1"></path><path clip-path="url(#clip430)" d="M1457.43 1530.21 Q1460.79 1530.93 1462.67 1533.2 Q1464.56 1535.47 1464.56 1538.8 Q1464.56 1543.92 1461.05 1546.72 Q1457.53 1549.52 1451.05 1549.52 Q1448.87 1549.52 1446.56 1549.08 Q1444.26 1548.66 1441.81 1547.81 L1441.81 1543.29 Q1443.75 1544.43 1446.07 1545.01 Q1448.38 1545.58 1450.91 1545.58 Q1455.31 1545.58 1457.6 1543.85 Q1459.91 1542.11 1459.91 1538.8 Q1459.91 1535.75 1457.76 1534.03 Q1455.63 1532.3 1451.81 1532.3 L1447.78 1532.3 L1447.78 1528.45 L1452 1528.45 Q1455.44 1528.45 1457.27 1527.09 Q1459.1 1525.7 1459.1 1523.11 Q1459.1 1520.45 1457.2 1519.03 Q1455.33 1517.6 1451.81 1517.6 Q1449.89 1517.6 1447.69 1518.01 Q1445.49 1518.43 1442.85 1519.31 L1442.85 1515.14 Q1445.51 1514.4 1447.83 1514.03 Q1450.17 1513.66 1452.23 1513.66 Q1457.55 1513.66 1460.65 1516.09 Q1463.75 1518.5 1463.75 1522.62 Q1463.75 1525.49 1462.11 1527.48 Q1460.47 1529.45 1457.43 1530.21 Z" fill="#000000" fill-rule="nonzero" fill-opacity="1"></path><path clip-path="url(#clip430)" d="M1483.43 1517.37 Q1479.82 1517.37 1477.99 1520.93 Q1476.18 1524.47 1476.18 1531.6 Q1476.18 1538.71 1477.99 1542.27 Q1479.82 1545.82 1483.43 1545.82 Q1487.06 1545.82 1488.87 1542.27 Q1490.7 1538.71 1490.7 1531.6 Q1490.7 1524.47 1488.87 1520.93 Q1487.06 1517.37 1483.43 1517.37 M1483.43 1513.66 Q1489.24 1513.66 1492.3 1518.27 Q1495.37 1522.85 1495.37 1531.6 Q1495.37 1540.33 1492.3 1544.94 Q1489.24 1549.52 1483.43 1549.52 Q1477.62 1549.52 1474.54 1544.94 Q1471.49 1540.33 1471.49 1531.6 Q1471.49 1522.85 1474.54 1518.27 Q1477.62 1513.66 1483.43 1513.66 Z" fill="#000000" fill-rule="nonzero" fill-opacity="1"></path><path clip-path="url(#clip430)" d="M1513.59 1517.37 Q1509.98 1517.37 1508.15 1520.93 Q1506.35 1524.47 1506.35 1531.6 Q1506.35 1538.71 1508.15 1542.27 Q1509.98 1545.82 1513.59 1545.82 Q1517.23 1545.82 1519.03 1542.27 Q1520.86 1538.71 1520.86 1531.6 Q1520.86 1524.47 1519.03 1520.93 Q1517.23 1517.37 1513.59 1517.37 M1513.59 1513.66 Q1519.4 1513.66 1522.46 1518.27 Q1525.54 1522.85 1525.54 1531.6 Q1525.54 1540.33 1522.46 1544.94 Q1519.4 1549.52 1513.59 1549.52 Q1507.78 1549.52 1504.7 1544.94 Q1501.65 1540.33 1501.65 1531.6 Q1501.65 1522.85 1504.7 1518.27 Q1507.78 1513.66 1513.59 1513.66 Z" fill="#000000" fill-rule="nonzero" fill-opacity="1"></path><path clip-path="url(#clip430)" d="M1861.04 1518.36 L1849.24 1536.81 L1861.04 1536.81 L1861.04 1518.36 M1859.82 1514.29 L1865.7 1514.29 L1865.7 1536.81 L1870.63 1536.81 L1870.63 1540.7 L1865.7 1540.7 L1865.7 1548.85 L1861.04 1548.85 L1861.04 1540.7 L1845.44 1540.7 L1845.44 1536.19 L1859.82 1514.29 Z" fill="#000000" fill-rule="nonzero" fill-opacity="1"></path><path clip-path="url(#clip430)" d="M1888.36 1517.37 Q1884.75 1517.37 1882.92 1520.93 Q1881.11 1524.47 1881.11 1531.6 Q1881.11 1538.71 1882.92 1542.27 Q1884.75 1545.82 1888.36 1545.82 Q1891.99 1545.82 1893.8 1542.27 Q1895.63 1538.71 1895.63 1531.6 Q1895.63 1524.47 1893.8 1520.93 Q1891.99 1517.37 1888.36 1517.37 M1888.36 1513.66 Q1894.17 1513.66 1897.22 1518.27 Q1900.3 1522.85 1900.3 1531.6 Q1900.3 1540.33 1897.22 1544.94 Q1894.17 1549.52 1888.36 1549.52 Q1882.55 1549.52 1879.47 1544.94 Q1876.41 1540.33 1876.41 1531.6 Q1876.41 1522.85 1879.47 1518.27 Q1882.55 1513.66 1888.36 1513.66 Z" fill="#000000" fill-rule="nonzero" fill-opacity="1"></path><path clip-path="url(#clip430)" d="M1918.52 1517.37 Q1914.91 1517.37 1913.08 1520.93 Q1911.28 1524.47 1911.28 1531.6 Q1911.28 1538.71 1913.08 1542.27 Q1914.91 1545.82 1918.52 1545.82 Q1922.16 1545.82 1923.96 1542.27 Q1925.79 1538.71 1925.79 1531.6 Q1925.79 1524.47 1923.96 1520.93 Q1922.16 1517.37 1918.52 1517.37 M1918.52 1513.66 Q1924.33 1513.66 1927.39 1518.27 Q1930.47 1522.85 1930.47 1531.6 Q1930.47 1540.33 1927.39 1544.94 Q1924.33 1549.52 1918.52 1549.52 Q1912.71 1549.52 1909.63 1544.94 Q1906.58 1540.33 1906.58 1531.6 Q1906.58 1522.85 1909.63 1518.27 Q1912.71 1513.66 1918.52 1513.66 Z" fill="#000000" fill-rule="nonzero" fill-opacity="1"></path><path clip-path="url(#clip430)" d="M2251.85 1514.29 L2270.21 1514.29 L2270.21 1518.22 L2256.14 1518.22 L2256.14 1526.7 Q2257.15 1526.35 2258.17 1526.19 Q2259.19 1526 2260.21 1526 Q2266 1526 2269.38 1529.17 Q2272.76 1532.34 2272.76 1537.76 Q2272.76 1543.34 2269.28 1546.44 Q2265.81 1549.52 2259.49 1549.52 Q2257.32 1549.52 2255.05 1549.15 Q2252.8 1548.78 2250.4 1548.04 L2250.4 1543.34 Q2252.48 1544.47 2254.7 1545.03 Q2256.92 1545.58 2259.4 1545.58 Q2263.4 1545.58 2265.74 1543.48 Q2268.08 1541.37 2268.08 1537.76 Q2268.08 1534.15 2265.74 1532.04 Q2263.4 1529.94 2259.4 1529.94 Q2257.52 1529.94 2255.65 1530.35 Q2253.8 1530.77 2251.85 1531.65 L2251.85 1514.29 Z" fill="#000000" fill-rule="nonzero" fill-opacity="1"></path><path clip-path="url(#clip430)" d="M2291.97 1517.37 Q2288.36 1517.37 2286.53 1520.93 Q2284.72 1524.47 2284.72 1531.6 Q2284.72 1538.71 2286.53 1542.27 Q2288.36 1545.82 2291.97 1545.82 Q2295.6 1545.82 2297.41 1542.27 Q2299.24 1538.71 2299.24 1531.6 Q2299.24 1524.47 2297.41 1520.93 Q2295.6 1517.37 2291.97 1517.37 M2291.97 1513.66 Q2297.78 1513.66 2300.83 1518.27 Q2303.91 1522.85 2303.91 1531.6 Q2303.91 1540.33 2300.83 1544.94 Q2297.78 1549.52 2291.97 1549.52 Q2286.16 1549.52 2283.08 1544.94 Q2280.02 1540.33 2280.02 1531.6 Q2280.02 1522.85 2283.08 1518.27 Q2286.16 1513.66 2291.97 1513.66 Z" fill="#000000" fill-rule="nonzero" fill-opacity="1"></path><path clip-path="url(#clip430)" d="M2322.13 1517.37 Q2318.52 1517.37 2316.69 1520.93 Q2314.89 1524.47 2314.89 1531.6 Q2314.89 1538.71 2316.69 1542.27 Q2318.52 1545.82 2322.13 1545.82 Q2325.76 1545.82 2327.57 1542.27 Q2329.4 1538.71 2329.4 1531.6 Q2329.4 1524.47 2327.57 1520.93 Q2325.76 1517.37 2322.13 1517.37 M2322.13 1513.66 Q2327.94 1513.66 2331 1518.27 Q2334.08 1522.85 2334.08 1531.6 Q2334.08 1540.33 2331 1544.94 Q2327.94 1549.52 2322.13 1549.52 Q2316.32 1549.52 2313.24 1544.94 Q2310.19 1540.33 2310.19 1531.6 Q2310.19 1522.85 2313.24 1518.27 Q2316.32 1513.66 2322.13 1513.66 Z" fill="#000000" fill-rule="nonzero" fill-opacity="1"></path><polyline clip-path="url(#clip432)" style="stroke:#000000; stroke-linecap:round; stroke-linejoin:round; stroke-width:2; stroke-opacity:0.1; fill:none" points="214.353,1339.26 2352.76,1339.26 "></polyline>
<polyline clip-path="url(#clip432)" style="stroke:#000000; stroke-linecap:round; stroke-linejoin:round; stroke-width:2; stroke-opacity:0.1; fill:none" points="214.353,1122.07 2352.76,1122.07 "></polyline>
<polyline clip-path="url(#clip432)" style="stroke:#000000; stroke-linecap:round; stroke-linejoin:round; stroke-width:2; stroke-opacity:0.1; fill:none" points="214.353,904.876 2352.76,904.876 "></polyline>
<polyline clip-path="url(#clip432)" style="stroke:#000000; stroke-linecap:round; stroke-linejoin:round; stroke-width:2; stroke-opacity:0.1; fill:none" points="214.353,687.685 2352.76,687.685 "></polyline>
<polyline clip-path="url(#clip432)" style="stroke:#000000; stroke-linecap:round; stroke-linejoin:round; stroke-width:2; stroke-opacity:0.1; fill:none" points="214.353,470.493 2352.76,470.493 "></polyline>
<polyline clip-path="url(#clip432)" style="stroke:#000000; stroke-linecap:round; stroke-linejoin:round; stroke-width:2; stroke-opacity:0.1; fill:none" points="214.353,253.302 2352.76,253.302 "></polyline>
<polyline clip-path="url(#clip430)" style="stroke:#000000; stroke-linecap:round; stroke-linejoin:round; stroke-width:4; stroke-opacity:1; fill:none" points="214.353,1486.45 214.353,47.2441 "></polyline>
<polyline clip-path="url(#clip430)" style="stroke:#000000; stroke-linecap:round; stroke-linejoin:round; stroke-width:4; stroke-opacity:1; fill:none" points="214.353,1339.26 233.25,1339.26 "></polyline>
<polyline clip-path="url(#clip430)" style="stroke:#000000; stroke-linecap:round; stroke-linejoin:round; stroke-width:4; stroke-opacity:1; fill:none" points="214.353,1122.07 233.25,1122.07 "></polyline>
<polyline clip-path="url(#clip430)" style="stroke:#000000; stroke-linecap:round; stroke-linejoin:round; stroke-width:4; stroke-opacity:1; fill:none" points="214.353,904.876 233.25,904.876 "></polyline>
<polyline clip-path="url(#clip430)" style="stroke:#000000; stroke-linecap:round; stroke-linejoin:round; stroke-width:4; stroke-opacity:1; fill:none" points="214.353,687.685 233.25,687.685 "></polyline>
<polyline clip-path="url(#clip430)" style="stroke:#000000; stroke-linecap:round; stroke-linejoin:round; stroke-width:4; stroke-opacity:1; fill:none" points="214.353,470.493 233.25,470.493 "></polyline>
<polyline clip-path="url(#clip430)" style="stroke:#000000; stroke-linecap:round; stroke-linejoin:round; stroke-width:4; stroke-opacity:1; fill:none" points="214.353,253.302 233.25,253.302 "></polyline>
<path clip-path="url(#clip430)" d="M82.1494 1355.82 L82.1494 1351.56 Q83.9086 1352.4 85.7142 1352.84 Q87.5197 1353.28 89.2558 1353.28 Q93.8854 1353.28 96.316 1350.17 Q98.7696 1347.05 99.1169 1340.71 Q97.7743 1342.7 95.7141 1343.76 Q93.6539 1344.83 91.1539 1344.83 Q85.9688 1344.83 82.9364 1341.7 Q79.9272 1338.55 79.9272 1333.11 Q79.9272 1327.79 83.0753 1324.57 Q86.2234 1321.35 91.4549 1321.35 Q97.4502 1321.35 100.598 1325.96 Q103.77 1330.54 103.77 1339.29 Q103.77 1347.47 99.8808 1352.35 Q96.015 1357.21 89.4641 1357.21 Q87.7049 1357.21 85.8993 1356.86 Q84.0938 1356.52 82.1494 1355.82 M91.4549 1341.17 Q94.603 1341.17 96.4317 1339.02 Q98.2835 1336.86 98.2835 1333.11 Q98.2835 1329.39 96.4317 1327.23 Q94.603 1325.06 91.4549 1325.06 Q88.3067 1325.06 86.4549 1327.23 Q84.6262 1329.39 84.6262 1333.11 Q84.6262 1336.86 86.4549 1339.02 Q88.3067 1341.17 91.4549 1341.17 Z" fill="#000000" fill-rule="nonzero" fill-opacity="1"></path><path clip-path="url(#clip430)" d="M112.172 1350.66 L117.057 1350.66 L117.057 1356.54 L112.172 1356.54 L112.172 1350.66 Z" fill="#000000" fill-rule="nonzero" fill-opacity="1"></path><path clip-path="url(#clip430)" d="M126.061 1321.98 L148.283 1321.98 L148.283 1323.97 L135.737 1356.54 L130.853 1356.54 L142.658 1325.91 L126.061 1325.91 L126.061 1321.98 Z" fill="#000000" fill-rule="nonzero" fill-opacity="1"></path><path clip-path="url(#clip430)" d="M157.45 1321.98 L175.806 1321.98 L175.806 1325.91 L161.732 1325.91 L161.732 1334.39 Q162.751 1334.04 163.769 1333.88 Q164.788 1333.69 165.806 1333.69 Q171.593 1333.69 174.973 1336.86 Q178.353 1340.03 178.353 1345.45 Q178.353 1351.03 174.88 1354.13 Q171.408 1357.21 165.089 1357.21 Q162.913 1357.21 160.644 1356.84 Q158.399 1356.47 155.992 1355.73 L155.992 1351.03 Q158.075 1352.16 160.297 1352.72 Q162.519 1353.28 164.996 1353.28 Q169.001 1353.28 171.339 1351.17 Q173.677 1349.06 173.677 1345.45 Q173.677 1341.84 171.339 1339.73 Q169.001 1337.63 164.996 1337.63 Q163.121 1337.63 161.246 1338.04 Q159.394 1338.46 157.45 1339.34 L157.45 1321.98 Z" fill="#000000" fill-rule="nonzero" fill-opacity="1"></path><path clip-path="url(#clip430)" d="M51.6634 1135.41 L59.3023 1135.41 L59.3023 1109.05 L50.9921 1110.71 L50.9921 1106.45 L59.256 1104.79 L63.9319 1104.79 L63.9319 1135.41 L71.5707 1135.41 L71.5707 1139.35 L51.6634 1139.35 L51.6634 1135.41 Z" fill="#000000" fill-rule="nonzero" fill-opacity="1"></path><path clip-path="url(#clip430)" d="M91.0151 1107.87 Q87.404 1107.87 85.5753 1111.43 Q83.7697 1114.97 83.7697 1122.1 Q83.7697 1129.21 85.5753 1132.77 Q87.404 1136.32 91.0151 1136.32 Q94.6493 1136.32 96.4548 1132.77 Q98.2835 1129.21 98.2835 1122.1 Q98.2835 1114.97 96.4548 1111.43 Q94.6493 1107.87 91.0151 1107.87 M91.0151 1104.16 Q96.8252 1104.16 99.8808 1108.77 Q102.959 1113.35 102.959 1122.1 Q102.959 1130.83 99.8808 1135.44 Q96.8252 1140.02 91.0151 1140.02 Q85.2049 1140.02 82.1262 1135.44 Q79.0707 1130.83 79.0707 1122.1 Q79.0707 1113.35 82.1262 1108.77 Q85.2049 1104.16 91.0151 1104.16 Z" fill="#000000" fill-rule="nonzero" fill-opacity="1"></path><path clip-path="url(#clip430)" d="M111.177 1133.47 L116.061 1133.47 L116.061 1139.35 L111.177 1139.35 L111.177 1133.47 Z" fill="#000000" fill-rule="nonzero" fill-opacity="1"></path><path clip-path="url(#clip430)" d="M136.246 1107.87 Q132.635 1107.87 130.807 1111.43 Q129.001 1114.97 129.001 1122.1 Q129.001 1129.21 130.807 1132.77 Q132.635 1136.32 136.246 1136.32 Q139.881 1136.32 141.686 1132.77 Q143.515 1129.21 143.515 1122.1 Q143.515 1114.97 141.686 1111.43 Q139.881 1107.87 136.246 1107.87 M136.246 1104.16 Q142.056 1104.16 145.112 1108.77 Q148.191 1113.35 148.191 1122.1 Q148.191 1130.83 145.112 1135.44 Q142.056 1140.02 136.246 1140.02 Q130.436 1140.02 127.357 1135.44 Q124.302 1130.83 124.302 1122.1 Q124.302 1113.35 127.357 1108.77 Q130.436 1104.16 136.246 1104.16 Z" fill="#000000" fill-rule="nonzero" fill-opacity="1"></path><path clip-path="url(#clip430)" d="M166.408 1107.87 Q162.797 1107.87 160.968 1111.43 Q159.163 1114.97 159.163 1122.1 Q159.163 1129.21 160.968 1132.77 Q162.797 1136.32 166.408 1136.32 Q170.042 1136.32 171.848 1132.77 Q173.677 1129.21 173.677 1122.1 Q173.677 1114.97 171.848 1111.43 Q170.042 1107.87 166.408 1107.87 M166.408 1104.16 Q172.218 1104.16 175.274 1108.77 Q178.353 1113.35 178.353 1122.1 Q178.353 1130.83 175.274 1135.44 Q172.218 1140.02 166.408 1140.02 Q160.598 1140.02 157.519 1135.44 Q154.464 1130.83 154.464 1122.1 Q154.464 1113.35 157.519 1108.77 Q160.598 1104.16 166.408 1104.16 Z" fill="#000000" fill-rule="nonzero" fill-opacity="1"></path><path clip-path="url(#clip430)" d="M52.6588 918.221 L60.2976 918.221 L60.2976 891.855 L51.9875 893.522 L51.9875 889.263 L60.2513 887.596 L64.9272 887.596 L64.9272 918.221 L72.5661 918.221 L72.5661 922.156 L52.6588 922.156 L52.6588 918.221 Z" fill="#000000" fill-rule="nonzero" fill-opacity="1"></path><path clip-path="url(#clip430)" d="M92.0104 890.675 Q88.3993 890.675 86.5706 894.24 Q84.7651 897.781 84.7651 904.911 Q84.7651 912.017 86.5706 915.582 Q88.3993 919.124 92.0104 919.124 Q95.6447 919.124 97.4502 915.582 Q99.2789 912.017 99.2789 904.911 Q99.2789 897.781 97.4502 894.24 Q95.6447 890.675 92.0104 890.675 M92.0104 886.971 Q97.8206 886.971 100.876 891.578 Q103.955 896.161 103.955 904.911 Q103.955 913.638 100.876 918.244 Q97.8206 922.827 92.0104 922.827 Q86.2003 922.827 83.1216 918.244 Q80.066 913.638 80.066 904.911 Q80.066 896.161 83.1216 891.578 Q86.2003 886.971 92.0104 886.971 Z" fill="#000000" fill-rule="nonzero" fill-opacity="1"></path><path clip-path="url(#clip430)" d="M112.172 916.277 L117.057 916.277 L117.057 922.156 L112.172 922.156 L112.172 916.277 Z" fill="#000000" fill-rule="nonzero" fill-opacity="1"></path><path clip-path="url(#clip430)" d="M131.269 918.221 L147.589 918.221 L147.589 922.156 L125.645 922.156 L125.645 918.221 Q128.307 915.466 132.89 910.837 Q137.496 906.184 138.677 904.841 Q140.922 902.318 141.802 900.582 Q142.705 898.823 142.705 897.133 Q142.705 894.379 140.76 892.642 Q138.839 890.906 135.737 890.906 Q133.538 890.906 131.084 891.67 Q128.654 892.434 125.876 893.985 L125.876 889.263 Q128.7 888.129 131.154 887.55 Q133.607 886.971 135.644 886.971 Q141.015 886.971 144.209 889.656 Q147.404 892.341 147.404 896.832 Q147.404 898.962 146.593 900.883 Q145.806 902.781 143.7 905.374 Q143.121 906.045 140.019 909.263 Q136.918 912.457 131.269 918.221 Z" fill="#000000" fill-rule="nonzero" fill-opacity="1"></path><path clip-path="url(#clip430)" d="M157.45 887.596 L175.806 887.596 L175.806 891.531 L161.732 891.531 L161.732 900.003 Q162.751 899.656 163.769 899.494 Q164.788 899.309 165.806 899.309 Q171.593 899.309 174.973 902.48 Q178.353 905.652 178.353 911.068 Q178.353 916.647 174.88 919.749 Q171.408 922.827 165.089 922.827 Q162.913 922.827 160.644 922.457 Q158.399 922.087 155.992 921.346 L155.992 916.647 Q158.075 917.781 160.297 918.337 Q162.519 918.892 164.996 918.892 Q169.001 918.892 171.339 916.786 Q173.677 914.679 173.677 911.068 Q173.677 907.457 171.339 905.351 Q169.001 903.244 164.996 903.244 Q163.121 903.244 161.246 903.661 Q159.394 904.078 157.45 904.957 L157.45 887.596 Z" fill="#000000" fill-rule="nonzero" fill-opacity="1"></path><path clip-path="url(#clip430)" d="M51.6634 701.029 L59.3023 701.029 L59.3023 674.664 L50.9921 676.331 L50.9921 672.071 L59.256 670.405 L63.9319 670.405 L63.9319 701.029 L71.5707 701.029 L71.5707 704.965 L51.6634 704.965 L51.6634 701.029 Z" fill="#000000" fill-rule="nonzero" fill-opacity="1"></path><path clip-path="url(#clip430)" d="M91.0151 673.483 Q87.404 673.483 85.5753 677.048 Q83.7697 680.59 83.7697 687.719 Q83.7697 694.826 85.5753 698.391 Q87.404 701.932 91.0151 701.932 Q94.6493 701.932 96.4548 698.391 Q98.2835 694.826 98.2835 687.719 Q98.2835 680.59 96.4548 677.048 Q94.6493 673.483 91.0151 673.483 M91.0151 669.78 Q96.8252 669.78 99.8808 674.386 Q102.959 678.969 102.959 687.719 Q102.959 696.446 99.8808 701.053 Q96.8252 705.636 91.0151 705.636 Q85.2049 705.636 82.1262 701.053 Q79.0707 696.446 79.0707 687.719 Q79.0707 678.969 82.1262 674.386 Q85.2049 669.78 91.0151 669.78 Z" fill="#000000" fill-rule="nonzero" fill-opacity="1"></path><path clip-path="url(#clip430)" d="M111.177 699.085 L116.061 699.085 L116.061 704.965 L111.177 704.965 L111.177 699.085 Z" fill="#000000" fill-rule="nonzero" fill-opacity="1"></path><path clip-path="url(#clip430)" d="M126.293 670.405 L144.649 670.405 L144.649 674.34 L130.575 674.34 L130.575 682.812 Q131.594 682.465 132.612 682.303 Q133.631 682.118 134.649 682.118 Q140.436 682.118 143.816 685.289 Q147.195 688.46 147.195 693.877 Q147.195 699.455 143.723 702.557 Q140.251 705.636 133.931 705.636 Q131.756 705.636 129.487 705.266 Q127.242 704.895 124.834 704.154 L124.834 699.455 Q126.918 700.59 129.14 701.145 Q131.362 701.701 133.839 701.701 Q137.844 701.701 140.181 699.594 Q142.519 697.488 142.519 693.877 Q142.519 690.266 140.181 688.159 Q137.844 686.053 133.839 686.053 Q131.964 686.053 130.089 686.469 Q128.237 686.886 126.293 687.766 L126.293 670.405 Z" fill="#000000" fill-rule="nonzero" fill-opacity="1"></path><path clip-path="url(#clip430)" d="M166.408 673.483 Q162.797 673.483 160.968 677.048 Q159.163 680.59 159.163 687.719 Q159.163 694.826 160.968 698.391 Q162.797 701.932 166.408 701.932 Q170.042 701.932 171.848 698.391 Q173.677 694.826 173.677 687.719 Q173.677 680.59 171.848 677.048 Q170.042 673.483 166.408 673.483 M166.408 669.78 Q172.218 669.78 175.274 674.386 Q178.353 678.969 178.353 687.719 Q178.353 696.446 175.274 701.053 Q172.218 705.636 166.408 705.636 Q160.598 705.636 157.519 701.053 Q154.464 696.446 154.464 687.719 Q154.464 678.969 157.519 674.386 Q160.598 669.78 166.408 669.78 Z" fill="#000000" fill-rule="nonzero" fill-opacity="1"></path><path clip-path="url(#clip430)" d="M52.6588 483.838 L60.2976 483.838 L60.2976 457.472 L51.9875 459.139 L51.9875 454.88 L60.2513 453.213 L64.9272 453.213 L64.9272 483.838 L72.5661 483.838 L72.5661 487.773 L52.6588 487.773 L52.6588 483.838 Z" fill="#000000" fill-rule="nonzero" fill-opacity="1"></path><path clip-path="url(#clip430)" d="M92.0104 456.292 Q88.3993 456.292 86.5706 459.857 Q84.7651 463.398 84.7651 470.528 Q84.7651 477.634 86.5706 481.199 Q88.3993 484.741 92.0104 484.741 Q95.6447 484.741 97.4502 481.199 Q99.2789 477.634 99.2789 470.528 Q99.2789 463.398 97.4502 459.857 Q95.6447 456.292 92.0104 456.292 M92.0104 452.588 Q97.8206 452.588 100.876 457.195 Q103.955 461.778 103.955 470.528 Q103.955 479.255 100.876 483.861 Q97.8206 488.444 92.0104 488.444 Q86.2003 488.444 83.1216 483.861 Q80.066 479.255 80.066 470.528 Q80.066 461.778 83.1216 457.195 Q86.2003 452.588 92.0104 452.588 Z" fill="#000000" fill-rule="nonzero" fill-opacity="1"></path><path clip-path="url(#clip430)" d="M112.172 481.894 L117.057 481.894 L117.057 487.773 L112.172 487.773 L112.172 481.894 Z" fill="#000000" fill-rule="nonzero" fill-opacity="1"></path><path clip-path="url(#clip430)" d="M126.061 453.213 L148.283 453.213 L148.283 455.204 L135.737 487.773 L130.853 487.773 L142.658 457.148 L126.061 457.148 L126.061 453.213 Z" fill="#000000" fill-rule="nonzero" fill-opacity="1"></path><path clip-path="url(#clip430)" d="M157.45 453.213 L175.806 453.213 L175.806 457.148 L161.732 457.148 L161.732 465.62 Q162.751 465.273 163.769 465.111 Q164.788 464.926 165.806 464.926 Q171.593 464.926 174.973 468.097 Q178.353 471.269 178.353 476.685 Q178.353 482.264 174.88 485.366 Q171.408 488.444 165.089 488.444 Q162.913 488.444 160.644 488.074 Q158.399 487.704 155.992 486.963 L155.992 482.264 Q158.075 483.398 160.297 483.954 Q162.519 484.509 164.996 484.509 Q169.001 484.509 171.339 482.403 Q173.677 480.296 173.677 476.685 Q173.677 473.074 171.339 470.968 Q169.001 468.861 164.996 468.861 Q163.121 468.861 161.246 469.278 Q159.394 469.695 157.45 470.574 L157.45 453.213 Z" fill="#000000" fill-rule="nonzero" fill-opacity="1"></path><path clip-path="url(#clip430)" d="M51.6634 266.646 L59.3023 266.646 L59.3023 240.281 L50.9921 241.948 L50.9921 237.688 L59.256 236.022 L63.9319 236.022 L63.9319 266.646 L71.5707 266.646 L71.5707 270.582 L51.6634 270.582 L51.6634 266.646 Z" fill="#000000" fill-rule="nonzero" fill-opacity="1"></path><path clip-path="url(#clip430)" d="M81.8253 266.646 L89.4641 266.646 L89.4641 240.281 L81.154 241.948 L81.154 237.688 L89.4178 236.022 L94.0937 236.022 L94.0937 266.646 L101.733 266.646 L101.733 270.582 L81.8253 270.582 L81.8253 266.646 Z" fill="#000000" fill-rule="nonzero" fill-opacity="1"></path><path clip-path="url(#clip430)" d="M111.177 264.702 L116.061 264.702 L116.061 270.582 L111.177 270.582 L111.177 264.702 Z" fill="#000000" fill-rule="nonzero" fill-opacity="1"></path><path clip-path="url(#clip430)" d="M136.246 239.1 Q132.635 239.1 130.807 242.665 Q129.001 246.207 129.001 253.336 Q129.001 260.443 130.807 264.008 Q132.635 267.549 136.246 267.549 Q139.881 267.549 141.686 264.008 Q143.515 260.443 143.515 253.336 Q143.515 246.207 141.686 242.665 Q139.881 239.1 136.246 239.1 M136.246 235.397 Q142.056 235.397 145.112 240.003 Q148.191 244.586 148.191 253.336 Q148.191 262.063 145.112 266.67 Q142.056 271.253 136.246 271.253 Q130.436 271.253 127.357 266.67 Q124.302 262.063 124.302 253.336 Q124.302 244.586 127.357 240.003 Q130.436 235.397 136.246 235.397 Z" fill="#000000" fill-rule="nonzero" fill-opacity="1"></path><path clip-path="url(#clip430)" d="M166.408 239.1 Q162.797 239.1 160.968 242.665 Q159.163 246.207 159.163 253.336 Q159.163 260.443 160.968 264.008 Q162.797 267.549 166.408 267.549 Q170.042 267.549 171.848 264.008 Q173.677 260.443 173.677 253.336 Q173.677 246.207 171.848 242.665 Q170.042 239.1 166.408 239.1 M166.408 235.397 Q172.218 235.397 175.274 240.003 Q178.353 244.586 178.353 253.336 Q178.353 262.063 175.274 266.67 Q172.218 271.253 166.408 271.253 Q160.598 271.253 157.519 266.67 Q154.464 262.063 154.464 253.336 Q154.464 244.586 157.519 240.003 Q160.598 235.397 166.408 235.397 Z" fill="#000000" fill-rule="nonzero" fill-opacity="1"></path><polyline clip-path="url(#clip432)" style="stroke:#009af9; stroke-linecap:round; stroke-linejoin:round; stroke-width:4; stroke-opacity:1; fill:none" points="274.873,87.9763 278.916,273.711 282.959,405.127 287.002,525.263 291.045,654.116 295.087,773.602 299.13,881.905 303.173,986.702 307.216,1065.92 311.259,1132.35 315.301,1177.95 319.344,1203.17 323.387,1216.43 327.43,1222.22 331.473,1225.39 335.516,1230.58 339.558,1232.51 343.601,1234.74 347.644,1235.65 351.687,1235.57 355.73,1236.54 359.772,1235.22 363.815,1236.99 367.858,1236.96 371.901,1238.04 375.944,1238.06 379.986,1237.02 384.029,1238.56 388.072,1239.52 392.115,1239.55 396.158,1240.07 400.2,1240.5 404.243,1240.9 408.286,1241.87 412.329,1241.41 416.372,1241.73 420.415,1242.03 424.457,1243.94 428.5,1244.15 432.543,1244.76 436.586,1246.11 440.629,1244.62 444.671,1245.77 448.714,1247.64 452.757,1248.98 456.8,1249.74 460.843,1248.67 464.885,1252.27 468.928,1253.21 472.971,1252.73 477.014,1254.29 481.057,1256.04 485.099,1256.79 489.142,1254.95 493.185,1257.66 497.228,1261.07 501.271,1260.52 505.314,1263.52 509.356,1265.16 513.399,1265.12 517.442,1265.97 521.485,1267.58 525.528,1270.38 529.57,1271.07 533.613,1271.81 537.656,1274.39 541.699,1275.96 545.742,1277.06 549.784,1275.32 553.827,1277.56 557.87,1280.07 561.913,1281.69 565.956,1282.51 569.998,1284.33 574.041,1284.95 578.084,1286.92 582.127,1285.61 586.17,1288.85 590.213,1289.07 594.255,1289.11 598.298,1291.72 602.341,1293.26 606.384,1293.55 610.427,1295.31 614.469,1296.42 618.512,1297.26 622.555,1297.96 626.598,1298.03 630.641,1298.98 634.683,1301.46 638.726,1300.88 642.769,1304.19 646.812,1303.49 650.855,1305.47 654.897,1307.13 658.94,1304.92 662.983,1305.47 667.026,1304.81 671.069,1309.62 675.111,1306.32 679.154,1304.21 683.197,1314.02 687.24,1314.07 691.283,1317.23 695.326,1316.77 699.368,1317.64 703.411,1319.31 707.454,1320.55 711.497,1321.25 715.54,1322.52 719.582,1323.42 723.625,1324.1 727.668,1323.49 731.711,1325.38 735.754,1324.72 739.796,1327.06 743.839,1326.17 747.882,1327.92 751.925,1330.15 755.968,1330.09 760.01,1330.88 764.053,1328.86 768.096,1333.1 772.139,1332.58 776.182,1333.2 780.225,1333.73 784.267,1330.67 788.31,1334.25 792.353,1335.12 796.396,1333.27 800.439,1334.58 804.481,1337.63 808.524,1336.37 812.567,1337.98 816.61,1333.83 820.653,1339.75 824.695,1338.46 828.738,1340.45 832.781,1339.24 836.824,1341.56 840.867,1340.76 844.909,1342.18 848.952,1343.07 852.995,1342.88 857.038,1342.49 861.081,1344.21 865.124,1343.02 869.166,1342.83 873.209,1345.02 877.252,1344.94 881.295,1343.46 885.338,1346.15 889.38,1344.73 893.423,1346.76 897.466,1347.02 901.509,1346.96 905.552,1348.6 909.594,1348.24 913.637,1348.7 917.68,1348.54 921.723,1350.17 925.766,1348.38 929.808,1350.68 933.851,1349.27 937.894,1350.63 941.937,1349.28 945.98,1351.96 950.022,1351.02 954.065,1352.18 958.108,1352.89 962.151,1353.69 966.194,1354.27 970.237,1352.69 974.279,1355.74 978.322,1354.14 982.365,1353.98 986.408,1352.53 990.451,1355.69 994.493,1353.33 998.536,1352.4 1002.58,1356 1006.62,1355.98 1010.66,1351.47 1014.71,1355.7 1018.75,1355.68 1022.79,1356.77 1026.84,1359.09 1030.88,1358.05 1034.92,1359.88 1038.96,1361.24 1043.01,1360.08 1047.05,1361.29 1051.09,1361.6 1055.14,1362.32 1059.18,1355.29 1063.22,1354.74 1067.26,1361.12 1071.31,1354.57 1075.35,1363.87 1079.39,1352.47 1083.44,1361.93 1087.48,1364.61 1091.52,1363.79 1095.56,1366.19 1099.61,1364.16 1103.65,1364.21 1107.69,1365.89 1111.73,1367.07 1115.78,1367.5 1119.82,1366.95 1123.86,1368.01 1127.91,1364.38 1131.95,1369.69 1135.99,1368.13 1140.03,1368.96 1144.08,1369.79 1148.12,1369.16 1152.16,1370.24 1156.21,1371.17 1160.25,1370.79 1164.29,1371.8 1168.33,1371.38 1172.38,1372.8 1176.42,1369.4 1180.46,1374.25 1184.51,1372.83 1188.55,1373.39 1192.59,1375.46 1196.63,1372 1200.68,1373.45 1204.72,1375.59 1208.76,1375.36 1212.81,1373.1 1216.85,1370.08 1220.89,1377.36 1224.93,1376.73 1228.98,1376.23 1233.02,1375.55 1237.06,1377.79 1241.1,1375.28 1245.15,1374 1249.19,1380.11 1253.23,1376.35 1257.28,1379.07 1261.32,1379.44 1265.36,1380.5 1269.4,1375.84 1273.45,1380.69 1277.49,1381.56 1281.53,1382.64 1285.58,1381.14 1289.62,1382.71 1293.66,1382.23 1297.7,1381 1301.75,1383.51 1305.79,1383.94 1309.83,1383.16 1313.88,1385.28 1317.92,1373.64 1321.96,1374.03 1326,1384.55 1330.05,1375.96 1334.09,1373.7 1338.13,1384.67 1342.17,1378.53 1346.22,1387.21 1350.26,1382.05 1354.3,1381.98 1358.35,1386.47 1362.39,1386.9 1366.43,1387.71 1370.47,1390.14 1374.52,1384.21 1378.56,1385.41 1382.6,1384.44 1386.65,1386.88 1390.69,1384.66 1394.73,1390.97 1398.77,1386.97 1402.82,1386.14 1406.86,1388.87 1410.9,1387.81 1414.95,1380.15 1418.99,1391.32 1423.03,1388.89 1427.07,1388.92 1431.12,1386.48 1435.16,1396.3 1439.2,1389.27 1443.25,1397.01 1447.29,1388.28 1451.33,1395.13 1455.37,1395.14 1459.42,1394.83 1463.46,1396.24 1467.5,1394.27 1471.54,1395.57 1475.59,1397.46 1479.63,1396.65 1483.67,1396.76 1487.72,1397.92 1491.76,1397.56 1495.8,1398.59 1499.84,1395.27 1503.89,1398.37 1507.93,1399.77 1511.97,1400.6 1516.02,1398.59 1520.06,1400.16 1524.1,1401.39 1528.14,1396.72 1532.19,1399.19 1536.23,1401.74 1540.27,1397.81 1544.32,1395.62 1548.36,1403.25 1552.4,1393.96 1556.44,1397.23 1560.49,1401.84 1564.53,1399.58 1568.57,1392.11 1572.62,1407.69 1576.66,1400.27 1580.7,1402.71 1584.74,1403.47 1588.79,1402.71 1592.83,1400.26 1596.87,1405.2 1600.91,1404.34 1604.96,1403.92 1609,1406.8 1613.04,1407.44 1617.09,1407.89 1621.13,1406.36 1625.17,1408.94 1629.21,1408.26 1633.26,1408.47 1637.3,1410.71 1641.34,1407.66 1645.39,1409.06 1649.43,1404.96 1653.47,1409.63 1657.51,1407.35 1661.56,1407.27 1665.6,1407.11 1669.64,1410.99 1673.69,1411.47 1677.73,1408.08 1681.77,1411.86 1685.81,1410.76 1689.86,1410.18 1693.9,1411.33 1697.94,1413.26 1701.98,1413.39 1706.03,1412.86 1710.07,1409.7 1714.11,1417.1 1718.16,1413.38 1722.2,1413.61 1726.24,1413.46 1730.28,1413.23 1734.33,1418.04 1738.37,1414.65 1742.41,1408.89 1746.46,1415.39 1750.5,1411.15 1754.54,1413.19 1758.58,1411.05 1762.63,1409.25 1766.67,1419.91 1770.71,1412.95 1774.76,1412.35 1778.8,1420.18 1782.84,1418.29 1786.88,1414.52 1790.93,1416.3 1794.97,1417.29 1799.01,1419.24 1803.06,1417.2 1807.1,1416 1811.14,1423.73 1815.18,1417.6 1819.23,1421.92 1823.27,1422 1827.31,1422.25 1831.35,1421.91 1835.4,1424.78 1839.44,1423.44 1843.48,1421.25 1847.53,1423.66 1851.57,1419.66 1855.61,1423.61 1859.65,1423.26 1863.7,1419.87 1867.74,1417.01 1871.78,1417.39 1875.83,1423.94 1879.87,1420.61 1883.91,1421.66 1887.95,1425.79 1892,1422.49 1896.04,1426.07 1900.08,1425.87 1904.13,1428 1908.17,1426.22 1912.21,1428.53 1916.25,1425.43 1920.3,1428.92 1924.34,1429.29 1928.38,1428.85 1932.43,1427.08 1936.47,1423.45 1940.51,1427.88 1944.55,1427.14 1948.6,1429.85 1952.64,1428.31 1956.68,1431.5 1960.72,1430.86 1964.77,1430.28 1968.81,1429.77 1972.85,1432.7 1976.9,1430.43 1980.94,1430.65 1984.98,1429.08 1989.02,1428.58 1993.07,1427.89 1997.11,1430.17 2001.15,1427.59 2005.2,1431.11 2009.24,1422.9 2013.28,1424.23 2017.32,1434.67 2021.37,1428.99 2025.41,1433.46 2029.45,1430.94 2033.5,1436.29 2037.54,1429.01 2041.58,1432.28 2045.62,1430.64 2049.67,1430.36 2053.71,1435.76 2057.75,1435.47 2061.79,1429.74 2065.84,1431.16 2069.88,1430.87 2073.92,1434.34 2077.97,1437.46 2082.01,1435.18 2086.05,1436.75 2090.09,1437.2 2094.14,1435.17 2098.18,1423.32 2102.22,1437.57 2106.27,1430.85 2110.31,1437.1 2114.35,1432.06 2118.39,1436.79 2122.44,1438.48 2126.48,1432.22 2130.52,1436.77 2134.57,1436.69 2138.61,1438.38 2142.65,1438.67 2146.69,1439.58 2150.74,1438.16 2154.78,1434.66 2158.82,1441.06 2162.87,1438.66 2166.91,1434.24 2170.95,1434.2 2174.99,1441.96 2179.04,1438.21 2183.08,1431.77 2187.12,1443.94 2191.16,1438.89 2195.21,1441.45 2199.25,1442.4 2203.29,1437.99 2207.34,1437.93 2211.38,1442.5 2215.42,1433.24 2219.46,1441.99 2223.51,1440.87 2227.55,1441.57 2231.59,1443.4 2235.64,1443.29 2239.68,1443.32 2243.72,1443.99 2247.76,1444.09 2251.81,1444 2255.85,1442.87 2259.89,1443.92 2263.94,1445.72 2267.98,1440.59 2272.02,1436.98 2276.06,1445.38 2280.11,1440.76 2284.15,1435.16 2288.19,1443.82 2292.24,1444.94 "></polyline>
<polyline clip-path="url(#clip432)" style="stroke:#e26f46; stroke-linecap:round; stroke-linejoin:round; stroke-width:4; stroke-opacity:1; fill:none" points="274.873,278.48 278.916,374.785 282.959,467.664 287.002,583.376 291.045,696.306 295.087,800.845 299.13,889.537 303.173,961.778 307.216,1017.81 311.259,1062.79 315.301,1088.95 319.344,1088.71 323.387,1089.09 327.43,1098.64 331.473,1097.39 335.516,1092.29 339.558,1095.82 343.601,1099.86 347.644,1100.35 351.687,1092.69 355.73,1092.63 359.772,1098.04 363.815,1090.6 367.858,1090.98 371.901,1097.38 375.944,1098.63 379.986,1090.07 384.029,1095.75 388.072,1096.06 392.115,1091.7 396.158,1095.11 400.2,1093.91 404.243,1097.56 408.286,1102.88 412.329,1103.12 416.372,1091 420.415,1100.61 424.457,1101.34 428.5,1097.06 432.543,1094.93 436.586,1103.78 440.629,1108.7 444.671,1099.75 448.714,1107.9 452.757,1108.58 456.8,1109.82 460.843,1113.7 464.885,1108.21 468.928,1105 472.971,1112.45 477.014,1115.44 481.057,1111.5 485.099,1114.56 489.142,1123.57 493.185,1114.52 497.228,1121.2 501.271,1127.92 505.314,1122.96 509.356,1117.23 513.399,1121.07 517.442,1132.65 521.485,1124.4 525.528,1128.21 529.57,1138.01 533.613,1131.5 537.656,1134.39 541.699,1135.27 545.742,1134.11 549.784,1136.74 553.827,1132.01 557.87,1143.23 561.913,1142.44 565.956,1138.86 569.998,1146.86 574.041,1146.85 578.084,1140.4 582.127,1140.88 586.17,1150.45 590.213,1143.73 594.255,1140.48 598.298,1149.33 602.341,1155.91 606.384,1152.85 610.427,1152.38 614.469,1151.79 618.512,1154.66 622.555,1157.33 626.598,1149.74 630.641,1161.54 634.683,1156.57 638.726,1157.16 642.769,1166.16 646.812,1162.61 650.855,1159.31 654.897,1165.87 658.94,1170.04 662.983,1153.85 667.026,1175.5 671.069,1174.07 675.111,1156.09 679.154,1176.71 683.197,1171.16 687.24,1173.94 691.283,1181.84 695.326,1177.09 699.368,1168.18 703.411,1182.87 707.454,1182.55 711.497,1182.02 715.54,1183.67 719.582,1182.93 723.625,1189.83 727.668,1182.12 731.711,1187.55 735.754,1192.47 739.796,1181.38 743.839,1191.67 747.882,1191.06 751.925,1187.19 755.968,1190.15 760.01,1197.08 764.053,1192.06 768.096,1197.05 772.139,1202.71 776.182,1194.94 780.225,1191.74 784.267,1200.13 788.31,1188.57 792.353,1200.73 796.396,1202.17 800.439,1194.25 804.481,1201.62 808.524,1202.73 812.567,1197.98 816.61,1202.68 820.653,1205.21 824.695,1202.76 828.738,1195.95 832.781,1204.88 836.824,1208.26 840.867,1205.58 844.909,1203.11 848.952,1204.33 852.995,1208.98 857.038,1202.24 861.081,1208.23 865.124,1207.54 869.166,1206.02 873.209,1212.48 877.252,1212.21 881.295,1204.49 885.338,1216.92 889.38,1207.1 893.423,1210.17 897.466,1211.35 901.509,1211.03 905.552,1213.99 909.594,1212.53 913.637,1210.65 917.68,1212.88 921.723,1214.48 925.766,1209.58 929.808,1219.05 933.851,1217.52 937.894,1215.47 941.937,1213.85 945.98,1211.27 950.022,1222.59 954.065,1218.43 958.108,1213.17 962.151,1217.49 966.194,1218.5 970.237,1218.42 974.279,1222.76 978.322,1219.93 982.365,1216.29 986.408,1222.25 990.451,1215.09 994.493,1222.75 998.536,1225.65 1002.58,1214.62 1006.62,1225.72 1010.66,1231.05 1014.71,1208.5 1018.75,1225.6 1022.79,1225.91 1026.84,1217.42 1030.88,1228.15 1034.92,1226.14 1038.96,1223.45 1043.01,1227.07 1047.05,1228.92 1051.09,1228.31 1055.14,1229.7 1059.18,1230.09 1063.22,1209.35 1067.26,1233.3 1071.31,1233.39 1075.35,1211.76 1079.39,1234.96 1083.44,1232.07 1087.48,1231.73 1091.52,1236.72 1095.56,1233.72 1099.61,1227.36 1103.65,1234.39 1107.69,1236.44 1111.73,1236.7 1115.78,1238.45 1119.82,1232.81 1123.86,1240.25 1127.91,1237.02 1131.95,1236.73 1135.99,1232.88 1140.03,1243.99 1144.08,1245.74 1148.12,1238.47 1152.16,1244.67 1156.21,1240.41 1160.25,1237.87 1164.29,1239.53 1168.33,1247.24 1172.38,1245.75 1176.42,1241.87 1180.46,1243.56 1184.51,1244.15 1188.55,1250.82 1192.59,1246.44 1196.63,1248.95 1200.68,1249.47 1204.72,1250.67 1208.76,1240.32 1212.81,1243.09 1216.85,1247.01 1220.89,1252.37 1224.93,1253.3 1228.98,1247.4 1233.02,1253.84 1237.06,1242.66 1241.1,1250.64 1245.15,1260.02 1249.19,1246.71 1253.23,1257.99 1257.28,1251.25 1261.32,1249.81 1265.36,1256.28 1269.4,1252.55 1273.45,1263.02 1277.49,1256.11 1281.53,1258.74 1285.58,1261.05 1289.62,1249.89 1293.66,1254.88 1297.7,1263.11 1301.75,1262.34 1305.79,1261.64 1309.83,1253.68 1313.88,1261.49 1317.92,1262.5 1321.96,1242.02 1326,1265.36 1330.05,1260.32 1334.09,1253.32 1338.13,1269.28 1342.17,1257.85 1346.22,1265.83 1350.26,1263.04 1354.3,1261.44 1358.35,1271.24 1362.39,1268.62 1366.43,1263.33 1370.47,1267.25 1374.52,1271.73 1378.56,1253.2 1382.6,1270.25 1386.65,1264.85 1390.69,1259.34 1394.73,1274.46 1398.77,1272.67 1402.82,1256.77 1406.86,1268.19 1410.9,1274.28 1414.95,1262.53 1418.99,1274.89 1423.03,1266.52 1427.07,1269.1 1431.12,1275.62 1435.16,1262.41 1439.2,1265.31 1443.25,1280.57 1447.29,1278.1 1451.33,1276.9 1455.37,1269.13 1459.42,1279.34 1463.46,1276.1 1467.5,1277.69 1471.54,1271.94 1475.59,1277.33 1479.63,1280.09 1483.67,1280.42 1487.72,1281.47 1491.76,1276.11 1495.8,1276.66 1499.84,1279.36 1503.89,1283.29 1507.93,1275.54 1511.97,1281.96 1516.02,1274.31 1520.06,1285.82 1524.1,1281.36 1528.14,1279.09 1532.19,1278.37 1536.23,1280.61 1540.27,1282.28 1544.32,1286.98 1548.36,1273.77 1552.4,1284.2 1556.44,1277.87 1560.49,1273.69 1564.53,1292.72 1568.57,1288.6 1572.62,1264.41 1576.66,1284.61 1580.7,1293.22 1584.74,1281.79 1588.79,1282.57 1592.83,1283.03 1596.87,1280.65 1600.91,1292.65 1604.96,1284.96 1609,1287.07 1613.04,1287.98 1617.09,1288.68 1621.13,1290.98 1625.17,1292.54 1629.21,1286.69 1633.26,1286.33 1637.3,1282.19 1641.34,1288.57 1645.39,1294.06 1649.43,1290.78 1653.47,1292.4 1657.51,1277.09 1661.56,1297.17 1665.6,1296.47 1669.64,1279.85 1673.69,1287.75 1677.73,1302.84 1681.77,1291.86 1685.81,1289.77 1689.86,1277.26 1693.9,1294.4 1697.94,1296.73 1701.98,1297.52 1706.03,1285.6 1710.07,1295.31 1714.11,1286.24 1718.16,1292.38 1722.2,1294.71 1726.24,1287.21 1730.28,1299.16 1734.33,1294.63 1738.37,1294.55 1742.41,1293.43 1746.46,1282.22 1750.5,1301.49 1754.54,1290.98 1758.58,1286.32 1762.63,1298.12 1766.67,1284.02 1770.71,1296.6 1774.76,1300.94 1778.8,1288.13 1782.84,1295.11 1786.88,1295.02 1790.93,1288.22 1794.97,1299.67 1799.01,1291.93 1803.06,1307.24 1807.1,1296.41 1811.14,1277.14 1815.18,1304.19 1819.23,1305.61 1823.27,1302.34 1827.31,1293.02 1831.35,1290.94 1835.4,1306.99 1839.44,1310.95 1843.48,1292.05 1847.53,1298 1851.57,1300.75 1855.61,1308.3 1859.65,1293.34 1863.7,1302.38 1867.74,1293.54 1871.78,1303.2 1875.83,1285.94 1879.87,1310.83 1883.91,1297.66 1887.95,1294 1892,1306.26 1896.04,1303.29 1900.08,1298.76 1904.13,1304.32 1908.17,1305.34 1912.21,1305.05 1916.25,1313.53 1920.3,1301.84 1924.34,1299.68 1928.38,1306.75 1932.43,1306.32 1936.47,1301.6 1940.51,1301.69 1944.55,1313.41 1948.6,1301.74 1952.64,1301.71 1956.68,1307.75 1960.72,1312.1 1964.77,1310.37 1968.81,1297.22 1972.85,1305.69 1976.9,1307.92 1980.94,1309.54 1984.98,1304.91 1989.02,1311.65 1993.07,1302.68 1997.11,1312.92 2001.15,1298.02 2005.2,1315.37 2009.24,1311.34 2013.28,1303.44 2017.32,1309.02 2021.37,1304.52 2025.41,1311.65 2029.45,1305.56 2033.5,1298.66 2037.54,1320.32 2041.58,1304.88 2045.62,1308.58 2049.67,1310.35 2053.71,1298.23 2057.75,1316.39 2061.79,1319.87 2065.84,1300.73 2069.88,1314.79 2073.92,1308.57 2077.97,1318.49 2082.01,1315.67 2086.05,1299.76 2090.09,1316.17 2094.14,1318.11 2098.18,1309.43 2102.22,1314.76 2106.27,1310.28 2110.31,1315.16 2114.35,1305.03 2118.39,1300.24 2122.44,1324.22 2126.48,1312.32 2130.52,1317.11 2134.57,1306.73 2138.61,1321.3 2142.65,1309.89 2146.69,1317.01 2150.74,1312.36 2154.78,1327.67 2158.82,1312.67 2162.87,1307.14 2166.91,1304.88 2170.95,1328.73 2174.99,1307.6 2179.04,1315.57 2183.08,1305.46 2187.12,1322.86 2191.16,1324.27 2195.21,1305.22 2199.25,1315.28 2203.29,1318.62 2207.34,1317.73 2211.38,1326.37 2215.42,1310.57 2219.46,1323.29 2223.51,1312.06 2227.55,1315.03 2231.59,1320.37 2235.64,1325.33 2239.68,1323.71 2243.72,1305.46 2247.76,1315.24 2251.81,1326.52 2255.85,1324.35 2259.89,1320.98 2263.94,1301.98 2267.98,1317.9 2272.02,1330.16 2276.06,1304.46 2280.11,1324.88 2284.15,1310.33 2288.19,1327.02 2292.24,1325.48 "></polyline>
<path clip-path="url(#clip430)" d="M1962.59 250.738 L2281.48 250.738 L2281.48 95.2176 L1962.59 95.2176  Z" fill="#ffffff" fill-rule="evenodd" fill-opacity="1"></path>
<polyline clip-path="url(#clip430)" style="stroke:#000000; stroke-linecap:round; stroke-linejoin:round; stroke-width:4; stroke-opacity:1; fill:none" points="1962.59,250.738 2281.48,250.738 2281.48,95.2176 1962.59,95.2176 1962.59,250.738 "></polyline>
<polyline clip-path="url(#clip430)" style="stroke:#009af9; stroke-linecap:round; stroke-linejoin:round; stroke-width:4; stroke-opacity:1; fill:none" points="1986.35,147.058 2128.91,147.058 "></polyline>
<path clip-path="url(#clip430)" d="M2160.08 131.051 L2160.08 138.412 L2168.85 138.412 L2168.85 141.722 L2160.08 141.722 L2160.08 155.796 Q2160.08 158.967 2160.93 159.87 Q2161.81 160.773 2164.48 160.773 L2168.85 160.773 L2168.85 164.338 L2164.48 164.338 Q2159.54 164.338 2157.67 162.509 Q2155.8 160.657 2155.8 155.796 L2155.8 141.722 L2152.67 141.722 L2152.67 138.412 L2155.8 138.412 L2155.8 131.051 L2160.08 131.051 Z" fill="#000000" fill-rule="nonzero" fill-opacity="1"></path><path clip-path="url(#clip430)" d="M2189.48 142.393 Q2188.76 141.977 2187.9 141.791 Q2187.07 141.583 2186.05 141.583 Q2182.44 141.583 2180.49 143.944 Q2178.57 146.282 2178.57 150.68 L2178.57 164.338 L2174.29 164.338 L2174.29 138.412 L2178.57 138.412 L2178.57 142.44 Q2179.92 140.078 2182.07 138.944 Q2184.22 137.787 2187.3 137.787 Q2187.74 137.787 2188.27 137.856 Q2188.8 137.903 2189.45 138.018 L2189.48 142.393 Z" fill="#000000" fill-rule="nonzero" fill-opacity="1"></path><path clip-path="url(#clip430)" d="M2205.73 151.305 Q2200.56 151.305 2198.57 152.486 Q2196.58 153.666 2196.58 156.514 Q2196.58 158.782 2198.06 160.125 Q2199.57 161.444 2202.14 161.444 Q2205.68 161.444 2207.81 158.944 Q2209.96 156.421 2209.96 152.254 L2209.96 151.305 L2205.73 151.305 M2214.22 149.546 L2214.22 164.338 L2209.96 164.338 L2209.96 160.402 Q2208.5 162.763 2206.33 163.898 Q2204.15 165.009 2201 165.009 Q2197.02 165.009 2194.66 162.787 Q2192.32 160.541 2192.32 156.791 Q2192.32 152.416 2195.24 150.194 Q2198.18 147.972 2203.99 147.972 L2209.96 147.972 L2209.96 147.555 Q2209.96 144.615 2208.02 143.018 Q2206.1 141.398 2202.6 141.398 Q2200.38 141.398 2198.27 141.93 Q2196.17 142.463 2194.22 143.527 L2194.22 139.592 Q2196.56 138.69 2198.76 138.25 Q2200.96 137.787 2203.04 137.787 Q2208.67 137.787 2211.44 140.703 Q2214.22 143.62 2214.22 149.546 Z" fill="#000000" fill-rule="nonzero" fill-opacity="1"></path><path clip-path="url(#clip430)" d="M2222.99 138.412 L2227.25 138.412 L2227.25 164.338 L2222.99 164.338 L2222.99 138.412 M2222.99 128.319 L2227.25 128.319 L2227.25 133.713 L2222.99 133.713 L2222.99 128.319 Z" fill="#000000" fill-rule="nonzero" fill-opacity="1"></path><path clip-path="url(#clip430)" d="M2257.72 148.689 L2257.72 164.338 L2253.46 164.338 L2253.46 148.828 Q2253.46 145.148 2252.02 143.319 Q2250.59 141.49 2247.72 141.49 Q2244.27 141.49 2242.28 143.69 Q2240.29 145.889 2240.29 149.685 L2240.29 164.338 L2236 164.338 L2236 138.412 L2240.29 138.412 L2240.29 142.44 Q2241.81 140.102 2243.87 138.944 Q2245.96 137.787 2248.66 137.787 Q2253.13 137.787 2255.42 140.565 Q2257.72 143.319 2257.72 148.689 Z" fill="#000000" fill-rule="nonzero" fill-opacity="1"></path><polyline clip-path="url(#clip430)" style="stroke:#e26f46; stroke-linecap:round; stroke-linejoin:round; stroke-width:4; stroke-opacity:1; fill:none" points="1986.35,198.898 2128.91,198.898 "></polyline>
<path clip-path="url(#clip430)" d="M2160.08 182.891 L2160.08 190.252 L2168.85 190.252 L2168.85 193.562 L2160.08 193.562 L2160.08 207.636 Q2160.08 210.807 2160.93 211.71 Q2161.81 212.613 2164.48 212.613 L2168.85 212.613 L2168.85 216.178 L2164.48 216.178 Q2159.54 216.178 2157.67 214.349 Q2155.8 212.497 2155.8 207.636 L2155.8 193.562 L2152.67 193.562 L2152.67 190.252 L2155.8 190.252 L2155.8 182.891 L2160.08 182.891 Z" fill="#000000" fill-rule="nonzero" fill-opacity="1"></path><path clip-path="url(#clip430)" d="M2196.63 202.15 L2196.63 204.233 L2177.04 204.233 Q2177.32 208.631 2179.68 210.946 Q2182.07 213.238 2186.3 213.238 Q2188.76 213.238 2191.05 212.636 Q2193.36 212.034 2195.63 210.83 L2195.63 214.858 Q2193.34 215.83 2190.93 216.34 Q2188.53 216.849 2186.05 216.849 Q2179.85 216.849 2176.21 213.238 Q2172.6 209.627 2172.6 203.469 Q2172.6 197.104 2176.03 193.377 Q2179.48 189.627 2185.31 189.627 Q2190.54 189.627 2193.57 193.006 Q2196.63 196.363 2196.63 202.15 M2192.37 200.9 Q2192.32 197.405 2190.4 195.321 Q2188.5 193.238 2185.36 193.238 Q2181.79 193.238 2179.64 195.252 Q2177.51 197.266 2177.18 200.923 L2192.37 200.9 Z" fill="#000000" fill-rule="nonzero" fill-opacity="1"></path><path clip-path="url(#clip430)" d="M2220.15 191.016 L2220.15 195.043 Q2218.34 194.117 2216.4 193.655 Q2214.45 193.192 2212.37 193.192 Q2209.2 193.192 2207.6 194.164 Q2206.03 195.136 2206.03 197.08 Q2206.03 198.562 2207.16 199.418 Q2208.29 200.252 2211.72 201.016 L2213.18 201.34 Q2217.72 202.312 2219.61 204.094 Q2221.54 205.854 2221.54 209.025 Q2221.54 212.636 2218.67 214.742 Q2215.82 216.849 2210.82 216.849 Q2208.73 216.849 2206.47 216.432 Q2204.22 216.039 2201.72 215.228 L2201.72 210.83 Q2204.08 212.057 2206.37 212.682 Q2208.67 213.284 2210.91 213.284 Q2213.92 213.284 2215.54 212.266 Q2217.16 211.224 2217.16 209.349 Q2217.16 207.613 2215.98 206.687 Q2214.82 205.761 2210.86 204.904 L2209.38 204.557 Q2205.42 203.724 2203.67 202.011 Q2201.91 200.275 2201.91 197.266 Q2201.91 193.608 2204.5 191.618 Q2207.09 189.627 2211.86 189.627 Q2214.22 189.627 2216.3 189.974 Q2218.39 190.321 2220.15 191.016 Z" fill="#000000" fill-rule="nonzero" fill-opacity="1"></path><path clip-path="url(#clip430)" d="M2232.53 182.891 L2232.53 190.252 L2241.3 190.252 L2241.3 193.562 L2232.53 193.562 L2232.53 207.636 Q2232.53 210.807 2233.39 211.71 Q2234.27 212.613 2236.93 212.613 L2241.3 212.613 L2241.3 216.178 L2236.93 216.178 Q2232 216.178 2230.12 214.349 Q2228.25 212.497 2228.25 207.636 L2228.25 193.562 L2225.12 193.562 L2225.12 190.252 L2228.25 190.252 L2228.25 182.891 L2232.53 182.891 Z" fill="#000000" fill-rule="nonzero" fill-opacity="1"></path></svg>