<svg xmlns="http://www.w3.org/2000/svg" xmlns:xlink="http://www.w3.org/1999/xlink" width="600" height="400" viewBox="0 0 2400 1600">
<defs>
  <clipPath id="clip690">
    <rect x="0" y="0" width="2400" height="1600"></rect>
  </clipPath>
</defs>
<path clip-path="url(#clip690)" d="M0 1600 L2400 1600 L2400 0 L0 0  Z" fill="#ffffff" fill-rule="evenodd" fill-opacity="1"></path>
<defs>
  <clipPath id="clip691">
    <rect x="480" y="0" width="1681" height="1600"></rect>
  </clipPath>
</defs>
<path clip-path="url(#clip690)" d="M184.353 686.448 L2352.76 686.448 L2352.76 47.2441 L184.353 47.2441  Z" fill="#ffffff" fill-rule="evenodd" fill-opacity="1"></path>
<defs>
  <clipPath id="clip692">
    <rect x="184" y="47" width="2169" height="640"></rect>
  </clipPath>
</defs>
<polyline clip-path="url(#clip692)" style="stroke:#000000; stroke-linecap:round; stroke-linejoin:round; stroke-width:2; stroke-opacity:0.1; fill:none" points="241.623,686.448 241.623,47.2441 "></polyline>
<polyline clip-path="url(#clip692)" style="stroke:#000000; stroke-linecap:round; stroke-linejoin:round; stroke-width:2; stroke-opacity:0.1; fill:none" points="651.576,686.448 651.576,47.2441 "></polyline>
<polyline clip-path="url(#clip692)" style="stroke:#000000; stroke-linecap:round; stroke-linejoin:round; stroke-width:2; stroke-opacity:0.1; fill:none" points="1061.53,686.448 1061.53,47.2441 "></polyline>
<polyline clip-path="url(#clip692)" style="stroke:#000000; stroke-linecap:round; stroke-linejoin:round; stroke-width:2; stroke-opacity:0.1; fill:none" points="1471.48,686.448 1471.48,47.2441 "></polyline>
<polyline clip-path="url(#clip692)" style="stroke:#000000; stroke-linecap:round; stroke-linejoin:round; stroke-width:2; stroke-opacity:0.1; fill:none" points="1881.43,686.448 1881.43,47.2441 "></polyline>
<polyline clip-path="url(#clip692)" style="stroke:#000000; stroke-linecap:round; stroke-linejoin:round; stroke-width:2; stroke-opacity:0.1; fill:none" points="2291.39,686.448 2291.39,47.2441 "></polyline>
<polyline clip-path="url(#clip690)" style="stroke:#000000; stroke-linecap:round; stroke-linejoin:round; stroke-width:4; stroke-opacity:1; fill:none" points="184.353,686.448 2352.76,686.448 "></polyline>
<polyline clip-path="url(#clip690)" style="stroke:#000000; stroke-linecap:round; stroke-linejoin:round; stroke-width:4; stroke-opacity:1; fill:none" points="241.623,686.448 241.623,667.55 "></polyline>
<polyline clip-path="url(#clip690)" style="stroke:#000000; stroke-linecap:round; stroke-linejoin:round; stroke-width:4; stroke-opacity:1; fill:none" points="651.576,686.448 651.576,667.55 "></polyline>
<polyline clip-path="url(#clip690)" style="stroke:#000000; stroke-linecap:round; stroke-linejoin:round; stroke-width:4; stroke-opacity:1; fill:none" points="1061.53,686.448 1061.53,667.55 "></polyline>
<polyline clip-path="url(#clip690)" style="stroke:#000000; stroke-linecap:round; stroke-linejoin:round; stroke-width:4; stroke-opacity:1; fill:none" points="1471.48,686.448 1471.48,667.55 "></polyline>
<polyline clip-path="url(#clip690)" style="stroke:#000000; stroke-linecap:round; stroke-linejoin:round; stroke-width:4; stroke-opacity:1; fill:none" points="1881.43,686.448 1881.43,667.55 "></polyline>
<polyline clip-path="url(#clip690)" style="stroke:#000000; stroke-linecap:round; stroke-linejoin:round; stroke-width:4; stroke-opacity:1; fill:none" points="2291.39,686.448 2291.39,667.55 "></polyline>
<path clip-path="url(#clip690)" d="M241.623 717.367 Q238.012 717.367 236.183 720.931 Q234.378 724.473 234.378 731.603 Q234.378 738.709 236.183 742.274 Q238.012 745.815 241.623 745.815 Q245.257 745.815 247.063 742.274 Q248.892 738.709 248.892 731.603 Q248.892 724.473 247.063 720.931 Q245.257 717.367 241.623 717.367 M241.623 713.663 Q247.433 713.663 250.489 718.269 Q253.567 722.853 253.567 731.603 Q253.567 740.329 250.489 744.936 Q247.433 749.519 241.623 749.519 Q235.813 749.519 232.734 744.936 Q229.679 740.329 229.679 731.603 Q229.679 722.853 232.734 718.269 Q235.813 713.663 241.623 713.663 Z" fill="#000000" fill-rule="nonzero" fill-opacity="1"></path><path clip-path="url(#clip690)" d="M611.182 744.913 L618.821 744.913 L618.821 718.547 L610.511 720.214 L610.511 715.955 L618.775 714.288 L623.451 714.288 L623.451 744.913 L631.09 744.913 L631.09 748.848 L611.182 748.848 L611.182 744.913 Z" fill="#000000" fill-rule="nonzero" fill-opacity="1"></path><path clip-path="url(#clip690)" d="M650.534 717.367 Q646.923 717.367 645.094 720.931 Q643.289 724.473 643.289 731.603 Q643.289 738.709 645.094 742.274 Q646.923 745.815 650.534 745.815 Q654.168 745.815 655.974 742.274 Q657.802 738.709 657.802 731.603 Q657.802 724.473 655.974 720.931 Q654.168 717.367 650.534 717.367 M650.534 713.663 Q656.344 713.663 659.4 718.269 Q662.478 722.853 662.478 731.603 Q662.478 740.329 659.4 744.936 Q656.344 749.519 650.534 749.519 Q644.724 749.519 641.645 744.936 Q638.59 740.329 638.59 731.603 Q638.59 722.853 641.645 718.269 Q644.724 713.663 650.534 713.663 Z" fill="#000000" fill-rule="nonzero" fill-opacity="1"></path><path clip-path="url(#clip690)" d="M680.696 717.367 Q677.085 717.367 675.256 720.931 Q673.451 724.473 673.451 731.603 Q673.451 738.709 675.256 742.274 Q677.085 745.815 680.696 745.815 Q684.33 745.815 686.136 742.274 Q687.964 738.709 687.964 731.603 Q687.964 724.473 686.136 720.931 Q684.33 717.367 680.696 717.367 M680.696 713.663 Q686.506 713.663 689.562 718.269 Q692.64 722.853 692.64 731.603 Q692.64 740.329 689.562 744.936 Q686.506 749.519 680.696 749.519 Q674.886 749.519 671.807 744.936 Q668.752 740.329 668.752 731.603 Q668.752 722.853 671.807 718.269 Q674.886 713.663 680.696 713.663 Z" fill="#000000" fill-rule="nonzero" fill-opacity="1"></path><path clip-path="url(#clip690)" d="M1025.22 744.913 L1041.54 744.913 L1041.54 748.848 L1019.6 748.848 L1019.6 744.913 Q1022.26 742.158 1026.84 737.528 Q1031.45 732.876 1032.63 731.533 Q1034.87 729.01 1035.75 727.274 Q1036.66 725.515 1036.66 723.825 Q1036.66 721.07 1034.71 719.334 Q1032.79 717.598 1029.69 717.598 Q1027.49 717.598 1025.04 718.362 Q1022.6 719.126 1019.83 720.677 L1019.83 715.955 Q1022.65 714.82 1025.1 714.242 Q1027.56 713.663 1029.6 713.663 Q1034.97 713.663 1038.16 716.348 Q1041.35 719.033 1041.35 723.524 Q1041.35 725.654 1040.54 727.575 Q1039.76 729.473 1037.65 732.066 Q1037.07 732.737 1033.97 735.954 Q1030.87 739.149 1025.22 744.913 Z" fill="#000000" fill-rule="nonzero" fill-opacity="1"></path><path clip-path="url(#clip690)" d="M1061.35 717.367 Q1057.74 717.367 1055.91 720.931 Q1054.11 724.473 1054.11 731.603 Q1054.11 738.709 1055.91 742.274 Q1057.74 745.815 1061.35 745.815 Q1064.99 745.815 1066.79 742.274 Q1068.62 738.709 1068.62 731.603 Q1068.62 724.473 1066.79 720.931 Q1064.99 717.367 1061.35 717.367 M1061.35 713.663 Q1067.16 713.663 1070.22 718.269 Q1073.3 722.853 1073.3 731.603 Q1073.3 740.329 1070.22 744.936 Q1067.16 749.519 1061.35 749.519 Q1055.54 749.519 1052.47 744.936 Q1049.41 740.329 1049.41 731.603 Q1049.41 722.853 1052.47 718.269 Q1055.54 713.663 1061.35 713.663 Z" fill="#000000" fill-rule="nonzero" fill-opacity="1"></path><path clip-path="url(#clip690)" d="M1091.52 717.367 Q1087.91 717.367 1086.08 720.931 Q1084.27 724.473 1084.27 731.603 Q1084.27 738.709 1086.08 742.274 Q1087.91 745.815 1091.52 745.815 Q1095.15 745.815 1096.96 742.274 Q1098.79 738.709 1098.79 731.603 Q1098.79 724.473 1096.96 720.931 Q1095.15 717.367 1091.52 717.367 M1091.52 713.663 Q1097.33 713.663 1100.38 718.269 Q1103.46 722.853 1103.46 731.603 Q1103.46 740.329 1100.38 744.936 Q1097.33 749.519 1091.52 749.519 Q1085.71 749.519 1082.63 744.936 Q1079.57 740.329 1079.57 731.603 Q1079.57 722.853 1082.63 718.269 Q1085.71 713.663 1091.52 713.663 Z" fill="#000000" fill-rule="nonzero" fill-opacity="1"></path><path clip-path="url(#clip690)" d="M1445.24 730.214 Q1448.6 730.931 1450.47 733.2 Q1452.37 735.468 1452.37 738.802 Q1452.37 743.917 1448.85 746.718 Q1445.34 749.519 1438.85 749.519 Q1436.68 749.519 1434.36 749.079 Q1432.07 748.663 1429.62 747.806 L1429.62 743.292 Q1431.56 744.427 1433.88 745.005 Q1436.19 745.584 1438.71 745.584 Q1443.11 745.584 1445.4 743.848 Q1447.72 742.112 1447.72 738.802 Q1447.72 735.746 1445.57 734.033 Q1443.44 732.297 1439.62 732.297 L1435.59 732.297 L1435.59 728.454 L1439.8 728.454 Q1443.25 728.454 1445.08 727.089 Q1446.91 725.7 1446.91 723.107 Q1446.91 720.445 1445.01 719.033 Q1443.14 717.598 1439.62 717.598 Q1437.7 717.598 1435.5 718.015 Q1433.3 718.431 1430.66 719.311 L1430.66 715.144 Q1433.32 714.404 1435.64 714.033 Q1437.97 713.663 1440.03 713.663 Q1445.36 713.663 1448.46 716.093 Q1451.56 718.501 1451.56 722.621 Q1451.56 725.492 1449.92 727.482 Q1448.27 729.45 1445.24 730.214 Z" fill="#000000" fill-rule="nonzero" fill-opacity="1"></path><path clip-path="url(#clip690)" d="M1471.24 717.367 Q1467.63 717.367 1465.8 720.931 Q1463.99 724.473 1463.99 731.603 Q1463.99 738.709 1465.8 742.274 Q1467.63 745.815 1471.24 745.815 Q1474.87 745.815 1476.68 742.274 Q1478.51 738.709 1478.51 731.603 Q1478.51 724.473 1476.68 720.931 Q1474.87 717.367 1471.24 717.367 M1471.24 713.663 Q1477.05 713.663 1480.1 718.269 Q1483.18 722.853 1483.18 731.603 Q1483.18 740.329 1480.1 744.936 Q1477.05 749.519 1471.24 749.519 Q1465.43 749.519 1462.35 744.936 Q1459.29 740.329 1459.29 731.603 Q1459.29 722.853 1462.35 718.269 Q1465.43 713.663 1471.24 713.663 Z" fill="#000000" fill-rule="nonzero" fill-opacity="1"></path><path clip-path="url(#clip690)" d="M1501.4 717.367 Q1497.79 717.367 1495.96 720.931 Q1494.15 724.473 1494.15 731.603 Q1494.15 738.709 1495.96 742.274 Q1497.79 745.815 1501.4 745.815 Q1505.03 745.815 1506.84 742.274 Q1508.67 738.709 1508.67 731.603 Q1508.67 724.473 1506.84 720.931 Q1505.03 717.367 1501.4 717.367 M1501.4 713.663 Q1507.21 713.663 1510.27 718.269 Q1513.34 722.853 1513.34 731.603 Q1513.34 740.329 1510.27 744.936 Q1507.21 749.519 1501.4 749.519 Q1495.59 749.519 1492.51 744.936 Q1489.46 740.329 1489.46 731.603 Q1489.46 722.853 1492.51 718.269 Q1495.59 713.663 1501.4 713.663 Z" fill="#000000" fill-rule="nonzero" fill-opacity="1"></path><path clip-path="url(#clip690)" d="M1854.52 718.362 L1842.72 736.811 L1854.52 736.811 L1854.52 718.362 M1853.3 714.288 L1859.18 714.288 L1859.18 736.811 L1864.11 736.811 L1864.11 740.7 L1859.18 740.7 L1859.18 748.848 L1854.52 748.848 L1854.52 740.7 L1838.92 740.7 L1838.92 736.186 L1853.3 714.288 Z" fill="#000000" fill-rule="nonzero" fill-opacity="1"></path><path clip-path="url(#clip690)" d="M1881.84 717.367 Q1878.23 717.367 1876.4 720.931 Q1874.59 724.473 1874.59 731.603 Q1874.59 738.709 1876.4 742.274 Q1878.23 745.815 1881.84 745.815 Q1885.47 745.815 1887.28 742.274 Q1889.11 738.709 1889.11 731.603 Q1889.11 724.473 1887.28 720.931 Q1885.47 717.367 1881.84 717.367 M1881.84 713.663 Q1887.65 713.663 1890.7 718.269 Q1893.78 722.853 1893.78 731.603 Q1893.78 740.329 1890.7 744.936 Q1887.65 749.519 1881.84 749.519 Q1876.03 749.519 1872.95 744.936 Q1869.89 740.329 1869.89 731.603 Q1869.89 722.853 1872.95 718.269 Q1876.03 713.663 1881.84 713.663 Z" fill="#000000" fill-rule="nonzero" fill-opacity="1"></path><path clip-path="url(#clip690)" d="M1912 717.367 Q1908.39 717.367 1906.56 720.931 Q1904.76 724.473 1904.76 731.603 Q1904.76 738.709 1906.56 742.274 Q1908.39 745.815 1912 745.815 Q1915.63 745.815 1917.44 742.274 Q1919.27 738.709 1919.27 731.603 Q1919.27 724.473 1917.44 720.931 Q1915.63 717.367 1912 717.367 M1912 713.663 Q1917.81 713.663 1920.87 718.269 Q1923.94 722.853 1923.94 731.603 Q1923.94 740.329 1920.87 744.936 Q1917.81 749.519 1912 749.519 Q1906.19 749.519 1903.11 744.936 Q1900.06 740.329 1900.06 731.603 Q1900.06 722.853 1903.11 718.269 Q1906.19 713.663 1912 713.663 Z" fill="#000000" fill-rule="nonzero" fill-opacity="1"></path><path clip-path="url(#clip690)" d="M2251 714.288 L2269.36 714.288 L2269.36 718.223 L2255.29 718.223 L2255.29 726.695 Q2256.31 726.348 2257.32 726.186 Q2258.34 726.001 2259.36 726.001 Q2265.15 726.001 2268.53 729.172 Q2271.91 732.343 2271.91 737.76 Q2271.91 743.339 2268.43 746.44 Q2264.96 749.519 2258.64 749.519 Q2256.47 749.519 2254.2 749.149 Q2251.95 748.778 2249.55 748.038 L2249.55 743.339 Q2251.63 744.473 2253.85 745.028 Q2256.07 745.584 2258.55 745.584 Q2262.56 745.584 2264.89 743.478 Q2267.23 741.371 2267.23 737.76 Q2267.23 734.149 2264.89 732.042 Q2262.56 729.936 2258.55 729.936 Q2256.68 729.936 2254.8 730.353 Q2252.95 730.769 2251 731.649 L2251 714.288 Z" fill="#000000" fill-rule="nonzero" fill-opacity="1"></path><path clip-path="url(#clip690)" d="M2291.12 717.367 Q2287.51 717.367 2285.68 720.931 Q2283.87 724.473 2283.87 731.603 Q2283.87 738.709 2285.68 742.274 Q2287.51 745.815 2291.12 745.815 Q2294.75 745.815 2296.56 742.274 Q2298.39 738.709 2298.39 731.603 Q2298.39 724.473 2296.56 720.931 Q2294.75 717.367 2291.12 717.367 M2291.12 713.663 Q2296.93 713.663 2299.99 718.269 Q2303.06 722.853 2303.06 731.603 Q2303.06 740.329 2299.99 744.936 Q2296.93 749.519 2291.12 749.519 Q2285.31 749.519 2282.23 744.936 Q2279.18 740.329 2279.18 731.603 Q2279.18 722.853 2282.23 718.269 Q2285.31 713.663 2291.12 713.663 Z" fill="#000000" fill-rule="nonzero" fill-opacity="1"></path><path clip-path="url(#clip690)" d="M2321.28 717.367 Q2317.67 717.367 2315.84 720.931 Q2314.04 724.473 2314.04 731.603 Q2314.04 738.709 2315.84 742.274 Q2317.67 745.815 2321.28 745.815 Q2324.92 745.815 2326.72 742.274 Q2328.55 738.709 2328.55 731.603 Q2328.55 724.473 2326.72 720.931 Q2324.92 717.367 2321.28 717.367 M2321.28 713.663 Q2327.09 713.663 2330.15 718.269 Q2333.23 722.853 2333.23 731.603 Q2333.23 740.329 2330.15 744.936 Q2327.09 749.519 2321.28 749.519 Q2315.47 749.519 2312.39 744.936 Q2309.34 740.329 2309.34 731.603 Q2309.34 722.853 2312.39 718.269 Q2315.47 713.663 2321.28 713.663 Z" fill="#000000" fill-rule="nonzero" fill-opacity="1"></path><polyline clip-path="url(#clip692)" style="stroke:#000000; stroke-linecap:round; stroke-linejoin:round; stroke-width:2; stroke-opacity:0.1; fill:none" points="184.353,555.63 2352.76,555.63 "></polyline>
<polyline clip-path="url(#clip692)" style="stroke:#000000; stroke-linecap:round; stroke-linejoin:round; stroke-width:2; stroke-opacity:0.1; fill:none" points="184.353,403.886 2352.76,403.886 "></polyline>
<polyline clip-path="url(#clip692)" style="stroke:#000000; stroke-linecap:round; stroke-linejoin:round; stroke-width:2; stroke-opacity:0.1; fill:none" points="184.353,252.142 2352.76,252.142 "></polyline>
<polyline clip-path="url(#clip692)" style="stroke:#000000; stroke-linecap:round; stroke-linejoin:round; stroke-width:2; stroke-opacity:0.1; fill:none" points="184.353,100.398 2352.76,100.398 "></polyline>
<polyline clip-path="url(#clip690)" style="stroke:#000000; stroke-linecap:round; stroke-linejoin:round; stroke-width:4; stroke-opacity:1; fill:none" points="184.353,686.448 184.353,47.2441 "></polyline>
<polyline clip-path="url(#clip690)" style="stroke:#000000; stroke-linecap:round; stroke-linejoin:round; stroke-width:4; stroke-opacity:1; fill:none" points="184.353,555.63 203.25,555.63 "></polyline>
<polyline clip-path="url(#clip690)" style="stroke:#000000; stroke-linecap:round; stroke-linejoin:round; stroke-width:4; stroke-opacity:1; fill:none" points="184.353,403.886 203.25,403.886 "></polyline>
<polyline clip-path="url(#clip690)" style="stroke:#000000; stroke-linecap:round; stroke-linejoin:round; stroke-width:4; stroke-opacity:1; fill:none" points="184.353,252.142 203.25,252.142 "></polyline>
<polyline clip-path="url(#clip690)" style="stroke:#000000; stroke-linecap:round; stroke-linejoin:round; stroke-width:4; stroke-opacity:1; fill:none" points="184.353,100.398 203.25,100.398 "></polyline>
<path clip-path="url(#clip690)" d="M51.8255 568.975 L59.4643 568.975 L59.4643 542.609 L51.1542 544.276 L51.1542 540.017 L59.418 538.35 L64.0939 538.35 L64.0939 568.975 L71.7328 568.975 L71.7328 572.91 L51.8255 572.91 L51.8255 568.975 Z" fill="#000000" fill-rule="nonzero" fill-opacity="1"></path><path clip-path="url(#clip690)" d="M85.2049 568.975 L101.524 568.975 L101.524 572.91 L79.5799 572.91 L79.5799 568.975 Q82.242 566.22 86.8253 561.591 Q91.4317 556.938 92.6123 555.595 Q94.8576 553.072 95.7373 551.336 Q96.64 549.577 96.64 547.887 Q96.64 545.132 94.6956 543.396 Q92.7743 541.66 89.6725 541.66 Q87.4734 541.66 85.0197 542.424 Q82.5892 543.188 79.8114 544.739 L79.8114 540.017 Q82.6355 538.882 85.0892 538.304 Q87.5429 537.725 89.5799 537.725 Q94.9502 537.725 98.1447 540.41 Q101.339 543.095 101.339 547.586 Q101.339 549.716 100.529 551.637 Q99.7419 553.535 97.6354 556.128 Q97.0567 556.799 93.9549 560.017 Q90.853 563.211 85.2049 568.975 Z" fill="#000000" fill-rule="nonzero" fill-opacity="1"></path><path clip-path="url(#clip690)" d="M111.339 567.03 L116.223 567.03 L116.223 572.91 L111.339 572.91 L111.339 567.03 Z" fill="#000000" fill-rule="nonzero" fill-opacity="1"></path><path clip-path="url(#clip690)" d="M136.408 541.429 Q132.797 541.429 130.969 544.994 Q129.163 548.535 129.163 555.665 Q129.163 562.771 130.969 566.336 Q132.797 569.878 136.408 569.878 Q140.043 569.878 141.848 566.336 Q143.677 562.771 143.677 555.665 Q143.677 548.535 141.848 544.994 Q140.043 541.429 136.408 541.429 M136.408 537.725 Q142.218 537.725 145.274 542.332 Q148.353 546.915 148.353 555.665 Q148.353 564.392 145.274 568.998 Q142.218 573.581 136.408 573.581 Q130.598 573.581 127.519 568.998 Q124.464 564.392 124.464 555.665 Q124.464 546.915 127.519 542.332 Q130.598 537.725 136.408 537.725 Z" fill="#000000" fill-rule="nonzero" fill-opacity="1"></path><path clip-path="url(#clip690)" d="M52.4736 417.231 L60.1124 417.231 L60.1124 390.865 L51.8023 392.532 L51.8023 388.273 L60.0662 386.606 L64.7421 386.606 L64.7421 417.231 L72.3809 417.231 L72.3809 421.166 L52.4736 421.166 L52.4736 417.231 Z" fill="#000000" fill-rule="nonzero" fill-opacity="1"></path><path clip-path="url(#clip690)" d="M85.8531 417.231 L102.172 417.231 L102.172 421.166 L80.2281 421.166 L80.2281 417.231 Q82.8901 414.476 87.4734 409.847 Q92.0799 405.194 93.2604 403.851 Q95.5058 401.328 96.3854 399.592 Q97.2882 397.833 97.2882 396.143 Q97.2882 393.389 95.3437 391.652 Q93.4225 389.916 90.3206 389.916 Q88.1216 389.916 85.6679 390.68 Q83.2373 391.444 80.4596 392.995 L80.4596 388.273 Q83.2836 387.139 85.7373 386.56 Q88.191 385.981 90.228 385.981 Q95.5984 385.981 98.7928 388.666 Q101.987 391.352 101.987 395.842 Q101.987 397.972 101.177 399.893 Q100.39 401.791 98.2835 404.384 Q97.7048 405.055 94.603 408.273 Q91.5012 411.467 85.8531 417.231 Z" fill="#000000" fill-rule="nonzero" fill-opacity="1"></path><path clip-path="url(#clip690)" d="M111.987 415.287 L116.871 415.287 L116.871 421.166 L111.987 421.166 L111.987 415.287 Z" fill="#000000" fill-rule="nonzero" fill-opacity="1"></path><path clip-path="url(#clip690)" d="M141.223 402.532 Q144.58 403.25 146.455 405.518 Q148.353 407.787 148.353 411.12 Q148.353 416.236 144.834 419.037 Q141.316 421.837 134.834 421.837 Q132.658 421.837 130.344 421.398 Q128.052 420.981 125.598 420.125 L125.598 415.611 Q127.543 416.745 129.857 417.324 Q132.172 417.902 134.695 417.902 Q139.094 417.902 141.385 416.166 Q143.7 414.43 143.7 411.12 Q143.7 408.064 141.547 406.351 Q139.418 404.615 135.598 404.615 L131.57 404.615 L131.57 400.773 L135.783 400.773 Q139.232 400.773 141.061 399.407 Q142.89 398.018 142.89 395.426 Q142.89 392.764 140.992 391.352 Q139.117 389.916 135.598 389.916 Q133.677 389.916 131.478 390.333 Q129.279 390.75 126.64 391.629 L126.64 387.463 Q129.302 386.722 131.617 386.352 Q133.955 385.981 136.015 385.981 Q141.339 385.981 144.441 388.412 Q147.543 390.819 147.543 394.939 Q147.543 397.81 145.899 399.801 Q144.256 401.768 141.223 402.532 Z" fill="#000000" fill-rule="nonzero" fill-opacity="1"></path><path clip-path="url(#clip690)" d="M51.6634 265.487 L59.3023 265.487 L59.3023 239.122 L50.9921 240.788 L50.9921 236.529 L59.256 234.862 L63.9319 234.862 L63.9319 265.487 L71.5707 265.487 L71.5707 269.422 L51.6634 269.422 L51.6634 265.487 Z" fill="#000000" fill-rule="nonzero" fill-opacity="1"></path><path clip-path="url(#clip690)" d="M85.0429 265.487 L101.362 265.487 L101.362 269.422 L79.4179 269.422 L79.4179 265.487 Q82.0799 262.732 86.6632 258.103 Q91.2697 253.45 92.4502 252.108 Q94.6956 249.584 95.5752 247.848 Q96.478 246.089 96.478 244.399 Q96.478 241.645 94.5336 239.909 Q92.6123 238.172 89.5104 238.172 Q87.3114 238.172 84.8577 238.936 Q82.4271 239.7 79.6494 241.251 L79.6494 236.529 Q82.4734 235.395 84.9271 234.816 Q87.3808 234.237 89.4178 234.237 Q94.7882 234.237 97.9826 236.922 Q101.177 239.608 101.177 244.098 Q101.177 246.228 100.367 248.149 Q99.5798 250.047 97.4734 252.64 Q96.8947 253.311 93.7928 256.529 Q90.691 259.723 85.0429 265.487 Z" fill="#000000" fill-rule="nonzero" fill-opacity="1"></path><path clip-path="url(#clip690)" d="M111.177 263.543 L116.061 263.543 L116.061 269.422 L111.177 269.422 L111.177 263.543 Z" fill="#000000" fill-rule="nonzero" fill-opacity="1"></path><path clip-path="url(#clip690)" d="M136.825 250.279 Q133.677 250.279 131.825 252.432 Q129.996 254.584 129.996 258.334 Q129.996 262.061 131.825 264.237 Q133.677 266.39 136.825 266.39 Q139.973 266.39 141.802 264.237 Q143.654 262.061 143.654 258.334 Q143.654 254.584 141.802 252.432 Q139.973 250.279 136.825 250.279 M146.107 235.626 L146.107 239.885 Q144.348 239.052 142.543 238.612 Q140.76 238.172 139.001 238.172 Q134.371 238.172 131.918 241.297 Q129.487 244.422 129.14 250.742 Q130.506 248.728 132.566 247.663 Q134.626 246.575 137.103 246.575 Q142.311 246.575 145.32 249.746 Q148.353 252.895 148.353 258.334 Q148.353 263.658 145.205 266.876 Q142.056 270.094 136.825 270.094 Q130.83 270.094 127.658 265.51 Q124.487 260.904 124.487 252.177 Q124.487 243.983 128.376 239.122 Q132.265 234.237 138.816 234.237 Q140.575 234.237 142.357 234.584 Q144.163 234.932 146.107 235.626 Z" fill="#000000" fill-rule="nonzero" fill-opacity="1"></path><path clip-path="url(#clip690)" d="M52.0106 113.743 L59.6495 113.743 L59.6495 87.3776 L51.3393 89.0443 L51.3393 84.785 L59.6032 83.1184 L64.2791 83.1184 L64.2791 113.743 L71.9179 113.743 L71.9179 117.678 L52.0106 117.678 L52.0106 113.743 Z" fill="#000000" fill-rule="nonzero" fill-opacity="1"></path><path clip-path="url(#clip690)" d="M85.3901 113.743 L101.709 113.743 L101.709 117.678 L79.7651 117.678 L79.7651 113.743 Q82.4271 110.989 87.0105 106.359 Q91.6169 101.706 92.7975 100.364 Q95.0428 97.8405 95.9224 96.1044 Q96.8252 94.3452 96.8252 92.6553 Q96.8252 89.9007 94.8808 88.1646 Q92.9595 86.4285 89.8577 86.4285 Q87.6586 86.4285 85.2049 87.1924 Q82.7744 87.9563 79.9966 89.5072 L79.9966 84.785 Q82.8207 83.6508 85.2743 83.0721 Q87.728 82.4934 89.7651 82.4934 Q95.1354 82.4934 98.3298 85.1785 Q101.524 87.8637 101.524 92.3544 Q101.524 94.484 100.714 96.4053 Q99.927 98.3035 97.8206 100.896 Q97.2419 101.567 94.14 104.785 Q91.0382 107.979 85.3901 113.743 Z" fill="#000000" fill-rule="nonzero" fill-opacity="1"></path><path clip-path="url(#clip690)" d="M111.524 111.799 L116.408 111.799 L116.408 117.678 L111.524 117.678 L111.524 111.799 Z" fill="#000000" fill-rule="nonzero" fill-opacity="1"></path><path clip-path="url(#clip690)" d="M126.732 116.961 L126.732 112.702 Q128.492 113.535 130.297 113.975 Q132.103 114.414 133.839 114.414 Q138.469 114.414 140.899 111.313 Q143.353 108.188 143.7 101.845 Q142.357 103.836 140.297 104.901 Q138.237 105.965 135.737 105.965 Q130.552 105.965 127.519 102.84 Q124.51 99.6923 124.51 94.2526 Q124.51 88.9285 127.658 85.7109 Q130.807 82.4934 136.038 82.4934 Q142.033 82.4934 145.181 87.0998 Q148.353 91.6831 148.353 100.433 Q148.353 108.604 144.464 113.489 Q140.598 118.35 134.047 118.35 Q132.288 118.35 130.482 118.002 Q128.677 117.655 126.732 116.961 M136.038 102.308 Q139.186 102.308 141.015 100.155 Q142.867 98.0025 142.867 94.2526 Q142.867 90.5257 141.015 88.373 Q139.186 86.197 136.038 86.197 Q132.89 86.197 131.038 88.373 Q129.209 90.5257 129.209 94.2526 Q129.209 98.0025 131.038 100.155 Q132.89 102.308 136.038 102.308 Z" fill="#000000" fill-rule="nonzero" fill-opacity="1"></path><polyline clip-path="url(#clip692)" style="stroke:#009af9; stroke-linecap:round; stroke-linejoin:round; stroke-width:4; stroke-opacity:1; fill:none" points="245.723,65.3348 249.822,243.314 253.922,324.318 258.021,342.097 262.121,353.928 266.22,380.522 270.32,402.428 274.419,418.596 278.519,434.58 282.618,452.806 286.718,467.719 290.817,481.425 294.917,495.736 299.016,507.485 303.116,518.443 307.216,527.299 311.315,534.31 315.415,540.289 319.514,545.121 323.614,548.151 327.713,551.039 331.813,553.571 335.912,554.699 340.012,556.547 344.111,557.204 348.211,558.244 352.31,558.789 356.41,559.27 360.509,560.066 364.609,559.778 368.708,560.697 372.808,560.5 376.907,561.241 381.007,560.227 385.106,561.478 389.206,560.548 393.306,562.507 397.405,562.593 401.505,562.625 405.604,562.816 409.704,563.86 413.803,564.135 417.903,564.162 422.002,565.14 426.102,565.37 430.201,565.574 434.301,566.762 438.4,567.428 442.5,567.832 446.599,568.225 450.699,568.525 454.798,569.066 458.898,569.573 462.997,569.997 467.097,571.384 471.197,571.477 475.296,571.789 479.396,572.593 483.495,572.737 487.595,572.972 491.694,573.608 495.794,573.62 499.893,573.741 503.993,575.098 508.092,575.242 512.192,575.444 516.291,573.971 520.391,575.228 524.49,574.405 528.59,575.407 532.689,576.031 536.789,576.716 540.888,577.496 544.988,577.553 549.088,577.325 553.187,577.158 557.287,576.627 561.386,578.188 565.486,577.736 569.585,577.344 573.685,578.162 577.784,577.887 581.884,577.843 585.983,580.365 590.083,578.139 594.182,577.659 598.282,579.375 602.381,579.906 606.481,581.192 610.58,580.535 614.68,580.58 618.779,582.305 622.879,581.328 626.979,580.897 631.078,580.603 635.178,583.075 639.277,583.194 643.377,583.633 647.476,581.577 651.576,580.647 655.675,582.156 659.775,583.315 663.874,584.449 667.974,584.186 672.073,585.436 676.173,583.004 680.272,587.177 684.372,585.081 688.471,584.734 692.571,586.183 696.67,584.131 700.77,587.524 704.87,586.386 708.969,587.737 713.069,588.474 717.168,588.993 721.268,588.165 725.367,587.728 729.467,588.81 733.566,588.101 737.666,589.698 741.765,590.55 745.865,589.5 749.964,590.242 754.064,590.532 758.163,590.677 762.263,591.7 766.362,590.473 770.462,593.113 774.561,592.001 778.661,592.401 782.761,591.579 786.86,593.748 790.96,593.624 795.059,594.336 799.159,593.39 803.258,595.049 807.358,594.884 811.457,595.139 815.557,595.228 819.656,594.889 823.756,595.706 827.855,595.931 831.955,596.443 836.054,596.652 840.154,597.307 844.253,596.721 848.353,595.858 852.452,597.932 856.552,597.456 860.651,598.401 864.751,598.42 868.851,599.145 872.95,599.266 877.05,598.659 881.149,598.861 885.249,600.14 889.348,598.689 893.448,597.586 897.547,599.617 901.647,600.379 905.746,601.042 909.846,599.286 913.945,600.858 918.045,601.38 922.144,601.705 926.244,602.799 930.343,602.337 934.443,602.49 938.542,600.862 942.642,604.272 946.742,601.006 950.841,601.051 954.941,600.554 959.04,602.438 963.14,602.888 967.239,603.755 971.339,604.651 975.438,604.413 979.538,604.875 983.637,604.469 987.737,605.525 991.836,604.398 995.936,606.594 1000.04,604.62 1004.13,606.097 1008.23,604.826 1012.33,606.153 1016.43,606.723 1020.53,606.592 1024.63,606.049 1028.73,607.173 1032.83,605.48 1036.93,607.21 1041.03,606.259 1045.13,605.954 1049.23,607.411 1053.33,607.558 1057.43,608.28 1061.53,607.493 1065.63,607.47 1069.73,607.857 1073.83,610.032 1077.93,608.962 1082.03,609.396 1086.13,608.651 1090.22,608.754 1094.32,609.558 1098.42,609.149 1102.52,609.596 1106.62,610.542 1110.72,610.502 1114.82,610.034 1118.92,610.91 1123.02,610.5 1127.12,610.527 1131.22,611.056 1135.32,610.821 1139.42,612.069 1143.52,610.689 1147.62,611.829 1151.72,606.217 1155.82,612.479 1159.92,610.866 1164.02,610.534 1168.12,613.69 1172.22,612.451 1176.31,612.601 1180.41,610.602 1184.51,611.947 1188.61,611.658 1192.71,611.971 1196.81,612.546 1200.91,612.205 1205.01,613.848 1209.11,614.637 1213.21,614.079 1217.31,614.715 1221.41,615.235 1225.51,615.195 1229.61,614.129 1233.71,613.634 1237.81,613.514 1241.91,615.894 1246.01,616.133 1250.11,616.267 1254.21,616.068 1258.31,616.424 1262.41,616.509 1266.5,616.597 1270.6,617.303 1274.7,617.096 1278.8,616.47 1282.9,616.742 1287,613.989 1291.1,616.488 1295.2,616.413 1299.3,614.988 1303.4,617.83 1307.5,618.423 1311.6,615.353 1315.7,616.452 1319.8,611.98 1323.9,618.519 1328,617.753 1332.1,619.05 1336.2,614.31 1340.3,617.401 1344.4,614.524 1348.5,613.943 1352.59,618.985 1356.69,617.495 1360.79,618.712 1364.89,618.971 1368.99,621.054 1373.09,620.236 1377.19,620.108 1381.29,614.878 1385.39,621.423 1389.49,619.459 1393.59,614.776 1397.69,613.119 1401.79,618.276 1405.89,618.853 1409.99,618.636 1414.09,623.878 1418.19,620.233 1422.29,622.743 1426.39,623.478 1430.49,622.389 1434.59,623.852 1438.68,623.596 1442.78,621.986 1446.88,624.732 1450.98,621.805 1455.08,625.074 1459.18,623.82 1463.28,625.119 1467.38,624.964 1471.48,625.739 1475.58,624.979 1479.68,626.318 1483.78,626.495 1487.88,626.64 1491.98,626.818 1496.08,627.045 1500.18,626.214 1504.28,628.05 1508.38,624.065 1512.48,624.776 1516.58,629.239 1520.68,623.943 1524.77,626.337 1528.87,624.397 1532.97,624.561 1537.07,626.231 1541.17,627.722 1545.27,627.931 1549.37,629.797 1553.47,629.267 1557.57,629.966 1561.67,622.207 1565.77,629.825 1569.87,627.413 1573.97,629.847 1578.07,631.708 1582.17,631.727 1586.27,632.078 1590.37,632.206 1594.47,631.544 1598.57,632.142 1602.67,631.109 1606.77,632.587 1610.86,633.38 1614.96,632.286 1619.06,632.517 1623.16,634.103 1627.26,633.414 1631.36,632.947 1635.46,633.389 1639.56,635.308 1643.66,630.268 1647.76,633.362 1651.86,632.164 1655.96,634.047 1660.06,633.634 1664.16,636.299 1668.26,637.064 1672.36,636.696 1676.46,635.939 1680.56,637.167 1684.66,636.246 1688.76,635.929 1692.86,637.398 1696.95,637.062 1701.05,636.807 1705.15,634.438 1709.25,637.917 1713.35,638.443 1717.45,639.42 1721.55,638.733 1725.65,639.383 1729.75,637.463 1733.85,640.423 1737.95,638.017 1742.05,638.414 1746.15,642.273 1750.25,640.951 1754.35,641.807 1758.45,642.913 1762.55,642.471 1766.65,643.279 1770.75,641.105 1774.85,643.058 1778.95,644.201 1783.04,642.839 1787.14,642.105 1791.24,643.639 1795.34,643.953 1799.44,645.349 1803.54,645.484 1807.64,645.171 1811.74,646.029 1815.84,641.944 1819.94,640.77 1824.04,647.159 1828.14,645.874 1832.24,644.862 1836.34,648.165 1840.44,647.774 1844.54,647.644 1848.64,646.616 1852.74,646.522 1856.84,647.188 1860.94,648.671 1865.04,647.755 1869.13,649.508 1873.23,649.604 1877.33,650.231 1881.43,649.778 1885.53,649.773 1889.63,650.386 1893.73,650.287 1897.83,649.09 1901.93,648.95 1906.03,652.328 1910.13,651.637 1914.23,650.528 1918.33,652.83 1922.43,651.212 1926.53,651.436 1930.63,653.476 1934.73,651.998 1938.83,652.713 1942.93,651.318 1947.03,651.009 1951.13,654.654 1955.22,652.378 1959.32,653.651 1963.42,652.816 1967.52,655.369 1971.62,651.161 1975.72,654.613 1979.82,652.818 1983.92,651.548 1988.02,651.435 1992.12,651.343 1996.22,636.574 2000.32,655.352 2004.42,653.045 2008.52,652.499 2012.62,656.312 2016.72,657.409 2020.82,652.742 2024.92,656.587 2029.02,652.04 2033.12,656.361 2037.22,655.526 2041.31,655.94 2045.41,657.317 2049.51,657.7 2053.61,656.517 2057.71,649.299 2061.81,656.987 2065.91,654.794 2070.01,656.458 2074.11,657.317 2078.21,656.916 2082.31,657.079 2086.41,659.715 2090.51,659.058 2094.61,660.427 2098.71,660.596 2102.81,660.259 2106.91,660.59 2111.01,654.034 2115.11,657.947 2119.21,659.994 2123.31,660.743 2127.4,659.505 2131.5,662.035 2135.6,662.249 2139.7,659.638 2143.8,658.715 2147.9,658.893 2152,661.341 2156.1,662.495 2160.2,663.445 2164.3,663.867 2168.4,663.607 2172.5,663.666 2176.6,663.243 2180.7,663.704 2184.8,663.92 2188.9,664.239 2193,664.019 2197.1,665.069 2201.2,664.371 2205.3,663.761 2209.4,662.969 2213.5,661.733 2217.59,661.665 2221.69,662.806 2225.79,662.82 2229.89,664.534 2233.99,664.23 2238.09,662.078 2242.19,662.873 2246.29,666.657 2250.39,665.03 2254.49,665.714 2258.59,660.857 2262.69,668.091 2266.79,665.137 2270.89,664.89 2274.99,667.795 2279.09,667.987 2283.19,668.357 2287.29,667.551 2291.39,668.149 "></polyline>
<polyline clip-path="url(#clip692)" style="stroke:#e26f46; stroke-linecap:round; stroke-linejoin:round; stroke-width:4; stroke-opacity:1; fill:none" points="245.723,163.211 249.822,293.616 253.922,339.797 258.021,356.755 262.121,385.051 266.22,410.666 270.32,429.289 274.419,446.467 278.519,466.932 282.618,486.986 286.718,503.461 290.817,516.223 294.917,526.829 299.016,536.057 303.116,543.5 307.216,546.45 311.315,550.389 315.415,551.11 319.514,552.038 323.614,551.562 327.713,551.749 331.813,554.937 335.912,555.253 340.012,554.391 344.111,551.45 348.211,552.729 352.31,554.726 356.41,553.613 360.509,552.269 364.609,551.586 368.708,550.39 372.808,550.331 376.907,549.622 381.007,549.449 385.106,549.315 389.206,547.804 393.306,548.254 397.405,547.447 401.505,544.716 405.604,547.956 409.704,547.001 413.803,545.12 417.903,543.186 422.002,541.752 426.102,538.512 430.201,542.313 434.301,541.321 438.4,540.198 442.5,535.368 446.599,533.039 450.699,534.121 454.798,533.631 458.898,533.587 462.997,532.134 467.097,528.647 471.197,527.938 475.296,528.245 479.396,526.685 483.495,523.924 487.595,524.221 491.694,524.014 495.794,522.271 499.893,520.168 503.993,520.731 508.092,519.306 512.192,517.527 516.291,515.024 520.391,515.395 524.49,511.53 528.59,513.763 532.689,510.277 536.789,509.851 540.888,509.957 544.988,509.943 549.088,506.605 553.187,511.528 557.287,510.669 561.386,505.934 565.486,508.778 569.585,508.12 573.685,505.423 577.784,508.186 581.884,507.692 585.983,504.193 590.083,504.426 594.182,504.838 598.282,501.443 602.381,501.685 606.481,504.518 610.58,505.054 614.68,505.906 618.779,505.137 622.879,500.373 626.979,500.082 631.078,501.697 635.178,501.282 639.277,501.534 643.377,501.14 647.476,500.894 651.576,501.071 655.675,496.915 659.775,501.152 663.874,500.137 667.974,495.029 672.073,500.176 676.173,498.87 680.272,493.541 684.372,497.98 688.471,498.611 692.571,494.381 696.67,500.902 700.77,498.122 704.87,496.944 708.969,496.918 713.069,492.815 717.168,495.922 721.268,495.191 725.367,491.934 729.467,495.636 733.566,493.209 737.666,494.451 741.765,491.054 745.865,494.257 749.964,494.911 754.064,495.048 758.163,495.399 762.263,493.081 766.362,491.586 770.462,490.763 774.561,490.404 778.661,487.451 782.761,491.306 786.86,491.896 790.96,488.087 795.059,488.299 799.159,492.281 803.258,491.856 807.358,491.383 811.457,489.228 815.557,489.133 819.656,486.845 823.756,489.813 827.855,486.216 831.955,488.655 836.054,487.809 840.154,487.192 844.253,486.978 848.353,486.546 852.452,486.071 856.552,483.184 860.651,482.924 864.751,486.168 868.851,485.949 872.95,484.675 877.05,487.978 881.149,483.879 885.249,482.001 889.348,481.803 893.448,481.047 897.547,486.367 901.647,486.53 905.746,484.903 909.846,480.581 913.945,477.042 918.045,479.317 922.144,480.279 926.244,479.444 930.343,480.719 934.443,483.912 938.542,482.829 942.642,479.499 946.742,477.484 950.841,476.87 954.941,473.334 959.04,476.279 963.14,478.997 967.239,475.28 971.339,479.451 975.438,477.765 979.538,470.725 983.637,471.734 987.737,474.653 991.836,473.981 995.936,475.746 1000.04,478.642 1004.13,479.505 1008.23,475.618 1012.33,471.675 1016.43,470.514 1020.53,469.26 1024.63,471.683 1028.73,470.898 1032.83,476.215 1036.93,474.906 1041.03,473.547 1045.13,467.317 1049.23,471.361 1053.33,473.556 1057.43,469.869 1061.53,469.431 1065.63,470.42 1069.73,473.088 1073.83,471.668 1077.93,473.12 1082.03,469.152 1086.13,465.6 1090.22,468.382 1094.32,465.626 1098.42,463.665 1102.52,469.913 1106.62,467.924 1110.72,467.69 1114.82,469.195 1118.92,468.438 1123.02,469.382 1127.12,466.531 1131.22,465.857 1135.32,464.063 1139.42,466.245 1143.52,466.903 1147.62,462.495 1151.72,469.452 1155.82,463.869 1159.92,463.818 1164.02,460.964 1168.12,462.54 1172.22,464.257 1176.31,468.499 1180.41,466.831 1184.51,462.106 1188.61,463.065 1192.71,457.93 1196.81,466.092 1200.91,468.085 1205.01,465.087 1209.11,462.494 1213.21,459.27 1217.31,463.313 1221.41,462.383 1225.51,463.928 1229.61,463.581 1233.71,463.763 1237.81,462.61 1241.91,461.587 1246.01,462.633 1250.11,459.747 1254.21,458.534 1258.31,459.545 1262.41,462.971 1266.5,464.857 1270.6,464.789 1274.7,463.58 1278.8,461.906 1282.9,459.649 1287,454.809 1291.1,460.324 1295.2,459.843 1299.3,462.927 1303.4,463.057 1307.5,456.892 1311.6,460.681 1315.7,454.96 1319.8,464.598 1323.9,458.702 1328,462.563 1332.1,458.54 1336.2,456.824 1340.3,462.567 1344.4,461.816 1348.5,463.331 1352.59,454.609 1356.69,458.395 1360.79,458.755 1364.89,460.067 1368.99,455.574 1373.09,459.811 1377.19,458.796 1381.29,463.63 1385.39,466.588 1389.49,454.555 1393.59,452.841 1397.69,457.041 1401.79,452.838 1405.89,465.789 1409.99,462.584 1414.09,455.317 1418.19,455.502 1422.29,457.936 1426.39,460.883 1430.49,460.55 1434.59,464.431 1438.68,461.36 1442.78,459.111 1446.88,454.566 1450.98,458.832 1455.08,462.247 1459.18,459.308 1463.28,458.583 1467.38,461.111 1471.48,462.452 1475.58,459.776 1479.68,459.809 1483.78,458.441 1487.88,459.425 1491.98,460.456 1496.08,458.521 1500.18,462.132 1504.28,460.409 1508.38,460.069 1512.48,455.663 1516.58,462.69 1520.68,459.464 1524.77,455.684 1528.87,461.597 1532.97,454.109 1537.07,462.226 1541.17,462.829 1545.27,455.87 1549.37,462.878 1553.47,466.559 1557.57,460.556 1561.67,455.792 1565.77,461.491 1569.87,459.811 1573.97,461.795 1578.07,461.64 1582.17,459.742 1586.27,460.369 1590.37,465.174 1594.47,461.476 1598.57,464.921 1602.67,454.442 1606.77,461.08 1610.86,463.18 1614.96,465.767 1619.06,468.607 1623.16,464.124 1627.26,461.4 1631.36,460.36 1635.46,462.523 1639.56,460.756 1643.66,466.829 1647.76,464.729 1651.86,467.997 1655.96,458.228 1660.06,461.869 1664.16,465.509 1668.26,464.378 1672.36,465.48 1676.46,470.094 1680.56,465.339 1684.66,464.898 1688.76,462.12 1692.86,463.969 1696.95,472.063 1701.05,465.203 1705.15,461.629 1709.25,462.478 1713.35,460.495 1717.45,466.472 1721.55,468.09 1725.65,469.163 1729.75,471.253 1733.85,467.41 1737.95,463.061 1742.05,464.87 1746.15,470.956 1750.25,467.218 1754.35,472.032 1758.45,469.34 1762.55,467.376 1766.65,468.758 1770.75,464.634 1774.85,467.906 1778.95,473.311 1783.04,464.72 1787.14,468.022 1791.24,477.406 1795.34,468.107 1799.44,470.584 1803.54,464.577 1807.64,465.383 1811.74,469.144 1815.84,471.126 1819.94,466.219 1824.04,470.711 1828.14,467.324 1832.24,470.009 1836.34,471.106 1840.44,468.957 1844.54,468.118 1848.64,475.381 1852.74,473.947 1856.84,470.348 1860.94,465.844 1865.04,473.514 1869.13,473.861 1873.23,468.756 1877.33,473.432 1881.43,466.533 1885.53,469.672 1889.63,474.314 1893.73,463.697 1897.83,467.489 1901.93,468.401 1906.03,470.064 1910.13,476.263 1914.23,477.255 1918.33,468.227 1922.43,473.77 1926.53,465.141 1930.63,470.166 1934.73,476.072 1938.83,475.479 1942.93,473.271 1947.03,477.602 1951.13,461.245 1955.22,470.539 1959.32,471.666 1963.42,477.329 1967.52,472.89 1971.62,462.94 1975.72,471.057 1979.82,471.116 1983.92,472.952 1988.02,473.565 1992.12,466.006 1996.22,471.031 2000.32,458.139 2004.42,477.685 2008.52,472.653 2012.62,466.87 2016.72,477.39 2020.82,476.696 2024.92,467.607 2029.02,471.978 2033.12,474.669 2037.22,477.192 2041.31,471.194 2045.41,467.085 2049.51,477.029 2053.61,472.391 2057.71,473.91 2061.81,472.681 2065.91,463.021 2070.01,471.553 2074.11,474.326 2078.21,473.386 2082.31,472.171 2086.41,473.278 2090.51,474.264 2094.61,473.78 2098.71,472.075 2102.81,474.425 2106.91,471.876 2111.01,481.579 2115.11,472.336 2119.21,474.129 2123.31,469.792 2127.4,476.496 2131.5,475.754 2135.6,468.172 2139.7,475.307 2143.8,471.877 2147.9,458.79 2152,474.47 2156.1,477.184 2160.2,472.674 2164.3,475.181 2168.4,472.141 2172.5,476.316 2176.6,477.359 2180.7,480.935 2184.8,473.203 2188.9,469.377 2193,469.878 2197.1,470.068 2201.2,470.914 2205.3,478.241 2209.4,472.993 2213.5,478.154 2217.59,469.239 2221.69,475.341 2225.79,465.415 2229.89,475.818 2233.99,474.123 2238.09,467.425 2242.19,475.157 2246.29,470.638 2250.39,478.985 2254.49,476.109 2258.59,473.36 2262.69,474.107 2266.79,465.523 2270.89,471.473 2274.99,474.846 2279.09,474.346 2283.19,470.788 2287.29,472.883 2291.39,481.487 "></polyline>
<path clip-path="url(#clip690)" d="M1958.59 224.071 L2280.48 224.071 L2280.48 68.5509 L1958.59 68.5509  Z" fill="#ffffff" fill-rule="evenodd" fill-opacity="1"></path>
<polyline clip-path="url(#clip690)" style="stroke:#000000; stroke-linecap:round; stroke-linejoin:round; stroke-width:4; stroke-opacity:1; fill:none" points="1958.59,224.071 2280.48,224.071 2280.48,68.5509 1958.59,68.5509 1958.59,224.071 "></polyline>
<polyline clip-path="url(#clip690)" style="stroke:#009af9; stroke-linecap:round; stroke-linejoin:round; stroke-width:4; stroke-opacity:1; fill:none" points="1982.68,120.391 2127.24,120.391 "></polyline>
<path clip-path="url(#clip690)" d="M2158.74 104.384 L2158.74 111.745 L2167.52 111.745 L2167.52 115.055 L2158.74 115.055 L2158.74 129.129 Q2158.74 132.301 2159.6 133.203 Q2160.48 134.106 2163.14 134.106 L2167.52 134.106 L2167.52 137.671 L2163.14 137.671 Q2158.21 137.671 2156.34 135.842 Q2154.46 133.99 2154.46 129.129 L2154.46 115.055 L2151.34 115.055 L2151.34 111.745 L2154.46 111.745 L2154.46 104.384 L2158.74 104.384 Z" fill="#000000" fill-rule="nonzero" fill-opacity="1"></path><path clip-path="url(#clip690)" d="M2188.14 115.727 Q2187.42 115.31 2186.57 115.125 Q2185.73 114.916 2184.72 114.916 Q2181.11 114.916 2179.16 117.277 Q2177.24 119.615 2177.24 124.014 L2177.24 137.671 L2172.96 137.671 L2172.96 111.745 L2177.24 111.745 L2177.24 115.773 Q2178.58 113.412 2180.73 112.278 Q2182.89 111.12 2185.97 111.12 Q2186.41 111.12 2186.94 111.19 Q2187.47 111.236 2188.12 111.352 L2188.14 115.727 Z" fill="#000000" fill-rule="nonzero" fill-opacity="1"></path><path clip-path="url(#clip690)" d="M2204.39 124.639 Q2199.23 124.639 2197.24 125.819 Q2195.25 127 2195.25 129.847 Q2195.25 132.115 2196.73 133.458 Q2198.23 134.777 2200.8 134.777 Q2204.35 134.777 2206.48 132.277 Q2208.63 129.754 2208.63 125.588 L2208.63 124.639 L2204.39 124.639 M2212.89 122.879 L2212.89 137.671 L2208.63 137.671 L2208.63 133.736 Q2207.17 136.097 2204.99 137.231 Q2202.82 138.342 2199.67 138.342 Q2195.69 138.342 2193.33 136.12 Q2190.99 133.875 2190.99 130.125 Q2190.99 125.75 2193.91 123.527 Q2196.85 121.305 2202.66 121.305 L2208.63 121.305 L2208.63 120.889 Q2208.63 117.949 2206.68 116.352 Q2204.76 114.731 2201.27 114.731 Q2199.04 114.731 2196.94 115.264 Q2194.83 115.796 2192.89 116.861 L2192.89 112.926 Q2195.23 112.023 2197.42 111.583 Q2199.62 111.12 2201.71 111.12 Q2207.33 111.12 2210.11 114.037 Q2212.89 116.953 2212.89 122.879 Z" fill="#000000" fill-rule="nonzero" fill-opacity="1"></path><path clip-path="url(#clip690)" d="M2221.66 111.745 L2225.92 111.745 L2225.92 137.671 L2221.66 137.671 L2221.66 111.745 M2221.66 101.653 L2225.92 101.653 L2225.92 107.046 L2221.66 107.046 L2221.66 101.653 Z" fill="#000000" fill-rule="nonzero" fill-opacity="1"></path><path clip-path="url(#clip690)" d="M2256.38 122.023 L2256.38 137.671 L2252.12 137.671 L2252.12 122.162 Q2252.12 118.481 2250.69 116.652 Q2249.25 114.824 2246.38 114.824 Q2242.93 114.824 2240.94 117.023 Q2238.95 119.222 2238.95 123.018 L2238.95 137.671 L2234.67 137.671 L2234.67 111.745 L2238.95 111.745 L2238.95 115.773 Q2240.48 113.435 2242.54 112.278 Q2244.62 111.12 2247.33 111.12 Q2251.8 111.12 2254.09 113.898 Q2256.38 116.652 2256.38 122.023 Z" fill="#000000" fill-rule="nonzero" fill-opacity="1"></path><polyline clip-path="url(#clip690)" style="stroke:#e26f46; stroke-linecap:round; stroke-linejoin:round; stroke-width:4; stroke-opacity:1; fill:none" points="1982.68,172.231 2127.24,172.231 "></polyline>
<path clip-path="url(#clip690)" d="M2158.74 156.224 L2158.74 163.585 L2167.52 163.585 L2167.52 166.895 L2158.74 166.895 L2158.74 180.969 Q2158.74 184.141 2159.6 185.043 Q2160.48 185.946 2163.14 185.946 L2167.52 185.946 L2167.52 189.511 L2163.14 189.511 Q2158.21 189.511 2156.34 187.682 Q2154.46 185.83 2154.46 180.969 L2154.46 166.895 L2151.34 166.895 L2151.34 163.585 L2154.46 163.585 L2154.46 156.224 L2158.74 156.224 Z" fill="#000000" fill-rule="nonzero" fill-opacity="1"></path><path clip-path="url(#clip690)" d="M2195.29 175.483 L2195.29 177.567 L2175.71 177.567 Q2175.99 181.965 2178.35 184.279 Q2180.73 186.571 2184.97 186.571 Q2187.42 186.571 2189.72 185.969 Q2192.03 185.367 2194.3 184.164 L2194.3 188.191 Q2192.01 189.164 2189.6 189.673 Q2187.19 190.182 2184.72 190.182 Q2178.51 190.182 2174.88 186.571 Q2171.27 182.96 2171.27 176.803 Q2171.27 170.437 2174.69 166.71 Q2178.14 162.96 2183.98 162.96 Q2189.21 162.96 2192.24 166.34 Q2195.29 169.696 2195.29 175.483 M2191.04 174.233 Q2190.99 170.738 2189.07 168.655 Q2187.17 166.571 2184.02 166.571 Q2180.46 166.571 2178.3 168.585 Q2176.17 170.599 2175.85 174.256 L2191.04 174.233 Z" fill="#000000" fill-rule="nonzero" fill-opacity="1"></path><path clip-path="url(#clip690)" d="M2218.81 164.349 L2218.81 168.377 Q2217.01 167.451 2215.06 166.988 Q2213.12 166.525 2211.04 166.525 Q2207.86 166.525 2206.27 167.497 Q2204.69 168.469 2204.69 170.414 Q2204.69 171.895 2205.83 172.752 Q2206.96 173.585 2210.39 174.349 L2211.85 174.673 Q2216.38 175.645 2218.28 177.428 Q2220.2 179.187 2220.2 182.358 Q2220.2 185.969 2217.33 188.076 Q2214.48 190.182 2209.48 190.182 Q2207.4 190.182 2205.13 189.766 Q2202.89 189.372 2200.39 188.562 L2200.39 184.164 Q2202.75 185.391 2205.04 186.016 Q2207.33 186.617 2209.58 186.617 Q2212.59 186.617 2214.21 185.599 Q2215.83 184.557 2215.83 182.682 Q2215.83 180.946 2214.65 180.02 Q2213.49 179.094 2209.53 178.238 L2208.05 177.891 Q2204.09 177.057 2202.33 175.344 Q2200.57 173.608 2200.57 170.599 Q2200.57 166.942 2203.17 164.951 Q2205.76 162.96 2210.53 162.96 Q2212.89 162.96 2214.97 163.307 Q2217.05 163.655 2218.81 164.349 Z" fill="#000000" fill-rule="nonzero" fill-opacity="1"></path><path clip-path="url(#clip690)" d="M2231.2 156.224 L2231.2 163.585 L2239.97 163.585 L2239.97 166.895 L2231.2 166.895 L2231.2 180.969 Q2231.2 184.141 2232.05 185.043 Q2232.93 185.946 2235.6 185.946 L2239.97 185.946 L2239.97 189.511 L2235.6 189.511 Q2230.66 189.511 2228.79 187.682 Q2226.91 185.83 2226.91 180.969 L2226.91 166.895 L2223.79 166.895 L2223.79 163.585 L2226.91 163.585 L2226.91 156.224 L2231.2 156.224 Z" fill="#000000" fill-rule="nonzero" fill-opacity="1"></path><path clip-path="url(#clip690)" d="M184.353 1486.45 L2352.76 1486.45 L2352.76 847.244 L184.353 847.244  Z" fill="#ffffff" fill-rule="evenodd" fill-opacity="1"></path>
<defs>
  <clipPath id="clip693">
    <rect x="184" y="847" width="2169" height="640"></rect>
  </clipPath>
</defs>
<polyline clip-path="url(#clip693)" style="stroke:#000000; stroke-linecap:round; stroke-linejoin:round; stroke-width:2; stroke-opacity:0.1; fill:none" points="229.225,1486.45 229.225,847.244 "></polyline>
<polyline clip-path="url(#clip693)" style="stroke:#000000; stroke-linecap:round; stroke-linejoin:round; stroke-width:2; stroke-opacity:0.1; fill:none" points="559.171,1486.45 559.171,847.244 "></polyline>
<polyline clip-path="url(#clip693)" style="stroke:#000000; stroke-linecap:round; stroke-linejoin:round; stroke-width:2; stroke-opacity:0.1; fill:none" points="889.117,1486.45 889.117,847.244 "></polyline>
<polyline clip-path="url(#clip693)" style="stroke:#000000; stroke-linecap:round; stroke-linejoin:round; stroke-width:2; stroke-opacity:0.1; fill:none" points="1219.06,1486.45 1219.06,847.244 "></polyline>
<polyline clip-path="url(#clip693)" style="stroke:#000000; stroke-linecap:round; stroke-linejoin:round; stroke-width:2; stroke-opacity:0.1; fill:none" points="1549.01,1486.45 1549.01,847.244 "></polyline>
<polyline clip-path="url(#clip693)" style="stroke:#000000; stroke-linecap:round; stroke-linejoin:round; stroke-width:2; stroke-opacity:0.1; fill:none" points="1878.95,1486.45 1878.95,847.244 "></polyline>
<polyline clip-path="url(#clip693)" style="stroke:#000000; stroke-linecap:round; stroke-linejoin:round; stroke-width:2; stroke-opacity:0.1; fill:none" points="2208.9,1486.45 2208.9,847.244 "></polyline>
<polyline clip-path="url(#clip690)" style="stroke:#000000; stroke-linecap:round; stroke-linejoin:round; stroke-width:4; stroke-opacity:1; fill:none" points="184.353,1486.45 2352.76,1486.45 "></polyline>
<polyline clip-path="url(#clip690)" style="stroke:#000000; stroke-linecap:round; stroke-linejoin:round; stroke-width:4; stroke-opacity:1; fill:none" points="229.225,1486.45 229.225,1467.55 "></polyline>
<polyline clip-path="url(#clip690)" style="stroke:#000000; stroke-linecap:round; stroke-linejoin:round; stroke-width:4; stroke-opacity:1; fill:none" points="559.171,1486.45 559.171,1467.55 "></polyline>
<polyline clip-path="url(#clip690)" style="stroke:#000000; stroke-linecap:round; stroke-linejoin:round; stroke-width:4; stroke-opacity:1; fill:none" points="889.117,1486.45 889.117,1467.55 "></polyline>
<polyline clip-path="url(#clip690)" style="stroke:#000000; stroke-linecap:round; stroke-linejoin:round; stroke-width:4; stroke-opacity:1; fill:none" points="1219.06,1486.45 1219.06,1467.55 "></polyline>
<polyline clip-path="url(#clip690)" style="stroke:#000000; stroke-linecap:round; stroke-linejoin:round; stroke-width:4; stroke-opacity:1; fill:none" points="1549.01,1486.45 1549.01,1467.55 "></polyline>
<polyline clip-path="url(#clip690)" style="stroke:#000000; stroke-linecap:round; stroke-linejoin:round; stroke-width:4; stroke-opacity:1; fill:none" points="1878.95,1486.45 1878.95,1467.55 "></polyline>
<polyline clip-path="url(#clip690)" style="stroke:#000000; stroke-linecap:round; stroke-linejoin:round; stroke-width:4; stroke-opacity:1; fill:none" points="2208.9,1486.45 2208.9,1467.55 "></polyline>
<path clip-path="url(#clip690)" d="M229.225 1517.37 Q225.614 1517.37 223.786 1520.93 Q221.98 1524.47 221.98 1531.6 Q221.98 1538.71 223.786 1542.27 Q225.614 1545.82 229.225 1545.82 Q232.86 1545.82 234.665 1542.27 Q236.494 1538.71 236.494 1531.6 Q236.494 1524.47 234.665 1520.93 Q232.86 1517.37 229.225 1517.37 M229.225 1513.66 Q235.035 1513.66 238.091 1518.27 Q241.17 1522.85 241.17 1531.6 Q241.17 1540.33 238.091 1544.94 Q235.035 1549.52 229.225 1549.52 Q223.415 1549.52 220.336 1544.94 Q217.281 1540.33 217.281 1531.6 Q217.281 1522.85 220.336 1518.27 Q223.415 1513.66 229.225 1513.66 Z" fill="#000000" fill-rule="nonzero" fill-opacity="1"></path><path clip-path="url(#clip690)" d="M537.944 1544.91 L554.264 1544.91 L554.264 1548.85 L532.319 1548.85 L532.319 1544.91 Q534.981 1542.16 539.565 1537.53 Q544.171 1532.88 545.352 1531.53 Q547.597 1529.01 548.477 1527.27 Q549.379 1525.51 549.379 1523.82 Q549.379 1521.07 547.435 1519.33 Q545.514 1517.6 542.412 1517.6 Q540.213 1517.6 537.759 1518.36 Q535.329 1519.13 532.551 1520.68 L532.551 1515.95 Q535.375 1514.82 537.829 1514.24 Q540.282 1513.66 542.319 1513.66 Q547.69 1513.66 550.884 1516.35 Q554.078 1519.03 554.078 1523.52 Q554.078 1525.65 553.268 1527.57 Q552.481 1529.47 550.375 1532.07 Q549.796 1532.74 546.694 1535.95 Q543.592 1539.15 537.944 1544.91 Z" fill="#000000" fill-rule="nonzero" fill-opacity="1"></path><path clip-path="url(#clip690)" d="M574.078 1517.37 Q570.467 1517.37 568.639 1520.93 Q566.833 1524.47 566.833 1531.6 Q566.833 1538.71 568.639 1542.27 Q570.467 1545.82 574.078 1545.82 Q577.713 1545.82 579.518 1542.27 Q581.347 1538.71 581.347 1531.6 Q581.347 1524.47 579.518 1520.93 Q577.713 1517.37 574.078 1517.37 M574.078 1513.66 Q579.889 1513.66 582.944 1518.27 Q586.023 1522.85 586.023 1531.6 Q586.023 1540.33 582.944 1544.94 Q579.889 1549.52 574.078 1549.52 Q568.268 1549.52 565.19 1544.94 Q562.134 1540.33 562.134 1531.6 Q562.134 1522.85 565.19 1518.27 Q568.268 1513.66 574.078 1513.66 Z" fill="#000000" fill-rule="nonzero" fill-opacity="1"></path><path clip-path="url(#clip690)" d="M877.288 1518.36 L865.483 1536.81 L877.288 1536.81 L877.288 1518.36 M876.061 1514.29 L881.941 1514.29 L881.941 1536.81 L886.871 1536.81 L886.871 1540.7 L881.941 1540.7 L881.941 1548.85 L877.288 1548.85 L877.288 1540.7 L861.686 1540.7 L861.686 1536.19 L876.061 1514.29 Z" fill="#000000" fill-rule="nonzero" fill-opacity="1"></path><path clip-path="url(#clip690)" d="M904.603 1517.37 Q900.992 1517.37 899.163 1520.93 Q897.357 1524.47 897.357 1531.6 Q897.357 1538.71 899.163 1542.27 Q900.992 1545.82 904.603 1545.82 Q908.237 1545.82 910.043 1542.27 Q911.871 1538.71 911.871 1531.6 Q911.871 1524.47 910.043 1520.93 Q908.237 1517.37 904.603 1517.37 M904.603 1513.66 Q910.413 1513.66 913.468 1518.27 Q916.547 1522.85 916.547 1531.6 Q916.547 1540.33 913.468 1544.94 Q910.413 1549.52 904.603 1549.52 Q898.793 1549.52 895.714 1544.94 Q892.658 1540.33 892.658 1531.6 Q892.658 1522.85 895.714 1518.27 Q898.793 1513.66 904.603 1513.66 Z" fill="#000000" fill-rule="nonzero" fill-opacity="1"></path><path clip-path="url(#clip690)" d="M1204.47 1529.7 Q1201.32 1529.7 1199.47 1531.86 Q1197.64 1534.01 1197.64 1537.76 Q1197.64 1541.49 1199.47 1543.66 Q1201.32 1545.82 1204.47 1545.82 Q1207.62 1545.82 1209.44 1543.66 Q1211.3 1541.49 1211.3 1537.76 Q1211.3 1534.01 1209.44 1531.86 Q1207.62 1529.7 1204.47 1529.7 M1213.75 1515.05 L1213.75 1519.31 Q1211.99 1518.48 1210.19 1518.04 Q1208.4 1517.6 1206.64 1517.6 Q1202.01 1517.6 1199.56 1520.72 Q1197.13 1523.85 1196.78 1530.17 Q1198.15 1528.15 1200.21 1527.09 Q1202.27 1526 1204.75 1526 Q1209.95 1526 1212.96 1529.17 Q1216 1532.32 1216 1537.76 Q1216 1543.08 1212.85 1546.3 Q1209.7 1549.52 1204.47 1549.52 Q1198.47 1549.52 1195.3 1544.94 Q1192.13 1540.33 1192.13 1531.6 Q1192.13 1523.41 1196.02 1518.55 Q1199.91 1513.66 1206.46 1513.66 Q1208.22 1513.66 1210 1514.01 Q1211.81 1514.36 1213.75 1515.05 Z" fill="#000000" fill-rule="nonzero" fill-opacity="1"></path><path clip-path="url(#clip690)" d="M1234.05 1517.37 Q1230.44 1517.37 1228.61 1520.93 Q1226.81 1524.47 1226.81 1531.6 Q1226.81 1538.71 1228.61 1542.27 Q1230.44 1545.82 1234.05 1545.82 Q1237.69 1545.82 1239.49 1542.27 Q1241.32 1538.71 1241.32 1531.6 Q1241.32 1524.47 1239.49 1520.93 Q1237.69 1517.37 1234.05 1517.37 M1234.05 1513.66 Q1239.86 1513.66 1242.92 1518.27 Q1246 1522.85 1246 1531.6 Q1246 1540.33 1242.92 1544.94 Q1239.86 1549.52 1234.05 1549.52 Q1228.24 1549.52 1225.16 1544.94 Q1222.11 1540.33 1222.11 1531.6 Q1222.11 1522.85 1225.16 1518.27 Q1228.24 1513.66 1234.05 1513.66 Z" fill="#000000" fill-rule="nonzero" fill-opacity="1"></path><path clip-path="url(#clip690)" d="M1533.88 1532.44 Q1530.55 1532.44 1528.63 1534.22 Q1526.73 1536 1526.73 1539.13 Q1526.73 1542.25 1528.63 1544.03 Q1530.55 1545.82 1533.88 1545.82 Q1537.21 1545.82 1539.14 1544.03 Q1541.06 1542.23 1541.06 1539.13 Q1541.06 1536 1539.14 1534.22 Q1537.24 1532.44 1533.88 1532.44 M1529.21 1530.45 Q1526.2 1529.7 1524.51 1527.64 Q1522.84 1525.58 1522.84 1522.62 Q1522.84 1518.48 1525.78 1516.07 Q1528.74 1513.66 1533.88 1513.66 Q1539.04 1513.66 1541.98 1516.07 Q1544.92 1518.48 1544.92 1522.62 Q1544.92 1525.58 1543.23 1527.64 Q1541.57 1529.7 1538.58 1530.45 Q1541.96 1531.23 1543.83 1533.52 Q1545.73 1535.82 1545.73 1539.13 Q1545.73 1544.15 1542.65 1546.83 Q1539.6 1549.52 1533.88 1549.52 Q1528.16 1549.52 1525.08 1546.83 Q1522.03 1544.15 1522.03 1539.13 Q1522.03 1535.82 1523.93 1533.52 Q1525.83 1531.23 1529.21 1530.45 M1527.49 1523.06 Q1527.49 1525.75 1529.16 1527.25 Q1530.85 1528.76 1533.88 1528.76 Q1536.89 1528.76 1538.58 1527.25 Q1540.29 1525.75 1540.29 1523.06 Q1540.29 1520.38 1538.58 1518.87 Q1536.89 1517.37 1533.88 1517.37 Q1530.85 1517.37 1529.16 1518.87 Q1527.49 1520.38 1527.49 1523.06 Z" fill="#000000" fill-rule="nonzero" fill-opacity="1"></path><path clip-path="url(#clip690)" d="M1564.04 1517.37 Q1560.43 1517.37 1558.6 1520.93 Q1556.8 1524.47 1556.8 1531.6 Q1556.8 1538.71 1558.6 1542.27 Q1560.43 1545.82 1564.04 1545.82 Q1567.68 1545.82 1569.48 1542.27 Q1571.31 1538.71 1571.31 1531.6 Q1571.31 1524.47 1569.48 1520.93 Q1567.68 1517.37 1564.04 1517.37 M1564.04 1513.66 Q1569.85 1513.66 1572.91 1518.27 Q1575.99 1522.85 1575.99 1531.6 Q1575.99 1540.33 1572.91 1544.94 Q1569.85 1549.52 1564.04 1549.52 Q1558.23 1549.52 1555.15 1544.94 Q1552.1 1540.33 1552.1 1531.6 Q1552.1 1522.85 1555.15 1518.27 Q1558.23 1513.66 1564.04 1513.66 Z" fill="#000000" fill-rule="nonzero" fill-opacity="1"></path><path clip-path="url(#clip690)" d="M1838.56 1544.91 L1846.2 1544.91 L1846.2 1518.55 L1837.89 1520.21 L1837.89 1515.95 L1846.15 1514.29 L1850.83 1514.29 L1850.83 1544.91 L1858.47 1544.91 L1858.47 1548.85 L1838.56 1548.85 L1838.56 1544.91 Z" fill="#000000" fill-rule="nonzero" fill-opacity="1"></path><path clip-path="url(#clip690)" d="M1877.91 1517.37 Q1874.3 1517.37 1872.47 1520.93 Q1870.67 1524.47 1870.67 1531.6 Q1870.67 1538.71 1872.47 1542.27 Q1874.3 1545.82 1877.91 1545.82 Q1881.55 1545.82 1883.35 1542.27 Q1885.18 1538.71 1885.18 1531.6 Q1885.18 1524.47 1883.35 1520.93 Q1881.55 1517.37 1877.91 1517.37 M1877.91 1513.66 Q1883.72 1513.66 1886.78 1518.27 Q1889.86 1522.85 1889.86 1531.6 Q1889.86 1540.33 1886.78 1544.94 Q1883.72 1549.52 1877.91 1549.52 Q1872.1 1549.52 1869.02 1544.94 Q1865.97 1540.33 1865.97 1531.6 Q1865.97 1522.85 1869.02 1518.27 Q1872.1 1513.66 1877.91 1513.66 Z" fill="#000000" fill-rule="nonzero" fill-opacity="1"></path><path clip-path="url(#clip690)" d="M1908.07 1517.37 Q1904.46 1517.37 1902.63 1520.93 Q1900.83 1524.47 1900.83 1531.6 Q1900.83 1538.71 1902.63 1542.27 Q1904.46 1545.82 1908.07 1545.82 Q1911.71 1545.82 1913.51 1542.27 Q1915.34 1538.71 1915.34 1531.6 Q1915.34 1524.47 1913.51 1520.93 Q1911.71 1517.37 1908.07 1517.37 M1908.07 1513.66 Q1913.88 1513.66 1916.94 1518.27 Q1920.02 1522.85 1920.02 1531.6 Q1920.02 1540.33 1916.94 1544.94 Q1913.88 1549.52 1908.07 1549.52 Q1902.26 1549.52 1899.19 1544.94 Q1896.13 1540.33 1896.13 1531.6 Q1896.13 1522.85 1899.19 1518.27 Q1902.26 1513.66 1908.07 1513.66 Z" fill="#000000" fill-rule="nonzero" fill-opacity="1"></path><path clip-path="url(#clip690)" d="M2168.51 1544.91 L2176.15 1544.91 L2176.15 1518.55 L2167.83 1520.21 L2167.83 1515.95 L2176.1 1514.29 L2180.77 1514.29 L2180.77 1544.91 L2188.41 1544.91 L2188.41 1548.85 L2168.51 1548.85 L2168.51 1544.91 Z" fill="#000000" fill-rule="nonzero" fill-opacity="1"></path><path clip-path="url(#clip690)" d="M2201.89 1544.91 L2218.21 1544.91 L2218.21 1548.85 L2196.26 1548.85 L2196.26 1544.91 Q2198.92 1542.16 2203.51 1537.53 Q2208.11 1532.88 2209.29 1531.53 Q2211.54 1529.01 2212.42 1527.27 Q2213.32 1525.51 2213.32 1523.82 Q2213.32 1521.07 2211.38 1519.33 Q2209.46 1517.6 2206.35 1517.6 Q2204.15 1517.6 2201.7 1518.36 Q2199.27 1519.13 2196.49 1520.68 L2196.49 1515.95 Q2199.32 1514.82 2201.77 1514.24 Q2204.22 1513.66 2206.26 1513.66 Q2211.63 1513.66 2214.83 1516.35 Q2218.02 1519.03 2218.02 1523.52 Q2218.02 1525.65 2217.21 1527.57 Q2216.42 1529.47 2214.32 1532.07 Q2213.74 1532.74 2210.64 1535.95 Q2207.53 1539.15 2201.89 1544.91 Z" fill="#000000" fill-rule="nonzero" fill-opacity="1"></path><path clip-path="url(#clip690)" d="M2238.02 1517.37 Q2234.41 1517.37 2232.58 1520.93 Q2230.77 1524.47 2230.77 1531.6 Q2230.77 1538.71 2232.58 1542.27 Q2234.41 1545.82 2238.02 1545.82 Q2241.65 1545.82 2243.46 1542.27 Q2245.29 1538.71 2245.29 1531.6 Q2245.29 1524.47 2243.46 1520.93 Q2241.65 1517.37 2238.02 1517.37 M2238.02 1513.66 Q2243.83 1513.66 2246.89 1518.27 Q2249.96 1522.85 2249.96 1531.6 Q2249.96 1540.33 2246.89 1544.94 Q2243.83 1549.52 2238.02 1549.52 Q2232.21 1549.52 2229.13 1544.94 Q2226.08 1540.33 2226.08 1531.6 Q2226.08 1522.85 2229.13 1518.27 Q2232.21 1513.66 2238.02 1513.66 Z" fill="#000000" fill-rule="nonzero" fill-opacity="1"></path><polyline clip-path="url(#clip693)" style="stroke:#000000; stroke-linecap:round; stroke-linejoin:round; stroke-width:2; stroke-opacity:0.1; fill:none" points="184.353,1455.3 2352.76,1455.3 "></polyline>
<polyline clip-path="url(#clip693)" style="stroke:#000000; stroke-linecap:round; stroke-linejoin:round; stroke-width:2; stroke-opacity:0.1; fill:none" points="184.353,1268.95 2352.76,1268.95 "></polyline>
<polyline clip-path="url(#clip693)" style="stroke:#000000; stroke-linecap:round; stroke-linejoin:round; stroke-width:2; stroke-opacity:0.1; fill:none" points="184.353,1082.6 2352.76,1082.6 "></polyline>
<polyline clip-path="url(#clip693)" style="stroke:#000000; stroke-linecap:round; stroke-linejoin:round; stroke-width:2; stroke-opacity:0.1; fill:none" points="184.353,896.246 2352.76,896.246 "></polyline>
<polyline clip-path="url(#clip690)" style="stroke:#000000; stroke-linecap:round; stroke-linejoin:round; stroke-width:4; stroke-opacity:1; fill:none" points="184.353,1486.45 184.353,847.244 "></polyline>
<polyline clip-path="url(#clip690)" style="stroke:#000000; stroke-linecap:round; stroke-linejoin:round; stroke-width:4; stroke-opacity:1; fill:none" points="184.353,1455.3 203.25,1455.3 "></polyline>
<polyline clip-path="url(#clip690)" style="stroke:#000000; stroke-linecap:round; stroke-linejoin:round; stroke-width:4; stroke-opacity:1; fill:none" points="184.353,1268.95 203.25,1268.95 "></polyline>
<polyline clip-path="url(#clip690)" style="stroke:#000000; stroke-linecap:round; stroke-linejoin:round; stroke-width:4; stroke-opacity:1; fill:none" points="184.353,1082.6 203.25,1082.6 "></polyline>
<polyline clip-path="url(#clip690)" style="stroke:#000000; stroke-linecap:round; stroke-linejoin:round; stroke-width:4; stroke-opacity:1; fill:none" points="184.353,896.246 203.25,896.246 "></polyline>
<path clip-path="url(#clip690)" d="M98.6539 1468.65 L106.293 1468.65 L106.293 1442.28 L97.9826 1443.95 L97.9826 1439.69 L106.246 1438.02 L110.922 1438.02 L110.922 1468.65 L118.561 1468.65 L118.561 1472.58 L98.6539 1472.58 L98.6539 1468.65 Z" fill="#000000" fill-rule="nonzero" fill-opacity="1"></path><path clip-path="url(#clip690)" d="M132.033 1468.65 L148.353 1468.65 L148.353 1472.58 L126.408 1472.58 L126.408 1468.65 Q129.07 1465.89 133.654 1461.26 Q138.26 1456.61 139.441 1455.27 Q141.686 1452.75 142.566 1451.01 Q143.468 1449.25 143.468 1447.56 Q143.468 1444.81 141.524 1443.07 Q139.603 1441.33 136.501 1441.33 Q134.302 1441.33 131.848 1442.1 Q129.418 1442.86 126.64 1444.41 L126.64 1439.69 Q129.464 1438.56 131.918 1437.98 Q134.371 1437.4 136.408 1437.4 Q141.779 1437.4 144.973 1440.08 Q148.168 1442.77 148.168 1447.26 Q148.168 1449.39 147.357 1451.31 Q146.57 1453.21 144.464 1455.8 Q143.885 1456.47 140.783 1459.69 Q137.681 1462.89 132.033 1468.65 Z" fill="#000000" fill-rule="nonzero" fill-opacity="1"></path><path clip-path="url(#clip690)" d="M97.7048 1282.3 L105.344 1282.3 L105.344 1255.93 L97.0335 1257.6 L97.0335 1253.34 L105.297 1251.67 L109.973 1251.67 L109.973 1282.3 L117.612 1282.3 L117.612 1286.23 L97.7048 1286.23 L97.7048 1282.3 Z" fill="#000000" fill-rule="nonzero" fill-opacity="1"></path><path clip-path="url(#clip690)" d="M141.223 1267.6 Q144.58 1268.31 146.455 1270.58 Q148.353 1272.85 148.353 1276.19 Q148.353 1281.3 144.834 1284.1 Q141.316 1286.9 134.834 1286.9 Q132.658 1286.9 130.344 1286.46 Q128.052 1286.05 125.598 1285.19 L125.598 1280.68 Q127.543 1281.81 129.857 1282.39 Q132.172 1282.97 134.695 1282.97 Q139.094 1282.97 141.385 1281.23 Q143.7 1279.5 143.7 1276.19 Q143.7 1273.13 141.547 1271.42 Q139.418 1269.68 135.598 1269.68 L131.57 1269.68 L131.57 1265.84 L135.783 1265.84 Q139.232 1265.84 141.061 1264.47 Q142.89 1263.08 142.89 1260.49 Q142.89 1257.83 140.992 1256.42 Q139.117 1254.98 135.598 1254.98 Q133.677 1254.98 131.478 1255.4 Q129.279 1255.81 126.64 1256.69 L126.64 1252.53 Q129.302 1251.79 131.617 1251.42 Q133.955 1251.05 136.015 1251.05 Q141.339 1251.05 144.441 1253.48 Q147.543 1255.88 147.543 1260 Q147.543 1262.88 145.899 1264.87 Q144.256 1266.83 141.223 1267.6 Z" fill="#000000" fill-rule="nonzero" fill-opacity="1"></path><path clip-path="url(#clip690)" d="M96.5706 1095.94 L104.209 1095.94 L104.209 1069.58 L95.8993 1071.24 L95.8993 1066.99 L104.163 1065.32 L108.839 1065.32 L108.839 1095.94 L116.478 1095.94 L116.478 1099.88 L96.5706 1099.88 L96.5706 1095.94 Z" fill="#000000" fill-rule="nonzero" fill-opacity="1"></path><path clip-path="url(#clip690)" d="M138.769 1069.39 L126.964 1087.84 L138.769 1087.84 L138.769 1069.39 M137.543 1065.32 L143.422 1065.32 L143.422 1087.84 L148.353 1087.84 L148.353 1091.73 L143.422 1091.73 L143.422 1099.88 L138.769 1099.88 L138.769 1091.73 L123.168 1091.73 L123.168 1087.22 L137.543 1065.32 Z" fill="#000000" fill-rule="nonzero" fill-opacity="1"></path><path clip-path="url(#clip690)" d="M98.0521 909.59 L105.691 909.59 L105.691 883.225 L97.3808 884.892 L97.3808 880.632 L105.645 878.966 L110.321 878.966 L110.321 909.59 L117.959 909.59 L117.959 913.526 L98.0521 913.526 L98.0521 909.59 Z" fill="#000000" fill-rule="nonzero" fill-opacity="1"></path><path clip-path="url(#clip690)" d="M127.45 878.966 L145.806 878.966 L145.806 882.901 L131.732 882.901 L131.732 891.373 Q132.751 891.026 133.769 890.864 Q134.788 890.679 135.806 890.679 Q141.593 890.679 144.973 893.85 Q148.353 897.021 148.353 902.438 Q148.353 908.016 144.881 911.118 Q141.408 914.197 135.089 914.197 Q132.913 914.197 130.644 913.827 Q128.399 913.456 125.992 912.715 L125.992 908.016 Q128.075 909.151 130.297 909.706 Q132.519 910.262 134.996 910.262 Q139.001 910.262 141.339 908.155 Q143.677 906.049 143.677 902.438 Q143.677 898.827 141.339 896.72 Q139.001 894.614 134.996 894.614 Q133.121 894.614 131.246 895.03 Q129.394 895.447 127.45 896.327 L127.45 878.966 Z" fill="#000000" fill-rule="nonzero" fill-opacity="1"></path><polyline clip-path="url(#clip693)" style="stroke:#009af9; stroke-linecap:round; stroke-linejoin:round; stroke-width:4; stroke-opacity:1; fill:none" points="245.723,865.335 262.22,1154.83 278.717,1330.15 295.214,1385.89 311.712,1388.37 328.209,1403.49 344.706,1418.33 361.204,1424.47 377.701,1430.52 394.198,1436.22 410.695,1440.26 427.193,1443.33 443.69,1446.23 460.187,1447.82 476.685,1449.71 493.182,1450.76 509.679,1452.05 526.176,1453.06 542.674,1453.91 559.171,1454.77 575.668,1455.27 592.166,1455.69 608.663,1455.66 625.16,1456.62 641.657,1456.84 658.155,1457.04 674.652,1457.13 691.149,1457.38 707.647,1457.61 724.144,1457.73 740.641,1457.69 757.138,1457.77 773.636,1457.85 790.133,1458.01 806.63,1458.02 823.128,1457.69 839.625,1458.17 856.122,1457.9 872.619,1458.09 889.117,1458.25 905.614,1458.29 922.111,1458.15 938.609,1458.33 955.106,1458.36 971.603,1458.37 988.1,1458.46 1004.6,1458.15 1021.1,1458.1 1037.59,1458.4 1054.09,1458.28 1070.59,1458.82 1087.08,1458.77 1103.58,1458.78 1120.08,1458.76 1136.58,1458.88 1153.07,1458.89 1169.57,1459.1 1186.07,1459.11 1202.57,1459.16 1219.06,1459.3 1235.56,1459.36 1252.06,1459.3 1268.55,1459.34 1285.05,1459.5 1301.55,1459.64 1318.05,1459.78 1334.54,1459.89 1351.04,1459.69 1367.54,1460.02 1384.04,1460 1400.53,1459.97 1417.03,1460.32 1433.53,1460.37 1450.02,1460.38 1466.52,1460.61 1483.02,1460.59 1499.52,1460.91 1516.01,1460.68 1532.51,1460.76 1549.01,1461.21 1565.51,1461.06 1582,1460.66 1598.5,1461.55 1615,1461.3 1631.49,1460.67 1647.99,1460.52 1664.49,1461.72 1680.99,1461.82 1697.48,1461.63 1713.98,1461.84 1730.48,1462.37 1746.98,1462.26 1763.47,1462.53 1779.97,1462.52 1796.47,1462.84 1812.96,1462.73 1829.46,1461.75 1845.96,1463.22 1862.46,1463.2 1878.95,1463.33 1895.45,1463.42 1911.95,1463.84 1928.45,1463.87 1944.94,1464.2 1961.44,1463.97 1977.94,1464.51 1994.43,1464.67 2010.93,1464.71 2027.43,1465.01 2043.93,1465.25 2060.42,1464.96 2076.92,1464.8 2093.42,1465.64 2109.92,1465.56 2126.41,1465.99 2142.91,1465.79 2159.41,1466.06 2175.91,1466.71 2192.4,1467.02 2208.9,1466.7 2225.4,1467.54 2241.89,1467.46 2258.39,1467.96 2274.89,1468.02 2291.39,1468.36 "></polyline>
<polyline clip-path="url(#clip693)" style="stroke:#e26f46; stroke-linecap:round; stroke-linejoin:round; stroke-width:4; stroke-opacity:1; fill:none" points="245.723,1054.01 262.22,1279.6 278.717,1384.93 295.214,1392.36 311.712,1398.5 328.209,1413.66 344.706,1418.66 361.204,1422.09 377.701,1427.24 394.198,1431.05 410.695,1433.3 427.193,1435 443.69,1436.39 460.187,1437.81 476.685,1439.07 493.182,1440.18 509.679,1441.61 526.176,1442.72 542.674,1443.66 559.171,1444.45 575.668,1445.03 592.166,1446 608.663,1446.96 625.16,1447.1 641.657,1447.5 658.155,1447.89 674.652,1448.52 691.149,1448.42 707.647,1448.62 724.144,1448.97 740.641,1449.14 757.138,1448.75 773.636,1449.01 790.133,1449.18 806.63,1449.61 823.128,1449.46 839.625,1449.25 856.122,1449.47 872.619,1449.62 889.117,1449.65 905.614,1449.75 922.111,1449.79 938.609,1449.87 955.106,1449.8 971.603,1449.93 988.1,1449.75 1004.6,1450.09 1021.1,1450.22 1037.59,1449.86 1054.09,1450.35 1070.59,1450.22 1087.08,1450.32 1103.58,1450.54 1120.08,1450.66 1136.58,1450.57 1153.07,1450.67 1169.57,1450.78 1186.07,1451.3 1202.57,1451.12 1219.06,1451.2 1235.56,1451.27 1252.06,1451.26 1268.55,1451.67 1285.05,1451.86 1301.55,1451.55 1318.05,1451.73 1334.54,1451.79 1351.04,1452.28 1367.54,1452.14 1384.04,1452.74 1400.53,1452.01 1417.03,1452.65 1433.53,1452.93 1450.02,1453.02 1466.52,1453.44 1483.02,1453.63 1499.52,1453.23 1516.01,1453.56 1532.51,1453.54 1549.01,1453.42 1565.51,1453.61 1582,1454.19 1598.5,1453.43 1615,1454.33 1631.49,1454.47 1647.99,1453.69 1664.49,1454.88 1680.99,1454.53 1697.48,1454.33 1713.98,1454.96 1730.48,1454.54 1746.98,1455.11 1763.47,1455.44 1779.97,1455.08 1796.47,1455.23 1812.96,1455.87 1829.46,1455.71 1845.96,1454.86 1862.46,1455.95 1878.95,1456.07 1895.45,1455.84 1911.95,1456.25 1928.45,1456.04 1944.94,1455.92 1961.44,1455.98 1977.94,1456.08 1994.43,1456.24 2010.93,1456.52 2027.43,1456.48 2043.93,1456.17 2060.42,1456.33 2076.92,1456.08 2093.42,1456.53 2109.92,1455.54 2126.41,1456.64 2142.91,1456.23 2159.41,1456.35 2175.91,1456.44 2192.4,1456.23 2208.9,1455.87 2225.4,1456.23 2241.89,1456.31 2258.39,1455.92 2274.89,1455.55 2291.39,1455.53 "></polyline>
<path clip-path="url(#clip690)" d="M1958.59 1024.07 L2280.48 1024.07 L2280.48 868.551 L1958.59 868.551  Z" fill="#ffffff" fill-rule="evenodd" fill-opacity="1"></path>
<polyline clip-path="url(#clip690)" style="stroke:#000000; stroke-linecap:round; stroke-linejoin:round; stroke-width:4; stroke-opacity:1; fill:none" points="1958.59,1024.07 2280.48,1024.07 2280.48,868.551 1958.59,868.551 1958.59,1024.07 "></polyline>
<polyline clip-path="url(#clip690)" style="stroke:#009af9; stroke-linecap:round; stroke-linejoin:round; stroke-width:4; stroke-opacity:1; fill:none" points="1982.68,920.391 2127.24,920.391 "></polyline>
<path clip-path="url(#clip690)" d="M2158.74 904.384 L2158.74 911.745 L2167.52 911.745 L2167.52 915.055 L2158.74 915.055 L2158.74 929.129 Q2158.74 932.301 2159.6 933.203 Q2160.48 934.106 2163.14 934.106 L2167.52 934.106 L2167.52 937.671 L2163.14 937.671 Q2158.21 937.671 2156.34 935.842 Q2154.46 933.99 2154.46 929.129 L2154.46 915.055 L2151.34 915.055 L2151.34 911.745 L2154.46 911.745 L2154.46 904.384 L2158.74 904.384 Z" fill="#000000" fill-rule="nonzero" fill-opacity="1"></path><path clip-path="url(#clip690)" d="M2188.14 915.727 Q2187.42 915.31 2186.57 915.125 Q2185.73 914.916 2184.72 914.916 Q2181.11 914.916 2179.16 917.277 Q2177.24 919.615 2177.24 924.014 L2177.24 937.671 L2172.96 937.671 L2172.96 911.745 L2177.24 911.745 L2177.24 915.773 Q2178.58 913.412 2180.73 912.278 Q2182.89 911.12 2185.97 911.12 Q2186.41 911.12 2186.94 911.19 Q2187.47 911.236 2188.12 911.352 L2188.14 915.727 Z" fill="#000000" fill-rule="nonzero" fill-opacity="1"></path><path clip-path="url(#clip690)" d="M2204.39 924.639 Q2199.23 924.639 2197.24 925.819 Q2195.25 927 2195.25 929.847 Q2195.25 932.115 2196.73 933.458 Q2198.23 934.777 2200.8 934.777 Q2204.35 934.777 2206.48 932.277 Q2208.63 929.754 2208.63 925.588 L2208.63 924.639 L2204.39 924.639 M2212.89 922.879 L2212.89 937.671 L2208.63 937.671 L2208.63 933.736 Q2207.17 936.097 2204.99 937.231 Q2202.82 938.342 2199.67 938.342 Q2195.69 938.342 2193.33 936.12 Q2190.99 933.875 2190.99 930.125 Q2190.99 925.75 2193.91 923.527 Q2196.85 921.305 2202.66 921.305 L2208.63 921.305 L2208.63 920.889 Q2208.63 917.949 2206.68 916.352 Q2204.76 914.731 2201.27 914.731 Q2199.04 914.731 2196.94 915.264 Q2194.83 915.796 2192.89 916.861 L2192.89 912.926 Q2195.23 912.023 2197.42 911.583 Q2199.62 911.12 2201.71 911.12 Q2207.33 911.12 2210.11 914.037 Q2212.89 916.953 2212.89 922.879 Z" fill="#000000" fill-rule="nonzero" fill-opacity="1"></path><path clip-path="url(#clip690)" d="M2221.66 911.745 L2225.92 911.745 L2225.92 937.671 L2221.66 937.671 L2221.66 911.745 M2221.66 901.653 L2225.92 901.653 L2225.92 907.046 L2221.66 907.046 L2221.66 901.653 Z" fill="#000000" fill-rule="nonzero" fill-opacity="1"></path><path clip-path="url(#clip690)" d="M2256.38 922.023 L2256.38 937.671 L2252.12 937.671 L2252.12 922.162 Q2252.12 918.481 2250.69 916.652 Q2249.25 914.824 2246.38 914.824 Q2242.93 914.824 2240.94 917.023 Q2238.95 919.222 2238.95 923.018 L2238.95 937.671 L2234.67 937.671 L2234.67 911.745 L2238.95 911.745 L2238.95 915.773 Q2240.48 913.435 2242.54 912.278 Q2244.62 911.12 2247.33 911.12 Q2251.8 911.12 2254.09 913.898 Q2256.38 916.652 2256.38 922.023 Z" fill="#000000" fill-rule="nonzero" fill-opacity="1"></path><polyline clip-path="url(#clip690)" style="stroke:#e26f46; stroke-linecap:round; stroke-linejoin:round; stroke-width:4; stroke-opacity:1; fill:none" points="1982.68,972.231 2127.24,972.231 "></polyline>
<path clip-path="url(#clip690)" d="M2158.74 956.224 L2158.74 963.585 L2167.52 963.585 L2167.52 966.895 L2158.74 966.895 L2158.74 980.969 Q2158.74 984.141 2159.6 985.043 Q2160.48 985.946 2163.14 985.946 L2167.52 985.946 L2167.52 989.511 L2163.14 989.511 Q2158.21 989.511 2156.34 987.682 Q2154.46 985.83 2154.46 980.969 L2154.46 966.895 L2151.34 966.895 L2151.34 963.585 L2154.46 963.585 L2154.46 956.224 L2158.74 956.224 Z" fill="#000000" fill-rule="nonzero" fill-opacity="1"></path><path clip-path="url(#clip690)" d="M2195.29 975.483 L2195.29 977.567 L2175.71 977.567 Q2175.99 981.965 2178.35 984.279 Q2180.73 986.571 2184.97 986.571 Q2187.42 986.571 2189.72 985.969 Q2192.03 985.367 2194.3 984.164 L2194.3 988.191 Q2192.01 989.164 2189.6 989.673 Q2187.19 990.182 2184.72 990.182 Q2178.51 990.182 2174.88 986.571 Q2171.27 982.96 2171.27 976.803 Q2171.27 970.437 2174.69 966.71 Q2178.14 962.96 2183.98 962.96 Q2189.21 962.96 2192.24 966.34 Q2195.29 969.696 2195.29 975.483 M2191.04 974.233 Q2190.99 970.738 2189.07 968.655 Q2187.17 966.571 2184.02 966.571 Q2180.46 966.571 2178.3 968.585 Q2176.17 970.599 2175.85 974.256 L2191.04 974.233 Z" fill="#000000" fill-rule="nonzero" fill-opacity="1"></path><path clip-path="url(#clip690)" d="M2218.81 964.349 L2218.81 968.377 Q2217.01 967.451 2215.06 966.988 Q2213.12 966.525 2211.04 966.525 Q2207.86 966.525 2206.27 967.497 Q2204.69 968.469 2204.69 970.414 Q2204.69 971.895 2205.83 972.752 Q2206.96 973.585 2210.39 974.349 L2211.85 974.673 Q2216.38 975.645 2218.28 977.428 Q2220.2 979.187 2220.2 982.358 Q2220.2 985.969 2217.33 988.076 Q2214.48 990.182 2209.48 990.182 Q2207.4 990.182 2205.13 989.766 Q2202.89 989.372 2200.39 988.562 L2200.39 984.164 Q2202.75 985.391 2205.04 986.016 Q2207.33 986.617 2209.58 986.617 Q2212.59 986.617 2214.21 985.599 Q2215.83 984.557 2215.83 982.682 Q2215.83 980.946 2214.65 980.02 Q2213.49 979.094 2209.53 978.238 L2208.05 977.891 Q2204.09 977.057 2202.33 975.344 Q2200.57 973.608 2200.57 970.599 Q2200.57 966.942 2203.17 964.951 Q2205.76 962.96 2210.53 962.96 Q2212.89 962.96 2214.97 963.307 Q2217.05 963.655 2218.81 964.349 Z" fill="#000000" fill-rule="nonzero" fill-opacity="1"></path><path clip-path="url(#clip690)" d="M2231.2 956.224 L2231.2 963.585 L2239.97 963.585 L2239.97 966.895 L2231.2 966.895 L2231.2 980.969 Q2231.2 984.141 2232.05 985.043 Q2232.93 985.946 2235.6 985.946 L2239.97 985.946 L2239.97 989.511 L2235.6 989.511 Q2230.66 989.511 2228.79 987.682 Q2226.91 985.83 2226.91 980.969 L2226.91 966.895 L2223.79 966.895 L2223.79 963.585 L2226.91 963.585 L2226.91 956.224 L2231.2 956.224 Z" fill="#000000" fill-rule="nonzero" fill-opacity="1"></path></svg>